<svg width="32" height="32" viewBox="0 0 32 32" fill="none" xmlns="http://www.w3.org/2000/svg">
<path fill-rule="evenodd" clip-rule="evenodd" d="M15.8868 8.25967C16.5888 8.25967 17.1579 8.82879 17.1579 9.53084L17.1579 14.6155L22.2426 14.6155C22.9446 14.6155 23.5137 15.1846 23.5137 15.8867C23.5137 16.5887 22.9446 17.1578 22.2426 17.1578H17.1579L17.1579 22.2425C17.1579 22.9445 16.5888 23.5137 15.8868 23.5137C15.1847 23.5137 14.6156 22.9445 14.6156 22.2425L14.6156 17.1578H9.53093C8.82889 17.1578 8.25977 16.5887 8.25977 15.8867C8.25977 15.1846 8.82889 14.6155 9.53093 14.6155H14.6156L14.6156 9.53084C14.6156 8.82879 15.1847 8.25967 15.8868 8.25967Z" fill="#006A66"/>
</svg>
