<svg width="32" height="32" viewBox="0 0 32 32" fill="none" xmlns="http://www.w3.org/2000/svg">
<path fill-rule="evenodd" clip-rule="evenodd" d="M18.5049 4.94241C20.067 3.38031 22.5997 3.38031 24.1618 4.94241L27.0572 7.83784C28.6193 9.39994 28.6193 11.9326 27.0572 13.4947L12.9428 27.6091C12.6928 27.8591 12.3536 27.9996 12 27.9996H5.33333C4.59695 27.9996 4 27.4026 4 26.6663V19.9996C4 19.646 4.14048 19.3068 4.39052 19.0568L18.5049 4.94241ZM22.2761 6.82802C21.7554 6.30733 20.9112 6.30732 20.3905 6.82802L19.219 7.9996L24 12.7806L25.1716 11.6091C25.6923 11.0884 25.6923 10.2442 25.1716 9.72346L22.2761 6.82802ZM22.1144 14.6663L17.3333 9.88521L6.66667 20.5519V25.3329H11.4477L22.1144 14.6663Z" fill="#006A66"/>
</svg>
