<svg width="38" height="38" viewBox="0 0 38 38" fill="none" xmlns="http://www.w3.org/2000/svg">
<path fill-rule="evenodd" clip-rule="evenodd" d="M18.8687 9.94891C19.7287 9.94891 20.4259 10.6461 20.4259 11.5061L20.4259 17.7348L26.6546 17.7348C27.5146 17.7348 28.2118 18.432 28.2118 19.292C28.2118 20.152 27.5146 20.8492 26.6546 20.8492H20.4259L20.4259 27.0779C20.4259 27.9379 19.7287 28.635 18.8687 28.635C18.0087 28.635 17.3115 27.9379 17.3115 27.0779L17.3115 20.8492H11.0828C10.2228 20.8492 9.52563 20.152 9.52563 19.292C9.52563 18.432 10.2228 17.7348 11.0828 17.7348H17.3115L17.3115 11.5061C17.3115 10.6461 18.0087 9.94891 18.8687 9.94891Z" fill="#006A66"/>
</svg>
