<svg width="32" height="32" viewBox="0 0 32 32" fill="none" xmlns="http://www.w3.org/2000/svg">
<path fill-rule="evenodd" clip-rule="evenodd" d="M15.8872 8.25964C16.5893 8.25964 17.1584 8.82876 17.1584 9.53081L17.1584 14.6155L22.2431 14.6155C22.9451 14.6155 23.5142 15.1846 23.5142 15.8866C23.5142 16.5887 22.9451 17.1578 22.2431 17.1578H17.1584L17.1584 22.2425C17.1584 22.9445 16.5893 23.5136 15.8872 23.5136C15.1852 23.5136 14.6161 22.9445 14.6161 22.2425L14.6161 17.1578H9.53142C8.82937 17.1578 8.26025 16.5887 8.26025 15.8866C8.26025 15.1846 8.82937 14.6155 9.53142 14.6155H14.6161L14.6161 9.53081C14.6161 8.82876 15.1852 8.25964 15.8872 8.25964Z" fill="#006A66"/>
</svg>
