<svg width="499" height="181" viewBox="0 0 499 181" fill="none" xmlns="http://www.w3.org/2000/svg">
<path d="M498.587 94.2493H412.512V180.325H498.587V94.2493Z" fill="#EBEBEB"/>
<path d="M456.979 108.064C458.612 108.064 459.905 109.356 459.905 110.99V112.487C463.92 112.964 467.323 114.257 470.453 116.23C471.542 116.842 472.496 117.863 472.496 119.497C472.496 121.606 470.794 123.24 468.684 123.24C468.003 123.24 467.323 123.036 466.643 122.627C464.261 121.198 461.947 120.177 459.634 119.633V132.698C469.978 135.284 474.402 139.436 474.402 146.717C474.402 154.203 468.549 159.171 459.906 159.987V164.07C459.906 165.704 458.613 166.997 456.98 166.997C455.347 166.997 453.986 165.704 453.986 164.07V159.851C448.882 159.307 444.186 157.469 440.034 154.543C438.878 153.794 438.197 152.706 438.197 151.276C438.197 149.167 439.831 147.533 441.941 147.533C442.758 147.533 443.573 147.806 444.187 148.282C447.385 150.596 450.515 152.161 454.258 152.841V139.435C444.322 136.848 439.695 133.106 439.695 125.416C439.695 118.135 445.479 113.098 453.986 112.418V110.989C453.985 109.357 455.346 108.064 456.979 108.064ZM454.257 131.269V119.225C449.902 119.633 447.724 121.946 447.724 124.94C447.724 127.799 449.016 129.568 454.257 131.269ZM459.633 140.728V153.114C463.988 152.638 466.371 150.461 466.371 147.194C466.371 144.199 464.874 142.362 459.633 140.728Z" fill="white"/>
<path d="M86.4885 0.465706H0.413269V86.5409H86.4885V0.465706Z" fill="#EBEBEB"/>
<path d="M69.4743 41.6137H17.4277V34.2328H69.4743V41.6137Z" fill="white"/>
<path d="M20.3288 40.0512L20.4266 41.6153L22.0559 67.4321H64.8503L66.4715 41.6153L66.5693 40.0512H20.3288ZM36.1659 61.7295C36.1659 62.5115 35.5468 63.147 34.7647 63.147H34.5447C33.9011 63.147 33.3798 62.6256 33.3798 61.9739V45.9738C33.3798 45.3384 33.9011 44.817 34.5447 44.817H34.9928C35.6608 44.817 36.1659 45.3384 36.1659 45.9738V61.7295ZM44.834 61.7295C44.834 62.5115 44.2148 63.147 43.4327 63.147H43.2128C42.5692 63.147 42.0478 62.6256 42.0478 61.9739V45.9738C42.0478 45.3384 42.5692 44.817 43.2128 44.817H43.6609C44.3289 44.817 44.834 45.3384 44.834 45.9738V61.7295ZM53.5102 61.7295C53.5102 62.5115 52.8829 63.147 52.1089 63.147H51.8808C51.2454 63.147 50.7159 62.6256 50.7159 61.9739V45.9738C50.7159 45.3384 51.2454 44.817 51.8808 44.817H52.3289C52.9969 44.817 53.5102 45.3384 53.5102 45.9738V61.7295Z" fill="white"/>
<path d="M48.9863 37.0947C48.9863 40.1522 46.508 42.6304 43.4506 42.6304C40.3932 42.6304 37.9149 40.1522 37.9149 37.0947C37.9149 34.0373 40.3932 31.5591 43.4506 31.5591C46.508 31.5599 48.9863 34.0381 48.9863 37.0947Z" fill="white"/>
<path d="M58.6253 36.6442H56.1813V22.0185H30.7214V36.6442H28.2774V19.5745H58.6253V36.6442Z" fill="white"/>
</svg>
