<svg width="295" height="250" viewBox="0 0 295 250" fill="none" xmlns="http://www.w3.org/2000/svg">
<path d="M110.846 116.901C149.952 80.9251 218.609 -50.558 276.845 21.5741C325.578 81.9358 264.678 169.454 224.99 206.528C173.362 254.756 85.0071 267.225 26.3142 221.361C1.07006 201.635 -13.747 167.635 19.4406 150.876C30.6334 145.224 52.2089 147.745 65.2572 143.193C81.9574 137.368 97.7582 128.942 110.846 116.901Z" fill="#407BFF"/>
<path opacity="0.9" d="M110.846 116.901C149.952 80.9251 218.609 -50.558 276.845 21.5741C325.578 81.9358 264.678 169.454 224.99 206.528C173.362 254.756 85.0071 267.225 26.3142 221.361C1.07006 201.635 -13.747 167.635 19.4406 150.876C30.6334 145.224 52.2089 147.745 65.2572 143.193C81.9574 137.368 97.7582 128.942 110.846 116.901Z" fill="white"/>
</svg>
