<svg width="384" height="277" viewBox="0 0 384 277" fill="none" xmlns="http://www.w3.org/2000/svg">
<path d="M384 261.682H0V261.874H384V261.682Z" fill="#EE1D52"/>
<path d="M345.524 274.043H320.086V274.235H345.524V274.043Z" fill="#EE1D52"/>
<path d="M254.377 276.128H247.701V276.32H254.377V276.128Z" fill="#EE1D52"/>
<path d="M319.318 266.912H304.578V267.104H319.318V266.912Z" fill="#EE1D52"/>
<path d="M73.4608 268.203H40.2886V268.395H73.4608V268.203Z" fill="#EE1D52"/>
<path d="M85.1628 268.203H80.2991V268.395H85.1628V268.203Z" fill="#EE1D52"/>
<path d="M172.913 271.445H100.97V271.637H172.913V271.445Z" fill="#EE1D52"/>
<path d="M182.027 227.43H33.7268C31.3099 227.43 29.343 225.464 29.343 223.047V14.5869C29.343 12.17 31.3099 10.2031 33.7268 10.2031H182.027C184.443 10.2031 186.41 12.17 186.41 14.5869V223.047C186.41 225.464 184.443 227.43 182.027 227.43ZM33.7268 10.3959C31.4151 10.3959 29.535 12.276 29.535 14.5876V223.047C29.535 225.359 31.4151 227.239 33.7268 227.239H182.027C184.338 227.239 186.218 225.359 186.218 223.047V14.5869C186.218 12.276 184.338 10.3951 182.027 10.3951L33.7268 10.3959Z" fill="#EE1D52"/>
<path d="M348.142 227.43H199.843C197.426 227.43 195.46 225.464 195.46 223.047V14.5869C195.46 12.17 197.427 10.2031 199.843 10.2031H348.142C350.56 10.2031 352.526 12.17 352.526 14.5869V223.047C352.526 225.464 350.56 227.43 348.142 227.43ZM199.843 10.3959C197.532 10.3959 195.652 12.276 195.652 14.5876V223.047C195.652 225.359 197.532 227.239 199.843 227.239H348.142C350.454 227.239 352.334 225.359 352.334 223.047V14.5869C352.334 12.276 350.454 10.3951 348.142 10.3951L199.843 10.3959Z" fill="#EE1D52"/>
<path d="M213.295 91.4115L212.95 81.3192L219.146 79.2947C219.401 75.8464 219.977 72.4411 220.798 69.1602L215.546 65.2879L219.114 55.8085L225.609 56.3315C227.158 53.2664 228.977 50.3503 231.016 47.6147L227.652 41.9983L234.57 34.6171L240.377 37.5908C242.993 35.3674 245.75 33.3545 248.702 31.5743L247.762 25.1277L256.976 20.9459L261.198 25.8934C264.414 24.8497 267.747 24.0694 271.194 23.5517L272.764 17.2326L282.883 16.8863L284.881 23.0833C288.357 23.3636 291.735 23.9142 295.015 24.7352L298.915 19.509L308.394 23.0502L307.87 29.5467C310.936 31.1211 313.851 32.9398 316.587 34.9796L322.176 31.6157L329.584 38.5055L326.611 44.3392C328.833 46.9289 330.848 49.7137 332.603 52.6658L339.048 51.6989L343.255 60.9119L338.282 65.1343C339.325 68.3515 340.134 71.7099 340.624 75.1322L346.97 76.7265L347.316 86.8188L341.094 88.8456C340.839 92.3192 340.262 95.6992 339.442 98.9793L344.692 102.852L341.125 112.332L334.629 111.807C333.081 114.872 331.262 117.788 329.223 120.524L332.588 126.14L325.669 133.522L319.862 130.548C317.273 132.771 314.489 134.786 311.538 136.566L312.505 143.01L303.29 147.192L299.042 142.245C295.825 143.289 292.493 144.069 289.045 144.587L287.475 150.906L277.356 151.252L275.357 145.055C271.881 144.775 268.504 144.224 265.224 143.404L261.351 148.629L251.872 145.088L252.37 138.594C249.303 137.019 246.415 135.198 243.653 133.159L238.063 136.525L230.655 129.633L233.627 123.8C231.406 121.21 229.391 118.425 227.637 115.473L221.192 116.441L216.984 107.227L221.958 103.004C220.915 99.788 220.107 96.4564 219.617 93.0081L213.295 91.4115ZM281.491 124.106C303.593 123.349 320.9 104.814 320.143 82.7115C319.385 60.5832 300.85 43.2778 278.748 44.0351C256.647 44.7923 239.34 63.3257 240.098 85.4541C240.855 107.556 259.39 124.863 281.491 124.106Z" fill="#EE1D52"/>
<path d="M91.9865 211.022L91.8306 206.472L94.6246 205.559C94.7398 204.004 94.9993 202.468 95.3695 200.989L93.0018 199.242L94.61 194.969L97.5391 195.204C98.2372 193.822 99.0574 192.507 99.9767 191.274L98.4599 188.742L101.58 185.413L104.198 186.754C105.378 185.752 106.621 184.844 107.952 184.041L107.528 181.134L111.683 179.248L113.587 181.479C115.038 181.009 116.54 180.657 118.095 180.423L118.803 177.574L123.365 177.417L124.266 180.211C125.833 180.338 127.357 180.586 128.836 180.956L130.595 178.6L134.869 180.197L134.632 183.126C136.014 183.836 137.329 184.656 138.563 185.576L141.083 184.059L144.423 187.166L143.082 189.796C144.084 190.964 144.992 192.219 145.783 193.551L148.689 193.115L150.587 197.269L148.345 199.173C148.815 200.623 149.179 202.138 149.401 203.681L152.262 204.4L152.418 208.95L149.613 209.864C149.498 211.431 149.238 212.954 148.868 214.433L151.235 216.179L149.627 220.454L146.698 220.217C146 221.6 145.18 222.915 144.26 224.148L145.778 226.68L142.658 230.009L140.04 228.668C138.873 229.67 137.617 230.578 136.286 231.381L136.722 234.287L132.568 236.173L130.652 233.942C129.201 234.413 127.699 234.765 126.144 234.998L125.437 237.848L120.874 238.003L119.972 235.209C118.406 235.083 116.883 234.835 115.403 234.465L113.656 236.821L109.382 235.224L109.607 232.296C108.224 231.586 106.922 230.765 105.676 229.845L103.155 231.363L99.8155 228.255L101.156 225.625C100.154 224.457 99.2456 223.202 98.4546 221.87L95.5485 222.306L93.6507 218.151L95.8941 216.248C95.4233 214.798 95.0592 213.295 94.8381 211.74L91.9865 211.022ZM122.736 225.764C132.702 225.422 140.506 217.065 140.165 207.099C139.823 197.121 131.466 189.318 121.499 189.659C111.534 190.001 103.729 198.358 104.072 208.336C104.413 218.302 112.771 226.106 122.736 225.764Z" fill="black" fill-opacity="0.1"/>
<path d="M90.388 41.7595L87.8428 39.3825L88.8604 37.378C88.0817 36.4749 87.392 35.5041 86.7922 34.5042L84.5673 34.8406L83.1258 31.6595L84.8377 30.2034C84.4675 29.0783 84.2002 27.924 84.0305 26.7597L81.8409 26.2106L81.728 22.7238L83.8692 22.0326C83.9652 20.853 84.1465 19.6895 84.4322 18.5359L82.6312 17.1935L83.8585 13.9272L86.0941 14.1038C86.624 13.0647 87.2461 12.0617 87.9603 11.0955L86.8022 9.17171L89.1853 6.61964L91.1836 7.64338C92.0999 6.86463 93.0576 6.17497 94.0575 5.57516L93.7342 3.3495L96.9091 1.90182L98.3652 3.61369C99.4965 3.24966 100.651 2.98239 101.816 2.81266L102.359 0.629241L105.846 0.503288L106.543 2.65062C107.716 2.74047 108.886 2.92787 110.034 3.22047L111.37 1.41337L114.642 2.63372L114.459 4.87628C115.499 5.4062 116.515 6.02828 117.468 6.74329L119.405 5.58438L121.95 7.96134L120.927 9.97273C121.712 10.882 122.395 11.8467 122.995 12.8466L125.22 12.5102L126.661 15.692L124.95 17.1482C125.32 18.2733 125.587 19.4276 125.757 20.5919L127.947 21.141L128.06 24.6285L125.919 25.3189C125.829 26.4924 125.642 27.6628 125.357 28.8164L127.164 30.1519L125.936 33.4182L123.694 33.2477C123.164 34.2868 122.542 35.2898 121.828 36.2568L122.986 38.1806L120.603 40.7327L118.604 39.7089C117.689 40.4877 116.73 41.1773 115.73 41.7771L116.06 43.9959L112.885 45.4436L111.423 43.7386C110.291 44.1026 109.143 44.363 107.972 44.5389L107.43 46.7223L103.943 46.8483L103.246 44.7009C102.072 44.6111 100.903 44.4237 99.7545 44.1311L98.419 45.9389L95.1465 44.7186L95.3301 42.476C94.2917 41.9461 93.2818 41.3309 92.3211 40.6098L90.388 41.7595ZM108.525 27.0669C110.397 25.0616 110.29 21.9167 108.285 20.0443C106.277 18.1696 103.132 18.2771 101.26 20.2824C99.3874 22.2876 99.4949 25.4318 101.502 27.3073C103.508 29.1796 106.653 29.0721 108.525 27.0669Z" fill="#EE1D52"/>
<path d="M160.804 206.866L166.611 202.854C166.613 202.85 166.613 202.844 166.614 202.841C167.189 200.731 167.981 198.7 168.95 196.791L167.462 190.951L175.886 181.929L181.816 183.015C183.652 181.919 185.623 180.99 187.688 180.273C187.692 180.271 187.698 180.271 187.702 180.268L191.308 174.197L203.644 173.775L207.655 179.582C207.662 179.585 207.67 179.586 207.678 179.588C209.786 180.162 211.814 180.953 213.721 181.92L219.558 180.433L228.58 188.858L227.496 194.776C227.498 194.778 227.498 194.779 227.499 194.781C228.618 196.638 229.525 198.61 230.242 200.675L236.313 204.279L236.735 216.615L230.922 220.63C230.348 222.754 229.58 224.78 228.593 226.705C228.593 226.705 228.592 226.706 228.592 226.708L230.076 232.529L221.652 241.55L215.759 240.472C213.899 241.572 211.926 242.502 209.836 243.22C209.834 243.22 209.833 243.221 209.831 243.221L206.231 249.284L193.895 249.706L189.887 243.902C187.754 243.329 185.722 242.537 183.793 241.567L183.791 241.566L177.981 243.047L168.959 234.623L170.043 228.705C168.924 226.847 168.017 224.874 167.299 222.81L167.299 222.809L161.227 219.204L160.804 206.866ZM199.247 225.618C206.916 225.355 212.906 218.917 212.644 211.271C212.381 203.602 205.965 197.611 198.297 197.874C190.628 198.137 184.637 204.552 184.9 212.221C185.162 219.868 191.579 225.881 199.247 225.618Z" fill="#EE1D52"/>
<path d="M56.909 60.8911C56.6233 60.8911 56.3552 60.7506 56.1916 60.5148L54.0489 57.4121C53.0037 57.1118 51.9676 56.7147 50.9593 56.2278L47.9042 57.0058C47.6154 57.078 47.3113 57.0004 47.0947 56.7977L41.8684 51.9178C41.6511 51.7151 41.5528 51.4163 41.6058 51.1245L42.1749 48.0148C41.6365 47.0817 41.1703 46.0787 40.7856 45.0258L37.5377 43.0966C37.282 42.9453 37.1214 42.6742 37.1115 42.377L36.8665 35.2299C36.8565 34.9327 36.9978 34.6516 37.242 34.4827L40.3478 32.3377C40.6435 31.3101 41.0436 30.2694 41.5321 29.2649L40.7495 26.1952C40.6765 25.9072 40.7548 25.6023 40.9568 25.385L45.8367 20.1579C46.0395 19.9406 46.3382 19.8438 46.6308 19.8953L49.7481 20.4659C50.7051 19.9168 51.7058 19.4498 52.7303 19.0743L54.6587 15.8272C54.81 15.5722 55.0811 15.4117 55.3783 15.4017L62.5246 15.1567C62.8203 15.1514 63.1029 15.2881 63.2711 15.5323L65.4169 18.6388C66.4767 18.9468 67.5035 19.3431 68.4904 19.8231L71.5586 19.0405C71.8458 18.9683 72.1515 19.0451 72.3688 19.2486L77.595 24.1293C77.8124 24.332 77.9107 24.6308 77.8577 24.9226L77.2878 28.033C77.8354 28.9823 78.2978 29.9791 78.6795 31.0228L81.9258 32.9498C82.1808 33.101 82.342 33.3722 82.352 33.6694L82.597 40.8164C82.607 41.1136 82.4657 41.3947 82.2215 41.5636L79.1134 43.7102C78.8031 44.79 78.4076 45.8237 77.9337 46.7922L78.7125 49.8511C78.7854 50.1384 78.7071 50.4433 78.5051 50.6606L73.6252 55.8868C73.4225 56.1042 73.1237 56.2025 72.8311 56.1495L69.7338 55.5827C68.7592 56.138 67.7508 56.6057 66.7278 56.9766L64.804 60.2168C64.6527 60.4726 64.3816 60.6331 64.0844 60.6431L56.9381 60.8881C56.9289 60.8911 56.9189 60.8911 56.909 60.8911ZM51.056 54.433C51.1912 54.433 51.3248 54.4645 51.4477 54.5259C52.5421 55.0758 53.6741 55.5105 54.8139 55.8162C55.0135 55.8699 55.1871 55.9921 55.3046 56.1625L57.3559 59.1332L63.5499 58.9212L65.3915 55.8193C65.5021 55.6326 65.6772 55.4967 65.8777 55.433C66.9867 55.0513 68.0811 54.5421 69.1309 53.9215C69.3114 53.8148 69.5249 53.7771 69.7315 53.814L72.6768 54.3531L76.9069 49.8235L76.165 46.912C76.1128 46.7062 76.1374 46.4881 76.2341 46.2991C76.7656 45.2623 77.1972 44.1357 77.5182 42.9483C77.572 42.7494 77.6949 42.5759 77.8646 42.4584L80.8406 40.4032L80.6286 34.2085L77.5221 32.3645C77.3454 32.2593 77.211 32.095 77.1442 31.9007C76.7441 30.7494 76.2395 29.6619 75.6436 28.6697C75.5237 28.4838 75.4792 28.2588 75.5191 28.0415L76.0613 25.0816L71.5317 20.8514L68.6117 21.5956C68.4067 21.6471 68.1901 21.6241 68.002 21.5281C66.9321 20.9851 65.8101 20.5519 64.6665 20.2401C64.4684 20.1864 64.2818 20.0604 64.165 19.8914L62.1122 16.9185L55.9182 17.1305L54.0727 20.2378C53.9913 20.3745 53.8738 20.4866 53.7333 20.5611C53.678 20.5911 53.6119 20.6172 53.5513 20.6341C52.4814 21.0073 51.3916 21.5165 50.3602 22.1325C50.179 22.2415 49.9647 22.2799 49.7566 22.2415L46.7898 21.6985L42.5596 26.2282L43.3038 29.1497C43.3561 29.3547 43.3323 29.5713 43.2363 29.7595C42.6917 30.8316 42.2586 31.9552 41.9468 33.0987C41.893 33.2969 41.7686 33.4781 41.5996 33.5949L38.6275 35.6477L38.8395 41.8424L41.9476 43.6879C42.1242 43.7931 42.2578 43.9567 42.3254 44.151C42.7286 45.3115 43.2378 46.4059 43.8384 47.4027C43.9482 47.5848 43.9874 47.8006 43.949 48.0095L43.4075 50.9701L47.9372 55.1995L50.8418 54.4591C50.9109 54.4415 50.9838 54.433 51.056 54.433ZM59.7237 51.0938C56.4028 51.0938 53.2548 49.8534 50.8156 47.5732C48.2667 45.1901 46.7975 41.9599 46.6777 38.477C46.5579 34.9865 47.8028 31.6595 50.1828 29.1113C52.5629 26.5623 55.7961 25.0923 59.2867 24.9733C62.7796 24.852 66.1035 26.0984 68.6524 28.4785C71.2014 30.8585 72.6714 34.0918 72.7904 37.5823C72.9102 41.066 71.6645 44.3891 69.2853 46.9412C66.9029 49.4955 63.6697 50.9678 60.1814 51.0868C60.0286 51.0907 59.8757 51.0938 59.7237 51.0938ZM59.746 26.7074C59.6131 26.7074 59.4802 26.7097 59.3474 26.7144C56.3222 26.818 53.5198 28.0914 51.4577 30.3002C49.3948 32.5089 48.3166 35.3912 48.4203 38.4164C48.5239 41.4346 49.7973 44.2347 52.0061 46.2991C54.2171 48.3658 57.0979 49.451 60.1223 49.3435C63.1451 49.2398 65.9468 47.9641 68.0112 45.7508C70.074 43.5397 71.1531 40.6597 71.0494 37.6407C70.9457 34.6155 69.6724 31.8131 67.4636 29.751C65.3524 27.7803 62.6252 26.7074 59.746 26.7074Z" fill="#EE1D52"/>
</svg>
