<svg width="351" height="161" viewBox="0 0 351 161" fill="none" xmlns="http://www.w3.org/2000/svg">
<path d="M66.2355 21.3145C67.7735 31.9015 60.4185 41.734 49.8075 43.2765C39.196 44.8185 29.3465 37.4865 27.808 26.899C26.269 16.312 33.624 6.47953 44.2355 4.93753C54.8475 3.39603 64.697 10.728 66.2355 21.3145Z" fill="#F5F5F5"/>
<path d="M61.664 21.9796C62.8365 30.0471 57.2315 37.5401 49.1445 38.7156C41.0585 39.8906 33.552 34.3031 32.38 26.2356C31.208 18.1676 36.813 10.6741 44.899 9.49907C52.9855 8.32407 60.491 13.9116 61.664 21.9796Z" fill="#EBEBEB"/>
<path d="M61.594 21.5211C61.5055 21.5371 61.35 20.9036 60.951 19.8166C60.548 18.7371 59.8705 17.1891 58.61 15.5741C57.981 14.7701 57.211 13.9536 56.285 13.1951C55.354 12.4456 54.2765 11.7441 53.052 11.1966C52.4415 10.9206 51.7985 10.6741 51.124 10.4836C50.451 10.2896 49.752 10.1296 49.0295 10.0386C48.3085 9.94559 47.568 9.89009 46.8165 9.90959C46.0655 9.92759 45.305 10.0001 44.5435 10.1296C43.784 10.2701 43.0445 10.4636 42.333 10.7046C41.6205 10.9456 40.944 11.2521 40.299 11.5876C39.652 11.9221 39.0505 12.3131 38.4855 12.7266C37.9175 13.1376 37.3995 13.5906 36.921 14.0596C35.96 14.9951 35.1895 16.0251 34.574 17.0491C33.966 18.0796 33.524 19.1116 33.21 20.0831C32.5835 22.0326 32.4805 23.7186 32.474 24.8711C32.4745 26.0286 32.5465 26.6776 32.4575 26.6921C32.3925 26.7051 32.1715 26.0806 32.033 24.8946C31.903 23.7156 31.8805 21.9476 32.4405 19.8586C32.7215 18.8181 33.1455 17.7041 33.757 16.5856C34.376 15.4736 35.17 14.3501 36.1805 13.3246C36.683 12.8106 37.2315 12.3141 37.836 11.8626C38.4375 11.4081 39.0805 10.9791 39.7745 10.6111C40.467 10.2416 41.195 9.90609 41.9625 9.64209C42.729 9.37709 43.527 9.16659 44.3455 9.01609C45.1665 8.87559 45.987 8.79909 46.798 8.78409C47.6095 8.76809 48.4085 8.83309 49.1855 8.94109C49.9635 9.04759 50.7155 9.22908 51.436 9.44908C52.1585 9.66508 52.845 9.94258 53.4935 10.2516C54.795 10.8666 55.9275 11.6476 56.892 12.4791C57.85 13.3186 58.6325 14.2186 59.255 15.0986C60.5005 16.8671 61.088 18.5351 61.373 19.6866C61.6515 20.8481 61.659 21.5101 61.594 21.5211Z" fill="#9FAAC9"/>
<path d="M49.9474 32.6001L50.3554 35.1451L48.0834 35.5081L47.6869 33.0321C45.4154 33.2556 43.1444 32.8976 41.7384 32.1201L42.5439 29.1476C43.8149 29.8066 45.5484 30.1581 47.2109 30.0551L46.6029 26.2601C43.9824 26.0511 41.0309 25.6616 40.5104 22.4116C40.1249 20.0031 41.5434 17.6556 45.0674 16.6721L44.6634 14.1496L46.9359 13.7856L47.3324 16.2626C49.0584 16.1261 50.7894 16.3146 52.1664 16.9096L51.4784 19.8866C50.2139 19.4136 48.9704 19.2161 47.8124 19.2611L48.4314 23.1246C51.0479 23.3111 53.9549 23.7086 54.4674 26.9121C54.8449 29.2756 53.4454 31.5971 49.9474 32.6001ZM46.0674 22.9206L45.5504 19.6946C44.3899 20.1601 44.0189 20.8956 44.1384 21.6456C44.2659 22.4401 45.0169 22.7631 46.0674 22.9206ZM50.8529 27.7711C50.7254 26.9756 49.9974 26.6496 48.9654 26.4646L49.4674 29.6006C50.5639 29.1686 50.9689 28.4981 50.8529 27.7711Z" fill="#9FAAC9"/>
<path d="M344.835 59.6015C345.559 64.582 342.099 69.2075 337.107 69.933C332.115 70.6585 327.481 67.209 326.758 62.2285C326.034 57.248 329.494 52.6225 334.486 51.897C339.478 51.172 344.112 54.6215 344.835 59.6015Z" fill="#F5F5F5"/>
<path d="M342.685 59.9145C343.236 63.7095 340.6 67.2345 336.795 67.7875C332.991 68.3405 329.46 65.7115 328.909 61.9165C328.357 58.121 330.994 54.596 334.798 54.043C338.602 53.4905 342.133 56.119 342.685 59.9145Z" fill="#EBEBEB"/>
<path d="M342.652 59.6985C342.61 59.706 342.537 59.408 342.349 58.8965C342.16 58.3885 341.841 57.6605 341.248 56.901C340.952 56.523 340.589 56.1385 340.154 55.782C339.716 55.4295 339.209 55.0995 338.633 54.842C338.346 54.712 338.043 54.596 337.726 54.5065C337.409 54.4155 337.08 54.34 336.74 54.297C336.401 54.253 336.053 54.227 335.699 54.236C335.346 54.2445 334.988 54.2785 334.63 54.3395C334.273 54.4055 333.925 54.4965 333.59 54.61C333.255 54.7235 332.937 54.8675 332.633 55.0255C332.329 55.183 332.046 55.367 331.78 55.5615C331.513 55.755 331.269 55.968 331.044 56.1885C330.592 56.6285 330.23 57.1135 329.94 57.595C329.654 58.08 329.446 58.5655 329.299 59.0225C329.004 59.9395 328.956 60.7325 328.952 61.275C328.952 61.8195 328.986 62.1245 328.944 62.1315C328.914 62.1375 328.81 61.844 328.745 61.286C328.684 60.7315 328.673 59.8995 328.936 58.917C329.069 58.4275 329.268 57.9035 329.556 57.3775C329.847 56.8545 330.221 56.326 330.696 55.8435C330.932 55.6015 331.19 55.368 331.474 55.1555C331.757 54.942 332.06 54.74 332.386 54.567C332.712 54.393 333.054 54.235 333.416 54.111C333.776 53.9865 334.152 53.8875 334.537 53.8165C334.923 53.7505 335.309 53.7145 335.69 53.7075C336.072 53.7 336.448 53.7305 336.813 53.7815C337.179 53.8315 337.533 53.917 337.872 54.0205C338.212 54.122 338.535 54.2525 338.84 54.398C339.452 54.6875 339.985 55.055 340.439 55.446C340.889 55.841 341.258 56.2645 341.55 56.6785C342.136 57.5105 342.413 58.295 342.547 58.837C342.679 59.382 342.682 59.6935 342.652 59.6985Z" fill="#9FAAC9"/>
<path d="M337.173 64.9105L337.365 66.108L336.296 66.279L336.11 65.114C335.041 65.219 333.973 65.0505 333.311 64.685L333.69 63.287C334.288 63.597 335.104 63.7625 335.886 63.714L335.6 61.929C334.367 61.8305 332.978 61.6475 332.734 60.1185C332.552 58.9855 333.22 57.881 334.878 57.4185L334.688 56.232L335.757 56.061L335.943 57.2265C336.755 57.1625 337.57 57.251 338.217 57.531L337.894 58.9315C337.299 58.709 336.714 58.616 336.169 58.637L336.46 60.4545C337.691 60.542 339.059 60.7295 339.3 62.236C339.477 63.3465 338.819 64.439 337.173 64.9105ZM335.348 60.357L335.105 58.8395C334.559 59.0585 334.384 59.4045 334.441 59.757C334.501 60.131 334.854 60.283 335.348 60.357ZM337.599 62.639C337.539 62.2645 337.197 62.1115 336.711 62.0245L336.947 63.4995C337.463 63.2965 337.654 62.981 337.599 62.639Z" fill="#9FAAC9"/>
<path d="M99.0118 7.57703C99.6753 12.143 96.5033 16.383 91.9273 17.0485C87.3508 17.7135 83.1033 14.5515 82.4398 9.98553C81.7763 5.42003 84.9478 1.17953 89.5243 0.514533C94.1008 -0.150467 98.3483 3.01153 99.0118 7.57703Z" fill="#F5F5F5"/>
<path d="M97.0406 7.86354C97.5461 11.3425 95.1291 14.574 91.6416 15.081C88.1546 15.588 84.9171 13.178 84.4116 9.69904C83.9061 6.21954 86.3231 2.98804 89.8106 2.48154C93.2976 1.97454 96.5351 4.38454 97.0406 7.86354Z" fill="#EBEBEB"/>
<path d="M97.0101 7.66607C96.9721 7.67307 96.9046 7.39957 96.7331 6.93107C96.5591 6.46557 96.2671 5.79807 95.7236 5.10157C95.4526 4.75507 95.1201 4.40257 94.7211 4.07557C94.3196 3.75257 93.8551 3.45007 93.3271 3.21357C93.0636 3.09457 92.7866 2.98807 92.4956 2.90607C92.2051 2.82257 91.9036 2.75307 91.5921 2.71407C91.2811 2.67407 90.9621 2.65007 90.6376 2.65857C90.3136 2.66657 89.9856 2.69757 89.6576 2.75357C89.3301 2.81407 89.0111 2.89757 88.7046 3.00157C88.3971 3.10557 88.1056 3.23757 87.8276 3.38257C87.5486 3.52657 87.2891 3.69557 87.0456 3.87407C86.8006 4.05107 86.5771 4.24657 86.3706 4.44907C85.9561 4.85257 85.6241 5.29657 85.3586 5.73857C85.0966 6.18307 84.9061 6.62807 84.7706 7.04707C84.5006 7.88757 84.4561 8.61507 84.4531 9.11207C84.4531 9.61157 84.4841 9.89107 84.4461 9.89757C84.4181 9.90307 84.3226 9.63407 84.2631 9.12257C84.2071 8.61407 84.1971 7.85157 84.4386 6.95057C84.5601 6.50207 84.7426 6.02157 85.0061 5.53907C85.2731 5.05957 85.6156 4.57507 86.0511 4.13257C86.2681 3.91107 86.5046 3.69657 86.7651 3.50207C87.0246 3.30607 87.3021 3.12107 87.6011 2.96207C87.8996 2.80257 88.2136 2.65807 88.5446 2.54407C88.8751 2.42957 89.2191 2.33907 89.5721 2.27407C89.9261 2.21357 90.2801 2.18057 90.6296 2.17407C90.9796 2.16707 91.3241 2.19507 91.6591 2.24157C91.9946 2.28757 92.3186 2.36557 92.6296 2.46057C92.9411 2.55357 93.2371 2.67357 93.5171 2.80657C94.0781 3.07207 94.5671 3.40857 94.9826 3.76707C95.3961 4.12907 95.7331 4.51757 96.0016 4.89657C96.5386 5.65907 96.7921 6.37857 96.9151 6.87507C97.0356 7.37607 97.0386 7.66157 97.0101 7.66607Z" fill="#9FAAC9"/>
<path d="M91.9876 12.4441L92.1635 13.5416L91.1836 13.6981L91.0125 12.6301C90.033 12.7266 89.0535 12.5721 88.447 12.2371L88.7946 10.9551C89.3426 11.2396 90.0905 11.3911 90.807 11.3466L90.5446 9.71007C89.4146 9.62007 88.1415 9.45207 87.917 8.05057C87.751 7.01207 88.3625 5.99957 89.8825 5.57557L89.7086 4.48757L90.6885 4.33057L90.8595 5.39907C91.604 5.34007 92.3505 5.42157 92.944 5.67807L92.6471 6.96207C92.1016 6.75807 91.5656 6.67307 91.0661 6.69207L91.333 8.35807C92.4615 8.43857 93.715 8.61007 93.936 9.99107C94.1 11.0106 93.4966 12.0116 91.9876 12.4441ZM90.3145 8.26957L90.0915 6.87807C89.591 7.07857 89.431 7.39607 89.4825 7.71957C89.5375 8.06257 89.8615 8.20157 90.3145 8.26957ZM92.378 10.3616C92.323 10.0186 92.0091 9.87807 91.5641 9.79807L91.7806 11.1506C92.2536 10.9641 92.428 10.6751 92.378 10.3616Z" fill="#9FAAC9"/>
<path d="M21.9945 106.346C17.8315 111.425 10.3295 112.16 5.23795 107.988C0.146454 103.816 -0.606048 96.315 3.55695 91.2355C7.71995 86.156 15.222 85.4205 20.313 89.593C25.4045 93.7655 26.157 101.266 21.9945 106.346Z" fill="#F5F5F5"/>
<path d="M19.8003 104.548C16.6283 108.419 10.9108 108.979 7.03082 105.8C3.15132 102.62 2.57732 96.9041 5.74982 93.0336C8.92232 89.1626 14.6398 88.6021 18.5193 91.7821C22.3993 94.9616 22.9728 100.677 19.8003 104.548Z" fill="#EBEBEB"/>
<path d="M19.9794 104.327C19.9354 104.293 20.1584 103.961 20.4859 103.33C20.8084 102.7 21.2299 101.752 21.4404 100.512C21.5444 99.8941 21.5959 99.2071 21.5564 98.4731C21.5109 97.7406 21.3829 96.9621 21.1244 96.1801C20.9969 95.7891 20.8424 95.3956 20.6494 95.0111C20.4589 94.6256 20.2419 94.2426 19.9844 93.8771C19.7284 93.5116 19.4469 93.1531 19.1269 92.8206C18.8079 92.4876 18.4604 92.1726 18.0864 91.8811C17.7084 91.5946 17.3144 91.3396 16.9109 91.1171C16.5069 90.8936 16.0879 90.7141 15.6689 90.5606C15.2494 90.4056 14.8229 90.2951 14.4019 90.2096C13.9809 90.1221 13.5604 90.0746 13.1499 90.0521C12.3279 90.0036 11.5419 90.0806 10.8229 90.2256C10.1039 90.3766 9.45339 90.6036 8.88289 90.8631C7.73989 91.3861 6.93289 92.0371 6.40739 92.5111C5.88289 92.9906 5.61839 93.2916 5.57489 93.2576C5.54189 93.2336 5.73389 92.8751 6.21439 92.3211C6.69489 91.7741 7.48739 91.0321 8.66639 90.4211C9.25439 90.1181 9.93489 89.8491 10.6949 89.6631C11.4554 89.4836 12.2934 89.3786 13.1769 89.4121C13.6179 89.4271 14.0699 89.4706 14.5249 89.5576C14.9799 89.6421 15.4409 89.7561 15.8944 89.9186C16.3484 90.0796 16.8019 90.2706 17.2394 90.5096C17.6769 90.7476 18.1024 91.0221 18.5099 91.3306C18.9134 91.6446 19.2879 91.9851 19.6304 92.3466C19.9734 92.7076 20.2749 93.0971 20.5474 93.4941C20.8214 93.8911 21.0499 94.3071 21.2484 94.7246C21.4494 95.1416 21.6079 95.5676 21.7364 95.9896C21.9959 96.8341 22.1109 97.6711 22.1334 98.4526C22.1494 99.2346 22.0649 99.9621 21.9239 100.608C21.6379 101.905 21.1249 102.862 20.7204 103.468C20.3084 104.074 20.0114 104.352 19.9794 104.327Z" fill="#9FAAC9"/>
<path d="M10.1361 103.632L9.15105 104.871L8.04605 103.991L9.00455 102.786C7.96305 101.849 7.18555 100.671 6.95605 99.7121L8.63705 98.8471C8.86455 99.6961 9.42255 100.628 10.1576 101.339L11.6266 99.4921C10.6366 98.2176 9.59156 96.7181 10.8496 95.1371C11.7821 93.9651 13.4336 93.6366 15.3381 94.8276L16.3146 93.6006L17.4201 94.4801L16.4611 95.6851C17.2376 96.4111 17.8686 97.2741 18.1686 98.1446L16.5341 99.0651C16.2251 98.2961 15.8001 97.6506 15.3001 97.1441L13.8046 99.0236C14.8031 100.287 15.8261 101.77 14.5861 103.328C13.6706 104.477 12.0386 104.803 10.1361 103.632ZM12.9186 97.8666L14.1671 96.2966C13.4761 95.9631 12.9886 96.0991 12.6981 96.4641C12.3911 96.8511 12.5551 97.3251 12.9186 97.8666ZM12.7001 102.044C13.0081 101.657 12.8546 101.192 12.5111 100.648L11.2971 102.173C11.9471 102.492 12.4186 102.398 12.7001 102.044Z" fill="#9FAAC9"/>
<path d="M289.172 156.263C285.009 161.342 277.506 162.077 272.415 157.905C267.324 153.733 266.571 146.232 270.734 141.153C274.897 136.073 282.399 135.338 287.49 139.51C292.582 143.683 293.335 151.183 289.172 156.263Z" fill="#F5F5F5"/>
<path d="M286.979 154.465C283.806 158.336 278.089 158.896 274.209 155.717C270.33 152.537 269.756 146.821 272.928 142.951C276.101 139.08 281.818 138.519 285.698 141.699C289.577 144.879 290.151 150.594 286.979 154.465Z" fill="#EBEBEB"/>
<path d="M287.157 154.244C287.113 154.21 287.336 153.877 287.664 153.247C287.986 152.617 288.408 151.669 288.618 150.429C288.722 149.811 288.774 149.124 288.734 148.39C288.689 147.658 288.561 146.879 288.302 146.097C288.175 145.706 288.02 145.313 287.827 144.928C287.637 144.543 287.42 144.16 287.162 143.794C286.906 143.429 286.625 143.07 286.305 142.738C285.986 142.405 285.638 142.09 285.264 141.798C284.886 141.512 284.492 141.257 284.089 141.034C283.685 140.811 283.266 140.631 282.847 140.478C282.427 140.323 282.001 140.212 281.58 140.127C281.158 140.039 280.738 139.992 280.328 139.969C279.506 139.921 278.72 139.998 278.001 140.143C277.282 140.294 276.631 140.521 276.061 140.78C274.918 141.303 274.111 141.954 273.585 142.428C273.061 142.908 272.796 143.209 272.753 143.175C272.72 143.151 272.912 142.792 273.392 142.238C273.873 141.691 274.665 140.949 275.844 140.338C276.432 140.035 277.113 139.766 277.873 139.58C278.633 139.401 279.471 139.296 280.355 139.329C280.796 139.344 281.248 139.388 281.703 139.475C282.158 139.559 282.618 139.673 283.072 139.836C283.526 139.997 283.98 140.188 284.417 140.427C284.855 140.665 285.28 140.939 285.688 141.248C286.091 141.562 286.466 141.902 286.808 142.264C287.151 142.625 287.453 143.014 287.725 143.411C287.999 143.808 288.228 144.224 288.426 144.642C288.627 145.059 288.786 145.485 288.914 145.907C289.174 146.751 289.289 147.588 289.311 148.37C289.327 149.152 289.243 149.879 289.102 150.525C288.815 151.822 288.303 152.779 287.898 153.385C287.486 153.992 287.189 154.269 287.157 154.244Z" fill="#9FAAC9"/>
<path d="M277.314 153.549L276.329 154.788L275.224 153.908L276.182 152.703C275.141 151.766 274.363 150.588 274.134 149.629L275.815 148.764C276.042 149.613 276.6 150.545 277.335 151.256L278.804 149.409C277.814 148.135 276.769 146.635 278.027 145.054C278.959 143.883 280.611 143.554 282.515 144.745L283.492 143.518L284.597 144.397L283.638 145.602C284.415 146.328 285.046 147.191 285.346 148.062L283.711 148.982C283.402 148.213 282.977 147.568 282.477 147.061L280.982 148.941C281.98 150.204 283.003 151.687 281.763 153.245C280.848 154.394 279.216 154.72 277.314 153.549ZM280.096 147.784L281.345 146.214C280.654 145.88 280.166 146.016 279.876 146.381C279.568 146.768 279.733 147.242 280.096 147.784ZM279.878 151.961C280.186 151.574 280.032 151.109 279.689 150.565L278.475 152.09C279.124 152.409 279.596 152.315 279.878 151.961Z" fill="#9FAAC9"/>
<path d="M318.163 38.4055L300.094 9.29253C299.603 8.47803 298.791 7.90753 297.859 7.72003L281.889 4.51053C280.166 4.16453 278.464 5.19153 277.967 6.87753L273.365 22.5035C273.096 23.416 273.223 24.4 273.715 25.2145L291.783 54.3275C292.751 55.931 294.836 56.4465 296.44 55.4785L317.012 43.062C318.615 42.094 319.13 40.0095 318.163 38.4055ZM285.83 15.292C284.267 16.098 282.346 15.484 281.54 13.9205C280.734 12.357 281.348 10.4365 282.912 9.63053C284.475 8.82453 286.396 9.43853 287.202 11.002C288.008 12.5655 287.394 14.486 285.83 15.292Z" fill="#EBEBEB"/>
<path d="M283.553 34.059C281.788 31.22 282.506 28.399 284.923 26.896C287.363 25.379 290.211 25.983 291.976 28.822C293.756 31.6845 293.023 34.482 290.583 35.999C288.167 37.5015 285.333 36.9215 283.553 34.059ZM289.138 30.587C288.102 28.921 287.106 28.6285 286.308 29.125C285.558 29.592 285.333 30.6425 286.368 32.3085C287.404 33.9745 288.446 34.237 289.197 33.77C289.995 33.274 290.174 32.253 289.138 30.587ZM294.767 21.0675L298.146 18.967L297.143 42.363L293.764 44.464L294.767 21.0675ZM299.957 34.5945C298.193 31.756 298.887 28.949 301.327 27.432C303.767 25.915 306.615 26.519 308.38 29.3575C310.16 32.22 309.427 35.018 306.987 36.535C304.547 38.052 301.737 37.457 299.957 34.5945ZM305.541 31.122C304.506 29.4565 303.488 29.179 302.713 29.6605C301.939 30.142 301.737 31.1785 302.773 32.844C303.809 34.51 304.827 34.787 305.602 34.3055C306.376 33.8245 306.577 32.788 305.541 31.122Z" fill="white"/>
<path d="M346.134 106.53L333.17 102.799C332.95 102.736 332.824 102.507 332.887 102.287C332.95 102.068 333.179 101.941 333.398 102.004L346.029 105.639L349.725 98.094L334.465 93.702C334.245 93.639 334.119 93.41 334.182 93.1905C334.245 92.971 334.474 92.8445 334.693 92.9075L350.428 97.4355C350.545 97.4695 350.642 97.5535 350.691 97.665C350.741 97.7765 350.738 97.9045 350.684 98.0145L346.619 106.314C346.532 106.495 346.327 106.585 346.134 106.53Z" fill="#9FAAC9"/>
<path d="M344.824 109.466L344.823 109.465L332.487 105.869C332.288 105.811 332.163 105.615 332.194 105.409L334.386 91.1581L330.77 90.1176C330.55 90.0546 330.424 89.8256 330.487 89.6061C330.55 89.3866 330.779 89.2601 330.998 89.3231L334.964 90.4646C335.164 90.5221 335.29 90.7196 335.258 90.9251L333.066 105.177L345.054 108.672C345.273 108.736 345.399 108.966 345.335 109.185C345.272 109.403 345.043 109.529 344.824 109.466Z" fill="#9FAAC9"/>
<path d="M333.227 110.885C332.16 110.578 331.542 109.46 331.849 108.394C332.156 107.327 333.274 106.709 334.34 107.016C335.407 107.323 336.025 108.441 335.718 109.507C335.411 110.574 334.293 111.192 333.227 110.885ZM334.111 107.811C333.483 107.63 332.824 107.995 332.644 108.623C332.463 109.251 332.827 109.91 333.455 110.09C334.084 110.271 334.742 109.907 334.923 109.279C335.104 108.65 334.74 107.992 334.111 107.811Z" fill="#9FAAC9"/>
<path d="M341.75 113.338C340.683 113.031 340.065 111.913 340.372 110.847C340.679 109.78 341.797 109.162 342.863 109.469C343.93 109.776 344.548 110.894 344.241 111.96C343.934 113.027 342.816 113.645 341.75 113.338ZM342.634 110.264C342.006 110.083 341.347 110.447 341.167 111.075C340.986 111.704 341.35 112.362 341.978 112.543C342.606 112.724 343.265 112.359 343.446 111.731C343.627 111.103 343.262 110.445 342.634 110.264Z" fill="#9FAAC9"/>
<path d="M337.172 103.951C336.964 103.891 336.836 103.678 336.883 103.464L338.791 94.8495C338.841 94.6265 339.062 94.4855 339.284 94.535C339.511 94.585 339.648 94.8055 339.599 95.028L337.691 103.643C337.641 103.866 337.421 104.007 337.198 103.957C337.189 103.955 337.18 103.953 337.172 103.951Z" fill="#9FAAC9"/>
<path d="M341.913 105.315C341.906 105.313 341.898 105.311 341.891 105.308C341.675 105.233 341.561 104.997 341.637 104.782L344.545 96.4546C344.619 96.2386 344.855 96.1246 345.071 96.2006C345.287 96.2756 345.401 96.5116 345.325 96.7271L342.417 105.054C342.345 105.262 342.123 105.375 341.913 105.315Z" fill="#9FAAC9"/>
<path d="M333.645 98.3536C333.427 98.2911 333.3 98.0646 333.361 97.8456C333.422 97.6256 333.65 97.4966 333.87 97.5576L348.391 101.584C348.392 101.585 348.394 101.585 348.395 101.585C348.613 101.648 348.74 101.874 348.679 102.093C348.618 102.313 348.39 102.442 348.17 102.381L333.649 98.3546C333.648 98.3541 333.646 98.3536 333.645 98.3536Z" fill="#9FAAC9"/>
</svg>
