<svg width="352" height="107" viewBox="0 0 352 107" fill="none" xmlns="http://www.w3.org/2000/svg">
<path d="M34.8555 13.653L35.637 13.781C42.2245 14.859 47.7555 19.3795 49.8365 25.658C50.104 26.465 50.3135 27.2915 50.4595 28.1315C51.512 34.178 49.255 40.7185 44.6735 44.8995C41.979 47.3585 38.4615 49.16 36.848 52.415C34.7485 56.6515 36.641 61.6435 38.5315 65.9415C40.422 70.2395 42.303 75.24 40.185 79.4675C38.8585 82.115 36.1625 83.873 33.346 84.8385C25.888 87.394 17.3085 84.938 11.455 79.776C5.60154 74.614 2.24004 67.113 0.812541 59.456C-1.18696 48.7295 0.501541 37.0815 6.69804 27.9915C12.894 18.9 23.8715 12.8065 34.8555 13.653Z" fill="#F5F5F5"/>
<path d="M298.477 5.009L297.688 5.3555C291.031 8.276 286.42 14.5425 285.925 21.7285C285.862 22.652 285.865 23.581 285.938 24.506C286.465 31.169 290.616 37.4575 296.581 40.627C300.089 42.491 304.287 43.439 306.87 46.436C310.232 50.336 309.586 56.1145 308.756 61.16C307.926 66.2055 307.295 71.9895 310.674 75.875C312.79 78.3085 316.11 79.4335 319.343 79.689C327.902 80.3655 336.287 75.452 341.064 68.422C345.841 61.392 347.356 52.5695 346.788 44.106C345.993 32.25 341.058 20.4205 332.061 12.5095C323.064 4.598 309.835 1.142 298.477 5.009Z" fill="#F5F5F5"/>
<path d="M61.4216 10.0265C62.253 6.50541 60.0726 2.97702 56.5516 2.1456C53.0305 1.31418 49.5021 3.49457 48.6707 7.01562C47.8393 10.5367 50.0197 14.0651 53.5407 14.8965C57.0618 15.7279 60.5902 13.5475 61.4216 10.0265Z" fill="#F5F5F5"/>
<path d="M345.934 102.578C348.838 100.42 349.443 96.3164 347.285 93.4122C345.128 90.5081 341.024 89.903 338.12 92.0608C335.216 94.2185 334.611 98.3221 336.768 101.226C338.926 104.13 343.03 104.736 345.934 102.578Z" fill="#F5F5F5"/>
</svg>
