<svg width="189" height="42" viewBox="0 0 189 42" fill="none" xmlns="http://www.w3.org/2000/svg">
<path d="M31.3879 7.786C31.3669 7.788 31.3459 7.4935 31.2444 6.9735C31.1414 6.4555 30.9719 5.7025 30.5949 4.8355C30.2254 3.9715 29.6469 2.98001 28.7459 2.12351C27.8599 1.26551 26.5569 0.626004 25.1244 0.621004C23.6909 0.615504 22.3834 1.2465 21.4924 2.0995C20.5869 2.9515 20.0039 3.9405 19.6314 4.8035C19.2509 5.6685 19.0789 6.421 18.9739 6.939C18.8709 7.459 18.8489 7.75301 18.8279 7.75101C18.8209 7.75051 18.8224 7.677 18.8314 7.5365C18.8384 7.396 18.8564 7.1895 18.8974 6.926C18.9794 6.4 19.1319 5.63451 19.5014 4.74851C19.8629 3.86601 20.4424 2.8495 21.3664 1.9655C22.2754 1.08 23.6339 0.414995 25.1244 0.421495C26.6149 0.425495 27.9679 1.10001 28.8719 1.99001C29.7914 2.87851 30.3659 3.89701 30.7244 4.78101C31.0904 5.66801 31.2404 6.4345 31.3204 6.9605C31.3604 7.2245 31.3779 7.431 31.3844 7.5715C31.3934 7.712 31.3944 7.7855 31.3879 7.786Z" fill="#455A64"/>
<path d="M33.5566 7.786C33.5356 7.788 33.5146 7.4935 33.4131 6.9735C33.3101 6.4555 33.1406 5.7025 32.7636 4.8355C32.3941 3.9715 31.8156 2.98001 30.9146 2.12351C30.0286 1.26551 28.7256 0.626004 27.2931 0.621004C25.8596 0.615504 24.5521 1.2465 23.6611 2.0995C22.7556 2.9515 22.1726 3.9405 21.8001 4.8035C21.4196 5.6685 21.2476 6.421 21.1426 6.939C21.0396 7.459 21.0176 7.75301 20.9966 7.75101C20.9896 7.75051 20.9911 7.677 21.0001 7.5365C21.0071 7.396 21.0251 7.1895 21.0661 6.926C21.1481 6.4 21.3006 5.63451 21.6701 4.74851C22.0321 3.86601 22.6111 2.8495 23.5351 1.9655C24.4441 1.08 25.8026 0.414995 27.2936 0.421495C28.7841 0.425495 30.1371 1.10001 31.0411 1.99001C31.9606 2.87851 32.5351 3.89701 32.8936 4.78101C33.2596 5.66801 33.4096 6.4345 33.4896 6.9605C33.5296 7.2245 33.5471 7.431 33.5536 7.5715C33.5621 7.712 33.5636 7.7855 33.5566 7.786Z" fill="#455A64"/>
<path d="M12.6226 7.01152L37.1141 6.82501L37.6486 40.211H10.1646L12.6226 7.01152Z" fill="#EBEBEB"/>
<path d="M37.1138 6.82501H40.1888L42.8358 40.211H37.6483L37.1138 6.82501Z" fill="#9FAAC9"/>
<path d="M31.9239 19.969H15.8894V22.6555H31.9239V19.969Z" fill="white"/>
<path d="M20.2205 15.6265C20.1655 15.641 20.1585 14.387 19.4925 12.583C19.1575 11.692 18.6345 10.67 17.8215 9.78799C17.022 8.90449 15.8485 8.247 14.5585 8.242C13.2675 8.236 12.09 8.88499 11.286 9.76299C10.469 10.6405 9.94152 11.6595 9.60402 12.549C8.93202 14.35 8.92152 15.604 8.86652 15.589C8.85902 15.5885 8.85952 15.512 8.86652 15.367C8.87152 15.222 8.88702 15.008 8.92302 14.735C8.99502 14.191 9.13152 13.398 9.46452 12.4805C9.79052 11.5665 10.314 10.513 11.151 9.59649C11.9745 8.67849 13.207 7.9875 14.56 7.9945C15.9125 7.9985 17.14 8.69899 17.959 9.62199C18.7915 10.5435 19.311 11.5985 19.634 12.514C19.9635 13.4325 20.098 14.226 20.168 14.7705C20.203 15.044 20.218 15.2575 20.2225 15.403C20.228 15.5495 20.2275 15.6255 20.2205 15.6265Z" fill="#263238"/>
<path d="M22.181 15.6265C22.126 15.641 22.119 14.387 21.453 12.583C21.118 11.692 20.595 10.67 19.782 9.78799C18.9825 8.90449 17.809 8.247 16.5185 8.242C15.2275 8.236 14.05 8.88499 13.246 9.76299C12.429 10.6405 11.9015 11.6595 11.564 12.549C10.892 14.35 10.8815 15.604 10.8265 15.589C10.819 15.5885 10.819 15.512 10.826 15.367C10.831 15.222 10.8465 15.008 10.8825 14.735C10.9545 14.191 11.091 13.398 11.424 12.4805C11.75 11.5665 12.2735 10.513 13.1105 9.59649C13.934 8.67849 15.1665 7.9875 16.5195 7.9945C17.872 7.9985 19.0995 8.69899 19.9185 9.62199C20.751 10.5435 21.2705 11.5985 21.5935 12.514C21.923 13.4325 22.0575 14.226 22.1275 14.7705C22.1625 15.044 22.1775 15.2575 22.182 15.403C22.1885 15.5495 22.1885 15.6255 22.181 15.6265Z" fill="#263238"/>
<path d="M2.27498 14.306L24.417 14.1525L24.9 41.6265H0.0529785L2.27498 14.306Z" fill="#455A64"/>
<path d="M24.417 14.1525H27.1965L29.59 41.6265H24.9L24.417 14.1525Z" fill="#455A64"/>
<g opacity="0.3">
<path d="M24.417 14.1525H27.1965L29.59 41.6265H24.9L24.417 14.1525Z" fill="black"/>
</g>
<path d="M20.641 23.4845H6.14502V26.2605H20.641V23.4845Z" fill="white"/>
<path d="M181.917 22.9705C181.878 22.981 181.873 22.086 181.398 20.7985C181.159 20.1625 180.786 19.4335 180.206 18.804C179.635 18.1735 178.797 17.7045 177.876 17.7005C176.955 17.6965 176.115 18.1595 175.541 18.786C174.958 19.412 174.582 20.1395 174.341 20.7745C173.861 22.06 173.853 22.955 173.814 22.9445C173.808 22.944 173.809 22.8895 173.814 22.786C173.817 22.6825 173.829 22.53 173.854 22.335C173.906 21.9465 174.003 21.3805 174.24 20.726C174.473 20.0735 174.847 19.322 175.445 18.668C176.032 18.0125 176.912 17.5195 177.878 17.5245C178.843 17.5275 179.719 18.027 180.303 18.686C180.897 19.3435 181.268 20.0965 181.499 20.75C181.734 21.4055 181.83 21.972 181.88 22.3605C181.905 22.5555 181.915 22.708 181.919 22.8115C181.923 22.9155 181.923 22.97 181.917 22.9705Z" fill="#263238"/>
<path d="M183.317 22.9705C183.277 22.981 183.272 22.086 182.797 20.7985C182.558 20.1625 182.184 19.4335 181.604 18.804C181.034 18.1735 180.196 17.7045 179.275 17.7005C178.354 17.6965 177.514 18.1595 176.94 18.786C176.357 19.412 175.98 20.1395 175.739 20.7745C175.26 22.06 175.252 22.955 175.213 22.9445C175.207 22.944 175.208 22.8895 175.213 22.786C175.216 22.6825 175.227 22.53 175.253 22.335C175.305 21.9465 175.402 21.3805 175.64 20.726C175.872 20.0735 176.246 19.322 176.844 18.668C177.431 18.0125 178.311 17.5195 179.277 17.5245C180.242 17.5275 181.118 18.027 181.702 18.686C182.297 19.3435 182.667 20.0965 182.898 20.75C183.133 21.4055 183.229 21.972 183.279 22.3605C183.304 22.5555 183.314 22.708 183.318 22.8115C183.322 22.9155 183.322 22.97 183.317 22.9705Z" fill="#263238"/>
<path d="M169.11 22.0285L184.912 21.9185L185.257 41.5265H167.524L169.11 22.0285Z" fill="#455A64"/>
<path d="M184.912 21.9185H186.896L188.604 41.5265H185.257L184.912 21.9185Z" fill="#455A64"/>
<g opacity="0.3">
<path d="M184.912 21.9185H186.896L188.604 41.5265H185.257L184.912 21.9185Z" fill="black"/>
</g>
<path d="M182.218 28.579H171.873V30.5605H182.218V28.579Z" fill="white"/>
</svg>
