<svg width="19" height="18" viewBox="0 0 19 18" fill="none" xmlns="http://www.w3.org/2000/svg">
<g clip-path="url(#clip0_29_14519)">
<path d="M13.0797 0.00900789C13.0414 -0.0337421 11.6633 0.0258829 10.464 1.32751C9.26479 2.62801 9.44929 4.11976 9.47629 4.15801C9.50329 4.19626 11.1863 4.25588 12.2607 2.74276C13.335 1.22963 13.1179 0.0528829 13.0797 0.00900789ZM16.8079 13.2086C16.7539 13.1006 14.1923 11.8204 14.4308 9.35888C14.6693 6.89738 16.3152 6.22126 16.341 6.14813C16.3669 6.07501 15.6694 5.25938 14.9303 4.84651C14.3875 4.5557 13.7869 4.38894 13.1719 4.35826C13.0504 4.35488 12.6285 4.25138 11.7612 4.48876C11.1897 4.64513 9.90154 5.15138 9.54717 5.17163C9.19167 5.19188 8.13417 4.58438 6.99679 4.42351C6.26892 4.28288 5.49717 4.57088 4.94479 4.79251C4.39354 5.01301 3.34504 5.64076 2.61154 7.30913C1.87804 8.97638 2.26167 11.6179 2.53617 12.4391C2.81067 13.2604 3.23929 14.6036 3.96829 15.5846C4.61629 16.6916 5.47579 17.46 5.83467 17.721C6.19354 17.982 7.20604 18.1553 7.90804 17.7964C8.47279 17.4499 9.49204 17.2508 9.89479 17.2654C10.2964 17.28 11.0884 17.4386 11.8995 17.8718C12.5419 18.0934 13.1494 18.0011 13.758 17.7536C14.3667 17.505 15.2475 16.5623 16.2758 14.6509C16.6658 13.7621 16.8432 13.2814 16.8079 13.2086Z" fill="#170F49"/>
<path d="M13.0797 0.00900789C13.0414 -0.0337421 11.6633 0.0258829 10.464 1.32751C9.26479 2.62801 9.44929 4.11976 9.47629 4.15801C9.50329 4.19626 11.1863 4.25588 12.2607 2.74276C13.335 1.22963 13.1179 0.0528829 13.0797 0.00900789ZM16.8079 13.2086C16.7539 13.1006 14.1923 11.8204 14.4308 9.35888C14.6693 6.89738 16.3152 6.22126 16.341 6.14813C16.3669 6.07501 15.6694 5.25938 14.9303 4.84651C14.3875 4.5557 13.7869 4.38894 13.1719 4.35826C13.0504 4.35488 12.6285 4.25138 11.7612 4.48876C11.1897 4.64513 9.90154 5.15138 9.54717 5.17163C9.19167 5.19188 8.13417 4.58438 6.99679 4.42351C6.26892 4.28288 5.49717 4.57088 4.94479 4.79251C4.39354 5.01301 3.34504 5.64076 2.61154 7.30913C1.87804 8.97638 2.26167 11.6179 2.53617 12.4391C2.81067 13.2604 3.23929 14.6036 3.96829 15.5846C4.61629 16.6916 5.47579 17.46 5.83467 17.721C6.19354 17.982 7.20604 18.1553 7.90804 17.7964C8.47279 17.4499 9.49204 17.2508 9.89479 17.2654C10.2964 17.28 11.0884 17.4386 11.8995 17.8718C12.5419 18.0934 13.1494 18.0011 13.758 17.7536C14.3667 17.505 15.2475 16.5623 16.2758 14.6509C16.6658 13.7621 16.8432 13.2814 16.8079 13.2086Z" fill="#170F49"/>
</g>
<defs>
<clipPath id="clip0_29_14519">
<rect width="18" height="18" fill="white" transform="translate(0.5)"/>
</clipPath>
</defs>
</svg>
