<svg width="127" height="223" viewBox="0 0 127 223" fill="none" xmlns="http://www.w3.org/2000/svg">
<path d="M93.8502 99.7024L23.771 113.045C20.9793 113.576 18.2852 111.744 17.7537 108.952L0.780923 19.8036C0.249467 17.0119 2.08192 14.3178 4.8736 13.7863L74.9528 0.443826C77.7445 -0.0876298 80.4387 1.74482 80.9701 4.5365L97.9429 93.6852C98.4744 96.4769 96.6419 99.171 93.8502 99.7024Z" fill="#FCBD01"/>
<g opacity="0.2">
<path d="M21.089 109.958C21.0275 109.958 20.9661 109.943 20.9085 109.912C20.7211 109.812 20.6512 109.579 20.751 109.392L77.2966 3.73394C77.3964 3.54655 77.6299 3.47666 77.8165 3.5765C78.0039 3.67634 78.0738 3.90982 77.9739 4.09644L21.4284 109.755C21.3585 109.884 21.2257 109.958 21.089 109.958Z" fill="white"/>
<path d="M95.069 95.8724C94.9814 95.8724 94.8931 95.8425 94.8209 95.781L3.40665 18.2937C3.2446 18.1562 3.22463 17.9143 3.3621 17.7523C3.4988 17.5902 3.74149 17.5702 3.90354 17.7077L95.3178 95.1958C95.4799 95.3333 95.4998 95.5752 95.3624 95.7373C95.2863 95.8264 95.178 95.8724 95.069 95.8724Z" fill="white"/>
</g>
<path d="M86.1003 105.803C86.1003 105.803 96.1212 140.62 100.187 157.716C104.456 175.671 117.157 202.813 118.213 214.715C119.311 215.152 122.868 214.661 124.767 213.743C124.767 213.743 123.026 175.796 112.707 158.511C115.037 115.978 103.493 105.803 103.493 105.803H86.1003Z" fill="#FCBD01"/>
<path opacity="0.1" d="M99.0816 123.292L93.4468 131.948C95.2331 138.476 97.0602 145.281 98.554 151.135C100.121 141.001 99.0816 123.292 99.0816 123.292Z" fill="black"/>
<path d="M106.779 75.8054C106.942 76.2831 107.051 76.6241 107.171 77.0173C107.289 77.399 107.388 77.7784 107.491 78.157C107.697 78.9127 107.859 79.6738 108.024 80.4333C108.33 81.9563 108.571 83.4938 108.716 85.0498C108.88 86.6019 108.941 88.1763 108.914 89.7599C108.917 91.3405 108.745 92.9448 108.53 94.54L108.495 94.8003C108.471 94.977 108.424 95.1582 108.365 95.3195C107.991 96.3279 107.44 97.1811 106.838 97.8454C106.236 98.5151 105.601 99.0305 104.976 99.4605C103.724 100.303 102.476 100.803 101.271 101.201C100.056 101.582 98.8653 101.833 97.6788 101.996C96.4769 102.153 95.3487 102.238 94.0815 102.204C92.9256 102.174 92.0132 101.212 92.0432 100.057C92.0647 99.2325 92.5601 98.532 93.2612 98.2087L93.4371 98.1288C94.3149 97.7264 95.3057 97.304 96.1958 96.8616C97.0982 96.4185 97.9706 95.96 98.7471 95.4639C99.5327 94.9885 100.212 94.4432 100.687 93.9586C101.162 93.4686 101.29 93.0278 101.213 92.9948L101.049 93.7743C101.072 92.5055 101.067 91.2353 100.968 89.9412C100.871 88.6525 100.73 87.3553 100.527 86.0566C100.319 84.7603 100.093 83.4593 99.8038 82.1698C99.6641 81.5247 99.5074 80.8842 99.353 80.2483L99.1111 79.3067L98.8815 78.4542L98.8223 78.233C98.2256 76.0135 99.5412 73.7302 101.761 73.1335C103.886 72.5636 106.072 73.7579 106.779 75.8054Z" fill="#FF8B7B"/>
<path d="M96.7073 98.2594L91.6915 96.8294C90.9735 96.6243 90.2055 96.6827 89.5265 96.9937L87.6526 97.8516C86.7326 98.2724 86.3386 99.3669 86.7786 100.278L87.6557 102.092C88.019 102.843 88.8484 103.248 89.6632 103.07L93.0271 102.34C93.0271 102.34 96.8049 102.587 98.1389 100.344L96.7073 98.2594Z" fill="#FF8B7B"/>
<path d="M101.251 68.762C98.5603 71.556 97.1241 75.7539 99.3022 83.7795C102.175 85.2034 109.134 83.3556 109.134 83.3556C109.134 83.3556 109.232 71.2957 101.251 68.762Z" fill="#FCBD01"/>
<path opacity="0.7" d="M101.251 68.762C98.5603 71.556 97.1241 75.7539 99.3022 83.7795C102.175 85.2034 109.134 83.3556 109.134 83.3556C109.134 83.3556 109.232 71.2957 101.251 68.762Z" fill="white"/>
<path d="M106.122 74.3615C105.982 74.3661 105.874 74.4836 105.879 74.6227C105.883 74.7586 105.995 74.8661 106.13 74.8661C106.134 74.8661 106.137 74.8661 106.14 74.8653L107.395 74.82C107.323 74.6534 107.248 74.4883 107.17 74.3239L106.122 74.3615Z" fill="#263238"/>
<path d="M105.832 79.3274C105.726 79.2376 105.566 79.2514 105.477 79.3581C105.387 79.4649 105.401 79.6239 105.508 79.7137L109.12 82.7535C109.112 82.5615 109.098 82.328 109.079 82.0592L105.832 79.3274Z" fill="#263238"/>
<path d="M98.5343 80.2191L102.597 77.6655C102.715 77.591 102.751 77.4358 102.677 77.3176C102.602 77.1993 102.446 77.1647 102.329 77.2377L98.4482 79.6769C98.4713 79.8527 98.5058 80.0394 98.5343 80.2191Z" fill="#FCBD01"/>
<path d="M94.3646 56.7444C93.8608 60.2726 93.4968 66.6685 95.9966 68.6737C95.9966 68.6737 92.7027 68.5862 86.359 73.678C84.0197 71.0714 85.3852 69.9801 85.3852 69.9801C89.1484 68.5939 88.9134 65.7553 88.1208 63.1595L94.3646 56.7444Z" fill="#FF8B7B"/>
<path d="M84.4047 52.4397C84.2887 52.9005 83.9539 53.23 83.6574 53.177C83.3602 53.124 83.2135 52.707 83.3295 52.247C83.4455 51.7862 83.7795 51.4567 84.0768 51.5097C84.374 51.5635 84.5207 51.9797 84.4047 52.4397Z" fill="#263238"/>
<path d="M84.2016 51.5588L83.1902 51.0443C83.1902 51.0443 83.5327 52.0089 84.2016 51.5588Z" fill="#263238"/>
<path d="M84.2086 53.3114C84.2086 53.3114 82.9391 55.1554 81.8501 55.9603C82.3071 56.6353 83.3923 56.5585 83.3923 56.5585L84.2086 53.3114Z" fill="#FF5652"/>
<path d="M84.0129 48.6358C83.9837 48.5736 83.9775 48.503 84.0021 48.4361C84.0528 48.2994 84.2133 48.2334 84.3608 48.2887C85.8353 48.8455 86.1679 50.0559 86.1809 50.1081C86.2185 50.2532 86.1272 50.3938 85.9759 50.4222C85.8253 50.4506 85.6725 50.3562 85.6333 50.211C85.621 50.1634 85.3492 49.2272 84.1764 48.7848C84.1012 48.7564 84.0436 48.7011 84.0129 48.6358Z" fill="#263238"/>
<path d="M99.8237 53.452C98.2101 58.8687 97.6426 61.1896 94.2135 63.5112C89.0563 67.0033 82.7603 64.2155 82.7242 58.5185C82.6919 53.3898 85.3361 45.3933 91.2198 44.1622C97.0159 42.9488 101.437 48.0353 99.8237 53.452Z" fill="#FF8B7B"/>
<path d="M87.2853 53.7899C84.0766 51.5097 85.6395 47.3195 88.584 47.192C84.744 44.504 86.7469 39.6403 91.4417 39.8323C96.1365 40.0243 96.8016 42.9043 96.8016 42.9043C96.8016 42.9043 104.371 43.2883 105.434 48.7925C106.685 55.2683 102.728 59.4163 97.8645 61.3363C101.172 64.0496 93.3679 65.9535 89.4864 63.7685C85.5074 61.5283 84.1311 56.676 87.2853 53.7899Z" fill="#263238"/>
<path d="M105.098 46.5146C100.969 45.7512 98.899 51.459 101.586 54.7937C102.055 55.375 102.52 55.7982 102.969 56.1C104.652 57.2328 106.94 56.0724 107.105 54.0502C107.328 51.3077 107.326 46.9263 105.098 46.5146Z" fill="white"/>
<path d="M116.304 49.4338C116.608 49.2049 116.81 48.9185 116.849 48.556C117.025 46.9432 115.803 45.8972 114.332 45.6668C113.45 42.8582 109.724 42.8067 107.628 44.8181C105.913 43.9426 104.003 45.8695 104.236 47.8817C102.428 48.6934 101.96 51.6917 103.604 53.4274C103.95 53.7922 104.285 54.051 104.603 54.2299C104.683 54.2753 104.767 54.296 104.85 54.3275C104.995 55.4849 105.934 56.6683 107.278 56.9325C107.676 57.0109 108.017 57.0247 108.31 56.9932C108.858 56.9348 109.269 56.5839 109.463 56.1361C110.665 57.123 111.946 57.765 112.859 57.1276C113.819 56.4594 114.203 55.5018 114.168 54.5118C114.801 54.7614 115.398 54.7891 115.888 54.4473C117.651 53.2208 117.502 51.0243 116.304 49.4338Z" fill="#263238"/>
<path d="M89.0479 54.6017C88.3782 55.6845 87.3844 56.2989 86.5081 56.4479C85.1895 56.6722 84.7655 55.1454 85.3285 53.7108C85.8354 52.419 87.1317 50.7455 88.3605 51.181C89.5701 51.6095 89.8136 53.3636 89.0479 54.6017Z" fill="#FF8B7B"/>
<path d="M87.2854 50.5843C88.4136 48.4293 94.5998 42.5364 98.7171 42.7545C99.7831 43.0425 100.653 43.458 101.147 43.7237C101.283 43.7967 101.243 43.9971 101.09 44.0156C99.4751 44.2045 94.2335 45.4141 89.3198 53.144C88.2001 52.4083 87.2854 50.5843 87.2854 50.5843Z" fill="#FCBD01"/>
<path d="M89.7538 54.9695C88.7615 57.1768 86.7693 58.4317 85.3048 57.7735C83.8394 57.1146 83.4562 54.7921 84.4485 52.5849C85.4407 50.3777 87.4329 49.1228 88.8975 49.7809C90.3621 50.4391 90.7453 52.7623 89.7538 54.9695Z" fill="white"/>
<path d="M88.5394 54.4235C87.6432 56.4164 85.9267 57.5869 84.7048 57.0378C83.4829 56.4886 83.2187 54.4273 84.115 52.4344C85.0105 50.4414 86.7277 49.271 87.9496 49.8201C89.1707 50.3692 89.4349 52.4305 88.5394 54.4235Z" fill="#FCBD01"/>
<path d="M114.9 222.647C119.214 222.007 119.297 221.29 121.611 220.479C123.592 219.78 124.15 219.881 125.748 219.341C127.083 218.891 126.63 217.619 125.752 216.269C125.312 215.59 125.248 214.944 124.767 213.743L118.213 214.715C117.575 216.545 117.35 218.886 113.609 220.225C111.38 221.023 113.18 222.903 114.9 222.647Z" fill="#263238"/>
<path d="M74.935 222.664C79.2219 222.656 80.0468 222.382 82.456 222.3C84.5211 222.225 84.8606 222.664 86.9542 222.664C88.3412 222.664 88.5324 221.102 88.0248 219.931C87.6292 219.018 87.5693 217.927 87.2813 216.743H81.3693C80.3025 218.617 77.3956 220.004 74.1455 220.235C71.8238 220.407 73.2185 222.664 74.935 222.664Z" fill="#263238"/>
<path d="M79.947 105.803C79.947 105.803 79.0923 136.65 80.9193 156.239C80.8049 174.629 81.3709 216.743 81.3709 216.743C81.5138 217.682 86.4466 217.307 87.283 216.743C87.283 216.743 96.5197 186.068 92.4194 156.239C102.684 125.129 100.47 105.803 100.47 105.803H79.947Z" fill="#FCBD01"/>
<path d="M117.352 212.331C117.422 212.929 117.521 213.974 117.485 214.788C117.471 215.081 117.703 215.318 117.997 215.321C120.453 215.349 123.842 214.278 124.914 213.916C125.119 213.847 125.255 213.656 125.257 213.439L125.277 211.119C125.281 210.802 124.996 210.559 124.683 210.612L117.774 211.773C117.508 211.818 117.322 212.061 117.352 212.331Z" fill="#FCBD01"/>
<path opacity="0.5" d="M117.352 212.331C117.422 212.929 117.521 213.974 117.485 214.788C117.471 215.081 117.703 215.318 117.997 215.321C120.453 215.349 123.842 214.278 124.914 213.916C125.119 213.847 125.255 213.656 125.257 213.439L125.277 211.119C125.281 210.802 124.996 210.559 124.683 210.612L117.774 211.773C117.508 211.818 117.322 212.061 117.352 212.331Z" fill="white"/>
<path d="M80.6935 214.151C80.6758 214.79 80.6382 215.928 80.5798 216.769C80.5606 217.047 80.7672 217.292 81.0468 217.331C83.1388 217.619 86.475 217.358 87.5694 217.259C87.786 217.239 87.958 217.082 87.9987 216.869L88.4388 214.579C88.4987 214.267 88.2552 213.964 87.9334 213.951L81.2004 213.683C80.9247 213.672 80.7012 213.876 80.6935 214.151Z" fill="#FCBD01"/>
<path opacity="0.5" d="M80.6935 214.151C80.6758 214.79 80.6382 215.928 80.5798 216.769C80.5606 217.047 80.7672 217.292 81.0468 217.331C83.1388 217.619 86.475 217.358 87.5694 217.259C87.786 217.239 87.958 217.082 87.9987 216.869L88.4388 214.579C88.4987 214.267 88.2552 213.964 87.9334 213.951L81.2004 213.683C80.9247 213.672 80.7012 213.876 80.6935 214.151Z" fill="white"/>
<path d="M76.0394 79.9526C76.2513 82.2589 76.5155 85.1788 77.5085 90.6247C78.2612 95.245 78.8149 99.7516 79.9086 107.372C90.4924 108.483 102.946 107.587 103.492 105.803C102.657 99.2063 102.682 90.3037 105.056 74.9752C105.606 71.4209 103.031 68.3896 99.5225 68.4648C98.5848 68.4848 97.5933 68.527 96.5795 68.6031C92.6374 68.8957 89.4095 69.166 85.9673 69.9094C84.8268 70.156 83.6495 70.4478 82.5259 70.7473C78.4724 71.8271 75.66 75.8192 76.0394 79.9526Z" fill="#FCBD01"/>
<path opacity="0.8" d="M76.0394 79.9526C76.2513 82.2589 76.5155 85.1788 77.5085 90.6247C78.2612 95.245 78.8149 99.7516 79.9086 107.372C90.4924 108.483 102.946 107.587 103.492 105.803C102.657 99.2063 102.682 90.3037 105.056 74.9752C105.606 71.4209 103.031 68.3896 99.5225 68.4648C98.5848 68.4848 97.5933 68.527 96.5795 68.6031C92.6374 68.8957 89.4095 69.166 85.9673 69.9094C84.8268 70.156 83.6495 70.4478 82.5259 70.7473C78.4724 71.8271 75.66 75.8192 76.0394 79.9526Z" fill="white"/>
<path d="M77.9358 73.7948L79.1661 75.3392C79.2161 75.4014 79.2898 75.4344 79.3635 75.4344C79.4188 75.4344 79.4741 75.4168 79.5202 75.3791C79.6292 75.2923 79.6477 75.1341 79.5609 75.0251L78.2676 73.4008C78.1531 73.5298 78.0425 73.6604 77.9358 73.7948Z" fill="#263238"/>
<path d="M83.5674 72.8877C83.5728 72.8877 83.5781 72.8885 83.5835 72.8885C83.7156 72.8885 83.827 72.7856 83.8354 72.652L83.9783 70.3756C83.8055 70.4186 83.6365 70.4632 83.4645 70.5069L83.3316 72.6205C83.3224 72.7587 83.4284 72.8785 83.5674 72.8877Z" fill="#FCBD01"/>
<path d="M94.6088 74.9229C94.6518 74.9514 94.7002 74.9652 94.7478 74.9652C94.8292 74.9652 94.9099 74.9252 94.9583 74.8523C95.0351 74.7363 95.0028 74.5796 94.8868 74.5028L88.4287 70.2374C88.3128 70.1606 88.1569 70.1921 88.0793 70.3088C88.0025 70.4248 88.034 70.5814 88.1507 70.6582L94.6088 74.9229Z" fill="#FCBD01"/>
<path d="M83.5914 76.353C83.5407 76.4827 83.6044 76.6287 83.7342 76.6794L90.9419 79.5002C90.9726 79.5125 91.0034 79.5179 91.0341 79.5179C91.1347 79.5179 91.2299 79.4572 91.2691 79.3574C91.3198 79.2276 91.2553 79.0817 91.1262 79.031L83.9186 76.2101C83.7888 76.1579 83.6421 76.2224 83.5914 76.353Z" fill="#263238"/>
<path d="M79.4278 89.1824C79.4701 89.21 79.5177 89.2231 79.5645 89.2231C79.6467 89.2231 79.7281 89.1824 79.7765 89.1079L83.9759 82.6068C84.0512 82.49 84.0181 82.3334 83.9006 82.2581C83.7839 82.1828 83.628 82.2166 83.552 82.3334L79.3525 88.8345C79.2773 88.9512 79.3103 89.1071 79.4278 89.1824Z" fill="#FCBD01"/>
<path d="M77.3727 83.5046C77.4219 83.5507 77.4833 83.5729 77.5456 83.5729C77.6131 83.5729 77.68 83.546 77.7299 83.4931C77.8251 83.3917 77.8197 83.2319 77.7184 83.1367L76.2092 81.7236C76.2338 81.9693 76.2607 82.2251 76.2899 82.4908L77.3727 83.5046Z" fill="#FCBD01"/>
<path d="M100.154 87.8069C100.023 87.8553 99.9557 87.9997 100.003 88.1302C100.041 88.2324 100.138 88.2961 100.241 88.2961C100.27 88.2961 100.299 88.2915 100.327 88.2808L103.52 87.1134C103.537 86.9306 103.556 86.7417 103.574 86.5566L100.154 87.8069Z" fill="#FCBD01"/>
<path d="M98.7885 82.6029C98.8346 82.6029 98.8806 82.5899 98.9221 82.5645L104.459 79.0847C104.489 78.8674 104.518 78.6524 104.548 78.4319L98.6541 82.1368C98.5366 82.2113 98.5005 82.3664 98.575 82.4847C98.6218 82.5615 98.704 82.6029 98.7885 82.6029Z" fill="#FCBD01"/>
<path d="M95.009 83.5745C94.9346 83.457 94.7786 83.4216 94.6611 83.4946L88.1086 87.6134C87.9903 87.6879 87.955 87.843 88.0287 87.9613C88.0771 88.0373 88.1585 88.0796 88.2422 88.0796C88.2883 88.0796 88.3351 88.0665 88.3766 88.0411L94.9292 83.9224C95.0474 83.8479 95.0828 83.692 95.009 83.5745Z" fill="#FCBD01"/>
<path d="M100.534 74.8531C100.563 74.8531 100.594 74.8477 100.623 74.8369C100.754 74.7878 100.819 74.6426 100.77 74.5121L98.5019 68.4986C98.3245 68.5055 98.1502 68.5109 97.9705 68.5194L100.297 74.6902C100.336 74.7908 100.432 74.8531 100.534 74.8531Z" fill="#263238"/>
<path d="M94.0305 106.32C93.9146 106.243 93.7579 106.275 93.6811 106.392C93.6043 106.508 93.6358 106.665 93.7525 106.741L95.1895 107.69C95.4698 107.671 95.7455 107.652 96.0166 107.631L94.0305 106.32Z" fill="#FCBD01"/>
<path d="M103.29 103.932L97.6978 101.743C97.568 101.692 97.4221 101.756 97.3714 101.886C97.3207 102.016 97.3845 102.162 97.5143 102.212L103.343 104.493C103.323 104.31 103.308 104.118 103.29 103.932Z" fill="#FCBD01"/>
<path d="M79.657 105.6C79.6785 105.755 79.7 105.906 79.7223 106.064C79.8144 106.024 79.8858 105.947 79.8828 105.84C79.8782 105.714 79.776 105.599 79.657 105.6Z" fill="#263238"/>
<path d="M79.5874 97.8708C79.6596 97.8708 79.7311 97.8401 79.7802 97.7809C79.8701 97.6742 79.8562 97.5152 79.7495 97.4253L78.3533 96.2511C78.3878 96.4984 78.4232 96.7464 78.4585 96.9991L79.4246 97.8116C79.4723 97.8516 79.5298 97.8708 79.5874 97.8708Z" fill="#FCBD01"/>
<path d="M91.3873 95.3456C91.4879 95.3456 91.5831 95.2849 91.6223 95.1851C91.673 95.0553 91.6092 94.9094 91.4794 94.8587L84.2733 92.0355C84.1443 91.9848 83.9976 92.0486 83.9461 92.1784C83.8954 92.3082 83.9592 92.4541 84.089 92.5048L91.2951 95.3279C91.3258 95.3402 91.3565 95.3456 91.3873 95.3456Z" fill="#263238"/>
<path d="M89.7174 98.6787L83.1641 102.798C83.0466 102.872 83.0105 103.027 83.085 103.145C83.1326 103.221 83.2148 103.264 83.2985 103.264C83.3446 103.264 83.3906 103.251 83.4321 103.225L89.9855 99.1065C90.103 99.032 90.1391 98.8769 90.0646 98.7586C89.9908 98.6403 89.8342 98.6058 89.7174 98.6787Z" fill="#FCBD01"/>
<path d="M95.7681 96.7211C95.8157 96.7971 95.8979 96.8394 95.9816 96.8394C96.0276 96.8394 96.0737 96.8263 96.1152 96.801L102.669 92.6822C102.786 92.6077 102.822 92.4525 102.748 92.3343C102.674 92.216 102.517 92.1807 102.4 92.2544L95.8464 96.3732C95.7289 96.4477 95.6936 96.6028 95.7681 96.7211Z" fill="#263238"/>
<path d="M88.3421 106.554C88.2929 106.423 88.1478 106.358 88.0172 106.407C87.8874 106.456 87.8214 106.601 87.8705 106.732L88.2921 107.85C88.4726 107.852 88.6539 107.855 88.8336 107.856L88.3421 106.554Z" fill="#263238"/>
<path d="M83.0083 80.1046C82.9499 80.6061 82.9015 80.9602 82.8401 81.3672C82.781 81.762 82.7034 82.1468 82.6312 82.5323C82.4822 83.3011 82.3133 84.0598 82.1351 84.8171C81.7603 86.3254 81.311 87.8154 80.7726 89.2822C80.2519 90.7537 79.6283 92.2006 78.9218 93.6184C78.2436 95.0461 77.3965 96.42 76.5156 97.7663L76.3566 98.0098C76.2637 98.1519 76.1485 98.287 76.031 98.3992C74.6233 99.7316 73.3492 100.619 72.0344 101.544C70.7318 102.453 69.4063 103.284 68.0845 104.102C66.752 104.904 65.4142 105.684 64.0564 106.427C62.684 107.153 61.333 107.885 59.9115 108.549C58.867 109.038 57.6244 108.587 57.1359 107.542C56.745 106.707 56.9554 105.745 57.589 105.143L57.6075 105.127C58.7088 104.084 59.8616 103.081 60.9813 102.056L64.3743 99.052C65.5087 98.0674 66.6107 97.0598 67.699 96.0813C68.242 95.5891 68.7642 95.0968 69.2642 94.6052L69.9769 93.8856C70.2065 93.6514 70.3762 93.4402 70.5805 93.2205L70.0959 93.8526C70.6635 92.7175 71.2064 91.5693 71.6742 90.359C72.1411 89.154 72.5735 87.9229 72.9506 86.6634C73.323 85.4046 73.6748 84.1313 73.9751 82.8449C74.1279 82.2028 74.2738 81.5592 74.4006 80.918L74.7415 79.0947L74.7853 78.8612C75.2077 76.6026 77.3819 75.1134 79.6406 75.5366C81.7995 75.9382 83.2525 77.9558 83.0083 80.1046Z" fill="#FF8B7B"/>
<path d="M59.6127 104.962L55.305 103.687C54.5884 103.475 53.8204 103.526 53.1384 103.83L51.2561 104.668C50.3322 105.08 49.9274 106.171 50.3583 107.085L51.2177 108.909C51.5732 109.663 52.3988 110.076 53.2152 109.907L56.586 109.21C56.586 109.21 58.2587 109.336 59.7778 108.763C60.9805 108.309 61.4282 106.835 60.7109 105.768C60.449 105.38 60.0612 105.095 59.6127 104.962Z" fill="#FF8B7B"/>
<path d="M81.0551 71.3663C77.424 72.7288 74.3189 75.8975 72.8259 84.0783C74.8043 86.6004 81.8814 87.9321 81.8814 87.9321C81.8814 87.9321 87.166 77.0918 81.0551 71.3663Z" fill="#FCBD01"/>
<path opacity="0.8" d="M81.0551 71.3663C77.424 72.7288 74.3189 75.8975 72.8259 84.0783C74.8043 86.6004 81.8814 87.9321 81.8814 87.9321C81.8814 87.9321 87.166 77.0918 81.0551 71.3663Z" fill="white"/>
<path d="M79.1659 75.3392C79.2158 75.4014 79.2895 75.4344 79.3633 75.4344C79.4186 75.4344 79.4739 75.4168 79.5199 75.3791C79.629 75.2923 79.6474 75.1341 79.5607 75.0251L78.0362 73.1105C77.9079 73.2172 77.782 73.3286 77.656 73.4438L79.1659 75.3392Z" fill="#263238"/>
<path d="M83.5914 76.353C83.5407 76.4827 83.6044 76.6287 83.7342 76.6794L83.8195 76.7131C83.7911 76.5457 83.7611 76.3791 83.725 76.2132C83.6667 76.2385 83.6167 76.2877 83.5914 76.353Z" fill="#263238"/>
<path d="M80.702 87.674L83.4184 83.4692C83.5136 83.076 83.602 82.6674 83.6795 82.245C83.6311 82.2635 83.582 82.2865 83.552 82.3334L80.1836 87.5481C80.3694 87.5942 80.5407 87.6356 80.702 87.674Z" fill="#FCBD01"/>
<path d="M77.3729 83.5046C77.422 83.5506 77.4835 83.5729 77.5457 83.5729C77.6133 83.5729 77.6801 83.546 77.73 83.493C77.8252 83.3917 77.8198 83.2319 77.7185 83.1367L73.9583 79.6162C73.8992 79.7905 73.8401 79.9626 73.7825 80.143L77.3729 83.5046Z" fill="#FCBD01"/>
</svg>
