<svg width="81" height="152" viewBox="0 0 81 152" fill="none" xmlns="http://www.w3.org/2000/svg">
<path d="M57.1995 60.828L80.603 82.7215L75.7015 88.038L54.8005 63.585L57.1995 60.828Z" fill="#9FAAC9"/>
<path d="M75.7015 88.038L59.895 90.0045L47.426 66.807L54.8005 63.585L75.7015 88.038Z" fill="#9FAAC9"/>
<path d="M75.7016 88.038C75.6671 88.043 75.5521 87.495 75.3916 86.5965C75.2311 85.698 75.0261 84.449 74.8116 83.053L74.7896 82.9115L74.9326 82.9035C75.0291 82.898 75.1321 82.8925 75.2361 82.8865C76.7161 82.805 78.0566 82.7455 79.0276 82.7155C79.9986 82.6855 80.6001 82.685 80.6021 82.721C80.6041 82.757 80.0061 82.8225 79.0376 82.8995C78.0691 82.9765 76.7301 83.065 75.2501 83.1465C75.1461 83.152 75.0426 83.158 74.9461 83.163L75.0676 83.0135C75.2781 84.4105 75.4536 85.664 75.5676 86.5695C75.6831 87.4755 75.7361 88.033 75.7016 88.038Z" fill="#263238"/>
<path d="M56.0347 62.1565C56.0882 62.108 60.3637 66.743 65.5837 72.507C70.8052 78.273 74.9937 82.985 74.9402 83.0335C74.8867 83.082 70.6122 78.448 65.3907 72.682C60.1707 66.9175 55.9817 62.2045 56.0347 62.1565Z" fill="#263238"/>
<g opacity="0.3">
<path d="M75.7015 88.038L59.895 90.0045L47.426 66.807L54.8005 63.585L75.7015 88.038Z" fill="black"/>
</g>
<path d="M74.7195 91.659L67.478 97.831L54.72 66.5025L55.3425 66.1195L74.7195 91.659Z" fill="#455A64"/>
<path d="M67.4781 97.831L55.9346 94.987L47.2036 68.1715L54.7201 66.5025L67.4781 97.831Z" fill="#455A64"/>
<g opacity="0.3">
<path d="M67.4781 97.831L55.9346 94.987L47.2036 68.1715L54.7201 66.5025L67.4781 97.831Z" fill="black"/>
</g>
<path d="M67.4781 97.831C67.4606 97.827 67.4821 97.6465 67.5366 97.323C67.5911 96.9995 67.6781 96.5335 67.7911 95.9585C68.0171 94.809 68.3466 93.225 68.7261 91.4785C68.7846 91.2105 68.8426 90.946 68.8976 90.6955L68.9241 90.574L69.0461 90.5955C70.6226 90.8745 72.0166 91.1335 73.0151 91.331C74.0136 91.5285 74.6166 91.6645 74.6106 91.697C74.6051 91.7295 73.9916 91.6535 72.9851 91.5015C71.9786 91.3495 70.5791 91.121 69.0016 90.85L69.1501 90.75C69.0961 91.001 69.0386 91.265 68.9806 91.5335C68.6011 93.28 68.2431 94.858 67.9711 95.9975C67.8351 96.5675 67.7206 97.0275 67.6361 97.344C67.5506 97.6615 67.4956 97.835 67.4781 97.831Z" fill="#263238"/>
<path d="M55.0136 66.3765C55.0761 66.3405 58.2626 71.762 62.1311 78.4845C66.0006 85.209 69.0856 90.6875 69.0231 90.7235C68.9606 90.7595 65.7746 85.339 61.9051 78.6145C58.0376 71.892 54.9516 66.4125 55.0136 66.3765Z" fill="#263238"/>
<path d="M52.274 65.7945L62.3685 89.1825L54.099 92.0515L51.6155 65.9355L52.274 65.7945Z" fill="#FCBD01"/>
<path d="M54.0989 92.0515L46.4299 90.317L45.3784 66.76L51.6154 65.9355L54.0989 92.0515Z" fill="#FCBD01"/>
<g opacity="0.3">
<path d="M54.0989 92.0515L46.4299 90.317L45.3784 66.76L51.6154 65.9355L54.0989 92.0515Z" fill="black"/>
</g>
<path d="M54.0996 92.0515C54.0721 92.0285 54.4277 91.552 55.0247 90.801C55.6217 90.0495 56.4606 89.0235 57.3991 87.9005C57.5041 87.7755 57.6077 87.6515 57.7057 87.535L57.7631 87.4665L57.8471 87.4955C59.1271 87.9375 60.2631 88.3435 61.0761 88.6465C61.8891 88.95 62.3796 89.1505 62.3686 89.1825C62.3576 89.2145 61.8472 89.0725 61.0192 88.813C60.1912 88.5535 59.0452 88.177 57.7627 87.7405L57.9041 87.701C57.8066 87.818 57.7032 87.942 57.5987 88.0675C56.6602 89.1905 55.7991 90.198 55.1656 90.919C54.5326 91.64 54.1271 92.0745 54.0996 92.0515Z" fill="#263238"/>
<path d="M51.9519 65.8635C52.0214 65.845 53.3879 70.7 55.0039 76.7065C56.6204 82.715 57.8739 87.5995 57.8044 87.618C57.7349 87.6365 56.3689 82.7825 54.7524 76.774C53.1364 70.7675 51.8829 65.882 51.9519 65.8635Z" fill="#263238"/>
<path d="M57.1994 60.828L48.7334 64.717L49.5859 65.8635L54.8004 63.585L57.1994 60.828Z" fill="#263238"/>
<path d="M55.3427 66.1195L52.6602 66.689L52.7822 66.9325L54.7202 66.5025L55.3427 66.1195Z" fill="#263238"/>
<path d="M52.5151 32.7055C52.5151 32.7055 55.3556 36.3725 55.6621 38.695C55.9156 40.615 57.3026 51.02 58.0091 55.92C58.2976 57.9205 57.8126 59.991 56.5251 61.549C55.3011 63.03 53.4521 64.073 50.9491 62.3195C49.2296 61.1145 44.8296 56.193 44.8296 56.193L52.0656 33.5255" fill="#FCBD01"/>
<path d="M44.6786 1.31151C43.2786 0.878505 41.7046 1.04101 40.4226 1.75151C39.7091 0.834008 38.4821 0.345509 37.3331 0.521009C36.1841 0.696509 35.1591 1.53 34.7526 2.6185C33.5311 2.125 31.9861 2.6495 31.3171 3.7845C30.6481 4.91951 30.9381 6.52551 31.9616 7.35501C30.9626 7.76951 30.1751 8.6625 29.8886 9.7055C29.6016 10.7485 29.8221 11.9185 30.4681 12.7855C29.3981 13.304 29.2151 14.7525 29.3731 15.931C29.5311 17.1095 29.8706 18.372 29.3421 19.437C28.9341 20.2595 28.0921 20.7685 27.5166 21.484C26.9411 22.1995 26.7396 23.4315 27.5196 23.9165C26.1911 24.0955 25.1656 25.51 25.4086 26.828C25.6516 28.1465 27.1136 29.102 28.4186 28.796C27.9836 29.7235 28.1711 30.8665 28.7421 31.7165C29.3136 32.567 30.2206 33.148 31.1841 33.4965C33.9556 34.5005 37.3181 33.552 39.1566 31.248L47.9446 4.076C47.2856 2.767 46.0786 1.74451 44.6786 1.31151Z" fill="#263238"/>
<path d="M48.858 8.84001L48.9755 7.37402L40.2605 5.16702C37.5595 4.71602 34.4565 7.26352 34.1205 9.98102C33.747 13.0005 33.4105 16.7015 33.6335 18.9845C34.082 23.575 37.5325 24.3635 37.5325 24.3635L37.28 28.8785L47.3285 29.61L48.858 8.84001Z" fill="#AE7461"/>
<path d="M35.1856 14.311C35.1561 14.6185 35.3921 14.8965 35.7126 14.933C36.0321 14.9695 36.3156 14.7505 36.3451 14.4435C36.3746 14.136 36.1386 13.8575 35.8191 13.821C35.4986 13.7845 35.2151 14.004 35.1856 14.311Z" fill="#263238"/>
<path d="M34.9656 11.9705C35.0331 12.051 35.4945 11.7505 36.122 11.79C36.749 11.8205 37.1905 12.171 37.263 12.098C37.2985 12.066 37.233 11.9245 37.0415 11.7665C36.8525 11.6095 36.5246 11.4475 36.1336 11.426C35.7426 11.4045 35.405 11.5285 35.2075 11.6645C35.0055 11.8005 34.9321 11.934 34.9656 11.9705Z" fill="#263238"/>
<path d="M40.6885 14.6515C40.659 14.959 40.8955 15.237 41.2155 15.2735C41.535 15.31 41.8185 15.091 41.848 14.784C41.8775 14.4765 41.6415 14.198 41.322 14.1615C41.0015 14.125 40.718 14.3445 40.6885 14.6515Z" fill="#263238"/>
<path d="M41.1271 12.4585C41.1951 12.5385 41.6571 12.2385 42.2836 12.278C42.9106 12.3085 43.3521 12.659 43.4251 12.586C43.4601 12.554 43.3956 12.4125 43.2031 12.2545C43.0146 12.097 42.6861 11.9355 42.2956 11.914C41.9046 11.8925 41.5671 12.017 41.3691 12.1525C41.1676 12.2885 41.0936 12.4225 41.1271 12.4585Z" fill="#263238"/>
<path d="M38.5696 16.9755C38.5746 16.94 38.1886 16.8495 37.5616 16.7305C37.4021 16.7045 37.2526 16.6635 37.2321 16.5525C37.2011 16.4345 37.2786 16.2655 37.3676 16.084C37.5416 15.705 37.7236 15.3085 37.9151 14.8925C38.6776 13.195 39.2401 11.795 39.1711 11.765C39.1026 11.735 38.4286 13.0865 37.6661 14.784C37.4821 15.203 37.3061 15.602 37.1386 15.984C37.0671 16.1625 36.9501 16.3625 37.0176 16.608C37.0536 16.73 37.1661 16.8245 37.2671 16.858C37.3681 16.8955 37.4581 16.9025 37.5366 16.912C38.1706 16.9845 38.5651 17.011 38.5696 16.9755Z" fill="#263238"/>
<path d="M37.5335 24.375C37.5335 24.375 40.7365 24.7565 43.877 23.117C43.877 23.117 42.1495 26.2085 37.4685 25.509L37.5335 24.375Z" fill="#6F4439"/>
<path d="M41.2716 10.2925C41.3336 10.4635 41.961 10.3825 42.6985 10.471C43.438 10.545 44.0325 10.761 44.1305 10.608C44.174 10.5345 44.0705 10.374 43.83 10.2085C43.5915 10.043 43.211 9.886 42.7685 9.837C42.326 9.7885 41.9205 9.859 41.6515 9.968C41.3815 10.077 41.2451 10.2115 41.2716 10.2925Z" fill="#263238"/>
<path d="M35.1171 10.4165C35.2176 10.5665 35.6601 10.4485 36.1801 10.4775C36.7011 10.488 37.1331 10.6395 37.2446 10.4975C37.2936 10.428 37.2346 10.2805 37.0516 10.1325C36.8716 9.98502 36.5621 9.85352 36.2046 9.83952C35.8466 9.82602 35.5286 9.93402 35.3376 10.0675C35.1441 10.201 35.0736 10.343 35.1171 10.4165Z" fill="#263238"/>
<path d="M34.1376 6.71099C35.1631 5.36799 36.6511 4.38549 38.2886 3.96999L45.6506 4.89599L46.2776 4.88499C46.4156 4.42099 47.1981 4.17799 47.1981 4.17799C47.8901 3.64749 50.2866 3.61849 51.9566 5.36449C52.5591 5.99449 52.9871 7.57849 53.0011 8.44999C53.0061 8.77999 52.6531 9.23199 52.9286 9.41349C53.0251 9.47699 53.8206 9.46049 53.9336 9.48499C55.8061 9.89499 56.9766 11.555 56.6371 14.0375C56.6201 14.163 56.5761 14.2875 56.5966 14.412C56.6296 14.6085 56.7881 14.755 56.9246 14.9C57.8161 15.8435 58.0326 17.3615 57.4406 18.5165C57.2581 18.873 57.0036 19.2065 56.9396 19.602C56.8261 20.31 57.3431 20.9415 57.7441 21.536C58.9456 23.3195 59.2036 25.9105 57.7931 27.534C57.4506 27.9285 57.0086 28.2805 56.8801 28.7875C56.8176 29.035 56.8376 29.295 56.8396 29.5505C56.8486 30.846 56.1656 32.2955 54.8991 32.569C54.1961 32.7205 53.3426 32.522 52.8421 33.039C52.6241 33.264 52.5321 33.5785 52.3931 33.8595C51.8636 34.931 50.5076 35.5145 49.3656 35.1625C48.2231 34.8105 47.8446 30.1755 48.0101 28.9915C46.6266 28.4885 45.6026 28.3995 45.6671 26.9285C45.6671 26.9285 45.8811 24.397 45.4711 23.164C45.0616 21.931 45.8831 19.3065 46.3516 18.0325C46.8201 16.758 46.2616 13.791 46.1366 12.6115C46.1146 12.4055 46.1546 12.0485 46.2346 11.6025L46.2341 11.6035C46.2346 11.6025 46.2351 11.601 46.2351 11.6C46.2861 11.3135 46.3536 10.9905 46.4326 10.644C46.4616 10.3215 46.7271 8.59949 46.7221 8.29849C46.7041 7.18349 45.3196 7.77949 44.2626 8.13499C44.0071 8.22099 43.7391 8.27049 43.4696 8.27749C42.5996 8.30149 41.7286 7.88849 41.1961 7.19999C40.1981 8.26449 38.5851 8.70549 37.1841 8.29699C36.6156 9.09049 36.0376 9.89399 35.2811 10.511C34.5246 11.128 33.5546 11.546 32.5846 11.438C32.5556 9.74799 33.1121 8.05349 34.1376 6.71099Z" fill="#263238"/>
<path d="M39.0239 18.4975C39.2304 18.194 39.6105 18.0135 39.9975 18.036C40.266 18.0515 40.5425 18.1665 40.7155 18.376C40.8885 18.5855 40.938 18.8925 40.801 19.107C40.6465 19.349 40.3024 19.42 40.0044 19.3515C39.7064 19.2825 39.4439 19.102 39.1944 18.9215C39.1254 18.8715 39.0549 18.8195 39.0094 18.7485C38.9644 18.6775 38.9509 18.5825 38.9989 18.5195" fill="#6F4439"/>
<path d="M40.5216 17.3625C40.4211 17.3615 40.4535 18.0295 39.9055 18.5325C39.3585 19.037 38.643 18.9975 38.6425 19.091C38.6355 19.1335 38.8075 19.213 39.1085 19.206C39.404 19.2015 39.8296 19.085 40.1651 18.7775C40.4996 18.469 40.6301 18.0735 40.6391 17.7985C40.6501 17.518 40.5671 17.356 40.5216 17.3625Z" fill="#263238"/>
<path d="M26.5521 137.14L27.3806 145.769C27.3806 145.769 17.9755 149.283 17.873 151.021L35.6541 151.07L35.6441 149.769L34.8981 145.33L33.7991 136.708L26.5521 137.14Z" fill="#455A64"/>
<path d="M32.733 144.43C33.0855 144.526 33.33 144.921 33.249 145.277C33.168 145.633 32.7685 145.885 32.414 145.796C32.06 145.707 31.752 145.241 31.8725 144.896C31.9925 144.552 32.4785 144.281 32.8005 144.453" fill="#9FAAC9"/>
<path d="M35.6541 151.07L35.6441 149.769L18.5891 150.096C18.5891 150.096 17.7801 150.451 17.8726 151.021L35.6541 151.07Z" fill="#263238"/>
<path d="M27.085 145.678C27.088 145.767 27.5325 145.806 27.9705 146.09C28.416 146.363 28.6425 146.748 28.724 146.712C28.806 146.695 28.672 146.164 28.1355 145.829C27.603 145.489 27.066 145.596 27.085 145.678Z" fill="#263238"/>
<path d="M25.1785 146.471C25.1585 146.557 25.5435 146.708 25.8465 147.083C26.1605 147.449 26.2375 147.855 26.326 147.851C26.4095 147.865 26.47 147.344 26.0845 146.885C25.703 146.422 25.1805 146.387 25.1785 146.471Z" fill="#263238"/>
<path d="M24.1005 148.758C24.181 148.777 24.304 148.333 24.0745 147.847C23.8485 147.359 23.4291 147.168 23.3916 147.242C23.3416 147.315 23.6121 147.576 23.7941 147.978C23.9856 148.375 24.012 148.75 24.1005 148.758Z" fill="#263238"/>
<path d="M26.4546 143.602C26.4921 143.683 26.8996 143.56 27.4016 143.592C27.9046 143.615 28.2961 143.782 28.3416 143.706C28.3931 143.642 28.0106 143.314 27.4181 143.284C26.8271 143.249 26.4106 143.532 26.4546 143.602Z" fill="#263238"/>
<path d="M48.403 137.384L49.165 145.866C49.165 145.866 39.904 149.261 39.7935 150.969L57.2615 151.123L57.2595 149.846L56.5535 145.48L55.5255 137.003L48.403 137.384Z" fill="#455A64"/>
<path d="M54.4311 144.583C54.7766 144.679 55.0146 145.068 54.9326 145.418C54.8511 145.767 54.4566 146.012 54.1096 145.922C53.7621 145.833 53.4626 145.373 53.5826 145.035C53.7026 144.697 54.1816 144.435 54.4971 144.605" fill="#9FAAC9"/>
<path d="M57.2611 151.123L57.2591 149.846L40.5026 150.064C40.5026 150.064 39.7056 150.408 39.7931 150.969L57.2611 151.123Z" fill="#263238"/>
<path d="M48.8755 145.774C48.878 145.862 49.3145 145.903 49.7425 146.185C50.1785 146.456 50.3985 146.835 50.479 146.8C50.5595 146.784 50.431 146.261 49.9065 145.929C49.3845 145.592 48.8565 145.694 48.8755 145.774Z" fill="#263238"/>
<path d="M46.9976 146.543C46.9771 146.627 47.3546 146.778 47.6501 147.148C47.9561 147.509 48.0296 147.908 48.1166 147.905C48.1986 147.919 48.2611 147.408 47.8851 146.954C47.5131 146.498 46.9996 146.459 46.9976 146.543Z" fill="#263238"/>
<path d="M45.9245 148.783C46.004 148.802 46.127 148.366 45.9045 147.888C45.6855 147.407 45.2745 147.217 45.237 147.29C45.1875 147.361 45.4515 147.619 45.628 148.015C45.814 148.406 45.8375 148.774 45.9245 148.783Z" fill="#263238"/>
<path d="M48.2682 143.732C48.3047 143.811 48.7056 143.692 49.1986 143.728C49.6926 143.753 50.0761 143.921 50.1216 143.846C50.1726 143.783 49.7987 143.458 49.2172 143.424C48.6362 143.387 48.2257 143.663 48.2682 143.732Z" fill="#263238"/>
<path d="M26.1677 62.098C26.1677 62.098 21.9532 74.3045 21.8077 83.385C21.6622 92.4655 21.5172 106.905 23.4062 122.833C25.2957 138.761 26.1677 145.162 26.1677 145.162H35.7597C35.7597 145.162 36.7772 135.188 36.6317 126.257C36.4862 117.325 35.7882 114.497 36.6457 104.672C37.5037 94.847 38.8607 88.946 40.2897 85.969C40.2897 85.969 44.2487 81.2625 44.5397 74.8065C44.8302 68.3505 42.5457 62.802 42.5457 62.802L26.1677 62.098Z" fill="#263238"/>
<path d="M34.6917 79.223C34.8512 79.7135 37.6976 99.7255 39.7741 108.553C41.8506 117.38 44.1606 119.716 44.5656 126.896C45.0316 135.154 47.2992 145.162 47.2992 145.162H57.5127C57.5127 145.162 56.0767 129.896 54.6402 117.964C53.2037 106.031 51.1292 91.3195 51.4482 86.906C51.7672 82.4925 52.5652 77.042 51.4482 70.8585C50.3312 64.675 47.9156 63.045 47.9156 63.045L39.2506 62.653L34.6917 79.223Z" fill="#263238"/>
<path d="M44.3049 67.7765C44.3114 67.773 44.3654 67.8795 44.4634 68.087C44.5739 68.2895 44.6779 68.611 44.8099 69.0265C45.0464 69.866 45.2029 71.1295 45.1469 72.6845C45.0974 74.239 44.8384 76.083 44.3069 78.07C44.0369 79.0615 43.6839 80.089 43.1924 81.0995C42.7029 82.113 42.0234 83.066 41.3469 84.028C39.9584 85.9405 39.2729 88.1185 38.7539 90.0855C38.2489 92.065 37.9779 93.891 37.7844 95.4255C37.5959 96.9615 37.4829 98.21 37.3979 99.072C37.3559 99.488 37.3229 99.8185 37.2979 100.065C37.2729 100.292 37.2564 100.41 37.2489 100.41C37.2414 100.409 37.2439 100.289 37.2549 100.061C37.2694 99.814 37.2894 99.482 37.3149 99.065C37.3744 98.2005 37.4644 96.949 37.6339 95.4075C37.8089 93.8675 38.0649 92.032 38.5624 90.037C38.8119 89.0405 39.1249 88.005 39.5284 86.9605C39.7349 86.439 39.9679 85.916 40.2414 85.4035C40.5174 84.8925 40.8334 84.395 41.1704 83.9065C41.8524 82.937 42.5194 82.003 43.0039 81.0065C43.4904 80.0125 43.8434 78.9995 44.1164 78.017C44.6539 76.049 44.9269 74.2185 44.9949 72.678C45.0694 71.136 44.9379 69.8835 44.7284 69.047C44.6099 68.633 44.5199 68.31 44.4229 68.1035C44.3399 67.893 44.2984 67.78 44.3049 67.7765Z" fill="#455A64"/>
<path d="M3.69906 37.173C5.46056 38.2265 8.64156 39.212 8.64156 39.212L12.2075 36.362C12.2075 36.362 9.65656 31.7 8.83556 30.379C8.61356 30.022 8.27555 29.3475 8.17055 28.969C7.89505 27.9765 7.16705 28.399 7.03255 29.1805C6.99455 29.4015 7.15004 30.1505 7.25454 30.4385C7.57304 31.318 7.50356 31.95 7.50356 31.95C7.50356 31.95 7.24356 31.729 6.60256 31.2975C5.90456 30.8275 3.54405 28.8595 2.54705 28.036C1.05755 26.805 0.30706 27.568 0.50106 28.044C0.74256 28.6355 4.44005 31.224 4.30755 31.6675C4.30755 31.6675 3.59555 32.072 3.49505 32.5325C3.39455 32.9935 3.50207 33.4495 3.50207 33.4495C3.50207 33.4495 2.83505 33.5145 2.65655 33.943C2.47805 34.3715 2.70705 34.9745 2.70705 34.9745C2.70705 34.9745 2.08904 35.032 2.01754 35.368C1.94604 35.7045 2.37406 36.381 3.69906 37.173Z" fill="#AE7461"/>
<path d="M11.6126 35.0815C11.6661 35.2425 19.2591 43.016 19.2591 43.016C19.2591 43.016 25.5956 35.8785 27.5246 33.253C29.4536 30.6275 32.3791 27.407 34.8976 26.8045C37.4161 26.2015 40.9151 27.8235 40.9151 27.8235L36.4546 36.996L30.8231 44.7385C30.8231 44.7385 24.7376 52.382 21.8441 53.5605C18.9506 54.7395 16.1161 53.0465 14.8836 51.7605C13.6511 50.4745 6.34009 39.3615 6.34009 39.3615L11.6126 35.0815Z" fill="#FCBD01"/>
<path d="M53.916 29.8325L36.4436 26.805C36.4436 26.805 31.5921 35.346 29.7771 44.321C27.9621 53.296 25.8936 62.2625 25.8936 62.2625L42.0331 64.251C43.7136 64.458 45.4146 64.4345 47.0886 64.1815L48.7701 63.927L47.3876 58.228C49.6941 52.468 51.3776 47.547 52.3771 43.483C54.5466 34.666 53.916 29.8325 53.916 29.8325Z" fill="#FCBD01"/>
<path d="M36.0375 38.367C36.0485 38.377 35.9465 38.5125 35.7535 38.7495C35.531 39.021 35.2575 39.3555 34.934 39.7505C34.242 40.595 33.304 41.7765 32.265 43.081C31.226 44.386 30.267 45.555 29.544 46.3765C29.1835 46.788 28.885 47.1155 28.6715 47.335C28.459 47.555 28.336 47.672 28.325 47.6625C28.314 47.6525 28.4155 47.517 28.609 47.28C28.8315 47.0085 29.105 46.674 29.4285 46.279C30.1205 45.4345 31.059 44.253 32.098 42.948C33.1365 41.6435 34.0955 40.475 34.8185 39.653C35.1795 39.2415 35.4775 38.914 35.691 38.6945C35.904 38.474 36.0265 38.357 36.0375 38.367Z" fill="#263238"/>
<path d="M47.1221 58.4875C47.1286 58.5125 46.7151 58.653 46.0261 58.8025C45.3376 58.953 44.3706 59.099 43.2936 59.141C42.2166 59.1815 41.2406 59.1105 40.5431 59.0135C39.8446 58.917 39.4216 58.809 39.4261 58.7835C39.4316 58.7515 39.8621 58.807 40.5591 58.864C41.2556 58.922 42.2206 58.9685 43.2856 58.9285C44.3501 58.8865 45.3086 58.766 45.9986 58.6545C46.6886 58.5445 47.1141 58.456 47.1221 58.4875Z" fill="#263238"/>
<path d="M19.0891 47.646C19.0306 47.645 18.9972 46.654 19.0147 45.432C19.0322 44.21 19.0937 43.22 19.1522 43.221C19.2107 43.222 19.2442 44.213 19.2267 45.435C19.2092 46.657 19.1476 47.647 19.0891 47.646Z" fill="#263238"/>
<g opacity="0.3">
<path d="M53.3536 31.815L42.4361 30.841C42.0391 31.7595 42.6246 32.9645 43.5921 33.2205C43.0066 34.251 42.9881 35.581 43.5451 36.627C44.1016 37.673 45.2156 38.401 46.3971 38.4905C46.6896 38.5125 46.9911 38.4995 47.2676 38.599C47.8726 38.817 48.1621 39.481 48.5256 40.012C49.0041 40.711 49.7296 41.262 50.5606 41.424C51.3921 41.5855 52.3201 41.3165 52.8576 40.6625C53.3926 40.0115 53.4816 39.1125 53.5236 38.271C53.6301 36.119 53.5731 33.9585 53.3536 31.815Z" fill="black"/>
</g>
<g opacity="0.3">
<path d="M29.1167 46.8875C30.8972 46.527 32.5377 45.5135 33.6572 44.083C34.7767 42.6525 35.3662 40.8165 35.2887 39.0015C33.0037 41.4795 31.0767 44.6545 29.1167 46.8875Z" fill="black"/>
</g>
<path d="M55.8617 25.0855L46.5452 14.7175C46.8862 17.3485 45.8947 19.9665 44.7032 22.3375C44.0252 23.687 43.2687 25.2915 43.9807 26.623C43.3987 27.272 42.8087 27.934 42.4417 28.725C42.0747 29.516 41.9582 30.4695 42.3417 31.2525C42.7252 32.0355 43.6972 32.5485 44.5107 32.236C44.1252 33.293 44.4437 34.5695 45.2802 35.322C46.1167 36.0745 47.4197 36.256 48.4302 35.7615C48.6842 36.832 49.2622 37.857 50.1722 38.4755C51.0822 39.094 52.3452 39.2385 53.2927 38.6795C54.2402 38.121 54.7212 36.808 54.2127 35.8325C56.2627 35.3795 57.5432 33.17 57.6037 31.0715C57.6642 28.973 56.7842 26.9715 55.8617 25.0855Z" fill="#263238"/>
<path d="M36.5941 7.98801C36.5966 7.99501 36.5441 8.01601 36.4406 8.04951C36.3361 8.07601 36.1741 8.10601 35.9656 8.08251C35.5606 8.04601 34.9331 7.78151 34.5556 7.11201C34.3646 6.78451 34.2861 6.34851 34.3606 5.90951C34.4351 5.46951 34.6591 5.02951 35.0006 4.66701C35.3386 4.30251 35.8101 4.02051 36.3381 3.89901C36.8651 3.77201 37.4371 3.78601 37.9896 3.91551C38.3116 3.99251 38.6191 4.10501 38.8971 4.23801L38.7541 4.29351C39.1461 3.33401 39.9116 2.63701 40.7056 2.28251C41.5066 1.91601 42.3276 1.91101 42.9556 2.04801C43.5916 2.18451 44.0526 2.44901 44.3381 2.65801C44.4821 2.76301 44.5856 2.85401 44.6506 2.92101C44.7161 2.98701 44.7481 3.02401 44.7431 3.02901C44.7311 3.04251 44.5886 2.91001 44.2951 2.72201C44.0026 2.53701 43.5446 2.30001 42.9286 2.18701C42.3186 2.07301 41.5391 2.09501 40.7846 2.45351C40.0351 2.80051 39.3156 3.46951 38.9506 4.37251L38.9086 4.47601L38.8071 4.42801C38.5416 4.30201 38.2481 4.19551 37.9426 4.12251C37.4171 3.99951 36.8791 3.98601 36.3876 4.10151C35.8941 4.21251 35.4636 4.46701 35.1436 4.80201C34.8231 5.13501 34.6111 5.53901 34.5356 5.94051C34.4616 6.34351 34.5226 6.735 34.6896 7.0415C35.0211 7.6685 35.5986 7.94351 35.9781 8.00101C36.3706 8.06651 36.5896 7.95951 36.5941 7.98801Z" fill="#455A64"/>
<path d="M56.3451 14.509C56.3281 14.501 56.423 14.3165 56.5225 13.9595C56.6195 13.605 56.7101 13.0615 56.6051 12.4035C56.5036 11.753 56.1846 10.978 55.5141 10.3945C54.8596 9.81152 53.8765 9.41802 52.8465 9.52602L52.6905 9.54253L52.7345 9.39102C52.821 9.09252 52.8785 8.76702 52.895 8.43402C52.9515 7.28202 52.5331 6.18352 51.8836 5.43052C51.2386 4.66052 50.3745 4.26302 49.6425 4.09002C48.9 3.91552 48.2706 3.96252 47.8516 4.03452C47.4301 4.11002 47.2061 4.19752 47.1991 4.17802C47.1966 4.17102 47.2506 4.14552 47.3566 4.10202C47.4616 4.05602 47.623 4.00502 47.835 3.95352C48.2575 3.85502 48.903 3.78202 49.675 3.94352C50.435 4.10302 51.3445 4.50102 52.0315 5.30302C52.7215 6.08652 53.166 7.23302 53.107 8.44402C53.0895 8.79402 53.029 9.13702 52.9365 9.45152L52.8245 9.31652C53.9245 9.20552 54.9571 9.63102 55.6401 10.2545C56.3411 10.881 56.6601 11.7055 56.7461 12.383C56.8361 13.07 56.7196 13.6265 56.5976 13.982C56.5371 14.1615 56.476 14.295 56.4275 14.3815C56.379 14.4685 56.3511 14.512 56.3451 14.509Z" fill="#455A64"/>
<path d="M47.4485 32.268C47.444 32.274 47.4001 32.2465 47.3186 32.188C47.2356 32.132 47.124 32.036 46.9875 31.9035C46.721 31.636 46.371 31.1915 46.133 30.547C45.8965 29.91 45.7855 29.056 46.0495 28.1745C46.313 27.302 46.9565 26.445 47.88 25.9305C48.2445 25.725 48.6365 25.5835 49.024 25.5125L48.9656 25.686C48.3451 24.995 48.143 24.078 48.254 23.3165C48.359 22.539 48.7925 21.941 49.227 21.5805C49.667 21.212 50.1095 21.052 50.412 20.9845C50.564 20.95 50.6845 20.936 50.766 20.934C50.8475 20.931 50.89 20.9325 50.8905 20.939C50.8925 20.9565 50.723 20.9705 50.4315 21.057C50.143 21.1445 49.726 21.3195 49.318 21.685C48.9145 22.0445 48.5235 22.614 48.4375 23.341C48.3445 24.0555 48.5456 24.9115 49.1206 25.545L49.2465 25.684L49.0621 25.7185C48.6981 25.787 48.329 25.9215 47.984 26.1155C47.11 26.602 46.4951 27.411 46.2366 28.2325C45.9771 29.0605 46.0645 29.8775 46.275 30.4975C46.4865 31.124 46.806 31.5685 47.0485 31.8475C47.2955 32.125 47.461 32.252 47.4485 32.268Z" fill="#455A64"/>
<path d="M47.2955 9.45555L47.0045 8.14105C46.0175 10.0166 45.682 12.2276 46.069 14.3111C46.2485 15.2796 46.5711 16.3191 46.1521 17.2106C45.8656 17.8196 45.2785 18.2361 44.942 18.8191C44.5165 19.5566 44.8306 21.4986 44.7211 21.8816C44.4721 22.7526 43.6286 23.3091 43.4296 24.3621C43.2306 25.4146 43.4836 26.6866 44.4296 27.1901C46.2101 24.2536 48.032 21.2016 48.451 17.7931C48.796 14.9861 48.156 12.1496 47.2955 9.45555Z" fill="#263238"/>
<path d="M52.6936 16.494C52.6931 16.501 52.6411 16.505 52.5416 16.5025C52.4426 16.4995 52.2961 16.4885 52.1091 16.4575C51.7426 16.392 51.1817 16.2545 50.6507 15.8015C50.3917 15.5735 50.1531 15.263 50.0136 14.875C49.8736 14.493 49.8386 14.0155 50.0351 13.58C50.2246 13.1545 50.6156 12.771 51.1346 12.664C51.3906 12.6175 51.6726 12.635 51.9191 12.776C52.1671 12.91 52.3486 13.2075 52.2991 13.5155C52.2756 13.67 52.1841 13.81 52.0601 13.9C51.9336 13.9875 51.7871 14.022 51.6501 14.0295C51.3746 14.0405 51.1171 13.964 50.8911 13.848C50.4481 13.623 50.0721 13.3135 49.7771 12.9685C49.1776 12.2785 48.9206 11.453 48.8961 10.7735C48.8651 10.0875 49.0296 9.54553 49.1771 9.19953C49.2531 9.02603 49.3246 8.89753 49.3781 8.81353C49.4326 8.73053 49.4641 8.68903 49.4706 8.69253C49.4871 8.70203 49.3796 8.88053 49.2541 9.22953C49.1331 9.57653 48.9971 10.1075 49.0461 10.7645C49.0886 11.4155 49.3481 12.1915 49.9246 12.84C50.2086 13.164 50.5666 13.453 50.9846 13.6625C51.1851 13.765 51.4156 13.829 51.6391 13.819C51.8626 13.8145 52.0581 13.6875 52.0896 13.4815C52.1216 13.276 52.0026 13.0605 51.8136 12.9585C51.6251 12.848 51.3876 12.8295 51.1736 12.8675C50.7376 12.9525 50.3837 13.2855 50.2132 13.66C50.0367 14.037 50.0576 14.463 50.1791 14.816C50.2996 15.1735 50.5146 15.4695 50.7511 15.689C51.2356 16.128 51.7711 16.288 52.1256 16.3755C52.4876 16.4605 52.6951 16.476 52.6936 16.494Z" fill="#455A64"/>
<path d="M48.4416 63.594C48.4301 63.597 48.3841 63.457 48.3086 63.193C48.2276 62.893 48.1241 62.511 47.9981 62.0435C47.7351 61.0085 47.3766 59.599 46.9506 57.922L46.9431 57.8925L46.9526 57.8615C47.4731 56.1825 48.1406 54.21 48.8996 52.12C50.0231 49.0225 51.1111 46.2465 51.9081 44.2415C52.3016 43.27 52.6256 42.4705 52.8676 41.873C52.9766 41.619 53.0666 41.408 53.1411 41.234C53.2061 41.089 53.2446 41.0145 53.2531 41.0175C53.2616 41.021 53.2396 41.1015 53.1901 41.253C53.1281 41.4315 53.0531 41.6485 52.9626 41.9095C52.7401 42.514 52.4421 43.324 52.0801 44.3075C51.3276 46.3295 50.2666 49.115 49.1446 52.2085C48.3866 54.296 47.7076 56.2605 47.1666 57.9285L47.1686 57.8685C47.5581 59.5545 47.8851 60.9715 48.1256 62.012C48.2276 62.4855 48.3106 62.8725 48.3761 63.176C48.4301 63.446 48.4531 63.591 48.4416 63.594Z" fill="#263238"/>
<path d="M51.0811 55.597C51.1226 55.603 51.0451 56.2445 51.0376 57.285C51.0246 58.3245 51.0861 59.765 51.3226 61.3325C51.5681 62.8965 51.9551 64.29 52.4191 65.2135C52.8636 66.15 53.3481 66.593 53.3101 66.6295C53.2976 66.6425 53.1771 66.535 52.9671 66.3255C52.7666 66.11 52.5036 65.765 52.2551 65.2975C51.7366 64.3705 51.3136 62.9565 51.0651 61.3725C50.8256 59.785 50.7931 58.328 50.8536 57.2795C50.8786 56.755 50.9306 56.332 50.9766 56.0425C51.0271 55.7525 51.0636 55.5945 51.0811 55.597Z" fill="#263238"/>
<path d="M51.132 55.375C51.1475 55.389 51.063 55.517 50.9315 55.7485C50.818 55.9945 50.6686 56.3555 50.5516 56.828C50.3041 57.767 50.1166 59.108 50.0716 60.5955C50.0136 62.084 50.1295 63.4325 50.2895 64.392C50.449 65.3535 50.6741 65.9175 50.6311 65.935C50.6146 65.942 50.5476 65.8055 50.4401 65.55C50.3811 65.4235 50.3301 65.2625 50.2756 65.0735C50.2171 64.8855 50.1545 64.67 50.1085 64.427C49.899 63.461 49.7526 62.0935 49.8111 60.587C49.8566 59.081 50.0756 57.7235 50.3746 56.7765C50.5166 56.301 50.6981 55.936 50.8436 55.698C51.0096 55.4705 51.122 55.364 51.132 55.375Z" fill="#263238"/>
<path d="M51.3585 55.849C51.294 55.8805 50.768 54.829 50.184 53.501C49.6 52.172 49.181 51.074 49.248 51.048C49.315 51.022 49.841 52.073 50.4225 53.3965C51.004 54.719 51.423 55.8175 51.3585 55.849Z" fill="#263238"/>
</svg>
