<svg width="35" height="146" viewBox="0 0 35 146" fill="none" xmlns="http://www.w3.org/2000/svg">
<path d="M11.2779 18.4305C10.6744 16.429 9.9424 14.4066 10.0294 12.3181L8.7504 8.55355C6.8709 8.28255 4.8829 8.89605 3.4829 10.1791C2.0829 11.4621 1.2984 13.3885 1.4039 15.2845C1.4704 16.471 1.86189 17.6131 2.05889 18.7851C2.25589 19.9571 2.2319 21.2475 1.5534 22.223C1.2484 22.662 0.804897 23.0615 0.774897 23.5955C0.736897 24.2775 1.4474 24.8111 2.1299 24.8411C2.8119 24.8711 3.45339 24.5445 4.05789 24.227C3.92289 25.232 4.61089 26.2836 5.58539 26.5616C6.56039 26.84 7.6999 26.311 8.1159 25.3865C8.0259 26.317 9.2019 26.981 10.0894 26.687C10.9764 26.393 11.5234 25.4905 11.7829 24.5925C12.3644 22.5835 11.8819 20.432 11.2779 18.4305Z" fill="#263238"/>
<path d="M12.8394 134.45L13.0624 130.52L19.9214 130.38L19.7339 135.192L17.2159 136.652L12.8394 134.45Z" fill="#FFBF9D"/>
<path d="M19.8988 134.299L19.8883 134.749C19.8883 134.749 27.4443 138.022 27.4868 139.474L12.3218 138.989L12.6893 133.949C14.9108 135.065 17.2668 135.258 19.8988 134.299Z" fill="#455A64"/>
<g opacity="0.6">
<path d="M14.1736 135.611C13.8776 135.682 13.6641 136.006 13.7226 136.304C13.7811 136.603 14.1081 136.823 14.4056 136.757C14.7026 136.692 14.9711 136.311 14.8791 136.021C14.7876 135.73 14.3891 135.493 14.1166 135.628" fill="white"/>
</g>
<g opacity="0.6">
<path d="M12.3218 138.989L12.4103 137.777L26.9133 138.685C26.9133 138.685 27.5788 139.001 27.4873 139.474L12.3218 138.989Z" fill="white"/>
</g>
<path d="M19.9405 134.793C19.936 134.867 19.5645 134.889 19.1925 135.115C18.8145 135.332 18.6165 135.647 18.5495 135.615C18.4815 135.599 18.6065 135.16 19.0615 134.893C19.5135 134.623 19.959 134.726 19.9405 134.793Z" fill="#263238"/>
<path d="M21.5099 135.502C21.5244 135.575 21.1999 135.69 20.9384 135.995C20.6679 136.293 20.5939 136.629 20.5199 136.624C20.4499 136.633 20.4124 136.198 20.7449 135.825C21.0739 135.449 21.5109 135.431 21.5099 135.502Z" fill="#263238"/>
<path d="M22.3524 137.435C22.2849 137.448 22.1934 137.075 22.3964 136.676C22.5964 136.275 22.9509 136.126 22.9804 136.189C23.0204 136.251 22.7884 136.461 22.6269 136.792C22.4574 137.118 22.4264 137.43 22.3524 137.435Z" fill="#263238"/>
<path d="M14.8698 125.673L13.4648 137.362L8.11328 136.376L8.19328 124.845L14.8698 125.673Z" fill="#FFBF9D"/>
<path d="M8.17296 134.156C8.17296 134.156 11.673 137.209 13.7675 135.145L14.1235 136.3L15.396 144.387C15.4785 144.911 15.1705 145.443 14.6465 145.578C14.243 145.682 13.826 145.55 13.565 145.247C12.1665 143.624 7.05346 137.628 7.19146 136.908L7.43096 134.985C7.48096 134.586 7.77446 134.258 8.17296 134.156Z" fill="#455A64"/>
<g opacity="0.6">
<path d="M14.4543 145.61L7.26429 136.238L7.21829 136.659C7.12629 137.11 7.31029 137.313 7.49929 137.631C8.06029 138.571 9.66579 140.713 13.5338 145.244C13.7593 145.508 14.1058 145.646 14.4543 145.61Z" fill="white"/>
</g>
<g opacity="0.6">
<path d="M8.59906 135.12C8.83556 135.32 8.87857 135.705 8.68457 135.943C8.49057 136.18 8.08906 136.224 7.84856 136.028C7.60856 135.832 7.54257 135.371 7.76257 135.156C7.98257 134.941 8.45707 134.915 8.64257 135.161" fill="white"/>
</g>
<path d="M12.5954 141.016C12.6499 141.05 12.9369 140.555 13.5734 140.341C14.2034 140.109 14.7519 140.31 14.7714 140.251C14.7829 140.227 14.6619 140.136 14.4269 140.077C14.1939 140.018 13.8459 140.013 13.4959 140.135C13.1464 140.258 12.8829 140.479 12.7439 140.669C12.6029 140.86 12.5709 141.005 12.5954 141.016Z" fill="#263238"/>
<path d="M13.177 142.425C13.221 142.473 13.5835 142.186 14.127 142.097C14.6685 141.995 15.1135 142.14 15.1365 142.08C15.1715 142.033 14.7035 141.769 14.0855 141.881C13.467 141.986 13.127 142.393 13.177 142.425Z" fill="#263238"/>
<path d="M11.4291 139.164C11.4716 139.216 12.0271 138.772 12.8591 138.56C13.6881 138.335 14.4001 138.447 14.4091 138.381C14.4316 138.33 13.6886 138.11 12.7991 138.348C11.9071 138.577 11.3826 139.131 11.4291 139.164Z" fill="#263238"/>
<path d="M11.5175 136.756C11.5385 136.818 12.1265 136.65 12.8625 136.705C13.599 136.749 14.161 136.994 14.1895 136.935C14.223 136.889 13.668 136.535 12.8765 136.486C12.086 136.429 11.4905 136.706 11.5175 136.756Z" fill="#263238"/>
<path d="M13.2826 136.73C13.2956 136.73 13.3086 136.594 13.2676 136.352C13.2261 136.112 13.1265 135.762 12.8835 135.385C12.7585 135.208 12.625 134.977 12.3295 134.865C12.1825 134.809 11.973 134.849 11.862 134.989C11.752 135.125 11.7265 135.292 11.7355 135.45C11.7955 136.082 12.4001 136.656 13.1371 136.698C13.8761 136.726 14.5085 136.273 14.7565 135.707C14.809 135.561 14.8396 135.384 14.7471 135.221C14.6561 135.056 14.443 135.003 14.2985 135.037C13.998 135.102 13.8201 135.286 13.6511 135.424C13.3201 135.724 13.1245 136.03 13.0135 136.246C12.902 136.464 12.871 136.597 12.883 136.601C12.921 136.625 13.1035 136.094 13.757 135.54C13.9225 135.412 14.1125 135.251 14.3295 135.216C14.435 135.199 14.5301 135.234 14.5751 135.315C14.6201 135.393 14.6085 135.52 14.562 135.634C14.3515 136.098 13.7725 136.511 13.148 136.477C12.5265 136.449 11.9956 135.943 11.9426 135.435C11.9316 135.312 11.9555 135.187 12.017 135.109C12.0775 135.033 12.177 135.007 12.274 135.037C12.479 135.102 12.6285 135.302 12.7515 135.469C13.2385 136.173 13.2381 136.743 13.2826 136.73Z" fill="#263238"/>
<path d="M28.7756 51.557C28.7756 51.557 29.8431 56.5515 31.0726 65.615C32.1911 73.8615 28.5256 97.92 27.5726 102.96C26.9241 106.39 23.7281 123.536 20.0596 133.939L14.6826 133.846C14.6826 133.846 18.7731 99.028 18.6906 95.392C18.6081 91.7565 17.6341 72.4055 17.6341 72.4055L15.9986 57.695L28.7756 51.557Z" fill="#263238"/>
<path d="M7.47246 49.925C7.90596 50.078 17.3625 56.991 17.3625 56.991C17.3625 56.991 21.839 96.8736 22.1845 102.113C22.53 107.353 14.6825 133.846 14.6825 133.846L7.27096 133.718C7.27096 133.718 7.71996 116.136 8.97546 110.779C10.231 105.422 10.2535 104.114 9.58496 100.759C8.91596 97.4035 3.09796 79.5875 1.36196 70.69C-0.374537 61.7925 7.47246 49.925 7.47246 49.925Z" fill="#263238"/>
<path d="M21.0843 67.696C21.0883 67.6955 21.0978 67.7536 21.1133 67.8671C21.1288 67.9911 21.1493 68.1581 21.1753 68.3711C21.2248 68.8266 21.2958 69.4785 21.3868 70.312C21.5623 71.9985 21.8028 74.44 22.0618 77.461C22.3183 80.482 22.6043 84.081 22.8103 88.086C22.8998 90.089 22.9928 92.1926 22.9748 94.3776C22.9708 94.9236 22.9418 95.4751 22.9263 96.0311C22.9003 96.5866 22.8343 97.1481 22.7753 97.7101C22.6018 98.8261 22.3953 99.9505 22.1833 101.088C20.4208 110.175 18.6238 118.356 17.3418 124.282C16.6883 127.233 16.1588 129.625 15.7898 131.292C15.6028 132.109 15.4563 132.748 15.3538 133.195C15.3033 133.403 15.2638 133.567 15.2348 133.688C15.2068 133.799 15.1903 133.856 15.1868 133.855C15.1833 133.854 15.1918 133.796 15.2128 133.683C15.2368 133.561 15.2693 133.396 15.3103 133.185C15.4033 132.736 15.5358 132.094 15.7058 131.273C16.0583 129.603 16.5643 127.206 17.1888 124.249C18.4313 118.315 20.2043 110.128 21.9658 101.047C23.0878 96.527 22.7408 92.0915 22.6063 88.096C22.4118 84.0945 22.1418 80.4955 21.9058 77.474C21.6668 74.4525 21.4503 72.009 21.3008 70.3205C21.2278 69.4855 21.1703 68.8326 21.1308 68.3761C21.1138 68.1621 21.1003 67.9945 21.0908 67.87C21.0828 67.755 21.0808 67.6965 21.0843 67.696Z" fill="#455A64"/>
<path d="M9.42642 4.67556C11.5429 2.08856 14.3854 0.599068 17.7279 0.543568C19.6134 0.512568 20.3939 0.904066 21.7519 1.27057C23.1099 1.63707 24.3349 2.36556 25.1449 3.51506C26.1069 4.88056 26.9154 6.41007 27.0974 8.07057C27.2844 9.77657 26.9794 12.0186 26.4129 13.6386C25.5869 15.9991 25.3544 16.6596 24.3469 18.0486L21.3879 18.7851C18.9834 18.8671 16.5454 18.9461 14.2029 18.3971C11.8604 17.8486 9.58392 16.5881 8.32942 14.5351C6.58592 11.6836 7.30992 7.26256 9.42642 4.67556Z" fill="#263238"/>
<path d="M13.3011 4.6471L19.1056 2.3396L20.6221 2.5156C24.0341 2.5276 26.3871 6.2906 26.4096 9.0541C26.4346 12.1241 26.3436 15.8736 25.8556 18.1361C24.8746 22.6861 20.9911 23.0651 20.9911 23.0651C20.9911 23.0651 21.0706 25.4901 21.0996 27.0176C17.8496 30.6321 14.3606 30.7971 11.7126 26.4041L11.7666 6.2046C11.7961 5.3666 12.4626 4.6896 13.3011 4.6471Z" fill="#FFBF9D"/>
<path d="M25.027 12.7886C25.021 13.1001 24.752 13.3521 24.4265 13.3516C24.102 13.3511 23.843 13.0991 23.849 12.7876C23.855 12.4761 24.124 12.2241 24.4485 12.2246C24.774 12.2246 25.033 12.4771 25.027 12.7886Z" fill="#263238"/>
<path d="M25.3691 10.5891C25.2921 10.6621 24.8641 10.3076 24.2301 10.2741C23.5976 10.2321 23.1151 10.5326 23.0506 10.4511C23.0186 10.4151 23.1006 10.2806 23.3111 10.1441C23.5186 10.0086 23.8661 9.88458 24.2606 9.90758C24.6551 9.93158 24.9791 10.0951 25.1616 10.2541C25.3486 10.4146 25.4071 10.5571 25.3691 10.5891Z" fill="#263238"/>
<path d="M21.298 15.5576C21.297 15.5216 21.6945 15.4751 22.337 15.4286C22.4995 15.4206 22.6545 15.3971 22.688 15.2881C22.7325 15.1731 22.6745 14.9951 22.6065 14.8026C22.476 14.4026 22.339 13.9836 22.1955 13.5446C21.6275 11.7546 21.2255 10.2856 21.298 10.2636C21.3705 10.2411 21.8895 11.6746 22.4575 13.4646C22.5935 13.9061 22.724 14.3266 22.848 14.7286C22.8995 14.9156 22.993 15.1301 22.897 15.3681C22.8465 15.4866 22.723 15.5676 22.618 15.5901C22.5125 15.6161 22.4215 15.6126 22.341 15.6131C21.697 15.6126 21.2985 15.5936 21.298 15.5576Z" fill="#263238"/>
<path d="M20.9984 23.0606C20.9984 23.0606 17.8994 23.0901 14.9409 21.0836C14.9409 21.0836 16.4039 24.3551 21.0219 24.1776L20.9984 23.0606Z" fill="#FF9A6C"/>
<path d="M25.3571 7.3701C25.2421 7.5191 24.7626 7.38909 24.1936 7.40509C23.6241 7.40259 23.1466 7.54459 23.0296 7.39859C22.9776 7.32759 23.0481 7.1801 23.2531 7.0351C23.4551 6.8911 23.7976 6.76559 24.1891 6.76059C24.5806 6.75609 24.9246 6.87309 25.1286 7.01259C25.3351 7.15209 25.4071 7.2976 25.3571 7.3701Z" fill="#263238"/>
<path d="M18.0835 12.5591C18.067 12.8701 18.317 13.1406 18.6415 13.1636C18.9655 13.1866 19.242 12.9541 19.2585 12.6431C19.275 12.3321 19.025 12.0611 18.701 12.0381C18.3765 12.0146 18.1 12.2481 18.0835 12.5591Z" fill="#263238"/>
<path d="M16.7961 10.3441C16.8676 10.4221 17.3201 10.0996 17.9546 10.1121C18.5886 10.1156 19.0481 10.4501 19.1186 10.3736C19.1531 10.3396 19.0806 10.1996 18.8811 10.0486C18.6841 9.89809 18.3461 9.74959 17.9511 9.74409C17.5561 9.73959 17.2211 9.87909 17.0271 10.0246C16.8291 10.1711 16.7606 10.3091 16.7961 10.3441Z" fill="#263238"/>
<path d="M17.177 7.74909C17.2995 7.89509 17.7915 7.75459 18.38 7.75759C18.9685 7.74259 19.465 7.87309 19.5825 7.72459C19.634 7.65209 19.558 7.50659 19.3425 7.36659C19.1305 7.22709 18.7735 7.10959 18.369 7.11359C17.9645 7.11809 17.612 7.24259 17.4045 7.38659C17.194 7.53059 17.123 7.67759 17.177 7.74909Z" fill="#263238"/>
<path d="M12.5552 13.9191C12.5732 13.5771 12.2222 12.7496 11.8877 12.6781C10.9942 12.4881 9.36522 12.4711 9.22422 14.7601C9.03172 17.8886 12.2127 17.4366 12.2237 17.3471C12.2322 17.2776 12.4932 15.0996 12.5552 13.9191Z" fill="#FFBF9D"/>
<path d="M11.4304 16.1515C11.4174 16.1405 11.3734 16.1866 11.2789 16.2231C11.1864 16.2586 11.0304 16.2775 10.8709 16.2065C10.5479 16.065 10.3019 15.5231 10.3214 14.9581C10.3309 14.6726 10.4069 14.4055 10.5219 14.187C10.6314 13.964 10.7894 13.8136 10.9574 13.7941C11.1254 13.7656 11.2369 13.8726 11.2699 13.9631C11.3064 14.0531 11.2824 14.1146 11.2989 14.1211C11.3074 14.1296 11.3694 14.0731 11.3519 13.9421C11.3429 13.8791 11.3109 13.8031 11.2409 13.7381C11.1694 13.6726 11.0614 13.6346 10.9444 13.6401C10.7019 13.6421 10.4714 13.8505 10.3454 14.09C10.2059 14.33 10.1134 14.6301 10.1029 14.9506C10.0839 15.5821 10.3704 16.1921 10.8149 16.3506C11.0314 16.4216 11.2194 16.3666 11.3184 16.2986C11.4199 16.2271 11.4409 16.1575 11.4304 16.1515Z" fill="#FF9A6C"/>
<path d="M11.7595 12.6876L12.5545 13.5121C15.987 10.2266 22.6955 1.99956 22.321 2.49006C22.321 2.49006 19.9695 1.52306 17.417 1.95756C14.8645 2.39256 10.0235 3.67006 10.0975 6.68006C10.172 9.69056 11.7595 12.6876 11.7595 12.6876Z" fill="#263238"/>
<path d="M7.21344 11.9966C7.20794 11.9951 7.22444 11.9331 7.26144 11.8156C7.29894 11.6991 7.36593 11.5296 7.47493 11.3226C7.69243 10.9106 8.10844 10.3531 8.78244 9.85106C9.44594 9.33556 10.3664 8.91507 11.4149 8.58457C12.4614 8.24357 13.6409 7.97907 14.7994 7.48207C15.9649 7.00357 17.0044 6.38657 17.8904 5.75057C18.7739 5.10857 19.5034 4.44256 20.0719 3.84356C20.6409 3.24406 21.0544 2.71606 21.3334 2.34656C21.4614 2.17056 21.5654 2.02807 21.6474 1.91507C21.7199 1.81657 21.7604 1.76657 21.7649 1.76957C21.7694 1.77257 21.7384 1.82857 21.6739 1.93307C21.6084 2.03607 21.5164 2.19207 21.3839 2.38307C21.1194 2.76507 20.7169 3.30706 20.1544 3.92106C19.5919 4.53456 18.8639 5.21557 17.9769 5.87007C17.0869 6.51807 16.0389 7.14606 14.8604 7.63006C13.6874 8.13356 12.4994 8.39507 11.4594 8.72557C10.4154 9.04607 9.50993 9.44807 8.84943 9.94207C8.17993 10.4231 7.75993 10.9571 7.52893 11.3526C7.29993 11.7526 7.22994 12.0026 7.21344 11.9966Z" fill="#455A64"/>
<path d="M20.9621 16.9921C20.5326 16.7261 20.1231 16.4416 19.6556 16.2636C19.5681 16.2306 19.4761 16.1981 19.3841 16.2106C19.2656 16.2271 19.1671 16.3151 19.0921 16.4136C18.7976 16.8001 18.7971 17.4016 19.0751 17.8056C19.3531 18.2096 19.8776 18.3936 20.3301 18.2631C20.7821 18.1326 21.0606 17.6171 21.1516 17.1276L20.9621 16.9921Z" fill="#FF9A6C"/>
<path d="M20.8321 17.9751C20.8496 17.9846 20.6076 18.2441 20.0731 18.2731C19.8126 18.2841 19.4816 18.1951 19.2166 17.9566C18.9501 17.7281 18.7571 17.3311 18.8056 16.9156C18.8266 16.7101 18.8976 16.5131 19.0156 16.3526C19.0786 16.2736 19.1346 16.2021 19.2401 16.1416C19.2921 16.1121 19.3696 16.0991 19.4291 16.1121C19.4891 16.1231 19.5341 16.1461 19.5736 16.1661C19.8391 16.3116 20.0926 16.4506 20.3366 16.5841C20.7676 16.8276 21.0271 16.9916 21.0131 17.0186C20.9991 17.0456 20.7146 16.9306 20.2656 16.7226C20.0156 16.6026 19.7551 16.4781 19.4831 16.3476C19.4081 16.3131 19.3756 16.3051 19.3386 16.3276C19.2946 16.3521 19.2346 16.4181 19.1906 16.4791C19.0996 16.6071 19.0421 16.7686 19.0251 16.9381C18.9861 17.2816 19.1346 17.6031 19.3541 17.8081C19.5726 18.0176 19.8441 18.1086 20.0756 18.1181C20.5471 18.1331 20.8166 17.9376 20.8321 17.9751Z" fill="#263238"/>
<path d="M12.4451 17.7431C12.4451 18.3506 11.9526 18.8436 11.3446 18.8436C10.7366 18.8436 10.2441 18.3511 10.2441 17.7431C10.2441 17.1356 10.7366 16.6426 11.3446 16.6426C11.9526 16.6426 12.4451 17.1356 12.4451 17.7431Z" fill="#455A64"/>
<path d="M27.0334 26.29C27.0334 26.29 30.3024 27.423 31.2764 30.335C32.2274 33.1785 33.5714 36.918 33.5714 36.918L27.3674 38.6575L27.0334 26.29Z" fill="#FCBD01"/>
<path d="M5.47401 26.4886L9.65301 24.9001L11.713 24.1686C12.6415 25.7341 14.681 26.5051 16.758 26.4886C18.96 26.4716 19.921 25.5526 21.014 24.1836L21.872 24.5576L27.0345 26.1101L29.5975 36.8581L29.0645 51.5571L31.3035 62.1816C23.3815 65.3996 9.99151 64.7026 1.53101 60.8616L7.35201 48.9811L5.28951 27.7551L5.47401 26.4886Z" fill="#FCBD01"/>
<path d="M29.326 38.1535L29.4425 38.338L23.536 28.984L20.074 31.8055C20.074 31.8055 23.67 41.9045 25.8305 45.463C27.929 48.92 32.173 50.2185 34.3095 45.852C35.4045 43.6135 32.9985 37.121 32.9985 37.121L29.326 38.1535Z" fill="#FFBF9D"/>
<path d="M31.303 41.227L23.5975 28.984L25.246 23.827C25.5075 23.0915 25.551 22.2975 25.3715 21.538C25.074 20.2795 24.6035 18.415 24.3475 18.049C23.954 17.486 23.7595 17.7935 23.7595 17.7935L19.3765 30.0335L20.9035 34.1405" fill="#FFBF9D"/>
<path d="M20.903 34.1405C20.896 34.143 20.8545 34.051 20.78 33.8715C20.7 33.6715 20.595 33.408 20.4625 33.0755C20.185 32.354 19.794 31.337 19.303 30.0605L19.293 30.0345L19.3025 30.007C20.34 27.074 21.8715 22.745 23.6385 17.75L23.643 17.7375L23.651 17.725C23.7385 17.5845 23.933 17.5515 24.0525 17.609C24.1735 17.658 24.251 17.7355 24.3215 17.811C24.4605 17.9565 24.564 18.162 24.6245 18.337C24.76 18.6995 24.867 19.067 24.972 19.439C25.1765 20.1865 25.3695 20.9355 25.5415 21.7225C25.666 22.397 25.6155 23.0935 25.414 23.7315C25.215 24.3495 25.019 24.959 24.826 25.559C24.441 26.757 24.0685 27.9155 23.713 29.0215L23.7 28.9195C25.928 32.495 27.8365 35.5575 29.2025 37.75C29.862 38.8255 30.3895 39.686 30.766 40.3C30.9355 40.5845 31.0705 40.8115 31.1735 40.9845C31.264 41.141 31.3085 41.224 31.3025 41.228C31.2965 41.232 31.2405 41.156 31.1385 41.0065C31.027 40.8385 30.881 40.619 30.6975 40.343C30.307 39.7385 29.759 38.89 29.0745 37.8305C27.689 35.651 25.753 32.6055 23.493 29.05L23.4625 29.0025L23.48 28.948C23.832 27.84 24.201 26.679 24.5825 25.479C24.916 24.27 25.5675 23.0605 25.285 21.77C25.1185 21.011 24.923 20.2455 24.722 19.5095C24.619 19.1415 24.5125 18.776 24.384 18.4305C24.318 18.2495 24.2505 18.113 24.131 17.9845C24.076 17.9235 24.0135 17.8695 23.9605 17.849C23.909 17.8255 23.8835 17.846 23.865 17.863L23.8775 17.838C22.072 22.8195 20.508 27.136 19.4475 30.061L19.447 30.008C19.909 31.295 20.2775 32.32 20.539 33.048C20.6555 33.386 20.7485 33.6545 20.8185 33.858C20.881 34.041 20.9095 34.138 20.903 34.1405Z" fill="#FF9A6C"/>
<path d="M19.2955 33.0141L19.848 31.1536C19.848 31.1536 23.153 24.3656 23.376 23.5146C23.599 22.6636 24.532 19.5231 23.8435 18.9116C23.8435 18.9116 24.353 17.2891 23.697 17.1706C23.0405 17.0521 22.73 17.9176 22.73 17.9176C22.73 17.9176 22.829 17.0366 22.4935 16.8846C21.971 16.6481 21.5565 17.3861 21.5565 17.3861C21.5565 17.3861 20.985 16.9366 20.3435 17.9921C20.3435 17.9921 17.503 22.8081 17.1495 23.1376C16.796 23.4671 16.218 22.4601 16.218 22.4601C16.218 22.4601 15.773 21.0801 15.2625 20.5246C14.8755 20.1036 14.2275 20.4426 14.2275 20.4426C14.2275 20.4426 14.174 22.2181 14.8705 24.3656C15.168 25.2826 15.9665 28.5566 15.9665 28.5566L14.5655 31.5651" fill="#FFBF9D"/>
<path d="M14.565 31.5651C14.5595 31.5626 14.5855 31.4911 14.642 31.3561C14.708 31.2036 14.793 31.0076 14.899 30.7626C15.141 30.2246 15.479 29.4731 15.904 28.5276L15.8996 28.5726C15.6346 27.5876 15.3171 26.4076 14.9551 25.0636C14.7901 24.3881 14.5286 23.6786 14.3801 22.9041C14.2256 22.1301 14.1125 21.3116 14.1125 20.4391V20.3696L14.174 20.3411C14.433 20.2206 14.7241 20.1471 15.0321 20.2411C15.1811 20.2856 15.3205 20.3996 15.4055 20.5116C15.4995 20.6221 15.5761 20.7411 15.6501 20.8616C15.9346 21.3491 16.1465 21.8726 16.335 22.4221L16.3246 22.3986C16.4621 22.6231 16.6316 22.8626 16.8306 23.0106C16.9401 23.0866 17.0101 23.0956 17.0666 23.0416C17.1431 22.9546 17.2291 22.8281 17.3096 22.7111C17.6326 22.2271 17.9465 21.7171 18.2645 21.2006C18.89 20.1586 19.5355 19.0836 20.1945 17.9866C20.337 17.7521 20.5006 17.5131 20.7411 17.3366C20.9751 17.1581 21.3451 17.0771 21.6366 17.2826L21.4431 17.3211C21.5561 17.1376 21.6835 16.9796 21.864 16.8521C22.034 16.7216 22.3066 16.6586 22.5266 16.7586C22.6586 16.8096 22.7405 16.9341 22.7795 17.0336C22.8215 17.1381 22.8425 17.2406 22.855 17.3406C22.878 17.5421 22.876 17.7331 22.857 17.9306L22.6091 17.8731C22.7246 17.5916 22.884 17.3356 23.1525 17.1586C23.286 17.0731 23.4525 17.0256 23.6145 17.0351C23.691 17.0351 23.7796 17.0596 23.8666 17.0981C23.9461 17.1506 24.0116 17.2166 24.0511 17.2936C24.1951 17.5981 24.1595 17.8866 24.1325 18.1571C24.0975 18.4301 24.0385 18.6891 23.961 18.9481L23.925 18.8191C24.087 18.9906 24.153 19.1961 24.1795 19.3856C24.2115 19.5776 24.2156 19.7661 24.2086 19.9501C24.1956 20.3191 24.1495 20.6766 24.087 21.0241C23.966 21.7201 23.7965 22.3826 23.6245 23.0191C23.5385 23.3306 23.462 23.6576 23.3295 23.9556C23.209 24.2531 23.0821 24.5381 22.9561 24.8171C22.6991 25.3721 22.452 25.9051 22.2165 26.4146C21.256 28.4406 20.452 30.0661 19.8955 31.1761L19.8985 31.1681C19.714 31.7511 19.5691 32.2091 19.4636 32.5436C19.4156 32.6861 19.3766 32.8016 19.3446 32.8966C19.3166 32.9756 19.2995 33.0151 19.295 33.0136C19.2905 33.0121 19.2981 32.9701 19.3176 32.8886C19.3426 32.7916 19.373 32.6736 19.4105 32.5281C19.5045 32.1901 19.6331 31.7271 19.7966 31.1381L19.7976 31.1346L19.8 31.1301C20.336 29.9826 21.101 28.3461 22.042 26.3336C22.2725 25.8231 22.5135 25.2886 22.7645 24.7326C22.8875 24.4536 23.012 24.1676 23.1275 23.8756C23.2525 23.5906 23.3211 23.2841 23.4076 22.9616C23.5746 22.3271 23.738 21.6686 23.8535 20.9846C23.913 20.6431 23.9555 20.2941 23.966 19.9441C23.974 19.6061 23.9511 19.2121 23.7606 19.0036L23.7045 18.9426L23.7245 18.8746C23.7955 18.6346 23.8525 18.3796 23.884 18.1266C23.915 17.8791 23.9231 17.6021 23.8301 17.4166C23.7616 17.2431 23.47 17.2586 23.2875 17.3751C23.094 17.4981 22.9415 17.7316 22.85 17.9611L22.517 18.7976L22.6021 17.9036C22.6186 17.7311 22.6195 17.5461 22.599 17.3741C22.579 17.2066 22.5205 17.0266 22.427 16.9986C22.158 16.8701 21.842 17.1586 21.669 17.4496L21.5965 17.5711L21.4755 17.4876C21.3215 17.3821 21.0745 17.4061 20.8915 17.5491C20.701 17.6886 20.5515 17.8981 20.418 18.1196C19.7655 19.2216 19.1206 20.2986 18.4831 21.3351C18.1626 21.8531 17.8481 22.3616 17.5181 22.8531C17.4311 22.9766 17.356 23.0946 17.2385 23.2246C17.1655 23.2906 17.0435 23.3481 16.938 23.3231C16.8335 23.3086 16.754 23.2621 16.687 23.2151C16.4255 23.0146 16.267 22.7726 16.111 22.5216L16.1055 22.5126L16.1005 22.4976C15.921 21.9661 15.7115 21.4446 15.445 20.9836C15.304 20.7611 15.1631 20.5241 14.9576 20.4626C14.7496 20.3911 14.4865 20.4466 14.28 20.5436L14.3415 20.4456C14.3365 21.2841 14.4411 22.1021 14.5871 22.8621C14.7271 23.6281 14.9756 24.3211 15.1361 25.0071C15.4796 26.3601 15.7811 27.5481 16.0326 28.5396L16.0386 28.5631L16.028 28.5846C15.578 29.5181 15.2206 30.2611 14.9646 30.7921C14.8451 31.0311 14.7495 31.2221 14.6755 31.3706C14.608 31.5021 14.5705 31.5676 14.565 31.5651Z" fill="#FF9A6C"/>
<path d="M19.0245 22.9671C19.041 22.9786 19.256 22.7071 19.5555 22.2351C19.855 21.7636 20.2295 21.0861 20.576 20.3061C20.9215 19.5256 21.1765 18.7961 21.339 18.2626C21.5015 17.7286 21.577 17.3916 21.5565 17.3856C21.5335 17.3786 21.419 17.7036 21.229 18.2261C21.039 18.7481 20.769 19.4661 20.4265 20.2401C20.083 21.0136 19.7285 21.6926 19.456 22.1761C19.1845 22.6596 19.004 22.9531 19.0245 22.9671Z" fill="#FF9A6C"/>
<path d="M20.4949 23.4741C20.5154 23.4836 20.6724 23.1931 20.9079 22.7151C21.1429 22.2366 21.4569 21.5701 21.7699 20.8176C22.0824 20.0651 22.3259 19.3671 22.4779 18.8551C22.6304 18.3431 22.6979 18.0191 22.6779 18.0136C22.6549 18.0071 22.5474 18.3186 22.3679 18.8191C22.1884 19.3196 21.9294 20.0061 21.6184 20.7556C21.3109 21.4756 21.0329 22.1271 20.8024 22.6676C20.5944 23.1571 20.4744 23.4646 20.4949 23.4741Z" fill="#FF9A6C"/>
<path d="M22.0857 23.7861C22.1027 23.7966 22.2777 23.5606 22.5072 23.1461C22.7377 22.7321 23.0127 22.1351 23.2487 21.4521C23.4842 20.7686 23.6422 20.1331 23.7362 19.6701C23.8302 19.2066 23.8642 18.9161 23.8432 18.9121C23.7917 18.9011 23.5602 20.0451 23.0942 21.3991C22.8602 22.0751 22.6062 22.6706 22.4042 23.0941C22.2032 23.5166 22.0642 23.7731 22.0857 23.7861Z" fill="#FF9A6C"/>
<path d="M1.11035 37.8101C1.11035 37.8101 4.34985 48.5091 5.51835 50.2086C7.65785 53.3201 12.2059 53.9941 13.8924 50.7201C15.6944 47.2216 19.8479 31.1531 19.8479 31.1531L15.6819 29.3026L10.0009 41.1996L8.08935 35.7936L1.11035 37.8101Z" fill="#FFBF9D"/>
<path d="M5.474 26.4886C5.474 26.4886 1.111 28.2826 0.774501 34.1991C0.692001 35.6466 1.664 43.4806 1.664 43.4806L9.804 39.9211L7.852 33.0141L5.474 26.4886Z" fill="#FCBD01"/>
<path d="M9.97556 40.9085C9.90756 40.932 9.26506 39.255 8.54056 37.1635C7.81556 35.071 7.28356 33.3565 7.35156 33.333C7.41956 33.3095 8.06206 34.986 8.78656 37.078C9.51106 39.17 10.0436 40.885 9.97556 40.9085Z" fill="#263238"/>
<path d="M9.27958 15.3191C9.25958 15.3401 8.97108 15.11 8.61158 14.6385C8.25208 14.17 7.84658 13.4411 7.61108 12.5631C7.37858 11.6841 7.36758 10.8496 7.44658 10.2646C7.52408 9.67656 7.65958 9.33406 7.68758 9.34206C7.77258 9.34956 7.39308 10.7901 7.86308 12.4961C8.30358 14.2091 9.34958 15.2701 9.27958 15.3191Z" fill="#455A64"/>
<path d="M28.4544 31.727C28.5249 31.713 28.8619 33.1015 29.2069 34.8275C29.4839 36.2125 29.6819 37.3945 29.7104 37.802L29.7239 37.9945L29.6369 37.833C29.5809 37.729 29.5604 37.6755 29.5724 37.6675C29.5839 37.6595 29.6269 37.6975 29.7039 37.787L29.6304 37.818C29.4999 37.431 29.2284 36.264 28.9514 34.879C28.6064 33.1525 28.3839 31.741 28.4544 31.727Z" fill="#263238"/>
<path d="M8.48029 46.4415C8.16229 44.8165 8.74179 42.1425 10.0003 41.199L8.48029 46.4415Z" fill="#FFBF9D"/>
<path d="M10.0006 41.199C10.0276 41.234 9.77907 41.4335 9.50807 41.8555C9.23007 42.2715 8.95157 42.9165 8.76007 43.6615C8.35507 45.165 8.54607 46.433 8.48057 46.4415C8.45057 46.449 8.34307 46.1395 8.30707 45.6175C8.26807 45.0975 8.31057 44.37 8.50807 43.597C8.70607 42.8255 9.02607 42.1595 9.35857 41.7485C9.68557 41.33 9.98757 41.175 10.0006 41.199Z" fill="#FF9A6C"/>
</svg>
