<svg width="223" height="161" viewBox="0 0 223 161" fill="none" xmlns="http://www.w3.org/2000/svg">
<path d="M78.7062 67.6225C78.72 68.7003 79.2048 69.414 80.0463 69.9305C80.7453 70.3614 81.4834 70.7386 82.2435 71.0808C82.0578 68.4853 82.1987 65.796 82.2826 63.2315C82.382 60.2156 82.6907 57.264 83.0638 54.2824C83.0679 54.2367 83.1388 54.2449 83.1372 54.2897C82.9791 57.3105 82.9294 60.3476 82.8537 63.37C82.7868 66.0152 82.9286 68.6922 82.8439 71.3374C83.6244 71.6592 84.4211 71.9419 85.2227 72.1961C85.1787 71.2738 85.1429 70.3508 85.1192 69.4246C85.0451 66.6425 85.2194 63.8946 85.2936 61.1174C85.2944 61.0498 85.3881 61.0474 85.3873 61.115C85.3547 63.8164 85.5559 66.5504 85.6602 69.2519C85.6993 70.2938 85.7465 71.3358 85.8027 72.3769C86.3535 72.5382 86.9009 72.6897 87.4427 72.8282C87.8044 72.9211 88.1661 73.0099 88.5278 73.0865C88.4985 71.2625 88.5734 69.4213 88.5922 67.6347C88.6256 64.7427 88.8398 61.8653 88.9172 58.9756C88.9205 58.8754 89.063 58.8714 89.063 58.9716C89.0028 61.8482 89.1364 64.7419 89.1437 67.6193C89.1478 69.4702 89.2341 71.3635 89.2268 73.2405C94.0806 74.2336 99.0802 74.227 103.961 73.5484C106.791 73.1541 109.592 72.539 112.358 71.7765C113.025 71.5932 114.724 71.071 116.399 70.5301C116.392 69.6584 116.407 68.7851 116.389 67.9419C116.347 66.0176 116.42 64.0779 116.327 62.1586C116.325 62.104 116.398 62.1015 116.402 62.1561C116.561 64.0828 116.832 65.9907 116.929 67.9256C116.965 68.7003 117.024 69.5036 117.056 70.3134C117.655 70.1195 118.231 69.9256 118.736 69.7464C118.439 66.117 118.569 62.4209 118.485 58.7989C118.482 58.7117 118.599 58.7084 118.605 58.7956C118.853 62.3451 119.319 65.941 119.376 69.5191C119.971 69.3024 120.384 69.1329 120.484 69.049C121.303 68.3655 120.327 54.0168 120.178 50.6669C119.901 44.4233 118.393 19.0146 116.358 13.0757C115.622 10.9242 113.291 4.45001 105.427 1.35183C102.916 0.365268 100.024 0.702551 97.3735 0.76691C84.5017 1.07974 80.6133 10.2708 79.8834 26.2489C79.6015 32.424 79.2316 56.495 78.931 62.6751C78.8536 64.315 78.6883 65.981 78.7062 67.6225Z" fill="#263238"/>
<path d="M201.038 156.444C200.482 154.31 166.61 103.025 164.143 101.92C163.862 101.777 146.559 112.489 146.559 112.489C145.818 113.356 114.794 104.689 114.794 104.689L112.042 142.61L169.412 145.074C169.412 145.074 176.858 150.121 183.698 154.281C183.71 154.283 183.715 154.291 183.722 154.287C187.93 156.863 191.662 159.044 192.744 159.402C195.564 160.32 201.609 158.569 201.038 156.444Z" fill="#EB9481"/>
<path d="M192.746 159.401C191.66 159.048 187.932 156.865 183.726 154.285C183.716 154.293 183.708 154.283 183.698 154.283C176.862 150.123 169.415 145.071 169.415 145.071L156.646 144.525L138.755 111.032C143.086 112.089 146.324 112.765 146.561 112.487C146.561 112.487 163.857 101.776 164.141 101.922C166.609 103.024 200.479 154.307 201.037 156.442C201.607 158.569 195.564 160.324 192.746 159.401Z" fill="white"/>
<path d="M201.372 156.53C200.782 154.341 166.742 103.074 164.208 101.939C163.249 101.503 154.834 105.983 146.559 112.489L168.544 145.515C168.544 145.515 189.94 158.673 192.853 159.619C195.759 160.555 201.962 158.719 201.372 156.53Z" fill="#FFC727"/>
<path d="M198.834 157.157C192.917 148.703 169.848 114.047 164.642 105.241C164.599 105.169 164.646 105.138 164.695 105.205C170.743 113.456 193.53 148.297 198.975 157.064C199.09 157.249 198.958 157.335 198.834 157.157Z" fill="#263238"/>
<path d="M188.82 157.546C187.384 155.563 187.029 152.929 187.505 151.012C187.962 149.17 188.996 147.167 190.818 146.045C190.87 146.012 190.935 146.106 190.887 146.149C187.85 148.873 186.927 153.893 188.927 157.476C188.968 157.547 188.869 157.614 188.82 157.546Z" fill="#263238"/>
<path d="M171.197 147.639C168.865 144.23 167.431 139.437 168.825 135.431C168.879 135.276 169.099 135.355 169.115 135.492C169.576 139.667 170.345 143.415 171.66 147.417C171.752 147.699 171.364 147.883 171.197 147.639Z" fill="#263238"/>
<path d="M173.995 149.607C171.664 146.2 170.23 141.405 171.624 137.4C171.678 137.245 171.898 137.324 171.913 137.461C172.375 141.634 173.143 145.383 174.459 149.386C174.55 149.668 174.162 149.851 173.995 149.607Z" fill="#263238"/>
<path d="M176.794 151.576C174.462 148.168 173.028 143.373 174.422 139.368C174.476 139.212 174.696 139.292 174.711 139.429C175.173 143.602 175.942 147.352 177.257 151.354C177.349 151.636 176.961 151.82 176.794 151.576Z" fill="#263238"/>
<path d="M179.591 153.544C177.26 150.136 175.826 145.342 177.22 141.336C177.274 141.18 177.494 141.259 177.509 141.397C177.971 145.571 178.739 149.32 180.054 153.322C180.147 153.604 179.759 153.787 179.591 153.544Z" fill="#263238"/>
<path d="M157.932 112.85C155.38 108.983 161.386 105.012 163.942 108.885C166.492 112.751 160.487 116.722 157.932 112.85Z" fill="#263238"/>
<path d="M169.346 153.829C170.509 150.382 170.138 146.553 170.206 142.979C170.214 142.609 169.814 142.455 169.518 142.545C169.484 142.485 169.418 142.45 169.348 142.503C166.511 144.663 163.901 148.118 162.627 151.469C161.841 153.538 161.887 156.668 164.487 157.451C166.945 158.191 168.667 155.841 169.346 153.829ZM166.602 155.88C162.632 158.023 163.265 152.738 163.906 151.236C164.317 150.27 164.853 149.337 165.392 148.438C166.521 146.556 167.896 144.868 169.202 143.116C169.061 144.869 169.071 146.619 168.995 148.376C168.904 150.471 168.79 154.699 166.602 155.88Z" fill="#263238"/>
<path d="M159.044 131.745C156.977 133.505 158.192 136.391 159.744 137.97C162.255 140.527 166.033 142.643 169.499 143.482C169.585 143.502 169.63 143.443 169.638 143.375C169.945 143.339 170.249 143.038 170.094 142.701C168.597 139.456 167.398 135.8 164.949 133.11C163.519 131.54 160.998 130.08 159.044 131.745ZM166.817 138.244C167.592 139.823 168.285 141.43 169.118 142.979C167.218 141.899 165.281 140.906 163.491 139.634C162.636 139.027 161.771 138.389 161.007 137.669C159.818 136.551 157.115 131.965 161.612 132.333C164.091 132.537 165.893 136.363 166.817 138.244Z" fill="#263238"/>
<path d="M124.358 96.6222C124.358 96.6222 76.1131 74.5643 54.5994 74.8364C29.0026 75.1606 9.13123 105.562 40.5309 127.445C68.285 146.789 155.727 145.308 155.727 145.308L135.263 108.628C135.263 108.628 111.106 99.2829 79.472 98.3159L123.617 107.249L124.358 96.6222Z" fill="#455A64"/>
<path d="M123.474 103.935C119.691 102.977 115.838 102.334 111.999 101.644C108.128 100.949 104.24 100.334 100.35 99.7546C92.5931 98.5986 84.7675 97.77 76.9312 97.401C76.1964 97.3668 75.4615 97.3489 74.7267 97.3269C74.5752 97.265 74.4098 97.2267 74.2526 97.1778C73.8827 97.0629 73.5153 96.9464 73.1406 96.8487C72.4432 96.6678 71.7377 96.5187 71.0338 96.3639C69.5674 96.0422 68.0904 95.7904 66.6354 95.4198C66.5466 95.3969 66.5027 95.5305 66.5923 95.5558C68.053 95.9794 69.4819 96.5016 70.9434 96.9204C71.3646 97.0409 71.7866 97.1607 72.2102 97.2747C69.3295 97.2413 66.4497 97.2788 63.5674 97.3538C63.477 97.3562 63.4648 97.4955 63.5576 97.4963C67.4705 97.5175 71.4012 97.7415 75.301 98.0584C79.1748 98.3729 83.0436 98.7077 86.9019 99.1786C94.7048 100.131 102.486 101.336 110.234 102.653C114.581 103.393 118.935 104.217 123.321 104.684C123.746 104.731 123.901 104.044 123.474 103.935Z" fill="#263238"/>
<path d="M146.835 143.65C145.578 141.32 144.538 138.851 143.404 136.458C142.267 134.057 141.129 131.656 139.986 129.258C137.709 124.472 129.466 108.341 128.623 107.195C128.569 107.122 128.446 107.193 128.47 107.276C128.828 108.506 133.935 119.164 135.116 121.543C137.476 126.301 139.977 130.977 142.436 135.684C143.138 137.028 143.869 138.357 144.584 139.694C145.296 141.03 146.062 142.349 146.709 143.717C146.749 143.8 146.879 143.732 146.835 143.65Z" fill="#263238"/>
<path d="M32.9639 156.456C33.5912 154.341 69.1563 104.216 71.6598 103.194C71.9457 103.061 88.8802 114.344 88.8802 114.344C89.5922 115.236 120.888 107.609 120.888 107.609L122.372 145.6L64.951 146.147C64.951 146.147 57.3404 150.942 50.3652 154.872C50.353 154.874 50.3481 154.881 50.3407 154.876C46.0491 157.309 42.2462 159.365 41.1537 159.687C38.3065 160.513 32.3219 158.56 32.9639 156.456Z" fill="#EB9481"/>
<path d="M41.1529 159.689C42.2502 159.371 46.0482 157.315 50.3382 154.877C50.348 154.885 50.357 154.876 50.3659 154.876C57.337 150.946 64.9485 146.146 64.9485 146.146L77.7281 146.027L96.7278 113.149C92.3636 114.062 89.1049 114.629 88.8768 114.343C88.8768 114.343 71.9489 103.06 71.6597 103.197C69.1562 104.217 33.5936 154.34 32.9638 156.455C32.3251 158.56 38.3056 160.517 41.1529 159.689Z" fill="white"/>
<path d="M32.6273 156.532C33.2896 154.364 69.0233 104.261 71.5936 103.211C72.5663 102.808 80.8279 107.566 88.88 114.345L65.8038 146.619C65.8038 146.619 43.9805 159.055 41.0379 159.903C38.1027 160.741 31.9642 158.699 32.6273 156.532Z" fill="#FFC727"/>
<path d="M35.1438 157.242C41.3402 148.991 65.5529 115.124 71.0502 106.497C71.095 106.427 71.0486 106.394 70.9973 106.459C64.6771 114.504 40.7398 148.565 35.0053 157.145C34.8847 157.325 35.0126 157.417 35.1438 157.242Z" fill="#263238"/>
<path d="M45.1392 157.966C46.6406 156.032 47.083 153.41 46.6716 151.479C46.2757 149.622 45.3095 147.586 43.5262 146.403C43.4748 146.369 43.4081 146.46 43.4545 146.505C46.3987 149.329 47.1539 154.377 45.0341 157.891C44.991 157.962 45.0879 158.032 45.1392 157.966Z" fill="#263238"/>
<path d="M63.0828 148.653C65.5268 145.324 67.1203 140.581 65.8608 136.531C65.8119 136.374 65.5895 136.446 65.57 136.582C64.9688 140.739 64.0759 144.459 62.6282 148.415C62.5255 148.694 62.9076 148.891 63.0828 148.653Z" fill="#263238"/>
<path d="M60.22 150.526C62.664 147.198 64.2575 142.455 62.998 138.404C62.9492 138.247 62.7268 138.319 62.7072 138.455C62.106 142.611 61.2131 146.332 59.7646 150.288C59.6628 150.568 60.0457 150.765 60.22 150.526Z" fill="#263238"/>
<path d="M57.3573 152.4C59.8013 149.072 61.3948 144.328 60.1353 140.279C60.0865 140.121 59.8641 140.194 59.8445 140.33C59.2441 144.486 58.3512 148.207 56.9019 152.163C56.8009 152.442 57.183 152.638 57.3573 152.4Z" fill="#263238"/>
<path d="M54.4954 154.273C56.9394 150.945 58.5329 146.201 57.2734 142.151C57.2245 141.994 57.0029 142.066 56.9825 142.203C56.3821 146.359 55.4893 150.081 54.0408 154.036C53.9381 154.315 54.3202 154.512 54.4954 154.273Z" fill="#263238"/>
<path d="M77.5016 114.326C80.1802 110.546 74.3114 106.377 71.6279 110.162C68.9493 113.941 74.8181 118.111 77.5016 114.326Z" fill="#263238"/>
<path d="M69.4619 158.683C72.0867 157.989 72.2366 154.861 71.5197 152.767C70.3588 149.376 67.866 145.836 65.1018 143.582C65.0334 143.527 64.9666 143.561 64.9307 143.619C64.6383 143.518 64.2334 143.659 64.2285 144.029C64.1772 147.603 63.6786 151.418 64.7262 154.901C65.3372 156.934 66.9796 159.341 69.4619 158.683ZM65.259 149.463C65.2419 147.705 65.3104 145.956 65.2281 144.199C66.4745 145.993 67.7926 147.725 68.8582 149.646C69.3666 150.562 69.8709 151.512 70.2497 152.491C70.8395 154.014 71.2957 159.317 67.4 157.043C65.2517 155.789 65.2802 151.559 65.259 149.463Z" fill="#263238"/>
<path d="M69.8127 134.34C67.2758 136.947 65.9561 140.56 64.3504 143.754C64.1842 144.085 64.4783 144.397 64.7838 144.443C64.7879 144.511 64.8327 144.572 64.9182 144.555C68.4107 143.831 72.2567 141.844 74.8522 139.371C76.4547 137.844 77.7663 135.002 75.7598 133.173C73.8616 131.443 71.2938 132.819 69.8127 134.34ZM73.1732 133.676C77.6791 133.457 74.8254 137.951 73.5993 139.029C72.8115 139.721 71.9252 140.332 71.051 140.91C69.2196 142.121 67.2506 143.048 65.3158 144.065C66.2005 142.545 66.9467 140.962 67.7744 139.41C68.7602 137.56 70.6893 133.795 73.1732 133.676Z" fill="#263238"/>
<path d="M122.265 95.9037C122.265 95.9037 170.794 80.9138 196.76 83.8238C222.2 86.6751 232.859 118.474 208.197 135.924C181.266 154.979 79.3206 149.108 79.3206 149.108L100.803 109.996C100.803 109.996 135.441 101.584 167.09 101.675L122.672 109.128L122.265 95.9037Z" fill="#455A64"/>
<path d="M99.3695 112.52C99.3964 112.472 99.3996 112.376 99.411 112.322C99.4224 112.269 99.4338 112.215 99.446 112.161C99.4729 112.036 99.5023 111.911 99.5332 111.786C99.5976 111.527 99.6823 111.279 99.7727 111.026C99.8632 110.775 99.9626 110.53 100.068 110.285C100.178 110.032 100.329 109.827 100.472 109.593C100.486 109.569 100.512 109.565 100.531 109.549C100.543 109.538 100.556 109.528 100.57 109.519C100.59 109.509 100.605 109.498 100.626 109.494C100.645 109.486 100.66 109.474 100.683 109.469C104.495 108.637 130.433 104.107 134.293 103.546C138.185 102.981 142.091 102.496 145.998 102.046C153.79 101.15 161.638 100.583 169.483 100.476C170.219 100.467 170.953 100.473 171.688 100.476C171.841 100.419 172.008 100.387 172.167 100.343C172.54 100.24 172.912 100.136 173.29 100.051C173.993 99.8931 174.703 99.7676 175.411 99.6373C176.887 99.3643 178.372 99.1615 179.839 98.8405C179.928 98.821 179.968 98.9554 179.878 98.9782C178.404 99.3529 176.959 99.8271 175.484 100.197C175.059 100.304 174.633 100.409 174.206 100.509C177.086 100.572 179.964 100.705 182.842 100.876C182.932 100.882 182.94 101.021 182.847 101.019C178.935 100.91 174.999 101.002 171.091 101.188C167.209 101.373 163.331 101.579 159.459 101.92C151.63 102.611 143.812 103.556 136.024 104.614C131.654 105.208 105.21 109.902 100.811 110.222C100.792 110.224 100.776 110.217 100.757 110.215C100.724 110.317 100.692 110.419 100.644 110.52C100.531 110.762 100.417 111.003 100.293 111.241C100.174 111.47 100.057 111.697 99.921 111.916C99.8534 112.025 99.785 112.134 99.7149 112.242C99.6799 112.296 99.6448 112.349 99.6098 112.404C99.5805 112.45 99.5153 112.52 99.5006 112.573C99.4729 112.674 99.319 112.612 99.3695 112.52Z" fill="#263238"/>
<path d="M87.4243 146.521C88.7587 144.233 89.8813 141.8 91.0935 139.446C92.3106 137.084 93.5285 134.723 94.7497 132.364C97.1864 127.658 105.963 111.811 106.844 110.693C106.9 110.623 107.021 110.698 106.994 110.779C106.596 111.996 101.136 122.478 99.8764 124.816C97.3583 129.493 94.7033 134.083 92.0874 138.705C91.3404 140.024 90.5656 141.328 89.8072 142.642C89.0511 143.953 88.2405 145.246 87.5481 146.591C87.5065 146.674 87.3778 146.601 87.4243 146.521Z" fill="#263238"/>
<path d="M104.156 48.1292C97.103 59.9068 86.0284 81.3309 83.2373 83.1704C73.1257 89.836 56.7378 102.951 53.6967 106.207C49.783 110.397 70.5391 129.032 73.4279 126.359C75.4988 124.443 98.4048 106.446 104.701 95.1639C108.781 87.8507 111.895 65.326 113.242 51.8278C114.438 39.8391 108.892 40.2212 104.156 48.1292Z" fill="#EB9481"/>
<path d="M76.6891 123.447C76.3225 123.806 71.1102 128.889 67.6292 131.215C65.032 132.95 57.4206 137.744 55.2267 135.074C53.7277 133.255 57.8719 129.909 60.7493 127.478C62.2654 126.197 63.8385 123.687 62.9676 122.727C61.4458 121.05 57.5746 124.445 55.1623 127.1C50.4975 132.234 44.7761 140.626 40.3647 138.833C38.6987 138.154 39.5981 135.672 41.2209 133.003C38.3052 136.437 35.0164 139.539 33.1362 138.858C32.0584 138.472 31.7301 137.579 31.8865 136.389C30.8787 137.11 29.8628 137.354 28.939 136.841C27.3634 135.978 27.361 133.968 28.0624 131.685C27.6339 131.773 27.194 131.68 26.7647 131.319C23.0498 128.294 32.1121 113.357 36.1228 110.957C47.9183 103.883 61.5379 100.189 61.5379 100.189C67.8149 102.606 76.6964 123.435 76.6891 123.447Z" fill="#EB9481"/>
<path d="M54.2117 117.647C51.3572 119.07 48.7551 121.13 46.7413 123.618C44.184 126.776 42.83 129.954 40.9139 133.33C40.8634 133.419 40.9995 133.5 41.0508 133.411C41.9649 131.805 45.8973 125.612 46.958 124.151C48.9009 121.475 51.3181 119.263 54.2403 117.694C54.2704 117.678 54.2435 117.631 54.2117 117.647Z" fill="#263238"/>
<path d="M50.1196 112.987C47.0573 114.966 43.9159 116.982 41.3065 119.553C38.4511 122.366 36.6825 126.041 34.9253 129.593C33.8695 131.726 32.8585 133.882 31.9021 136.061C31.8621 136.152 31.9933 136.235 32.0389 136.142C33.8059 132.487 35.6813 128.882 37.6691 125.342C39.5387 122.011 41.9005 119.168 44.8944 116.792C46.5815 115.453 48.3673 114.246 50.1506 113.042C50.184 113.02 50.1538 112.965 50.1196 112.987Z" fill="#263238"/>
<path d="M45.0386 109.389C41.9934 111.09 39.3327 112.562 37.0019 115.222C33.916 118.743 31.463 123.804 30.6068 125.594C29.661 127.571 28.7828 129.579 27.9347 131.599C27.8997 131.681 28.0422 131.744 28.0789 131.661C30.0667 127.2 32.3494 122.838 34.8977 118.672C36.1156 116.681 37.5388 114.832 39.3091 113.299C41.059 111.784 43.0745 110.601 45.05 109.41C45.0631 109.401 45.0517 109.381 45.0386 109.389Z" fill="#263238"/>
<path d="M57.3684 100.201L79.2316 125.189C79.2316 125.189 99.5706 104.536 105.677 95.5551C108.226 91.8044 113.366 63.2022 114.104 53.8059C115.005 42.3321 110.498 36.9912 104.123 46.9456C98.602 55.5672 83.9347 80.9701 83.0557 81.5966C82.1767 82.2239 57.3684 100.201 57.3684 100.201Z" fill="#FFC727"/>
<path d="M64.5177 98.8699C73.3071 107.069 81.3145 117.026 82.8322 118.662C82.9039 118.74 82.7727 118.847 82.7043 118.765C81.2982 117.083 70.925 106.7 64.3767 98.9831C64.3002 98.8943 64.433 98.7917 64.5177 98.8699Z" fill="#263238"/>
<path opacity="0.1" d="M114.1 53.8057C113.363 63.2054 108.228 91.8067 105.674 95.5517C99.5722 104.534 79.2316 125.187 79.2316 125.187L67.3245 111.582L109.032 41.9475C112.626 40.5267 114.744 45.5996 114.1 53.8057Z" fill="black"/>
<path d="M158.037 96.1929L96.3566 104.091L97.2389 83.9867C97.2389 83.9867 91.7334 80.1977 93.7423 71.6087C95.0572 65.9883 102.317 52.3548 106.116 46.5968C115.373 32.569 123.568 38.9161 126.897 41.8905C139.608 53.2469 158.037 96.1929 158.037 96.1929Z" fill="#FFC727"/>
<path opacity="0.1" d="M112.153 39.9613L122.247 38.7385C122.65 38.9194 123.046 39.1116 123.415 39.3194L111.052 40.8118C111.421 40.5014 111.783 40.2122 112.153 39.9613ZM105.922 46.8933L129.089 44.09C128.885 43.8603 128.685 43.6501 128.485 43.4399L106.456 46.0933C106.348 46.2538 106.231 46.4257 106.115 46.5976C106.052 46.6888 105.992 46.7899 105.922 46.8933ZM102.414 52.7605L133.048 49.0628C132.894 48.8338 132.732 48.6155 132.57 48.398L102.852 51.9891C102.703 52.2465 102.563 52.5031 102.414 52.7605ZM99.2779 58.5968L136.452 54.1031C136.309 53.8815 136.165 53.6502 136.023 53.4286L99.6861 57.8204C99.546 58.0762 99.4083 58.3426 99.2779 58.5968ZM96.4722 64.3883L139.555 59.1809C139.421 58.9479 139.288 58.7247 139.155 58.5015L96.8209 63.6135C96.702 63.8758 96.583 64.1374 96.4722 64.3883ZM94.1732 70.1219L142.463 64.2873C142.34 64.0624 142.205 63.8286 142.082 63.6038L94.4331 69.3545C94.3361 69.6225 94.2457 69.8791 94.1732 70.1219ZM93.3146 75.6771L145.216 69.4034C145.103 69.1761 144.979 68.9512 144.854 68.7158L93.3023 74.9415C93.3007 75.1916 93.2991 75.4409 93.3146 75.6771ZM94.3606 80.2661C94.4681 80.5146 94.592 80.7395 94.7125 80.9553L147.861 74.5406C147.748 74.3134 147.634 74.0869 147.509 73.8515L94.3606 80.2661ZM97.1443 86.1138L150.409 79.6763C150.295 79.449 150.191 79.2201 150.078 78.9928L97.1842 85.3879L97.1443 86.1138ZM96.9089 91.5982L152.88 84.8372C152.775 84.6083 152.662 84.381 152.547 84.1448L96.9366 90.8658L96.9089 91.5982ZM96.662 97.0743L155.271 89.9933C155.169 89.7741 155.065 89.5452 154.959 89.3065L96.7012 96.3501L96.662 97.0743ZM96.4266 102.559L157.584 95.1639C157.496 94.9619 157.391 94.733 157.282 94.4755L96.4543 101.826L96.4266 102.559Z" fill="black"/>
<path d="M114.863 82.3199C112.154 82.4103 109.43 82.592 106.761 83.0824C105.433 83.3268 104.125 83.6299 102.817 83.9631C102.165 84.1293 101.512 84.2727 100.854 84.4128C100.179 84.557 99.4565 84.6849 98.7632 84.6588C98.7005 84.6564 98.6964 84.7492 98.7584 84.7558C99.4296 84.8209 100.072 84.8812 100.749 84.8568C101.391 84.8332 102.035 84.7411 102.668 84.6311C104.017 84.3965 105.355 84.0991 106.701 83.8507C109.418 83.3488 112.134 82.8486 114.881 82.5448C115.007 82.5301 114.991 82.3158 114.863 82.3199Z" fill="#263238"/>
<path d="M121.366 85.1712C119.17 84.7924 116.922 84.5138 114.696 84.3859C113.577 84.3224 112.462 84.3232 111.341 84.3541C110.806 84.3688 110.271 84.3932 109.737 84.4242C109.149 84.4584 108.565 84.5708 107.977 84.5961C107.915 84.5985 107.909 84.6938 107.972 84.693C108.526 84.6857 109.086 84.7704 109.641 84.7957C110.198 84.8209 110.756 84.8413 111.313 84.8666C112.43 84.9163 113.545 84.979 114.663 85.0181C116.899 85.0971 119.124 85.1981 121.357 85.3545C121.477 85.3643 121.48 85.1916 121.366 85.1712Z" fill="#263238"/>
<path d="M116.929 40.0102C117.16 41.1638 115.265 50.1993 110.398 52.1471C108.812 52.7785 104.979 44.2725 104.979 44.2725L104.552 43.7096L98.5875 35.8212L105.889 24.503L106.981 22.9478C106.981 22.9478 108.47 25.2134 110.297 28.0533C110.382 28.1845 110.468 28.3157 110.557 28.4574C110.665 28.6155 110.768 28.7629 110.862 28.9153C111.141 29.3356 111.423 29.7666 111.696 30.2016C111.904 30.5316 112.109 30.8525 112.315 31.2069C112.531 31.5572 112.733 31.9018 112.95 32.2521C115.006 35.7544 116.824 39.523 116.929 40.0102Z" fill="#EB9481"/>
<path d="M110.297 28.0533C110.965 36.1894 106.678 41.5825 104.552 43.7096L98.5875 35.8212L105.889 24.503L106.981 22.9478C106.981 22.9478 108.47 25.2134 110.297 28.0533Z" fill="#263238"/>
<path d="M82.7884 23.334C83.3847 40.6799 93.8409 42.2815 97.5811 42.1487C100.977 42.0281 112.522 41.1866 113.721 23.8725C114.92 6.55837 106.667 1.35184 98.887 1.2166C91.1069 1.08055 82.1921 5.98809 82.7884 23.334Z" fill="#EB9481"/>
<path d="M86.0324 23.1491C86.4194 23.0122 86.7534 22.8224 87.1208 22.648C87.5363 22.4509 87.8874 22.3368 88.1334 21.9246C88.2654 21.703 88.1677 21.3381 87.9656 21.1898C87.4931 20.8444 86.9245 20.9593 86.4145 21.176C85.8613 21.4114 85.4947 21.734 85.2145 22.2651C84.9432 22.7792 85.5224 23.3291 86.0324 23.1491Z" fill="#263238"/>
<path d="M97.3124 21.5393C96.9034 21.5653 96.5213 21.5222 96.114 21.5059C95.6545 21.4879 95.2863 21.5214 94.8985 21.2395C94.6908 21.0879 94.6362 20.714 94.7649 20.4981C95.0631 19.9947 95.6309 19.8765 96.1848 19.8757C96.7861 19.8741 97.2504 20.0272 97.7164 20.4052C98.1677 20.7702 97.8517 21.5042 97.3124 21.5393Z" fill="#263238"/>
<path d="M88.9139 27.1083C88.8968 27.066 88.8332 27.18 88.843 27.2273C89.0915 28.3833 89.1811 29.7487 88.1994 30.3263C88.1693 30.3442 88.1831 30.402 88.2206 30.389C89.4719 29.976 89.3343 28.1641 88.9139 27.1083Z" fill="#263238"/>
<path d="M87.6544 26.0835C85.7587 26.2814 86.2939 30.059 88.0504 29.8749C89.7791 29.6941 89.2438 25.9173 87.6544 26.0835Z" fill="#263238"/>
<path d="M86.9026 26.4436C86.633 26.6863 86.3894 27.0921 86.0358 27.1662C85.626 27.2517 85.2627 26.8868 84.9433 26.5324C84.9099 26.4957 84.8847 26.5316 84.8904 26.5812C84.9727 27.3063 85.3181 28.024 86.0317 28.0648C86.6818 28.1014 87.0591 27.4163 87.1291 26.6725C87.1422 26.534 87.011 26.3458 86.9026 26.4436Z" fill="#263238"/>
<path d="M95.535 26.0591C95.5367 26.0134 95.6352 26.0982 95.6425 26.147C95.8055 27.3177 96.1892 28.6318 97.3086 28.8379C97.3436 28.8444 97.3501 28.9031 97.3102 28.9047C95.9937 28.9438 95.5016 27.1947 95.535 26.0591Z" fill="#263238"/>
<path d="M96.3669 24.6643C98.2162 24.2008 99.0073 27.9328 97.294 28.3621C95.6085 28.7849 94.8166 25.0529 96.3669 24.6643Z" fill="#263238"/>
<path d="M97.1968 24.745C97.5341 24.8802 97.9015 25.1776 98.2592 25.1262C98.673 25.0668 98.8897 24.5992 99.0681 24.1568C99.0868 24.1112 99.1227 24.1356 99.1341 24.1853C99.3052 24.8949 99.2261 25.6876 98.5703 25.9694C97.9715 26.2269 97.3826 25.712 97.0624 25.0374C97.0029 24.912 97.0616 24.6904 97.1968 24.745Z" fill="#263238"/>
<path d="M97.4485 34.9308C97.2547 35.2762 97.0909 35.721 96.6893 35.8758C96.3039 36.024 95.7899 35.9817 95.3866 35.9475C95.3467 35.9442 95.3214 35.9923 95.3548 36.02C95.7768 36.3694 96.4758 36.4599 96.9752 36.2147C97.4624 35.9743 97.5862 35.4562 97.5732 34.9503C97.5707 34.8794 97.4771 34.8803 97.4485 34.9308Z" fill="#263238"/>
<path d="M91.6707 31.8847C91.6707 31.8847 91.832 33.6591 92.0194 34.4705C92.0373 34.5462 92.2418 34.5373 92.5212 34.4892C92.5351 34.49 92.544 34.4941 92.553 34.4827C94.0365 34.3743 95.3644 33.5458 95.964 32.1747C96.0015 32.0827 95.8793 32.0224 95.8174 32.09C94.9302 33.123 93.7954 33.5996 92.5302 33.9149C92.421 33.7039 92.3567 30.8664 92.2255 30.8868C91.7734 30.9511 90.9701 31.4554 90.4805 31.7308C90.0381 28.0444 90.1905 24.3165 89.6952 20.6521C89.6748 20.5218 89.4826 20.5258 89.4711 20.6488C89.0345 24.5446 89.4507 28.7979 89.81 32.6171C89.8499 33.0937 91.3782 32.0982 91.6707 31.8847Z" fill="#263238"/>
<path d="M92.5497 34.0737C92.5497 34.0737 93.5248 35.0326 94.6873 35.2517C95.1159 35.334 95.5623 35.3226 96.0006 35.1287C96.9032 34.7336 96.7908 33.8668 96.5024 33.1548C96.267 32.569 95.9028 32.09 95.9028 32.09C95.9028 32.09 94.7314 33.5915 92.5497 34.0737Z" fill="#263238"/>
<path d="M94.6877 35.2517C95.1162 35.334 95.5626 35.3226 96.0009 35.1287C96.9036 34.7336 96.7912 33.8668 96.5028 33.1548C95.5105 33.4163 94.6192 34.2578 94.6877 35.2517Z" fill="#FF9BBC"/>
<path d="M113.282 25.3421C110.073 26.2586 108.081 18.89 108.081 18.89C108.081 18.89 93.7726 18.67 90.8439 7.49686C90.8439 7.49686 89.5665 15.1018 82.7656 19.501C82.7656 19.501 81.3391 6.97711 90.8365 3.04227C90.8365 3.04227 102.399 -3.2983 110.778 5.36161C119.157 14.0207 115.436 24.7271 113.282 25.3421Z" fill="#263238"/>
<path d="M90.6656 6.66426C90.7455 8.42476 91.2718 10.1641 92.0848 11.7519C92.8978 13.3396 94.0221 14.7971 95.4217 15.9327C95.7484 16.2448 96.1476 16.4623 96.5076 16.7303L97.0616 17.114C97.2555 17.2256 97.4559 17.3282 97.6555 17.4301C98.0563 17.6305 98.4498 17.848 98.8563 18.0313C99.2742 18.1894 99.6963 18.3368 100.118 18.4802C100.329 18.5502 100.538 18.6309 100.75 18.692L101.401 18.8346L102.699 19.1173C103.577 19.2224 104.46 19.2826 105.333 19.3291C104.478 19.1026 103.617 18.9666 102.781 18.7352L101.54 18.3507L100.922 18.16C100.72 18.0826 100.526 17.9881 100.328 17.9034C99.9358 17.7275 99.5423 17.5564 99.1464 17.395C98.7651 17.202 98.4001 16.9771 98.027 16.7718L97.4689 16.459L96.95 16.0867C96.6136 15.8276 96.2364 15.6174 95.9325 15.3193C94.5956 14.2602 93.5243 12.9054 92.6192 11.4553C92.1695 10.7246 91.7899 9.94901 91.4649 9.14819C91.1251 8.35063 90.8669 7.51885 90.6656 6.66426Z" fill="#263238"/>
<path d="M113.818 29.7747C113.555 29.9344 113.308 30.0468 113.066 30.1259C112.785 30.2326 112.517 30.2823 112.266 30.2969C111.875 30.332 111.525 30.2725 111.223 30.1625C110.945 30.0704 110.694 29.9311 110.486 29.7853C109.946 29.4016 109.66 28.9478 109.66 28.9478L109.753 24.2138C109.753 24.2138 112.488 18.1934 115.147 19.0725C117.817 19.9507 116.46 28.191 113.818 29.7747Z" fill="#EB9481"/>
<path d="M114.703 21.4212C114.748 21.4081 114.769 21.4708 114.732 21.4945C112.894 22.6717 112.191 24.7116 111.814 26.7605C112.269 25.914 112.999 25.3601 114.117 25.8806C114.175 25.9075 114.141 25.9988 114.082 25.9971C113.234 25.9743 112.674 26.226 112.244 26.9812C111.941 27.5157 111.783 28.1503 111.604 28.736C111.545 28.9316 111.206 28.8957 111.235 28.6782C111.238 28.6619 111.241 28.6456 111.242 28.6293C110.719 26.1014 112.028 22.1853 114.703 21.4212Z" fill="#263238"/>
<path d="M120.252 50.4485C119.115 64.1292 117.716 86.8715 115.635 89.4882C108.097 98.9668 96.5979 116.527 94.7201 120.567C92.3029 125.766 117.824 137.025 119.738 133.586C121.111 131.122 137.287 106.895 139.763 94.2141C141.368 85.9949 135.053 63.9704 131.087 50.9976C127.25 38.4477 120.984 41.6363 120.252 50.4485Z" fill="#EB9481"/>
<path d="M92.3608 119.543C85.4524 124.84 84.4919 127.261 76.2866 128.635C70.9024 129.536 69.168 133.361 74.5611 135.135C83.3823 138.037 93.731 133.074 96.8235 130.321L92.3608 119.543Z" fill="#EB9481"/>
<path d="M114.351 109.061C114.351 109.061 103.718 112.184 95.797 117.1C90.3192 120.499 79.2275 129.225 79.6601 148.463C79.7628 153.026 83.1453 159.455 85.6838 151.941C87.4874 146.604 87.0182 142.675 88.6328 139.761C88.6328 139.761 93.9054 147.429 98.4732 147.147C100.514 147.022 106.077 146.547 110.356 145.562C110.356 145.562 110.392 144.572 110.258 143.312C110.258 143.312 116.391 140.621 119.738 133.585L114.351 109.061Z" fill="#EB9481"/>
<path d="M91.0883 121.18C90.0977 124.411 88.1123 131.292 88.4455 137.486C88.8162 144.367 91.3848 157.52 96.461 157.194C100.183 156.956 99.6439 151.847 99.6439 151.847C99.6439 151.847 101.852 157.06 105.167 156.108C108.187 155.242 107.533 151.314 107.533 151.314C107.533 151.314 109.416 154.246 112.165 152.851C115.472 151.172 110.983 145.303 112.864 140.709C113.286 139.677 91.0883 121.18 91.0883 121.18Z" fill="#EB9481"/>
<path d="M95.65 135.882C95.2158 139.073 96.09 146.572 99.5148 151.785C99.5922 151.903 99.7234 151.908 99.6753 151.785C97.123 145.245 96.0175 138.689 95.7144 135.879C95.7104 135.84 95.6549 135.846 95.65 135.882Z" fill="#263238"/>
<path d="M102.606 135.709C102.515 138.501 103.762 146.191 107.414 151.353C107.495 151.469 107.627 151.465 107.574 151.343C104.627 144.62 103.142 138.489 102.672 135.701C102.664 135.664 102.607 135.673 102.606 135.709Z" fill="#263238"/>
<path d="M88.5919 139.723C87.2086 142.305 86.9072 144.574 86.4152 147.419C86.1716 148.826 85.9052 150.234 85.506 151.607C85.1427 152.856 84.6245 154.715 83.0783 154.903C82.218 155.007 81.5255 154.31 81.0799 153.659C80.5797 152.929 80.0396 151.189 79.8872 150.315C79.8799 150.271 79.8017 150.283 79.809 150.328C79.932 151.117 80.3092 152.804 80.6514 153.529C80.9601 154.185 81.387 154.881 82.0347 155.25C83.4286 156.044 84.8559 154.886 85.4604 153.665C85.8221 152.935 86.0437 152.125 86.2506 151.339C86.451 150.579 86.614 149.81 86.7581 149.038C87.0531 147.453 87.2567 145.853 87.5337 144.265C87.8376 142.52 88.1928 141.457 88.6889 139.759C88.7052 139.702 88.6196 139.672 88.5919 139.723Z" fill="#263238"/>
<path d="M91.5012 150.855C90.8706 149.212 88.8829 141.723 88.68 139.729C88.6751 139.679 88.601 139.681 88.6002 139.732C88.5407 142.749 89.9965 149.127 90.6792 150.952C91.3537 152.754 92.2873 154.987 93.6731 156.353C95.7635 158.415 97.5265 157.418 98.1342 157.006C98.8593 156.515 99.3399 155.77 99.5974 154.94C99.8833 154.016 99.8092 152.776 99.6715 151.833C99.6642 151.783 99.5876 151.783 99.5916 151.835C99.7008 153.372 99.3277 155.377 98.0576 156.366C97.5069 156.795 96.7908 157.073 96.0853 156.971C95.256 156.851 94.5969 156.257 94.0723 155.645C92.8837 154.259 92.1488 152.542 91.5012 150.855Z" fill="#263238"/>
<path d="M96.3436 113.717L124.892 130.67C124.892 130.67 137.802 104.717 140.813 94.2833C142.07 89.9256 135.204 61.6461 132.522 52.6107C129.558 42.6277 123.214 35.0969 119.858 49.2485C117.496 59.2103 115.615 87.1802 114.974 88.0495C114.334 88.9179 96.3436 113.717 96.3436 113.717Z" fill="#FFC727"/>
<path d="M134.204 110.856C136.225 105.634 138.981 99.5713 140.458 94.2271C140.947 90.7761 140.137 87.1908 139.622 83.7513C138.414 76.7394 136.784 69.7863 135.166 62.8518L133.529 55.9084C134.944 60.4518 136.203 65.0417 137.37 69.6551C138.539 74.2694 139.563 78.9203 140.418 83.6128C140.939 87.168 141.71 90.7664 141.152 94.3851C139.44 100.116 136.752 105.477 134.204 110.856Z" fill="#263238"/>
<path d="M134.888 61.5329C134.664 59.9321 134.828 58.2856 134.631 56.6913C135.377 58.1642 135.223 59.9598 134.888 61.5329Z" fill="#263238"/>
<path d="M102.899 109.931C113.669 115.269 124.192 122.516 126.114 123.649C126.206 123.703 126.11 123.843 126.021 123.784C124.192 122.574 111.279 115.598 102.795 110.08C102.698 110.015 102.795 109.879 102.899 109.931Z" fill="#263238"/>
<path d="M103.644 103.403C107.116 98.1399 110.694 92.9562 114.333 87.8116C114.596 87.5256 114.637 86.9684 114.753 86.4723C115.033 84.9334 115.229 83.3741 115.427 81.8189C116.229 75.8083 116.958 69.1183 117.717 63.0645L118.534 56.8135C118.427 58.9129 118.259 61.0074 118.117 63.1044C117.625 69.2111 116.994 75.8792 116.233 81.924C115.873 83.9313 115.817 86.1855 115.053 88.0755C111.324 93.2397 107.539 98.3623 103.644 103.403Z" fill="#263238"/>
<path d="M117.45 57.7105C117.75 59.4302 117.701 61.2201 118.036 62.9268C117.159 61.3708 117.191 59.4343 117.45 57.7105Z" fill="#263238"/>
<path d="M111.857 156.533L37.9802 157.065L38.004 160.373L111.881 159.841L111.857 156.533Z" fill="#C7C7C7"/>
<path d="M37.9582 157.069L37.9818 160.377L88.1987 160.018L85.6439 156.728L37.9582 157.069Z" fill="#A6A6A6"/>
<path d="M78.0413 160.092L13.3836 160.555L3.70129 115.004L68.3589 114.541L78.0413 160.092Z" fill="#A6A6A6"/>
<path d="M75.0196 160.113L10.362 160.577L0.678833 115.026L65.3373 114.563L75.0196 160.113Z" fill="#C7C7C7"/>
<path d="M32.0076 135.912C31.9554 138.068 33.4129 140.116 35.2622 140.49C37.1115 140.862 38.6528 139.416 38.705 137.26C38.7571 135.105 37.2997 133.056 35.4504 132.683C33.6011 132.311 32.0597 133.756 32.0076 135.912Z" fill="white"/>
</svg>
