<svg width="63" height="99" viewBox="0 0 63 99" fill="none" xmlns="http://www.w3.org/2000/svg">
<path d="M34.937 81.87L43.2355 86.303C43.2355 86.303 40.764 96.916 42.2745 98.0525L52.9965 82.006L51.815 81.234L47.354 79.2425L38.8985 75.0585L34.937 81.87Z" fill="#455A64"/>
<path d="M45.239 80.66C45.537 80.3985 46.041 80.415 46.3145 80.702C46.588 80.989 46.5755 81.502 46.282 81.768C45.989 82.0345 45.383 82.0335 45.1435 81.7175C44.904 81.402 44.9515 80.8005 45.3 80.612" fill="#9FAAC9"/>
<path d="M52.996 82.006L51.8145 81.234L41.8685 96.849C41.8685 96.849 41.703 97.7935 42.2745 98.052L52.996 82.006Z" fill="#263238"/>
<path d="M42.9748 86.515C43.0573 86.5655 43.3593 86.187 43.8793 85.9625C44.3938 85.724 44.8773 85.75 44.8943 85.655C44.9278 85.5705 44.3673 85.3725 43.7423 85.656C43.1148 85.9335 42.8898 86.4835 42.9748 86.515Z" fill="#263238"/>
<path d="M42.5478 88.7155C42.6138 88.7855 42.9808 88.5275 43.5013 88.479C44.0208 88.415 44.4343 88.5895 44.4838 88.507C44.5468 88.44 44.1123 88.0725 43.4653 88.1455C42.8188 88.212 42.4723 88.663 42.5478 88.7155Z" fill="#263238"/>
<path d="M43.9684 91.0635C44.0339 91.0015 43.7059 90.624 43.1289 90.5395C42.5519 90.451 42.1274 90.7155 42.1719 90.794C42.2079 90.883 42.6059 90.795 43.0789 90.8715C43.5529 90.9375 43.9074 91.1385 43.9684 91.0635Z" fill="#263238"/>
<path d="M40.7205 85.839C40.816 85.854 40.949 85.411 41.2805 84.977C41.603 84.536 41.9895 84.283 41.948 84.1955C41.9205 84.1105 41.3945 84.2595 41.0115 84.7765C40.6245 85.29 40.6315 85.837 40.7205 85.839Z" fill="#263238"/>
<path d="M22.1269 72.5975L11.7699 78.9195L2.13644 81.5575C1.14894 81.7775 0.614939 82.245 0.638439 82.8605C0.657939 83.38 1.08793 83.7945 1.59893 83.8915L15.9949 86.635C16.1239 86.6595 16.2559 86.634 16.3659 86.562C17.8389 85.606 25.7609 80.7865 25.7609 80.7865L22.1269 72.5975Z" fill="#455A64"/>
<path d="M16.3049 77.9375C16.2969 77.924 16.4245 77.8185 16.694 77.693C16.962 77.569 17.3785 77.426 17.917 77.406C18.178 77.4065 18.4969 77.3795 18.8049 77.592C18.9594 77.6975 19.0579 77.93 18.9909 78.135C18.9274 78.337 18.7774 78.4755 18.6134 78.5755C17.9404 78.9505 16.9644 78.752 16.4344 78.058C15.9159 77.3535 15.9504 76.4225 16.3529 75.791C16.4639 75.639 16.6205 75.4885 16.8455 75.467C17.071 75.4435 17.2654 75.6155 17.3269 75.781C17.4609 76.12 17.3955 76.4205 17.3685 76.681C17.2875 77.2115 17.111 77.6125 16.968 77.87C16.8235 78.129 16.711 78.25 16.6985 78.2415C16.6495 78.2205 17.0605 77.6775 17.1815 76.657C17.2 76.4065 17.2354 76.11 17.1264 75.8735C17.0739 75.758 16.976 75.689 16.865 75.701C16.757 75.71 16.638 75.8085 16.554 75.933C16.229 76.458 16.1995 77.3085 16.647 77.8975C17.0875 78.487 17.9459 78.6605 18.4904 78.3635C18.6204 78.29 18.7304 78.1805 18.7669 78.067C18.8029 77.9555 18.764 77.84 18.6685 77.766C18.468 77.6095 18.1679 77.6005 17.9194 77.5945C16.8919 77.599 16.3214 77.99 16.3049 77.9375Z" fill="#263238"/>
<path d="M0.638428 82.8605L17.0014 86.159L16.4189 86.505C16.1459 86.667 15.8224 86.7225 15.5109 86.6605L1.38243 83.8495C1.04093 83.7815 0.773427 83.516 0.702927 83.175L0.638428 82.8605Z" fill="#263238"/>
<path d="M12.4529 80.9095C12.3774 80.9125 12.3124 80.44 12.0849 79.9135C11.8644 79.384 11.5689 79.009 11.6239 78.957C11.6684 78.9055 12.0804 79.2305 12.3244 79.812C12.5729 80.391 12.5209 80.9135 12.4529 80.9095Z" fill="#263238"/>
<path d="M10.0129 81.501C9.94938 81.489 9.92038 81.0555 9.71188 80.547C9.52338 80.03 9.25238 79.6905 9.29138 79.639C9.33788 79.57 9.75138 79.8915 9.95438 80.453C10.1824 81.0045 10.0934 81.5205 10.0129 81.501Z" fill="#263238"/>
<path d="M7.9269 82.0581C7.8514 82.0546 7.8254 81.6071 7.6509 81.0981C7.4834 80.5866 7.2344 80.2141 7.2929 80.1656C7.3409 80.1171 7.71039 80.4496 7.89789 81.0151C8.08939 81.5796 7.9949 82.0676 7.9269 82.0581Z" fill="#263238"/>
<path d="M13.677 78.7535C13.6675 78.7425 13.7755 78.618 14.0385 78.4875C14.2965 78.3625 14.733 78.236 15.2595 78.36L15.337 78.378L15.329 78.461C15.2995 78.777 14.9725 78.956 14.696 78.9895C14.4175 79.031 14.1305 79.038 13.823 79.064C13.668 79.072 13.5185 79.0935 13.3465 79.085C13.1815 79.0815 12.9615 79.0335 12.8205 78.874C12.682 78.723 12.6235 78.541 12.5745 78.3755C12.525 78.2075 12.4855 78.034 12.4575 77.8565C12.3985 77.4885 12.3915 77.122 12.4275 76.7725C12.449 76.6 12.461 76.428 12.538 76.2455C12.5775 76.158 12.6365 76.064 12.737 76.0035C12.8345 75.9425 12.963 75.932 13.062 75.9635C13.2675 76.023 13.3875 76.2035 13.4425 76.3525C13.4995 76.5065 13.5305 76.647 13.557 76.7905C13.609 77.0745 13.611 77.345 13.5905 77.5875C13.546 78.074 13.401 78.4475 13.2745 78.684C13.147 78.922 13.046 79.0325 13.033 79.024C12.9835 79.0045 13.3595 78.505 13.4065 77.5755C13.4145 77.3465 13.402 77.0935 13.3445 76.8315C13.285 76.581 13.2135 76.247 12.997 76.1945C12.7895 76.122 12.7 76.467 12.6815 76.7975C12.6515 77.126 12.66 77.47 12.715 77.8155C12.776 78.136 12.8425 78.504 13.0085 78.7C13.1655 78.888 13.5205 78.833 13.8135 78.8225C14.111 78.803 14.4035 78.803 14.6625 78.773C14.9125 78.75 15.118 78.617 15.1415 78.4415L15.211 78.5425C14.7455 78.409 14.3355 78.494 14.0795 78.584C13.8185 78.678 13.69 78.7715 13.677 78.7535Z" fill="#263238"/>
<path d="M16.7214 81.5895C16.6699 81.4685 16.5899 81.354 16.4754 81.289C16.3609 81.224 16.2074 81.218 16.1024 81.298L16.0504 81.28C15.8299 81.3765 15.6609 81.589 15.6289 81.828C15.5969 82.0665 15.7094 82.322 15.9139 82.449C16.1184 82.576 16.4054 82.5605 16.5874 82.403C16.8094 82.2105 16.8364 81.86 16.7214 81.5895Z" fill="white"/>
<path d="M33.2895 63.6115C33.2895 63.6115 8.73999 48.946 2.82299 55.901C-3.09401 62.856 7.31299 70.3235 9.36649 71.733C11.42 73.1425 34.5365 83.006 34.5365 83.006L38.7885 74.8685L33.2895 63.6115Z" fill="#263238"/>
<path d="M14.251 75.6141C14.251 75.6141 44.5775 59.3066 47.9065 57.7016C50.7665 56.3226 58.81 51.9866 61.406 60.5591C64.002 69.1316 48.411 79.7146 48.411 79.7146L41.9515 76.3546L33.026 80.5746L21.892 85.9211L14.251 75.6141Z" fill="#263238"/>
<path d="M38.8749 85.2341C38.5839 85.0611 26.7939 79.4406 26.7939 79.4406L39.1464 74.1951L46.1644 78.3606L38.8749 85.2341Z" fill="#263238"/>
<path d="M49.8972 72.5975C49.8987 72.601 49.8541 72.626 49.7646 72.6725C49.6646 72.7225 49.5332 72.789 49.3652 72.8735C48.9992 73.052 48.4786 73.306 47.8096 73.632C46.4371 74.2905 44.4581 75.24 41.9821 76.428C36.9926 78.7995 30.0016 82.1225 21.9431 85.953L21.8502 85.997L21.7881 85.9145C19.7906 83.2425 17.6516 80.382 15.4456 77.4315C15.0006 76.8355 14.5581 76.243 14.1461 75.6915L14.0562 75.571L14.1882 75.499C23.8392 70.2435 32.5147 65.5705 38.8647 62.382C42.0367 60.782 44.6142 59.529 46.4062 58.693C47.2987 58.268 47.9997 57.957 48.4722 57.741C48.7007 57.6395 48.8796 57.56 49.0121 57.501C49.1341 57.4485 49.1976 57.4235 49.1996 57.427C49.2016 57.431 49.1416 57.464 49.0231 57.524C48.8931 57.5885 48.7182 57.6755 48.4942 57.7865C48.0152 58.0195 47.3287 58.3535 46.4492 58.781C44.6707 59.644 42.1067 60.921 38.9467 62.541C32.6202 65.77 23.9627 70.4675 14.3127 75.7265L14.3547 75.5345C14.7667 76.086 15.2091 76.678 15.6546 77.274C17.8581 80.226 19.9947 83.0885 21.9902 85.762L21.8356 85.7235C29.9096 81.9265 36.9146 78.6325 41.9137 76.2815C44.4032 75.122 46.3927 74.195 47.7727 73.5525C48.4492 73.2425 48.9761 73.0015 49.3461 72.832C49.5176 72.756 49.6527 72.696 49.7552 72.651C49.8477 72.613 49.8957 72.5945 49.8972 72.5975Z" fill="#455A64"/>
<path d="M14.444 58.717C14.45 58.7 14.691 58.7725 15.1235 58.918C15.559 59.0555 16.1725 59.297 16.9285 59.602C18.4335 60.2285 20.472 61.19 22.6585 62.3725C24.847 63.5525 26.7835 64.6995 28.165 65.561C28.8555 65.992 29.4095 66.3485 29.787 66.6035C30.165 66.8575 30.368 67.008 30.358 67.0225C30.348 67.038 30.1275 66.9165 29.733 66.6895C29.2975 66.4355 28.739 66.1095 28.0695 65.719C26.665 64.8995 24.718 63.7795 22.5345 62.6025C20.3535 61.423 18.3355 60.439 16.855 59.7715C16.1115 59.446 15.51 59.1795 15.087 59.013C14.6675 58.839 14.438 58.734 14.444 58.717Z" fill="#455A64"/>
<path d="M38.8751 85.234C38.8626 85.221 38.9976 85.0705 39.2516 84.8095C39.5496 84.5135 39.9141 84.15 40.3441 83.7225C41.2746 82.813 42.5721 81.5695 44.0166 80.2075C44.7476 79.523 45.4441 78.8715 46.0826 78.274L46.1036 78.464C45.0056 77.801 44.0766 77.23 43.4256 76.8195C42.7746 76.409 42.4011 76.1585 42.4151 76.1355C42.4286 76.1125 42.8276 76.32 43.4996 76.695C44.1716 77.07 45.1176 77.612 46.2256 78.258L46.3626 78.338L46.2466 78.448C45.6126 79.05 44.9211 79.707 44.1951 80.3965C42.7506 81.7585 41.4331 82.9805 40.4706 83.856C40.0181 84.26 39.6341 84.603 39.3211 84.883C39.0456 85.1215 38.8876 85.247 38.8751 85.234Z" fill="#455A64"/>
<path d="M37.4301 23.8375C37.6816 23.852 46.3956 24.2755 48.0516 26.1365C49.7081 27.9975 53.3931 56.214 53.3931 56.214C51.4931 56.46 49.3136 57.4325 48.1396 57.935L33.4316 65.293L25.9356 60.577C25.0766 60.0355 24.9261 58.8445 25.6241 58.1065L19.0081 26.904C19.0081 26.904 20.6096 25.547 23.1756 24.772C25.7411 23.997 37.4301 23.8375 37.4301 23.8375Z" fill="#FCBD01"/>
<path d="M21.8404 25.7985C21.8404 25.7985 19.1874 26.225 18.0904 27.7835C15.5194 31.435 7.51089 44.471 6.10939 47.624C4.62489 50.963 5.50239 53.2895 6.73739 54.481C8.53439 56.2145 13.1369 56.4045 15.7809 53.889C16.9149 52.81 23.1724 47.7615 23.1724 47.7615L21.8404 25.7985Z" fill="#FCBD01"/>
<path d="M18.5711 30.6205C18.5651 30.623 18.5946 30.7165 18.6551 30.8925C18.7236 31.0835 18.8151 31.3385 18.9296 31.658C19.1576 32.326 19.4746 33.298 19.8281 34.5105C20.5431 36.9335 21.3961 40.3195 22.2906 44.0705C23.1626 47.8205 23.9521 51.214 24.5281 53.692C24.8171 54.923 25.0586 55.917 25.2321 56.6025C25.3196 56.931 25.3891 57.193 25.4416 57.3895C25.4916 57.569 25.5206 57.6625 25.5266 57.661C25.5326 57.6595 25.5156 57.563 25.4776 57.3805C25.4336 57.182 25.3751 56.9175 25.3016 56.586C25.1446 55.8775 24.9246 54.8835 24.6546 53.6635C24.1086 51.1955 23.3596 47.7835 22.4691 44.0285C21.5741 40.276 20.7006 36.8915 19.9521 34.474C19.5821 33.2645 19.2456 32.2965 18.9961 31.634C18.8676 31.319 18.7656 31.0675 18.6886 30.879C18.6181 30.707 18.5771 30.6185 18.5711 30.6205Z" fill="#263238"/>
<path d="M44.7934 24.756C44.7934 24.756 46.8789 24.721 49.2764 26.987C50.2689 27.925 61.7624 44.9 62.8239 49.59C63.4394 52.3095 60.1699 57.675 57.0074 57.223C52.8724 56.632 37.6304 49.7425 37.6304 49.7425L41.5704 42.343L50.3004 44.2675L44.2674 37.455L44.1239 24.894" fill="#FCBD01"/>
<path d="M9.36687 46.2295C9.37037 46.235 9.42637 46.2055 9.52987 46.1445C9.65037 46.071 9.79787 45.981 9.97787 45.8715C10.3859 45.6125 10.9364 45.263 11.6059 44.838C12.9764 43.9585 14.8624 42.733 16.9394 41.37C17.4149 41.0575 17.8799 40.7515 18.3279 40.457L18.2034 40.432C19.3779 42.1605 20.4219 43.6685 21.1839 44.737C21.9434 45.806 22.4314 46.4325 22.4654 46.404C22.2544 46.095 21.9144 45.597 21.2809 44.6695C20.5324 43.56 19.5124 42.0485 18.3534 40.3305L18.3034 40.2565L18.2284 40.3055C17.7799 40.599 17.3144 40.904 16.8384 41.216C14.7614 42.579 12.8869 43.822 11.5344 44.729C10.8779 45.1745 10.3379 45.5405 9.93838 45.8115C9.76638 45.9325 9.62488 46.0325 9.50938 46.1135C9.41238 46.184 9.36337 46.224 9.36687 46.2295Z" fill="#263238"/>
<path d="M34.537 39.2271L41.345 42.767L38.2035 48.6671L34 45.525L34.537 39.2271Z" fill="#FFBF9D"/>
<path d="M27.8935 39.4375L23.4016 35.9986C23.2436 35.8776 23.0486 35.8146 22.8496 35.8196L16.702 35.9856C16.4535 35.9921 16.2496 36.191 16.2461 36.4395C16.2426 36.683 16.2835 36.9631 16.4635 37.1041C16.8205 37.3841 25.9961 44.5786 25.9961 44.5786L33.4666 43.834L27.8935 39.4375Z" fill="#9FAAC9"/>
<path d="M34.537 39.2271C34.537 39.2271 32.121 37.2096 31.534 37.0721C30.947 36.9346 28.2785 36.7921 28.2785 36.7921L25.9604 37.9426L27.2944 38.9666C28.2714 38.8111 28.5704 38.451 28.5704 38.451L30.1154 38.6455L34.537 39.2271Z" fill="#FFBF9D"/>
<path d="M31.7465 38.2485L27.673 39.3875L21.8925 39.8625C21.8925 39.8625 21.789 41.0215 22.9595 41.2165C23.647 41.331 24.852 41.4845 24.852 41.4845C24.852 41.4845 25.082 42.5555 25.96 42.8425C25.96 42.8425 26.3045 43.6105 26.765 43.912C26.8205 43.948 26.877 43.9775 26.9355 43.9985C27.478 44.191 28.4885 45.7485 29.2115 45.9915C29.935 46.2345 34.0005 45.5245 34.0005 45.5245L34.5375 39.2265L31.7465 38.2485Z" fill="#FFBF9D"/>
<path d="M30.3785 41.4375C30.3745 41.42 30.059 41.4865 29.545 41.558C29.031 41.6305 28.316 41.6985 27.524 41.7045C26.732 41.7095 26.016 41.651 25.5015 41.583C24.9865 41.5165 24.671 41.452 24.667 41.4695C24.6655 41.477 24.7425 41.5 24.884 41.5365C25.0255 41.5735 25.2325 41.617 25.49 41.6595C26.005 41.7475 26.726 41.819 27.5245 41.814C28.3225 41.8085 29.0425 41.727 29.5565 41.6345C29.8135 41.589 30.0205 41.544 30.1615 41.506C30.3035 41.469 30.3805 41.445 30.3785 41.4375Z" fill="#FF9A6C"/>
<path d="M29.5132 43.0275C29.5017 43.029 29.4872 43.179 29.5317 43.4235C29.5577 43.5435 29.6042 43.6945 29.7237 43.823C29.8417 43.953 30.0372 44.0261 30.2312 44.0241C30.4267 44.0251 30.6057 43.9711 30.7547 43.9061C30.9042 43.8416 31.0302 43.7725 31.1377 43.719C31.3507 43.6095 31.4927 43.5695 31.4897 43.5535C31.4877 43.5395 31.3327 43.5545 31.1057 43.6485C30.8792 43.732 30.5847 43.9155 30.2312 43.915C30.0572 43.9155 29.8977 43.8576 29.7952 43.7531C29.6912 43.6496 29.6392 43.5171 29.6062 43.4056C29.5452 43.1776 29.5312 43.0255 29.5132 43.0275Z" fill="#FF9A6C"/>
<path d="M26.5445 43.248C26.541 43.262 26.704 43.3175 26.974 43.384C27.2435 43.4505 27.621 43.5256 28.0415 43.5786C28.4625 43.6316 28.8465 43.653 29.124 43.6555C29.402 43.6585 29.5735 43.645 29.5735 43.631C29.574 43.5985 28.89 43.5776 28.055 43.4706C27.22 43.3661 26.552 43.2165 26.5445 43.248Z" fill="#FF9A6C"/>
<path d="M29.4727 45.0796C29.4537 45.1001 29.7127 45.3201 30.1127 45.4046C30.5117 45.4926 30.8387 45.3986 30.8297 45.3726C30.8247 45.3401 30.5097 45.3811 30.1357 45.2981C29.7607 45.2196 29.4902 45.0521 29.4727 45.0796Z" fill="#FF9A6C"/>
<path d="M28.0387 44.9235C28.0327 44.953 28.2227 45.015 28.4622 45.0615C28.7017 45.108 28.9007 45.122 28.9067 45.0925C28.9127 45.063 28.7227 45.001 28.4832 44.9545C28.2432 44.908 28.0447 44.894 28.0387 44.9235Z" fill="#FF9A6C"/>
<path d="M27.6726 39.3875C27.6831 39.43 28.5411 39.207 29.5771 38.871C30.0961 38.704 30.5621 38.541 30.8956 38.4125C31.2296 38.2855 31.4296 38.188 31.4241 38.1745C31.4181 38.1605 31.2096 38.232 30.8701 38.34C30.4956 38.4605 30.0436 38.606 29.5436 38.767C29.0441 38.929 28.5921 39.076 28.2181 39.1975C27.8796 39.311 27.6711 39.375 27.6726 39.3875Z" fill="#FF9A6C"/>
<path d="M21.7356 40.4885C21.7356 40.4885 22.1886 40.3615 21.7521 39.6365C21.3151 38.9115 19.9326 39.679 19.9326 39.679L18.1686 40.5955C18.1686 40.5955 17.7336 41.4595 18.1951 41.722L18.5206 42.1745C18.5206 42.1745 17.8161 42.8085 18.0501 43.416C18.2836 44.0235 18.9481 43.9765 18.9481 43.9765C18.9481 43.9765 18.8011 45.1665 19.1621 45.6485C19.5236 46.13 19.8751 46.192 19.8751 46.192C19.8751 46.192 20.1436 47.201 21.2726 47.5595C22.4011 47.918 22.9976 47.974 23.3371 47.511C23.6761 47.048 23.9071 46.4475 23.9071 46.4475C23.9071 46.4475 26.4361 45.3025 26.5256 44.653C26.6156 44.0035 26.5086 43.936 26.5086 43.936C26.5086 43.936 26.7376 43.405 26.5126 42.991C26.2876 42.5775 25.2936 42.8685 25.2936 42.8685L22.1211 43.422C22.1211 43.422 24.6941 42.3895 25.0146 42.022C25.3356 41.6545 25.0441 41.165 24.0301 41.226C23.0166 41.2865 19.9451 41.6805 19.9451 41.6805C19.9451 41.6805 20.1131 41.3855 20.3216 41.313C20.5301 41.24 21.1796 40.91 21.1796 40.91L21.7356 40.4885Z" fill="#FFBF9D"/>
<path d="M20.7129 45.189C20.7194 45.2185 22.0074 44.9685 23.5904 44.63C25.1734 44.2915 26.4514 43.9935 26.4454 43.964C26.4389 43.9345 25.1509 44.185 23.5679 44.523C21.9849 44.8615 20.7064 45.1595 20.7129 45.189Z" fill="#FF9A6C"/>
<path d="M22.107 46.983C22.114 47.012 22.5315 46.9365 23.036 46.8005C23.2885 46.7325 23.5145 46.6615 23.675 46.5985C23.7555 46.567 23.8195 46.5375 23.8615 46.511C23.8825 46.4975 23.8985 46.485 23.9075 46.4725C23.9205 46.459 23.9085 46.442 23.9055 46.448C23.9235 46.4595 23.508 46.56 23.007 46.6955C22.505 46.8305 22.1 46.9535 22.107 46.983Z" fill="#FF9A6C"/>
<path d="M19.6021 43.7421C19.6076 43.7731 20.2251 43.6851 20.9886 43.6046C21.7526 43.5226 22.3746 43.4791 22.3731 43.4476C22.3726 43.4186 21.7451 43.4136 20.9771 43.4961C20.2091 43.5771 19.5966 43.7136 19.6021 43.7421Z" fill="#FF9A6C"/>
<path d="M18.9316 42.079C18.9496 42.1055 19.2081 41.9455 19.5611 41.842C19.9131 41.7345 20.2166 41.726 20.2171 41.6935C20.2206 41.666 19.9021 41.6245 19.5296 41.7375C19.1566 41.8475 18.9136 42.0575 18.9316 42.079Z" fill="#FF9A6C"/>
<path d="M16.521 36.5316C16.5215 36.5356 16.561 36.5351 16.6365 36.5311C16.724 36.5251 16.8325 36.5181 16.965 36.5091C17.25 36.4891 17.6625 36.4596 18.173 36.4316C19.193 36.3756 20.6045 36.3341 22.1625 36.3876C22.5495 36.4041 22.942 36.3891 23.2445 36.5791C23.3965 36.6701 23.5325 36.7891 23.672 36.8986C23.81 37.0091 23.945 37.1176 24.077 37.2231C24.603 37.6421 25.0785 38.0206 25.4825 38.3421C25.876 38.6501 26.1985 38.9031 26.436 39.0891C26.542 39.1691 26.629 39.2351 26.6985 39.2881C26.7595 39.3326 26.7925 39.3546 26.795 39.3516C26.7975 39.3486 26.769 39.3211 26.7125 39.2711C26.646 39.2141 26.5635 39.1431 26.4625 39.0561C26.2305 38.8636 25.9155 38.6016 25.531 38.2821C25.1315 37.9551 24.661 37.5706 24.1405 37.1451C24.009 37.0386 23.875 36.9291 23.7375 36.8176C23.5995 36.7081 23.4635 36.5866 23.2995 36.4871C23.136 36.3851 22.94 36.3321 22.748 36.3106C22.554 36.2881 22.3615 36.2866 22.1665 36.2786C20.6045 36.2246 19.189 36.2786 18.1685 36.3546C17.658 36.3921 17.246 36.4336 16.9615 36.4666C16.8295 36.4836 16.7215 36.4976 16.6345 36.5086C16.5595 36.5206 16.5205 36.5281 16.521 36.5316Z" fill="#263238"/>
<path d="M20.3059 37.2985C20.3569 37.2165 20.4864 37.182 20.6084 37.202L20.5964 37.198C20.6124 37.201 20.6284 37.206 20.6444 37.21C20.6509 37.2115 20.6579 37.213 20.6644 37.215C20.7554 37.242 20.8409 37.2885 20.8964 37.3645C20.9649 37.4595 20.9704 37.605 20.8859 37.686C20.8394 37.7305 20.7739 37.75 20.7099 37.757C20.5839 37.7705 20.4484 37.7365 20.3594 37.6465C20.2699 37.557 20.2394 37.406 20.3059 37.2985Z" fill="white"/>
<path d="M49.4156 54.819C49.4176 54.8145 49.3426 54.7765 49.1961 54.708C49.0366 54.6355 48.8216 54.5375 48.5486 54.4135C47.9676 54.1565 47.1431 53.792 46.1126 53.3365C44.0126 52.423 41.0756 51.1455 37.6656 49.662L37.7081 49.784C38.5166 48.2685 39.3956 46.621 40.3071 44.9115C40.7651 44.051 41.2141 43.206 41.6506 42.386L41.5511 42.4321C44.7916 43.1171 47.7346 43.7395 50.1201 44.244L50.1116 44.2415C52.0621 44.914 53.5126 45.7971 54.4646 46.4621C54.9416 46.7961 55.2976 47.0781 55.5381 47.2701C55.6501 47.3611 55.7401 47.434 55.8106 47.491C55.8726 47.54 55.9056 47.564 55.9081 47.5615C55.9106 47.559 55.8821 47.5296 55.8246 47.4751C55.7576 47.4141 55.6721 47.3356 55.5651 47.2381C55.3326 47.0351 54.9836 46.742 54.5111 46.397C53.5691 45.7095 52.1196 44.802 50.1586 44.1075L50.1546 44.106L50.1501 44.105C47.7671 43.59 44.8271 42.954 41.5896 42.2545L41.5226 42.2401L41.4901 42.3006C41.0531 43.1206 40.6031 43.965 40.1446 44.825C39.2356 46.5355 38.3591 48.1846 37.5531 49.7016L37.5081 49.786L37.5956 49.8235C41.0161 51.2825 43.9621 52.539 46.0686 53.4375C47.1076 53.8735 47.9391 54.222 48.5251 54.468C48.8026 54.581 49.0216 54.67 49.1836 54.736C49.3341 54.795 49.4136 54.8235 49.4156 54.819Z" fill="#263238"/>
<path d="M45.1661 38.634C45.1466 38.65 45.3986 38.998 45.8266 39.544C46.2546 40.09 46.8576 40.835 47.5431 41.642C48.2291 42.449 48.8681 43.1645 49.3581 43.659C49.6031 43.906 49.8101 44.0985 49.9701 44.215C50.0536 44.2685 50.1121 44.3225 50.1896 44.31C50.2301 44.286 50.2146 44.253 50.2126 44.243C50.2081 44.2295 50.2041 44.2235 50.2011 44.224C50.1931 44.2185 50.1976 44.2695 50.1776 44.275C50.1496 44.275 50.0821 44.221 50.0151 44.1595C49.8746 44.0305 49.6836 43.826 49.4526 43.5695C48.9901 43.0555 48.3681 42.328 47.6831 41.5225C47.0156 40.739 46.4121 40.031 45.9271 39.461C45.4736 38.937 45.1856 38.618 45.1661 38.634Z" fill="#263238"/>
<path d="M43.6888 35.066C43.7258 35.0625 43.6478 34.508 43.6988 33.6155C43.7208 33.1695 43.7953 32.642 43.9218 32.0665C44.0598 31.494 44.2568 30.875 44.5338 30.2535C44.8183 29.6355 45.1543 29.079 45.4938 28.598C45.8428 28.1235 46.1908 27.7195 46.5118 27.409C47.1493 26.7825 47.6173 26.4755 47.5958 26.4455C47.5888 26.435 47.4693 26.507 47.2588 26.647C47.1523 26.715 47.0248 26.8035 46.8873 26.919C46.7483 27.033 46.5828 27.155 46.4223 27.315C46.0848 27.618 45.7208 28.02 45.3573 28.498C45.0038 28.983 44.6568 29.5475 44.3663 30.178C44.0838 30.8115 43.8878 31.4445 43.7563 32.03C43.6363 32.618 43.5743 33.157 43.5688 33.6105C43.5538 33.837 43.5718 34.042 43.5773 34.2215C43.5808 34.4015 43.5988 34.555 43.6178 34.6805C43.6513 34.9305 43.6763 35.068 43.6888 35.066Z" fill="#263238"/>
<path d="M33.1476 60.8701C33.1461 60.8381 32.7016 60.8576 31.9906 60.7981C31.2806 60.7401 30.3036 60.5746 29.2801 60.2081C28.2571 59.8386 27.3986 59.3441 26.8141 58.9371C26.2276 58.5306 25.8976 58.2326 25.8761 58.2561C25.8676 58.2656 25.9426 58.3476 26.0866 58.4891C26.2286 58.6326 26.4506 58.8231 26.7376 59.0426C27.3101 59.4826 28.1761 60.0051 29.2181 60.3816C30.2611 60.7546 31.2611 60.9026 31.9826 60.9281C32.3436 60.9416 32.6361 60.9361 32.8371 60.9156C33.0381 60.8981 33.1481 60.8826 33.1476 60.8701Z" fill="#263238"/>
<path d="M28.359 52.768C28.349 52.776 28.4275 52.888 28.578 53.0835C28.7275 53.2795 28.9525 53.5565 29.2365 53.8935C29.8045 54.568 30.6185 55.475 31.567 56.4295C32.5165 57.384 33.4185 58.204 34.0895 58.7755C34.425 59.0615 34.7005 59.288 34.8955 59.4385C35.09 59.59 35.2015 59.669 35.21 59.659C35.218 59.649 35.1225 59.5515 34.9425 59.384C34.732 59.19 34.4765 58.9545 34.176 58.678C33.529 58.0825 32.6435 57.2505 31.6975 56.2995C30.7525 55.348 29.926 54.458 29.334 53.8075C29.059 53.506 28.825 53.249 28.6325 53.037C28.466 52.856 28.369 52.7595 28.359 52.768Z" fill="#263238"/>
<path d="M36.413 15.5955C36.7395 13.797 37.0576 11.987 37.0701 10.159C37.0826 8.331 36.7751 6.4695 35.9141 4.857C35.7836 4.6125 34.734 2.99651 34.4645 3.06051C34.272 3.10601 34.9926 4.649 34.9166 4.832C34.1931 6.578 34.2006 8.55901 34.6041 10.4055C35.0071 12.252 35.6225 13.8785 36.413 15.5955Z" fill="#263238"/>
<path d="M27.612 27.0096C27.4255 25.7321 27.274 24.724 27.2645 24.7255C27.2645 24.7255 22.815 24.8766 21.939 20.5656C21.516 18.4831 20.9935 14.1225 20.5665 10.1715C20.1075 5.92654 22.989 2.04255 27.183 1.24405L27.6 1.16456C32.1455 0.571555 35.1885 4.10006 35.656 8.66056L37.798 24.5591L37.028 25.9775C35.1095 29.514 30.2505 30.0461 27.612 27.0096Z" fill="#FFBF9D"/>
<path d="M27.2646 24.7255C27.2646 24.7255 30.0187 24.367 32.5737 21.991C32.5737 21.991 31.8002 25.3945 27.4147 25.8265L27.2646 24.7255Z" fill="#FF9A6C"/>
<path d="M22.7966 14.3755C22.8471 14.7035 23.1666 14.9315 23.5101 14.885C23.8531 14.8385 24.0906 14.5355 24.0401 14.2075C23.9896 13.8795 23.6701 13.6515 23.3271 13.6975C22.9841 13.744 22.7461 14.0475 22.7966 14.3755Z" fill="#263238"/>
<path d="M21.8315 11.7915C21.9235 11.8575 22.325 11.4225 22.9895 11.298C23.6515 11.164 24.2035 11.4125 24.26 11.3175C24.2885 11.275 24.183 11.1445 23.9415 11.03C23.7035 10.916 23.3185 10.834 22.9055 10.9145C22.4925 10.9955 22.1735 11.214 22.003 11.408C21.828 11.604 21.7865 11.7625 21.8315 11.7915Z" fill="#263238"/>
<path d="M28.5951 13.485C28.6456 13.813 28.9651 14.0405 29.3086 13.994C29.6516 13.9475 29.8891 13.645 29.8386 13.3165C29.7881 12.9885 29.4687 12.7605 29.1257 12.8065C28.7822 12.8535 28.5446 13.157 28.5951 13.485Z" fill="#263238"/>
<path d="M28.3864 10.822C28.4784 10.888 28.8804 10.453 29.5444 10.3285C30.2059 10.1945 30.7584 10.4435 30.8149 10.3485C30.8434 10.3055 30.7384 10.1755 30.4959 10.0615C30.2579 9.94752 29.8729 9.86552 29.4599 9.94602C29.0469 10.027 28.7279 10.2455 28.5574 10.4395C28.3839 10.634 28.3424 10.793 28.3864 10.822Z" fill="#263238"/>
<path d="M26.9761 16.3775C26.9721 16.339 26.5456 16.3465 25.8606 16.388C25.6876 16.403 25.5206 16.3995 25.4701 16.2895C25.4071 16.1745 25.4431 15.9785 25.4876 15.765C25.5691 15.3245 25.6541 14.8625 25.7431 14.3785C26.0896 12.4075 26.3056 10.8 26.2261 10.787C26.1466 10.774 25.8011 12.3605 25.4551 14.3315C25.3736 14.817 25.2956 15.2795 25.2221 15.722C25.1946 15.927 25.1261 16.1665 25.2611 16.404C25.3306 16.522 25.4726 16.5905 25.5871 16.599C25.7021 16.6115 25.7981 16.595 25.8826 16.584C26.5626 16.492 26.9806 16.416 26.9761 16.3775Z" fill="#263238"/>
<path d="M29.0175 16.465C28.908 16.4795 29.044 17.2005 28.5245 17.8295C28.0065 18.46 27.2225 18.5255 27.236 18.627C27.2345 18.674 27.434 18.7345 27.7595 18.6815C28.0795 18.632 28.525 18.441 28.8425 18.0565C29.159 17.671 29.241 17.222 29.2095 16.9215C29.1805 16.6145 29.066 16.451 29.0175 16.465Z" fill="#263238"/>
<path d="M27.91 8.1205C28.01 8.2885 28.6565 8.077 29.4535 8.0225C30.2495 7.952 30.921 8.0605 30.9935 7.879C31.025 7.7925 30.883 7.6435 30.5955 7.5175C30.3105 7.391 29.877 7.3015 29.3995 7.3385C28.922 7.3765 28.508 7.53201 28.2465 7.70151C27.9825 7.87051 27.866 8.04 27.91 8.1205Z" fill="#263238"/>
<path d="M21.6855 9.53201C21.831 9.66051 22.2585 9.417 22.8075 9.305C23.352 9.174 23.8425 9.21301 23.9195 9.03501C23.952 8.94951 23.85 8.81251 23.619 8.70851C23.3915 8.60451 23.0335 8.55201 22.658 8.63551C22.2825 8.71951 21.981 8.91851 21.819 9.10951C21.6545 9.30101 21.62 9.46801 21.6855 9.53201Z" fill="#263238"/>
<path d="M35.9121 11.9275C35.9796 11.8815 38.7136 10.484 39.1821 13.456C39.6501 16.428 36.5696 16.285 36.5511 16.2005C36.5321 16.116 35.9121 11.9275 35.9121 11.9275Z" fill="#FFBF9D"/>
<path d="M37.2815 14.9315C37.293 14.92 37.339 14.9595 37.433 14.986C37.5245 15.0115 37.6755 15.0155 37.821 14.933C38.117 14.7685 38.3025 14.2285 38.233 13.6905C38.198 13.419 38.1005 13.17 37.9715 12.972C37.8465 12.769 37.682 12.639 37.5195 12.636C37.3565 12.6245 37.2595 12.7365 37.2365 12.826C37.2095 12.9155 37.238 12.9715 37.223 12.9795C37.216 12.9885 37.1515 12.9395 37.156 12.813C37.159 12.752 37.1825 12.6765 37.2435 12.6085C37.3055 12.539 37.406 12.493 37.518 12.4875C37.7495 12.467 37.9895 12.6455 38.1315 12.863C38.2865 13.0795 38.402 13.358 38.4415 13.663C38.5165 14.265 38.2985 14.8735 37.8885 15.0655C37.688 15.153 37.5035 15.1175 37.4025 15.0615C37.298 15.0025 37.272 14.9385 37.2815 14.9315Z" fill="#FF9A6C"/>
<path d="M21.76 4.958C21.239 4.764 22.453 2.98951 23.5565 2.27651C25.225 1.19951 27.8825 0.294007 29.601 0.517007C31.6705 0.785007 33.467 1.52851 34.732 3.18801C35.9975 4.84751 36.685 6.89751 36.933 8.96951C37.009 9.60151 37.041 10.2675 36.7835 10.85C36.4655 11.5695 35.7295 12.1025 35.899 13.005C35.961 13.335 35.916 13.6835 35.725 13.9595C35.2665 14.6195 34.5195 14.1745 34.1325 13.674C33.3055 12.6055 33.026 11.2245 32.77 9.898C32.5885 8.955 32.406 7.991 32.538 7.04C32.61 6.5225 32.7745 6.01901 32.8175 5.49801C32.8605 4.97701 32.7605 4.40801 32.386 4.04351C32.325 3.98451 32.2285 3.91252 32.108 3.83502C31.1555 3.22152 29.943 3.1755 28.942 3.706C27.354 4.5475 24.6235 5.85801 23.792 5.40051C22.595 4.74201 22.259 4.24651 22.259 4.24651L21.76 4.958Z" fill="#263238"/>
</svg>
