<svg width="170" height="126" viewBox="0 0 170 126" fill="none" xmlns="http://www.w3.org/2000/svg">
<path d="M169.241 30.5546L156.483 117.88C155.77 122.764 151.234 126.143 146.359 125.431L7.85623 105.196C2.98127 104.484 -0.397133 99.9487 0.316515 95.064L13.0742 7.73904C13.7382 3.19727 17.9573 0.0526604 22.4999 0.716614L162.218 21.1289C166.76 21.7929 169.904 26.0128 169.241 30.5546Z" fill="#FFC727"/>
<path opacity="0.2" d="M169.241 30.5546L156.483 117.88C155.77 122.764 151.234 126.143 146.359 125.431L7.85623 105.196C2.98127 104.484 -0.397133 99.9487 0.316515 95.064L13.0742 7.73904C13.7382 3.19727 17.9573 0.0526604 22.4999 0.716614L162.218 21.1289C166.76 21.7929 169.904 26.0128 169.241 30.5546Z" fill="black"/>
<path d="M48.1757 40.4748L25.6363 37.1819C23.7658 36.909 22.4705 35.1705 22.7443 33.3L24.7141 19.8157C24.987 17.9452 26.7255 16.6499 28.596 16.9236L51.1362 20.2165C53.0067 20.4894 54.302 22.2279 54.0283 24.0984L52.0584 37.5827C51.7847 39.4532 50.047 40.7477 48.1757 40.4748Z" fill="#FFC727"/>
<path d="M18.4736 55.0003L17.1685 55.5298C17.1286 55.5486 17.0635 55.564 17.0154 55.5567C16.9062 55.5412 16.8174 55.4663 16.7815 55.3734C16.7188 55.2031 16.7929 55.0402 16.9494 54.9889L18.7351 54.2321C18.8793 54.1791 19.0667 54.2557 19.1205 54.3999C19.1457 54.4781 19.1474 54.5522 19.1246 54.6239L17.9832 62.4358C17.9604 62.5938 17.8195 62.7095 17.65 62.6842C17.492 62.6614 17.3771 62.5083 17.4007 62.3502L18.4736 55.0003Z" fill="#F8F8F8"/>
<path d="M20.1038 62.5099L24.5999 59.5062C25.1376 59.138 25.4781 58.5922 25.5669 57.9844C25.6427 57.4614 25.5246 56.9115 25.2085 56.4431C24.8533 55.907 24.2936 55.5771 23.6981 55.4907C23.1629 55.4125 22.6146 55.5184 22.1339 55.8329L21.6655 56.149C21.5262 56.2524 21.334 56.2117 21.2541 56.0765C21.1498 55.938 21.1906 55.7449 21.3266 55.6651L21.7966 55.3368C22.4003 54.9408 23.1164 54.7974 23.7844 54.8952C24.525 55.0036 25.2354 55.4052 25.6916 56.1042C26.1119 56.7119 26.2447 57.4133 26.1494 58.0691C26.0394 58.8219 25.6256 59.5315 24.9364 60.0015L21.0862 62.5783L25.1075 63.1657C25.2655 63.1885 25.3787 63.3417 25.3543 63.5119C25.3315 63.67 25.1783 63.784 25.0211 63.7612L20.283 63.0688L20.2349 63.0614C20.1494 63.0492 20.068 63.0125 20.028 62.9441C19.9376 62.7958 19.9645 62.6134 20.1038 62.5099Z" fill="#F8F8F8"/>
<path d="M33.5052 56.8618L30.9765 58.7999C31.4955 58.9873 31.968 59.3172 32.3215 59.7905C32.7981 60.4309 32.97 61.2138 32.8617 61.9543C32.7533 62.6948 32.3655 63.3954 31.713 63.8704C31.0718 64.3478 30.289 64.5311 29.5476 64.4227C28.8185 64.316 28.1187 63.9282 27.6437 63.2757C27.5386 63.1486 27.5663 62.9539 27.7056 62.8512C27.8327 62.7453 28.0274 62.7738 28.1309 62.9132C28.5171 63.4158 29.0564 63.718 29.6389 63.8028C30.2222 63.8875 30.8372 63.7539 31.3504 63.3832C31.8661 62.9995 32.17 62.448 32.2556 61.8647C32.3403 61.2822 32.2067 60.6671 31.8213 60.1637C31.449 59.6496 30.8983 59.3465 30.315 59.2618C30.2181 59.2471 30.1398 59.1869 30.0902 59.1046L30.078 59.103C29.9737 58.9636 30.0022 58.7689 30.1423 58.6655L32.5733 56.8007L29.3179 56.3241C29.1476 56.2997 29.0335 56.1457 29.0588 55.9763C29.084 55.806 29.2364 55.6919 29.4067 55.7172L33.379 56.2981C33.5493 56.3225 33.6633 56.4757 33.6389 56.6459C33.6315 56.6948 33.612 56.7412 33.5827 56.7746C33.5631 56.808 33.5338 56.8414 33.5052 56.8618Z" fill="#F8F8F8"/>
<path d="M39.7348 64.1246L35.1303 63.4516L35.118 63.45L35.0936 63.4459C35.0333 63.437 34.9624 63.4142 34.9209 63.3588C34.8011 63.2423 34.8175 63.0459 34.9445 62.94L40.7596 57.5364L40.7735 57.5258C40.9022 57.4076 41.0741 57.4207 41.1922 57.5494C41.2354 57.5926 41.2509 57.6569 41.2672 57.7091C41.2639 57.7335 41.2737 57.7473 41.2729 57.7596L41.2672 57.7962L40.415 63.6276L40.9869 63.7107C41.1564 63.7351 41.2712 63.8891 41.2476 64.0464C41.224 64.2044 41.0716 64.3184 40.9013 64.2932L40.3303 64.2101L40.1169 65.6683C40.0941 65.8264 39.9409 65.9404 39.7706 65.9152C39.6125 65.8916 39.4985 65.7392 39.5213 65.5812L39.7348 64.1246ZM39.8203 63.5413L40.5478 58.5604L35.7983 62.9539L39.8203 63.5413Z" fill="#F8F8F8"/>
<path d="M50.2578 66.5922C50.1535 66.4529 50.182 66.2582 50.3197 66.1669C50.459 66.0635 50.6529 66.0912 50.7564 66.2305C51.1425 66.7339 51.6818 67.0362 52.2651 67.1209C52.8484 67.2056 53.4513 67.0704 53.9662 66.6875C54.4819 66.3038 54.7833 65.7645 54.8688 65.1812C54.956 64.5857 54.8224 63.9706 54.4492 63.4696C54.0761 62.9686 53.5246 62.6647 52.9413 62.5791C52.3458 62.492 51.7437 62.628 51.2281 63.0117C51.0888 63.1152 50.8941 63.0867 50.8036 62.9498C50.7702 62.9197 50.7515 62.8798 50.7442 62.8423L50.7458 62.8301C50.7352 62.8162 50.7377 62.804 50.7393 62.7918C50.7303 62.7657 50.736 62.729 50.7417 62.6924C50.7425 62.6802 50.7588 62.6573 50.7621 62.6337L51.6753 59.2675C51.69 59.1706 51.7495 59.1046 51.8285 59.0671C51.8847 59.0256 51.9613 59.0125 52.0338 59.0231L55.9947 59.6015C56.165 59.626 56.279 59.7799 56.2537 59.9494C56.2269 60.1311 56.0753 60.2337 55.9059 60.2085L52.2008 59.6667L51.5278 62.1498C52.002 61.9584 52.5201 61.8973 53.0301 61.9722C53.7706 62.0798 54.4615 62.4537 54.9372 63.1062C55.426 63.7482 55.5865 64.5164 55.4774 65.27C55.3706 65.9991 54.9934 66.7128 54.3409 67.1877C53.7014 67.6537 52.9063 67.8346 52.1771 67.7278C51.435 67.6203 50.7344 67.2325 50.2578 66.5922Z" fill="#F8F8F8"/>
<path d="M59.2037 61.9681C59.9378 61.0207 61.0335 60.3991 62.4494 60.5571C62.6099 60.5677 62.7239 60.7209 62.7125 60.8806C62.6881 61.0508 62.5349 61.1657 62.3744 61.1543C61.1777 61.028 60.3345 61.5258 59.6714 62.3347C59.3072 62.7901 59.0262 63.3571 58.8152 63.947C59.4107 63.4386 60.2188 63.1714 61.0571 63.2936C62.6245 63.5233 63.6909 64.9694 63.4661 66.5123C63.2388 68.0675 61.805 69.1356 60.2376 68.9066C58.719 68.6851 57.6559 67.3009 57.827 65.7873C57.8294 65.6016 57.8563 65.4199 57.8848 65.2252C58.0616 64.0977 58.4738 62.892 59.2037 61.9681ZM58.4298 65.8256C58.4209 65.8867 58.4266 65.9372 58.4314 65.9869C58.4257 66.0235 58.4225 66.048 58.4062 66.0708C58.394 67.173 59.207 68.1482 60.3248 68.3111C61.5639 68.492 62.706 67.6415 62.8836 66.4268C63.0612 65.2121 62.2099 64.0708 60.9708 63.8891C59.7561 63.7115 58.6148 64.5628 58.4372 65.7767L58.4298 65.8256Z" fill="#F8F8F8"/>
<path d="M66.2101 69.3572L70.4455 62.3575L66.3396 61.758C66.1816 61.7351 66.0676 61.582 66.0912 61.4248C66.114 61.2667 66.2671 61.1527 66.4252 61.1755L70.9205 61.8321C70.9832 61.8288 71.0443 61.8378 71.1013 61.8704C71.1698 61.9176 71.2195 61.9999 71.2334 62.0757C71.2399 62.114 71.2488 62.14 71.244 62.1767C71.235 62.2378 71.2154 62.2842 71.1714 62.3274L66.7364 69.67C66.6712 69.7718 66.5523 69.8289 66.4423 69.8134C66.3934 69.806 66.369 69.8028 66.325 69.7718C66.1857 69.6887 66.1401 69.4957 66.2101 69.3572Z" fill="#F8F8F8"/>
<path d="M75.7936 62.4936C76.7655 62.6362 77.4523 63.5429 77.3105 64.5148C77.2234 65.1103 76.8576 65.5771 76.3729 65.8411C77.3211 66.4016 77.88 67.5005 77.713 68.6427C77.4898 70.1735 76.0836 71.2211 74.5529 70.9971C73.0343 70.7755 71.9745 69.3669 72.1985 67.837C72.3655 66.6948 73.216 65.8011 74.2726 65.5339C73.8946 65.1445 73.6902 64.593 73.7773 63.9983C73.9167 63.0264 74.8095 62.3502 75.7936 62.4936ZM74.636 70.4146C75.8506 70.5922 76.9521 69.7604 77.1281 68.558C77.3024 67.3669 76.4869 66.2427 75.2714 66.0651C74.069 65.8899 72.9529 66.7315 72.7794 67.9225C72.6042 69.125 73.4343 70.2386 74.636 70.4146ZM75.3602 65.4574C76.0177 65.5413 76.6303 65.0851 76.7264 64.4292C76.8218 63.7726 76.3639 63.173 75.7081 63.0769C75.0523 62.9808 74.4527 63.4272 74.3574 64.083C74.2621 64.7388 74.7061 65.3498 75.3602 65.4574Z" fill="#F8F8F8"/>
<path d="M90.9074 64.7022C92.3656 64.9156 93.3856 66.1686 93.34 67.5885C93.3481 67.6146 93.3465 67.626 93.3554 67.6529C93.3343 67.8859 93.3107 68.1303 93.274 68.3853C93.1094 69.5152 92.6834 70.7315 91.9648 71.6562C91.2349 72.5792 90.1228 73.2228 88.7184 73.068L88.7062 73.0663C88.5359 73.0419 88.4202 72.9002 88.443 72.7421C88.4675 72.5718 88.6084 72.457 88.7811 72.4692C89.9664 72.5922 90.8332 72.0985 91.485 71.2887C91.8507 70.8211 92.1424 70.268 92.3412 69.6765C91.7457 70.1849 90.9408 70.4268 90.0895 70.303C88.5465 70.0781 87.4646 68.6541 87.6944 67.0867C87.9184 65.5429 89.3652 64.4765 90.9074 64.7022ZM92.7233 67.8207C92.9009 66.606 92.0601 65.4785 90.821 65.2977C89.6063 65.1201 88.4666 65.9592 88.289 67.173C88.1082 68.4121 88.962 69.5299 90.1766 69.7075C91.4166 69.8883 92.5416 69.0598 92.7233 67.8207Z" fill="#F8F8F8"/>
<path d="M95.2628 69.6806C95.4298 68.5384 95.8738 67.5364 96.5117 66.8227C97.1447 66.1457 97.9609 65.7319 98.8245 65.8574C99.6864 65.9836 100.352 66.6142 100.764 67.4435C101.158 68.3079 101.322 69.3987 101.156 70.5409C100.989 71.683 100.521 72.6818 99.8966 73.3849C99.2628 74.0741 98.4449 74.4879 97.583 74.3617C96.7202 74.2362 96.0554 73.6048 95.6448 72.7641C95.2351 71.9103 95.0958 70.8228 95.2628 69.6806ZM95.8583 69.7678C95.706 70.8122 95.8485 71.7889 96.1899 72.5083C96.5328 73.2162 97.0615 73.6782 97.6685 73.767C98.2762 73.8558 98.9019 73.5633 99.4452 72.9849C99.9788 72.3926 100.407 71.4997 100.56 70.4553C100.712 69.4101 100.557 68.4325 100.215 67.7124C99.864 66.9792 99.3442 66.5425 98.7365 66.4537C98.1287 66.3649 97.495 66.6321 96.9597 67.2358C96.4261 67.8289 96.0106 68.7234 95.8583 69.7678Z" fill="#F8F8F8"/>
<path d="M105.579 67.7262L104.274 68.2557C104.234 68.2745 104.17 68.2891 104.121 68.2826C104.012 68.2671 103.924 68.1922 103.887 68.1001C103.825 67.9299 103.899 67.7669 104.055 67.7148L105.841 66.958C105.985 66.905 106.173 66.9816 106.226 67.1258C106.252 67.204 106.253 67.279 106.23 67.3498L105.089 75.1617C105.066 75.3197 104.925 75.4354 104.756 75.4101C104.598 75.3873 104.483 75.2342 104.506 75.0761L105.579 67.7262Z" fill="#F8F8F8"/>
<path d="M107.21 75.2358L111.706 72.2321C112.244 71.8639 112.584 71.3181 112.672 70.7111C112.748 70.1881 112.63 69.6374 112.314 69.169C111.958 68.6337 111.399 68.303 110.803 68.2166C110.268 68.1384 109.72 68.2451 109.239 68.5596L108.771 68.8757C108.632 68.9792 108.44 68.9384 108.36 68.8032C108.257 68.6639 108.296 68.4708 108.433 68.3918L108.903 68.0635C109.506 67.6675 110.222 67.5242 110.89 67.6211C111.631 67.7295 112.342 68.1311 112.797 68.8301C113.218 69.4378 113.351 70.1401 113.255 70.7959C113.145 71.5486 112.732 72.2574 112.043 72.7274L108.193 75.3042L112.214 75.8916C112.372 75.9144 112.486 76.0676 112.461 76.2387C112.438 76.3967 112.285 76.5099 112.128 76.4871L107.39 75.7947L107.342 75.7881C107.256 75.7751 107.175 75.7393 107.135 75.6708C107.044 75.5218 107.07 75.3393 107.21 75.2358Z" fill="#F8F8F8"/>
<path d="M127.896 70.6517L125.366 72.5898C125.885 72.7779 126.358 73.1071 126.711 73.5804C127.188 74.2207 127.36 75.0028 127.251 75.7442C127.143 76.4855 126.755 77.1853 126.103 77.6603C125.461 78.1376 124.678 78.3209 123.937 78.2126C123.208 78.1059 122.507 77.7181 122.032 77.0655C121.927 76.9384 121.955 76.7446 122.094 76.6403C122.221 76.5344 122.416 76.5629 122.52 76.7022C122.906 77.2048 123.444 77.5071 124.028 77.5918C124.611 77.6774 125.227 77.5437 125.739 77.1723C126.255 76.7885 126.559 76.237 126.644 75.6545C126.729 75.0712 126.595 74.4562 126.21 73.9527C125.838 73.4395 125.287 73.1356 124.704 73.0509C124.607 73.037 124.529 72.9759 124.479 72.8944L124.467 72.8928C124.362 72.7535 124.391 72.5588 124.53 72.4553L126.961 70.5898L123.706 70.114C123.536 70.0895 123.421 69.9356 123.447 69.7661C123.471 69.5959 123.625 69.4818 123.795 69.5071L127.767 70.0879C127.937 70.1124 128.051 70.2655 128.027 70.4358C128.019 70.4847 128 70.5311 127.971 70.5645C127.953 70.5971 127.924 70.6313 127.896 70.6517Z" fill="#F8F8F8"/>
<path d="M134.125 77.9144L129.521 77.2415L129.509 77.2399L129.484 77.2366C129.424 77.2285 129.352 77.2048 129.311 77.1494C129.191 77.0329 129.207 76.8374 129.335 76.7315L135.149 71.327L135.163 71.3164C135.292 71.1991 135.464 71.2113 135.582 71.3401C135.625 71.384 135.641 71.4484 135.658 71.5006C135.655 71.525 135.664 71.5388 135.663 71.5511L135.657 71.5877L134.805 77.4191L135.376 77.5022C135.546 77.5266 135.66 77.6806 135.637 77.8387C135.614 77.9967 135.461 78.1108 135.29 78.0855L134.719 78.0024L134.506 79.4607C134.483 79.6187 134.33 79.7328 134.16 79.7075C134.002 79.6847 133.888 79.5315 133.911 79.3735L134.125 77.9144ZM134.21 77.3319L134.939 72.3511L130.19 76.7438L134.21 77.3319Z" fill="#F8F8F8"/>
<path d="M137.364 79.3181C137.26 79.1796 137.289 78.9849 137.426 78.8928C137.566 78.7894 137.759 78.8179 137.863 78.9564C138.249 79.4598 138.788 79.7621 139.371 79.8468C139.954 79.9315 140.557 79.7971 141.072 79.4134C141.588 79.0297 141.889 78.4904 141.975 77.9071C142.062 77.3116 141.928 76.6965 141.555 76.1955C141.181 75.6945 140.629 75.3898 140.046 75.305C139.451 75.2179 138.849 75.3531 138.333 75.7376C138.194 75.8411 137.999 75.8134 137.909 75.6757C137.876 75.6456 137.856 75.6057 137.849 75.5682L137.851 75.556C137.84 75.5421 137.843 75.5299 137.844 75.5177C137.835 75.4916 137.841 75.4549 137.847 75.4183C137.848 75.4061 137.864 75.3833 137.868 75.3596L138.781 71.9942C138.796 71.8973 138.855 71.8313 138.934 71.793C138.99 71.7523 139.067 71.7384 139.139 71.749L143.1 72.3282C143.271 72.3527 143.385 72.5058 143.36 72.6761C143.333 72.8578 143.182 72.9604 143.012 72.936L139.307 72.3942L138.634 74.8765C139.109 74.6851 139.627 74.6248 140.137 74.6989C140.877 74.8073 141.567 75.1804 142.044 75.8329C142.533 76.4749 142.693 77.2431 142.583 77.9967C142.476 78.7258 142.099 79.4395 141.447 79.9152C140.808 80.3804 140.013 80.5621 139.284 80.4554C138.542 80.3462 137.841 79.9584 137.364 79.3181Z" fill="#F8F8F8"/>
<path d="M146.31 74.6949C147.044 73.7474 148.14 73.1258 149.556 73.2831C149.716 73.2936 149.83 73.4476 149.819 73.6065C149.795 73.7767 149.641 73.8908 149.481 73.8802C148.283 73.7547 147.441 74.2517 146.778 75.0606C146.414 75.516 146.133 76.0831 145.922 76.6729C146.517 76.1645 147.325 75.8981 148.164 76.0203C149.731 76.2493 150.797 77.6953 150.573 79.2383C150.345 80.7935 148.911 81.8623 147.344 81.6334C145.826 81.411 144.762 80.0277 144.933 78.514C144.936 78.3291 144.963 78.1466 144.991 77.9527C145.168 76.8236 145.58 75.6171 146.31 74.6949ZM145.536 78.5515C145.527 78.6126 145.531 78.6631 145.537 78.7128C145.531 78.7495 145.528 78.7739 145.512 78.7967C145.5 79.899 146.313 80.8733 147.43 81.037C148.67 81.2179 149.812 80.3674 149.989 79.1527C150.167 77.9381 149.316 76.7967 148.076 76.615C146.862 76.4374 145.72 77.2888 145.543 78.5026L145.536 78.5515Z" fill="#F8F8F8"/>
<path d="M90.4606 88.2415L16.2999 77.4041L15.7673 81.0485L89.928 91.886L90.4606 88.2415Z" fill="#37474F"/>
<path d="M67.6198 93.1702L15.1168 85.4977L14.5842 89.1422L67.0872 96.8146L67.6198 93.1702Z" fill="#37474F"/>
<path d="M126.275 31.2158L89.2885 25.8108L88.7559 29.4552L125.743 34.8602L126.275 31.2158Z" fill="#37474F"/>
<path d="M151 50.7901C150.804 50.5245 150.609 50.2581 150.413 49.9925C150.302 49.841 150.188 49.6911 150.076 49.5396C152.166 47.9412 153.463 45.8614 153.852 43.2585C154.241 40.6548 153.607 38.2882 152.063 36.1351C152.21 36.0308 152.362 35.9265 152.511 35.8182C152.776 35.6251 153.039 35.4296 153.303 35.2349C153.309 35.23 153.313 35.2218 153.318 35.2161C153.323 35.2169 153.329 35.2177 153.335 35.2186C153.346 35.2373 153.357 35.2577 153.369 35.2756C153.586 35.6072 153.812 35.9314 154.017 36.2703C154.439 36.9709 154.761 37.718 155.01 38.496C155.304 39.4165 155.482 40.3599 155.515 41.3253C155.53 41.7823 155.505 42.241 155.493 42.698C155.489 42.8536 155.344 43.8491 155.338 43.8793C155.27 44.1815 155.21 44.487 155.132 44.7868C154.914 45.6219 154.586 46.4137 154.174 47.1705C153.876 47.7188 153.53 48.2361 153.142 48.7265C152.733 49.2439 152.285 49.7229 151.788 50.1563C151.537 50.3746 151.274 50.5807 151.018 50.7925C151.01 50.7917 151.005 50.7909 151 50.7901Z" fill="white"/>
<path d="M149.556 38.0161C149.976 37.7033 150.386 37.3962 150.809 37.0801C151.851 38.5139 152.412 40.109 152.388 41.8833C152.353 44.5343 151.231 46.6491 149.16 48.2744C148.844 47.8451 148.536 47.4296 148.225 47.0076C149.617 45.9436 150.492 44.544 150.751 42.7901C151.012 41.0393 150.583 39.4491 149.556 38.0161Z" fill="white"/>
<path d="M147.286 45.7465C146.978 45.3302 146.669 44.9139 146.356 44.4911C147.065 43.9493 147.52 43.2316 147.653 42.3298C147.786 41.4304 147.562 40.6141 147.036 39.8842C147.456 39.5729 147.872 39.2642 148.289 38.9554C149.852 40.9644 149.532 44.1139 147.286 45.7465Z" fill="white"/>
</svg>
