<svg width="203" height="170" viewBox="0 0 203 170" fill="none" xmlns="http://www.w3.org/2000/svg">
<path d="M196.339 0.467499H6.72345C3.45445 0.467499 0.804443 3.1175 0.804443 6.386V140.316C0.804443 143.585 3.45445 146.235 6.72345 146.235H79.4979L75.9694 169.633H128.734L125.788 146.235H196.34C199.608 146.235 202.258 143.585 202.258 140.316V6.3865C202.258 3.1175 199.608 0.467499 196.339 0.467499Z" fill="#455A64"/>
<path d="M104.063 132.15C106.643 135.836 102.606 139.873 98.9185 137.294C98.797 137.209 98.6865 137.098 98.6015 136.976C96.029 133.291 100.061 129.259 103.746 131.832C103.868 131.917 103.978 132.028 104.063 132.15Z" fill="#263238"/>
<path d="M196.979 121.733H6.10791V10.4295C6.10791 7.75146 8.27891 5.58096 10.9564 5.58096H192.13C194.808 5.58096 196.979 7.75196 196.979 10.4295L196.979 121.733Z" fill="#263238"/>
<path d="M145.352 146.237C145.352 146.302 129.457 146.354 109.853 146.354C90.2431 146.354 74.3511 146.302 74.3511 146.237C74.3511 146.173 90.2431 146.12 109.853 146.12C129.457 146.12 145.352 146.172 145.352 146.237Z" fill="#263238"/>
<path d="M192.03 10.3825H11.2834V116.932H192.03V10.3825Z" fill="white"/>
<path d="M192.03 10.3825H11.2834V19.236H192.03V10.3825Z" fill="#9FAAC9"/>
<path d="M18.309 14.995C18.309 15.673 17.7405 16.223 17.0395 16.223C16.3385 16.223 15.77 15.673 15.77 14.995C15.77 14.317 16.3385 13.767 17.0395 13.767C17.7405 13.767 18.309 14.317 18.309 14.995Z" fill="white"/>
<path d="M22.0939 14.995C22.0939 15.673 21.5254 16.223 20.8244 16.223C20.1234 16.223 19.5549 15.673 19.5549 14.995C19.5549 14.317 20.1234 13.767 20.8244 13.767C21.5254 13.767 22.0939 14.317 22.0939 14.995Z" fill="white"/>
<path d="M25.6933 14.995C25.6933 15.673 25.1248 16.223 24.4238 16.223C23.7223 16.223 23.1543 15.673 23.1543 14.995C23.1543 14.317 23.7228 13.767 24.4238 13.767C25.1248 13.767 25.6933 14.317 25.6933 14.995Z" fill="white"/>
<path d="M192.064 32.4215H11.249V70.5155H192.064V32.4215Z" fill="#9FAAC9"/>
<path d="M36.3444 24.4095H18.6719V28.911H36.3444V24.4095Z" fill="#FCBD01"/>
<path d="M160.149 23.39H147.355V27.8915H160.149V23.39Z" fill="#9FAAC9"/>
<path d="M139.233 23.27H126.44V27.7715H139.233V23.27Z" fill="#9FAAC9"/>
<path d="M94.9108 65.2115C94.9108 66.07 94.1913 66.766 93.3038 66.766C92.4163 66.766 91.6968 66.07 91.6968 65.2115C91.6968 64.353 92.4163 63.657 93.3038 63.657C94.1908 63.657 94.9108 64.353 94.9108 65.2115Z" fill="#FCBD01"/>
<path d="M101.31 65.2115C101.31 66.07 100.59 66.766 99.703 66.766C98.8155 66.766 98.0959 66.07 98.0959 65.2115C98.0959 64.353 98.8155 63.657 99.703 63.657C100.59 63.657 101.31 64.353 101.31 65.2115Z" fill="white"/>
<path d="M107.42 65.2115C107.42 66.07 106.7 66.766 105.813 66.766C104.925 66.766 104.206 66.07 104.206 65.2115C104.206 64.353 104.925 63.657 105.813 63.657C106.7 63.657 107.42 64.353 107.42 65.2115Z" fill="white"/>
<path d="M73.7149 60.588H26.4214V65.329H73.7149V60.588Z" fill="white"/>
<path d="M57.5673 77.4415H30.2373V101.282H57.5673V77.4415Z" fill="#9FAAC9"/>
<path d="M112.161 77.014H89.1179V100.057H112.161V77.014Z" fill="#9FAAC9"/>
<path d="M166.425 76.3049H141.965V100.765H166.425V76.3049Z" fill="#9FAAC9"/>
<path d="M60.7151 83.3785C60.7151 83.3785 53.8651 75.6355 53.0021 75.142C52.5686 74.894 51.7886 74.714 51.1196 74.5955C50.8236 74.525 50.4271 74.472 49.9826 74.431C49.9336 74.4255 49.9031 74.4225 49.9031 74.4225V74.4235C47.8076 74.2395 44.6251 74.328 44.6251 74.328C44.6251 74.328 44.5706 77.127 41.0061 78.298C37.3406 79.0975 35.8731 76.7135 35.8731 76.7135C35.8731 76.7135 33.0856 78.252 31.3736 79.474L31.3731 79.473C31.3731 79.473 31.3481 79.4915 31.3091 79.521C30.9466 79.782 30.6321 80.029 30.4126 80.24C29.8961 80.6815 29.3156 81.2325 29.0676 81.666C28.5741 82.529 26.6006 92.677 26.6006 92.677L33.9341 94.145L34.6786 89.146L38.6381 105.434L47.3566 103.058L48.0981 102.856L56.9161 100.452L51.9631 84.435L55.1411 88.365L60.7151 83.3785Z" fill="#FCBD01"/>
<path d="M35.7689 93.1479C35.7379 93.1559 35.5694 92.6024 35.3169 91.6849C35.0649 90.7679 34.7289 89.4864 34.3624 88.0374L34.3834 88.0819C34.2459 87.8999 34.1009 87.7074 33.9534 87.5124C32.9544 86.1859 32.0614 84.9764 31.4254 84.0939C31.1074 83.6524 30.8529 83.2929 30.6824 83.0404C30.5114 82.7884 30.4234 82.6439 30.4369 82.6339C30.4509 82.6234 30.5649 82.7479 30.7599 82.9819C30.9549 83.2159 31.2304 83.5594 31.5669 83.9874C32.2394 84.8429 33.1549 86.0354 34.1539 87.3619C34.3004 87.5574 34.4449 87.7499 34.5824 87.9324L34.5979 87.9529L34.6039 87.9774C34.9629 89.4279 35.2694 90.7164 35.4789 91.6444C35.6879 92.5724 35.7999 93.1399 35.7689 93.1479Z" fill="#263238"/>
<path d="M53.0164 88.4464C52.9854 88.4554 52.7939 87.9099 52.5034 87.0039C52.2129 86.0979 51.8234 84.8319 51.3964 83.3999L51.3894 83.3759L51.3924 83.3504C51.4179 83.1234 51.4449 82.8844 51.4724 82.6414C51.6599 80.9914 51.8434 79.4994 51.9889 78.4209C52.0614 77.8819 52.1249 77.4459 52.1739 77.1454C52.2234 76.8449 52.2584 76.6794 52.2759 76.6814C52.2929 76.6834 52.2904 76.8524 52.2709 77.1564C52.2514 77.4604 52.2149 77.8994 52.1649 78.4409C52.0644 79.5244 51.9089 81.0194 51.7209 82.6694C51.6929 82.9119 51.6654 83.1514 51.6394 83.3779L51.6354 83.3289C52.0549 84.7629 52.4159 86.0379 52.6639 86.9559C52.9114 87.8754 53.0469 88.4374 53.0164 88.4464Z" fill="#263238"/>
<path d="M48.8636 87.947L48.3386 88.0895C47.0211 88.447 45.6636 87.669 45.3061 86.3515L44.3931 82.988L49.6881 81.551L50.6011 84.9145C50.9591 86.232 50.1811 87.5895 48.8636 87.947Z" fill="white"/>
<path d="M47.6874 88.1894C47.2594 88.1894 46.8374 88.0779 46.4564 87.8594C45.8809 87.5294 45.4679 86.9949 45.2944 86.3549L44.3779 82.9794L44.3899 82.9764L49.6974 81.5359L49.7004 81.5479L50.6129 84.9114C50.9714 86.2329 50.1879 87.6004 48.8664 87.9589L48.3414 88.1014C48.1254 88.1604 47.9059 88.1894 47.6874 88.1894ZM44.4084 82.9969L45.3179 86.3484C45.4899 86.9824 45.8984 87.5114 46.4684 87.8379C47.0384 88.1639 47.7004 88.2499 48.3354 88.0779L48.8604 87.9354C50.1689 87.5804 50.9444 86.2269 50.5894 84.9179L49.6799 81.5669L44.4084 82.9969Z" fill="#263238"/>
<path d="M49.0216 87.8664C49.0151 87.8464 49.1981 87.8019 49.4886 87.6324C49.7711 87.4629 50.1751 87.1404 50.4091 86.5734C50.5241 86.2939 50.5911 85.9599 50.5696 85.6009C50.5471 85.2474 50.4001 84.8659 50.2931 84.4514C50.0616 83.6214 49.8051 82.7039 49.5306 81.7199L49.6771 81.8039C48.7636 82.0549 47.7736 82.3269 46.7461 82.6089C46.0056 82.8099 45.2846 83.0049 44.5966 83.1914L44.6821 83.0414C44.9721 84.1279 45.2441 85.1464 45.4911 86.0709C45.5526 86.3004 45.6061 86.5284 45.6791 86.7244C45.7556 86.9244 45.8651 87.1024 45.9846 87.2624C46.2336 87.5759 46.5456 87.7994 46.8601 87.9259C47.4986 88.1969 48.0696 88.0794 48.4356 87.9819C48.8111 87.8939 49.0176 87.8524 49.0216 87.8664C49.0256 87.8809 48.8261 87.9499 48.4576 88.0644C48.1041 88.1864 47.4921 88.3424 46.8016 88.0729C46.4601 87.9474 46.1166 87.7159 45.8381 87.3799C45.7041 87.2089 45.5811 87.0169 45.4931 86.7994C45.4061 86.5774 45.3516 86.3549 45.2866 86.1269C45.0301 85.2049 44.7476 84.1894 44.4466 83.1059L44.4136 82.9884L44.5321 82.9559C45.2191 82.7674 45.9396 82.5699 46.6801 82.3674C47.7091 82.0889 48.6996 81.8209 49.6146 81.5734L49.7306 81.5419L49.7611 81.6569C50.0236 82.6444 50.2686 83.5649 50.4901 84.3979C50.5881 84.8109 50.7306 85.1939 50.7486 85.5909C50.7626 85.9804 50.6796 86.3384 50.5466 86.6329C50.2761 87.2299 49.8321 87.5489 49.5276 87.7024C49.3716 87.7794 49.2451 87.8244 49.1571 87.8434C49.0691 87.8654 49.0236 87.8734 49.0216 87.8664Z" fill="#263238"/>
<path d="M56.197 106.256H32.3564V109.44H56.197V106.256Z" fill="#9FAAC9"/>
<path d="M112.016 106.256H88.1758V109.44H112.016V106.256Z" fill="#9FAAC9"/>
<path d="M166.662 106.336H144.027V109.36H166.662V106.336Z" fill="#9FAAC9"/>
<path d="M171.413 95.892C171.129 94.899 169.836 94.882 168.89 94.4665C166.508 93.42 164.272 92.0405 162.267 90.381L141.984 88.983L141.908 89.8C146.543 96.4745 155.101 101.406 163.215 100.975C165.385 100.859 167.587 100.429 169.454 99.317C170.515 98.686 171.753 97.0785 171.413 95.892Z" fill="#FCBD01"/>
<g opacity="0.3">
<path d="M171.413 95.892C171.129 94.899 169.836 94.882 168.89 94.4665C166.508 93.42 164.272 92.0405 162.267 90.381L141.984 88.983L141.908 89.8C146.543 96.4745 155.101 101.406 163.215 100.975C165.385 100.859 167.587 100.429 169.454 99.317C170.515 98.686 171.753 97.0785 171.413 95.892Z" fill="black"/>
</g>
<path d="M163.354 85.1065C162.337 82.7045 160.92 80.4495 158.248 79.255C154.826 77.7245 150.896 78.237 147.862 80.0005C144.828 81.764 142.437 86.1495 141.929 89.304C148.895 95.6675 162.81 96.8025 164.984 92.8805C165.251 90.398 164.371 87.5085 163.354 85.1065Z" fill="#FCBD01"/>
<path d="M171.351 95.521C171.067 94.528 169.982 94.0405 169.036 93.625C166.654 92.5785 164.418 91.199 162.413 89.5395L141.929 89.3035C146.564 95.978 155.247 100.565 163.361 100.133C165.531 100.017 167.733 99.5875 169.6 98.4755C170.661 97.8445 171.691 96.7075 171.351 95.521Z" fill="#FCBD01"/>
<path d="M165.21 91.578C165.218 91.5795 165.211 91.6705 165.182 91.8425C165.149 92.013 165.092 92.265 164.97 92.575C164.732 93.186 164.165 94.0495 163.102 94.6255C162.579 94.916 161.957 95.1365 161.273 95.2825C160.929 95.345 160.572 95.4075 160.203 95.4345C159.835 95.4775 159.455 95.508 159.063 95.511C157.5 95.5615 155.78 95.3975 154.016 95.0355C150.478 94.313 147.479 92.938 145.432 91.7845C144.415 91.189 143.621 90.6595 143.092 90.2685C142.851 90.0825 142.653 89.9295 142.492 89.805C142.357 89.697 142.289 89.6365 142.294 89.6295C142.3 89.6225 142.379 89.6685 142.524 89.763C142.692 89.876 142.899 90.0155 143.151 90.1855C143.696 90.55 144.5 91.053 145.522 91.624C147.579 92.7295 150.564 94.0655 154.069 94.781C155.816 95.1395 157.515 95.308 159.057 95.2715C159.443 95.272 159.817 95.245 160.181 95.207C160.546 95.1845 160.894 95.1275 161.231 95.0715C161.899 94.9385 162.505 94.7345 163.014 94.4645C164.048 93.93 164.616 93.121 164.878 92.536C165.138 91.939 165.185 91.5715 165.21 91.578Z" fill="#263238"/>
<path d="M160.643 95.277C160.634 95.2765 160.63 95.1535 160.63 94.92C160.633 94.6605 160.638 94.3215 160.644 93.899C160.681 93.0135 160.662 91.7315 160.581 90.1525C160.463 88.5785 160.259 86.6955 159.672 84.6955C159.519 84.198 159.364 83.6875 159.14 83.191C158.951 82.6795 158.678 82.196 158.413 81.6985C157.848 80.731 157.082 79.801 156.075 79.193C155.962 79.1235 155.836 79.065 155.735 79.024L155.804 79.028C154.655 79.2675 153.596 79.742 152.727 80.4205C151.854 81.093 151.144 81.904 150.5 82.694C149.195 84.2675 148.279 85.8695 147.638 87.2695C146.994 88.67 146.583 89.851 146.278 90.658C146.132 91.0425 146.016 91.351 145.926 91.5875C145.843 91.799 145.795 91.908 145.787 91.905C145.778 91.902 145.81 91.787 145.877 91.57C145.955 91.3295 146.057 91.0155 146.183 90.6245C146.459 89.807 146.845 88.615 147.472 87.194C148.095 85.7755 149.009 84.1395 150.315 82.544C150.958 81.743 151.674 80.915 152.572 80.2185C153.465 79.515 154.571 79.018 155.748 78.773L155.787 78.765L155.818 78.777C155.954 78.831 156.079 78.8915 156.203 78.9665C157.274 79.614 158.054 80.5755 158.633 81.569C158.902 82.0785 159.179 82.575 159.369 83.0955C159.594 83.6025 159.749 84.1215 159.901 84.627C160.483 86.6585 160.668 88.557 160.764 90.1415C160.821 91.73 160.812 93.0165 160.744 93.902C160.718 94.324 160.697 94.663 160.681 94.922C160.665 95.156 160.652 95.2775 160.643 95.277Z" fill="#263238"/>
<path d="M156.463 79.259L155.215 79.043L155.291 78.6045C155.344 78.2955 155.638 78.0885 155.947 78.142L156.077 78.1645C156.386 78.218 156.593 78.5115 156.539 78.8205L156.463 79.259Z" fill="#263238"/>
<path d="M155.491 88.541L154.968 90.843C154.968 90.843 158.016 92.505 160.88 91.937C162.781 91.56 163.558 90.438 163.558 90.438L163.365 88.4455C163.365 88.4455 162.549 89.38 160.091 89.4375C158.291 89.48 155.491 88.541 155.491 88.541Z" fill="white"/>
<path d="M170.407 97.7895C170.413 97.7965 170.358 97.85 170.249 97.946C170.138 98.04 169.981 98.1885 169.748 98.34C169.3 98.6635 168.599 99.0705 167.669 99.4165C165.817 100.115 163.057 100.596 160.041 100.282C157.025 99.955 154.437 98.9545 152.661 98.114C151.769 97.6915 151.067 97.31 150.592 97.032C150.352 96.896 150.172 96.7805 150.049 96.7035C149.926 96.6255 149.865 96.5805 149.869 96.5725C149.878 96.5555 150.15 96.6935 150.64 96.943C151.129 97.193 151.841 97.5475 152.737 97.9465C154.523 98.7395 157.094 99.7005 160.069 100.023C163.04 100.332 165.767 99.887 167.606 99.2435C169.467 98.6055 170.373 97.735 170.407 97.7895Z" fill="#263238"/>
<path d="M86.198 84.5144C86.198 84.5144 88.9235 79.3714 92.235 79.0304C92.235 79.0304 98.3375 82.5344 99.274 82.3064C100.211 82.0784 98.851 80.3184 100.133 79.3194C101.416 78.3204 102.712 79.4394 103.236 80.2119C103.76 80.9849 107.439 89.3834 110.555 91.5244C113.671 93.6654 118.564 97.9559 117.775 99.8844C117.184 101.327 117.341 100.798 114.578 101.319C111.816 101.84 102.68 97.4374 99.7325 94.4394C95.112 89.7394 89.2355 84.7664 86.198 84.5144Z" fill="#FCBD01"/>
<path d="M116.664 101.882C117.296 101.567 116.961 100.582 116.268 100.717C116.118 100.746 115.956 100.765 115.782 100.771C113.916 100.832 111.51 100.113 108.524 98.8179C105.538 97.5229 104.456 96.6679 100.675 93.8094C96.8949 90.9514 93.7569 86.0049 90.7794 85.1479C88.3269 84.4424 86.8069 84.4689 86.3469 84.5004C86.2504 84.5069 86.1609 84.5334 86.0779 84.5834C84.0084 85.8294 80.1874 90.7649 82.1719 92.0704C83.5449 92.9734 88.3064 93.5614 91.6434 94.7179C94.9804 95.8744 102.38 99.1239 106.565 100.577C110.75 102.03 115.009 102.677 116.617 101.905C116.633 101.897 116.648 101.89 116.664 101.882Z" fill="white"/>
<path d="M116.664 101.882C116.667 101.887 116.604 101.922 116.472 101.975C116.344 102.039 116.14 102.097 115.87 102.159C115.326 102.272 114.504 102.311 113.458 102.226C111.366 102.06 108.372 101.403 104.872 100.058C101.362 98.7539 97.2673 96.9819 92.6528 95.2134C90.3568 94.3004 87.8028 93.8154 85.1793 93.1999C84.5233 93.0424 83.8613 92.8809 83.2033 92.6644C82.8763 92.5474 82.5453 92.4369 82.2313 92.2524C81.9103 92.0884 81.6198 91.7629 81.5428 91.3884C81.3763 90.6364 81.6458 89.9214 81.9293 89.2754C82.2288 88.6229 82.6148 88.0149 83.0378 87.4324C83.4628 86.8509 83.9268 86.3039 84.4238 85.7944C84.9313 85.2894 85.4373 84.8109 86.0793 84.4364C86.2888 84.3444 86.4733 84.3719 86.6443 84.3604C86.8208 84.3579 86.9958 84.3614 87.1703 84.3704C87.5193 84.3869 87.8653 84.4209 88.2078 84.4664C88.8928 84.5574 89.5633 84.6974 90.2198 84.8654C90.8738 85.0129 91.5338 85.2709 92.1003 85.6269C92.6768 85.9759 93.1803 86.4069 93.6733 86.8329C94.6423 87.7059 95.5068 88.6384 96.3573 89.5364C98.0448 91.3464 99.6918 93.0169 101.489 94.2899C103.243 95.6154 104.863 96.8779 106.509 97.7539C109.829 99.4389 112.725 100.469 114.799 100.684C115.316 100.736 115.782 100.747 116.175 100.688C116.371 100.656 116.59 100.663 116.736 100.776C116.883 100.882 116.965 101.031 116.999 101.168C117.071 101.452 116.949 101.673 116.845 101.765C116.793 101.816 116.746 101.844 116.713 101.859C116.681 101.876 116.664 101.882 116.664 101.882C116.658 101.872 116.732 101.849 116.826 101.747C116.92 101.652 117.024 101.443 116.949 101.182C116.913 101.055 116.833 100.921 116.699 100.83C116.562 100.733 116.385 100.73 116.187 100.765C115.783 100.833 115.314 100.83 114.789 100.785C113.74 100.695 112.481 100.394 111.074 99.9054C109.67 99.4059 108.091 98.7824 106.422 97.9159C104.752 97.0404 103.117 95.7789 101.359 94.4619C100.474 93.8134 99.5713 93.0954 98.7233 92.2819C97.8678 91.4744 97.0338 90.5984 96.1833 89.7009C95.3303 88.8059 94.4663 87.8779 93.5078 87.0184C93.0213 86.5999 92.5248 86.1764 91.9678 85.8414C91.4123 85.4969 90.8168 85.2624 90.1563 85.1119C89.5083 84.9469 88.8468 84.8094 88.1738 84.7209C87.8373 84.6764 87.4988 84.6439 87.1583 84.6279C86.9883 84.6194 86.8178 84.6164 86.6478 84.6189C86.4768 84.6274 86.2988 84.6144 86.1878 84.6714C85.6273 85.0009 85.0958 85.4864 84.6098 85.9764C84.1223 86.4764 83.6658 87.0149 83.2483 87.5859C82.8333 88.1574 82.4553 88.7539 82.1663 89.3839C81.8878 90.0039 81.6493 90.6964 81.7943 91.3239C81.9293 91.9729 82.6713 92.1929 83.2853 92.4199C83.9278 92.6324 84.5868 92.7939 85.2388 92.9514C87.8498 93.5684 90.4248 94.0624 92.7373 94.9889C97.3583 96.7744 101.44 98.5614 104.937 99.8864C108.418 101.249 111.39 101.929 113.467 102.126C114.505 102.226 115.32 102.202 115.86 102.108C116.128 102.055 116.332 102.006 116.462 101.951C116.595 101.906 116.664 101.882 116.664 101.882Z" fill="#263238"/>
<path d="M106.9 86.9995C106.907 87.0755 106.261 87.1745 105.522 87.4655C104.78 87.7495 104.236 88.1125 104.19 88.0515C104.145 88.0015 104.644 87.5235 105.428 87.2225C106.209 86.9165 106.9 86.932 106.9 86.9995Z" fill="white"/>
<path d="M108.212 88.8074C108.247 88.8699 107.691 89.2519 106.97 89.6609C106.249 90.0699 105.635 90.3504 105.6 90.2879C105.564 90.2254 106.12 89.8434 106.842 89.4344C107.563 89.0254 108.177 88.7449 108.212 88.8074Z" fill="white"/>
<path d="M109.689 90.6064C109.735 90.6634 109.327 91.0684 108.824 91.5629C108.32 92.0559 107.907 92.4569 107.851 92.4099C107.797 92.3649 108.128 91.8804 108.642 91.3769C109.154 90.8724 109.645 90.5509 109.689 90.6064Z" fill="white"/>
<path d="M89.4791 90.6039L86.0636 89.621C85.7991 89.545 85.6461 89.2685 85.7221 89.0035L85.7531 88.8965C85.8291 88.632 86.1056 88.479 86.3706 88.555L89.7861 89.538C90.0511 89.614 90.2036 89.8905 90.1276 90.1555L90.0966 90.2624C90.0201 90.5274 89.7436 90.6804 89.4791 90.6039Z" fill="#FCBD01"/>
<path d="M91.5043 79.4369C91.4353 79.0139 91.2688 78.6075 91.0218 78.2575C90.9103 78.0995 90.7668 77.944 90.5768 77.9105C90.3713 77.8745 90.1728 77.99 89.9963 78.101C89.8368 78.201 89.6778 78.3009 89.5183 78.4014C89.4198 78.4634 89.3108 78.5415 89.2988 78.6575C89.2903 78.744 89.3393 78.824 89.3868 78.897C89.6183 79.2535 89.8503 79.6095 90.0818 79.966" fill="#FCBD01"/>
<path d="M92.2349 79.0304C92.2469 79.0734 91.7884 79.2044 91.1114 79.5494C90.4329 79.8884 89.5494 80.4709 88.7064 81.2669C87.8589 82.0599 87.2294 82.9099 86.8254 83.5534C86.4229 84.1994 86.2294 84.6344 86.1889 84.6174C86.1629 84.6079 86.2964 84.1439 86.6664 83.4604C87.0369 82.7804 87.6594 81.8894 88.5279 81.0774C89.3909 80.2619 90.3174 79.6869 91.0324 79.3829C91.7479 79.0724 92.2299 79.0034 92.2349 79.0304Z" fill="#263238"/>
<path d="M90.3895 79.8269C90.316 79.8429 90.193 79.5059 89.9115 79.1894C89.637 78.8669 89.3205 78.6979 89.3465 78.6274C89.3615 78.5599 89.7805 78.6389 90.108 79.0184C90.438 79.3954 90.4585 79.8219 90.3895 79.8269Z" fill="#263238"/>
<g opacity="0.3">
<path d="M99.5571 82.083C99.6251 81.857 102.29 86.2365 104.091 87.9395C102.086 86.4635 100.033 84.0795 98.4565 82.152C98.4565 82.152 99.3966 82.617 99.5571 82.083Z" fill="black"/>
</g>
<path d="M110.598 92.67C110.604 92.683 110.482 92.7625 110.234 92.842C109.986 92.9175 109.605 92.9835 109.137 92.9335C108.673 92.8835 108.124 92.725 107.591 92.405C107.058 92.0905 106.547 91.6345 106.082 91.1075C105.848 90.844 105.633 90.5775 105.433 90.316C105.245 90.049 105.063 89.7905 104.887 89.541C104.557 89.062 104.251 88.619 103.976 88.2205C103.463 87.4645 103.162 86.987 103.191 86.966C103.22 86.9455 103.575 87.385 104.124 88.1115C104.412 88.499 104.732 88.9295 105.078 89.3955C105.257 89.6415 105.442 89.896 105.634 90.159C105.835 90.4165 106.048 90.6775 106.276 90.935C106.731 91.45 107.216 91.891 107.716 92.2005C108.212 92.5135 108.724 92.6815 109.161 92.7515C110.05 92.8885 110.587 92.621 110.598 92.67Z" fill="#263238"/>
<path d="M105.961 87.1915C105.946 87.194 105.896 87.0205 105.851 86.698C105.805 86.376 105.767 85.9035 105.801 85.32C105.832 84.737 105.94 84.043 106.178 83.3045C106.295 82.935 106.451 82.5575 106.639 82.1795C106.735 81.9875 106.83 81.8075 106.957 81.6105C107.024 81.5155 107.104 81.4195 107.218 81.3445C107.33 81.268 107.499 81.232 107.642 81.284C107.949 81.404 108.02 81.693 108.066 81.908C108.1 82.143 108.106 82.3465 108.108 82.562C108.11 82.9855 108.075 83.3945 108.003 83.777C107.863 84.543 107.606 85.2015 107.328 85.717C107.054 86.235 106.762 86.612 106.545 86.8545C106.329 87.0985 106.188 87.2125 106.178 87.2025C106.136 87.1685 106.663 86.663 107.164 85.6335C107.413 85.1215 107.644 84.4775 107.766 83.736C107.83 83.366 107.858 82.972 107.852 82.565C107.851 82.3655 107.839 82.1445 107.811 81.955C107.779 81.767 107.69 81.5685 107.561 81.5315C107.43 81.4795 107.28 81.597 107.169 81.759C107.063 81.9225 106.957 82.1155 106.866 82.2945C106.681 82.659 106.525 83.023 106.406 83.38C106.162 84.093 106.038 84.765 105.984 85.334C105.876 86.4745 106.011 87.186 105.961 87.1915Z" fill="white"/>
<path d="M105.988 87.0859C105.975 87.0739 106.085 86.9249 106.299 86.6669C106.513 86.4099 106.829 86.0414 107.248 85.6109C107.667 85.1819 108.193 84.6874 108.859 84.2384C109.193 84.0154 109.561 83.8059 109.965 83.6339C110.163 83.5464 110.382 83.4594 110.629 83.4359C110.867 83.4029 111.185 83.4834 111.343 83.7324C111.498 83.9694 111.496 84.2619 111.416 84.4949C111.335 84.7319 111.198 84.9219 111.063 85.0959C110.786 85.4459 110.457 85.7274 110.121 85.9529C109.445 86.4039 108.747 86.6349 108.164 86.7814C107.578 86.9264 107.097 86.9934 106.765 87.0374C106.433 87.0789 106.248 87.0914 106.245 87.0739C106.235 87.0269 106.973 86.9179 108.116 86.6034C108.682 86.4374 109.351 86.1944 109.987 85.7544C110.303 85.5349 110.608 85.2659 110.863 84.9384C111.12 84.6249 111.336 84.2004 111.127 83.8764C111.032 83.7304 110.849 83.6719 110.652 83.6939C110.455 83.7114 110.259 83.7839 110.065 83.8689C109.676 84.0309 109.318 84.2279 108.992 84.4384C108.339 84.8629 107.809 85.3344 107.377 85.7419C106.52 86.5674 106.019 87.1154 105.988 87.0859Z" fill="white"/>
<path d="M184.857 38.1075H171.257C170.196 38.1075 169.335 37.2475 169.335 36.1865V22.586C169.335 21.525 170.195 20.6645 171.257 20.6645H184.857C185.918 20.6645 186.778 21.5245 186.778 22.586V36.1865C186.778 37.2475 185.918 38.1075 184.857 38.1075Z" fill="#FCBD01"/>
<path d="M180.963 30.909H175.202C175.064 30.909 174.952 30.797 174.952 30.659C174.952 30.521 175.064 30.409 175.202 30.409H180.753L181.352 27.0225H174.659C174.521 27.0225 174.409 26.9105 174.409 26.7725C174.409 26.6345 174.521 26.5225 174.659 26.5225H181.65C181.724 26.5225 181.794 26.5555 181.842 26.612C181.89 26.6685 181.91 26.7435 181.896 26.8165L181.208 30.7025C181.188 30.822 181.084 30.909 180.963 30.909Z" fill="white"/>
<path d="M180.773 32.268H180.772L175.285 32.249C175.159 32.2485 175.054 32.155 175.038 32.031L174.262 25.988H172.72C172.582 25.988 172.47 25.876 172.47 25.738C172.47 25.6 172.582 25.488 172.72 25.488H174.482C174.608 25.488 174.714 25.5815 174.73 25.7065L175.506 31.75L180.773 31.768C180.911 31.7685 181.023 31.881 181.022 32.019C181.022 32.157 180.91 32.268 180.773 32.268Z" fill="white"/>
<path d="M176.181 34.2205C175.667 34.2205 175.248 33.802 175.248 33.2875C175.248 32.773 175.667 32.3545 176.181 32.3545C176.696 32.3545 177.114 32.773 177.114 33.2875C177.114 33.802 176.696 34.2205 176.181 34.2205ZM176.181 32.8545C175.942 32.8545 175.748 33.049 175.748 33.2875C175.748 33.5265 175.943 33.7205 176.181 33.7205C176.42 33.7205 176.614 33.5265 176.614 33.2875C176.614 33.049 176.42 32.8545 176.181 32.8545Z" fill="white"/>
<path d="M179.968 34.2205C179.453 34.2205 179.035 33.802 179.035 33.2875C179.035 32.773 179.453 32.3545 179.968 32.3545C180.482 32.3545 180.901 32.773 180.901 33.2875C180.901 33.802 180.482 34.2205 179.968 34.2205ZM179.968 32.8545C179.729 32.8545 179.535 33.049 179.535 33.2875C179.535 33.5265 179.729 33.7205 179.968 33.7205C180.207 33.7205 180.401 33.5265 180.401 33.2875C180.401 33.049 180.207 32.8545 179.968 32.8545Z" fill="white"/>
<path d="M176.981 30.909C176.85 30.909 176.74 30.807 176.732 30.6745L176.497 26.914C176.488 26.776 176.593 26.6575 176.731 26.649C176.881 26.646 176.988 26.7455 176.996 26.883L177.231 30.6435C177.24 30.7815 177.135 30.9 176.997 30.9085C176.992 30.9085 176.986 30.909 176.981 30.909Z" fill="white"/>
<path d="M179.088 30.909C179.083 30.909 179.079 30.9085 179.074 30.9085C178.936 30.901 178.831 30.783 178.838 30.645L179.048 26.8845C179.056 26.747 179.165 26.642 179.312 26.649C179.449 26.6565 179.555 26.7745 179.547 26.9125L179.337 30.673C179.33 30.806 179.22 30.909 179.088 30.909Z" fill="white"/>
<path d="M174.873 29.0285C174.736 29.0285 174.624 28.918 174.623 28.781C174.621 28.643 174.732 28.53 174.87 28.5285L181.305 28.466C181.444 28.4815 181.556 28.5755 181.558 28.7135C181.559 28.8515 181.448 28.9645 181.31 28.966L174.875 29.0285C174.874 29.0285 174.874 29.0285 174.873 29.0285Z" fill="white"/>
<path d="M29.8569 55.528C28.6849 55.2695 27.7374 54.9335 27.0134 54.5195L28.6159 50.668C29.2709 51.0645 30.0459 51.375 30.9424 51.5985C31.8384 51.823 32.7089 51.9345 33.5534 51.9345C34.2254 51.9345 34.6949 51.8785 34.9619 51.7665C35.2289 51.6545 35.3624 51.4865 35.3624 51.2625C35.3624 51.0385 35.1944 50.8835 34.8584 50.797C34.5224 50.711 33.9749 50.625 33.2169 50.5385C32.0624 50.401 31.0799 50.2245 30.2704 50.009C29.4604 49.7935 28.7494 49.3755 28.1379 48.7555C27.5259 48.135 27.2204 47.2475 27.2204 46.093C27.2204 45.1795 27.4959 44.361 28.0474 43.637C28.5984 42.9135 29.4214 42.336 30.5159 41.9055C31.6099 41.475 32.9239 41.2595 34.4579 41.2595C35.5264 41.2595 36.5729 41.359 37.5984 41.5565C38.6234 41.755 39.4984 42.0435 40.2224 42.4225L38.6199 46.274C37.3789 45.585 36.0174 45.24 34.5354 45.24C33.2599 45.24 32.6224 45.464 32.6224 45.912C32.6224 46.136 32.7944 46.2955 33.1394 46.39C33.4839 46.485 34.0264 46.5755 34.7679 46.6615C35.9224 46.7995 36.9004 46.9805 37.7019 47.204C38.5034 47.4285 39.2099 47.8505 39.8214 48.4705C40.4329 49.091 40.7389 49.979 40.7389 51.133C40.7389 52.0115 40.4634 52.813 39.9119 53.537C39.3604 54.261 38.5334 54.8385 37.4304 55.269C36.3274 55.6995 34.9914 55.9155 33.4239 55.9155C32.2179 55.9155 31.0289 55.7865 29.8569 55.528Z" fill="white"/>
<path d="M56.5201 42.8359C57.5801 43.8874 58.1096 45.4724 58.1096 47.5924V55.6569H52.2676V48.6004C52.2676 46.9809 51.6901 46.1704 50.5356 46.1704C49.8806 46.1704 49.3506 46.3994 48.9461 46.8554C48.5411 47.3119 48.3386 48.0314 48.3386 49.0139V55.6569H42.4966V36.4774H48.3386V42.6549C49.4241 41.7244 50.7511 41.2594 52.3191 41.2594C54.0596 41.2594 55.4601 41.7854 56.5201 42.8359Z" fill="white"/>
<path d="M64.1449 54.9719C62.8954 54.3429 61.9174 53.4724 61.2109 52.3614C60.5039 51.2499 60.1509 49.9874 60.1509 48.5744C60.1509 47.1614 60.5039 45.8994 61.2109 44.7874C61.9174 43.6759 62.8954 42.8099 64.1449 42.1894C65.3944 41.5689 66.8029 41.2589 68.3714 41.2589C69.9564 41.2589 71.3739 41.5689 72.6234 42.1894C73.8729 42.8099 74.8464 43.6759 75.5444 44.7874C76.2424 45.8989 76.5914 47.1614 76.5914 48.5744C76.5914 49.9874 76.2424 51.2499 75.5444 52.3614C74.8464 53.4729 73.8729 54.3429 72.6234 54.9719C71.3734 55.6014 69.9564 55.9154 68.3714 55.9154C66.8029 55.9154 65.3939 55.6014 64.1449 54.9719ZM70.0254 50.6294C70.4559 50.1384 70.6714 49.4534 70.6714 48.5744C70.6714 47.6954 70.4559 47.0149 70.0254 46.5324C69.5944 46.0499 69.0434 45.8084 68.3709 45.8084C67.6989 45.8084 67.1474 46.0499 66.7164 46.5324C66.2854 47.0149 66.0704 47.6954 66.0704 48.5744C66.0704 49.4534 66.2859 50.1384 66.7164 50.6294C67.1469 51.1204 67.6984 51.3659 68.3709 51.3659C69.0434 51.3659 69.5944 51.1209 70.0254 50.6294Z" fill="white"/>
<path d="M91.2858 42.1514C92.3283 42.7459 93.1553 43.6035 93.7673 44.7235C94.3788 45.844 94.6848 47.1364 94.6848 48.6009C94.6848 50.0659 94.3788 51.3539 93.7673 52.4654C93.1553 53.5769 92.3283 54.4299 91.2858 55.0244C90.2433 55.6189 89.1018 55.9164 87.8608 55.9164C86.2923 55.9164 85.0948 55.5114 84.2678 54.7014V60.6724H78.4258V41.5184H83.9833V42.6815C84.8273 41.734 86.1198 41.2599 87.8608 41.2599C89.1018 41.2594 90.2428 41.5564 91.2858 42.1514ZM88.1193 50.6424C88.5498 50.1604 88.7653 49.4794 88.7653 48.6004C88.7653 47.7214 88.5498 47.0364 88.1193 46.5454C87.6883 46.0544 87.1368 45.8084 86.4648 45.8084C85.7928 45.8084 85.2413 46.0539 84.8103 46.5454C84.3793 47.0364 84.1638 47.7214 84.1638 48.6004C84.1638 49.4794 84.3793 50.1604 84.8103 50.6424C85.2408 51.1249 85.7928 51.3659 86.4648 51.3659C87.1373 51.3659 87.6883 51.1249 88.1193 50.6424Z" fill="white"/>
<path d="M160.757 49.913L135.376 58.9235C134.889 59.096 134.356 58.8425 134.183 58.356C134.011 57.8695 134.264 57.336 134.751 57.1635L159.395 48.415L156.659 32.089L126.906 42.6515C126.42 42.824 125.886 42.5705 125.714 42.084C125.541 41.5975 125.795 41.064 126.281 40.8915L157.085 29.9565C157.344 29.8645 157.633 29.8915 157.87 30.032C158.11 30.1715 158.273 30.4095 158.318 30.682L161.365 48.8795C161.441 49.3255 161.183 49.7615 160.757 49.913Z" fill="white"/>
<path d="M162.043 56.2C162.041 56.2005 162.041 56.2005 162.039 56.2015L137.836 64.6985C137.394 64.8535 136.906 64.657 136.694 64.239L123.732 38.644L116.743 41.1255C116.256 41.298 115.723 41.0445 115.55 40.558C115.378 40.0715 115.631 39.538 116.118 39.3655L123.883 36.609C124.326 36.4515 124.816 36.6475 125.029 37.0675L137.991 62.666L161.421 54.4395C161.908 54.2685 162.441 54.525 162.612 55.012C162.782 55.4965 162.527 56.028 162.043 56.2Z" fill="white"/>
<path d="M144.867 71.982C142.723 72.743 140.359 71.6175 139.598 69.474C138.836 67.3285 139.962 64.9645 142.105 64.2035C144.251 63.442 146.615 64.5675 147.376 66.7125C148.138 68.856 147.012 71.2205 144.867 71.982ZM142.73 65.9635C141.556 66.3805 140.941 67.675 141.358 68.849C141.775 70.023 143.068 70.6385 144.242 70.2215C145.416 69.8045 146.033 68.5115 145.616 67.3375C145.199 66.1635 143.904 65.547 142.73 65.9635Z" fill="white"/>
<path d="M161.552 66.0589C159.408 66.8199 157.044 65.6945 156.283 63.551C155.521 61.4055 156.647 59.0414 158.79 58.2804C160.936 57.5189 163.3 58.6444 164.061 60.7894C164.822 62.9329 163.697 65.2974 161.552 66.0589ZM159.415 60.0404C158.241 60.4574 157.626 61.7515 158.043 62.926C158.46 64.0999 159.753 64.7154 160.927 64.2984C162.101 63.8814 162.718 62.5884 162.301 61.4139C161.884 60.2399 160.589 59.6239 159.415 60.0404Z" fill="white"/>
<path d="M143.213 56.141C142.75 56.305 142.236 56.083 142.041 55.6275L135.126 39.4245C134.923 38.9505 135.144 38.402 135.618 38.1985C136.111 37.9575 136.641 38.2185 136.843 38.6905L143.759 54.8935C143.962 55.3675 143.74 55.9165 143.267 56.1195C143.249 56.128 143.23 56.135 143.213 56.141Z" fill="white"/>
<path d="M152.494 52.8465C152.478 52.852 152.461 52.858 152.443 52.8625C151.949 53.007 151.43 52.7245 151.285 52.2285L146.328 35.3305C146.184 34.8375 146.432 34.293 146.962 34.1725C147.456 34.028 147.975 34.3105 148.12 34.8065L153.077 51.7045C153.218 52.181 152.958 52.6815 152.494 52.8465Z" fill="white"/>
<path d="M130.982 51.153C130.499 51.3245 129.969 51.075 129.792 50.594C129.614 50.1095 129.864 49.574 130.348 49.396L158.601 39.0565C158.604 39.0555 158.606 39.0544 158.609 39.0534C159.092 38.8819 159.622 39.1315 159.799 39.6125C159.977 40.097 159.727 40.633 159.243 40.8105L130.99 51.15C130.987 51.1515 130.985 51.1519 130.982 51.153Z" fill="white"/>
</svg>
