<svg width="110" height="49" viewBox="0 0 110 49" fill="none" xmlns="http://www.w3.org/2000/svg">
<rect width="110" height="49" rx="24.5" fill="#EAAA32"/>
<g clip-path="url(#clip0_294_1253)">
<path d="M28 15.9851C23.5805 15.9851 19.9851 19.5812 19.9851 24.0007C19.9851 28.4202 23.5805 32.0163 28 32.0163C32.4188 32.0163 36.0149 28.4209 36.0149 24.0007C36.0149 19.5805 32.4188 15.9851 28 15.9851Z" fill="white"/>
<path d="M27.9999 13.6291C27.1361 13.6291 26.436 12.929 26.436 12.0659V9.56386C26.436 8.70009 27.1361 8 27.9999 8C28.8637 8 29.5638 8.70009 29.5638 9.56386V12.0659C29.5638 12.929 28.863 13.6291 27.9999 13.6291Z" fill="white"/>
<path d="M27.9999 34.3702C27.1361 34.3702 26.436 35.0703 26.436 35.9341V38.4354C26.436 39.2999 27.1361 40 27.9999 40C28.8637 40 29.5638 39.2999 29.5638 38.4354V35.9341C29.5638 35.0703 28.863 34.3702 27.9999 34.3702Z" fill="white"/>
<path d="M35.3326 16.6668C34.7225 16.056 34.7225 15.0661 35.3326 14.4553L37.1019 12.6859C37.712 12.0758 38.7026 12.0758 39.3134 12.6859C39.9242 13.2967 39.9242 14.2873 39.3134 14.8974L37.5441 16.6668C36.934 17.2776 35.9441 17.2776 35.3326 16.6668Z" fill="white"/>
<path d="M20.6667 31.3339C20.0559 30.7224 19.066 30.7224 18.4552 31.3339L16.6859 33.1026C16.0758 33.7127 16.0751 34.704 16.6859 35.3141C17.2967 35.9242 18.2873 35.9242 18.8974 35.3141L20.6667 33.544C21.2775 32.9339 21.2775 31.9433 20.6667 31.3339Z" fill="white"/>
<path d="M38.3701 24C38.3701 23.1362 39.0702 22.4361 39.934 22.4361H42.436C43.2998 22.4361 43.9999 23.1362 43.9999 24C43.9999 24.8638 43.2998 25.5632 42.436 25.5632H39.934C39.0702 25.5632 38.3701 24.8638 38.3701 24Z" fill="white"/>
<path d="M17.6291 24C17.6291 23.1362 16.929 22.4361 16.0652 22.4361H13.5639C12.7001 22.4361 12 23.1362 12 24C12 24.8638 12.7001 25.5632 13.5639 25.5632H16.0659C16.929 25.5632 17.6291 24.8638 17.6291 24Z" fill="white"/>
<path d="M35.3326 31.3339C35.9434 30.7238 36.934 30.7238 37.5441 31.3339L39.3135 33.1033C39.9243 33.7127 39.9243 34.704 39.3135 35.3141C38.7027 35.9242 37.7128 35.9242 37.102 35.3141L35.3326 33.5447C34.7218 32.9339 34.7218 31.944 35.3326 31.3339Z" fill="white"/>
<path d="M20.6668 16.6668C21.2776 16.056 21.2776 15.0661 20.6668 14.4553L18.8974 12.6866C18.2866 12.0758 17.2967 12.0758 16.6859 12.6866C16.0751 13.2967 16.0751 14.2873 16.6859 14.8974L18.4552 16.6668C19.066 17.2783 20.0559 17.2783 20.6668 16.6668Z" fill="white"/>
</g>
<defs>
<clipPath id="clip0_294_1253">
<rect width="32" height="32" fill="white" transform="translate(12 8)"/>
</clipPath>
</defs>
</svg>
