<svg width="136" height="171" viewBox="0 0 136 171" fill="none" xmlns="http://www.w3.org/2000/svg">
<path d="M124.229 33.3079C125.364 29.5001 123.637 24.3417 114.466 21.8121C100.529 17.971 90.509 32.3971 89.309 34.2154C90.5937 32.1201 102.741 13.1009 116.819 16.907C127.952 19.9188 127.329 28.5111 124.229 33.3079Z" fill="#455A64"/>
<path d="M124.229 33.3079C123.172 34.9274 121.832 36.1168 120.569 36.5062C115.671 38.0158 104.55 38.947 90.1488 34.6904C89.8286 34.595 89.5118 34.4948 89.1916 34.4003C89.1916 34.4003 89.2315 34.3368 89.3089 34.2154C89.3333 34.1853 89.3521 34.1462 89.3798 34.1087C89.414 34.1185 89.4588 34.1242 89.4954 34.1274C104.635 36.3238 115.18 34.7091 119.505 33.1498C121.205 32.5348 122.562 30.4679 122.732 28.0508C122.768 27.496 122.744 26.9225 122.644 26.3498C124.6 28.6252 124.865 31.1791 124.229 33.3079Z" fill="#37474F"/>
<path d="M115.17 13.439C113.298 9.02104 108.222 4.88905 99.2592 7.5913C85.6412 11.7013 88.2889 31.6867 88.6718 34.1698C88.1545 31.3633 83.8376 5.61818 97.5403 1.39494C108.377 -1.94356 114.111 6.9249 115.17 13.439Z" fill="#455A64"/>
<path d="M115.17 13.439C115.521 15.6443 115.34 17.5832 114.638 18.6854C111.921 22.9641 103.947 30.2032 89.668 34.1633C89.3511 34.2513 89.031 34.3311 88.7141 34.4191C88.7141 34.4191 88.6994 34.3335 88.6717 34.1698C88.6684 34.1258 88.6546 34.0761 88.6489 34.0232C88.6823 34.0134 88.7222 33.9938 88.7531 33.9767C102.116 27.5547 109.147 19.9653 111.384 15.9644C112.26 14.3905 111.82 11.5718 110.203 9.07969C109.829 8.50943 109.396 7.95464 108.904 7.44385C112.071 8.58682 114.126 10.9673 115.17 13.439Z" fill="#37474F"/>
<path d="M53.07 33.3079C51.9352 29.5001 53.6615 24.3417 62.833 21.8121C76.7703 17.971 86.7898 32.3971 87.9898 34.2154C86.7051 32.1201 74.5576 13.1009 60.4794 16.907C49.3461 19.9188 49.9702 28.5111 53.07 33.3079Z" fill="#455A64"/>
<path d="M53.0702 33.3079C54.1268 34.9274 55.4662 36.1168 56.7297 36.5062C61.6283 38.0158 72.7493 38.947 87.1502 34.6904C87.4703 34.595 87.7872 34.4948 88.1074 34.4003C88.1074 34.4003 88.0666 34.3368 87.9901 34.2154C87.9656 34.1853 87.9469 34.1462 87.9192 34.1087C87.8858 34.1185 87.8401 34.1242 87.8035 34.1274C72.6629 36.3238 62.1187 34.7091 57.7928 33.1498C56.0943 32.5348 54.737 30.4679 54.5667 28.0508C54.5309 27.496 54.5545 26.9225 54.6539 26.3498C52.6987 28.6252 52.4331 31.1791 53.0702 33.3079Z" fill="#37474F"/>
<path d="M61.202 13.439C63.0749 9.02104 68.1502 4.88905 77.114 7.5913C90.7312 11.7013 88.0843 31.6867 87.7006 34.1698C88.2187 31.3633 92.5349 5.61818 78.8322 1.39494C67.9946 -1.94356 62.2618 6.9249 61.202 13.439Z" fill="#455A64"/>
<path d="M61.2018 13.439C60.8515 15.6435 61.0323 17.5832 61.7337 18.6854C64.4498 22.9641 72.4246 30.2032 86.7041 34.1633C87.0218 34.2513 87.3412 34.3311 87.6581 34.4191C87.6581 34.4191 87.6727 34.3335 87.7004 34.1698C87.7037 34.1258 87.7184 34.0761 87.7233 34.0232C87.6899 34.0134 87.65 33.9938 87.619 33.9767C74.256 27.5547 67.2246 19.9653 64.9884 15.9644C64.1118 14.3905 64.5517 11.5718 66.1696 9.07969C66.5435 8.50943 66.977 7.95464 67.469 7.44385C64.3008 8.58682 62.247 10.9673 61.2018 13.439Z" fill="#37474F"/>
<path d="M118.256 170.529H43.9596L46.6822 38.6472L110.836 36.3547L118.256 170.529Z" fill="#FFC727"/>
<path opacity="0.6" d="M118.256 170.529H43.9596L46.6822 38.6472L110.836 36.3547L118.256 170.529Z" fill="white"/>
<path d="M133.448 170.529H112.339L109.106 36.3547L130.879 40.4175L133.448 170.529Z" fill="#FFC727"/>
<path d="M42.9504 36.5527V54.9112L109.106 52.6416V31.6329L42.9504 36.5527Z" fill="#FFC727"/>
<path opacity="0.4" d="M42.9504 36.5527V54.9112L109.106 52.6416V31.6329L42.9504 36.5527Z" fill="white"/>
<path d="M133.985 54.9112L109.106 52.6416V31.6329L135.402 36.5527L133.985 54.9112Z" fill="#FFC727"/>
<path opacity="0.1" d="M133.985 54.9112L109.106 52.6416V31.6329L135.402 36.5527L133.985 54.9112Z" fill="black"/>
<path d="M67.9043 34.6969L68.7605 170.529H86.2995L84.7703 33.5938L67.9043 34.6969Z" fill="#455A64"/>
<path d="M119.588 33.5938L126.182 34.828V170.529H120.667L119.588 33.5938Z" fill="#455A64"/>
<path d="M77.4851 65.9524C77.3433 67.7666 76.8496 69.3821 75.9771 70.6351C75.9307 70.3198 75.8638 69.9931 75.7848 69.6673C75.7115 69.3349 75.613 68.9968 75.5014 68.6538C74.8912 66.7548 73.7506 64.6465 71.8459 62.3532C71.6708 62.1454 71.4964 61.9385 71.3082 61.7259C71.261 61.6713 71.2146 61.6224 71.1608 61.5679C71.1608 61.5613 71.1608 61.5613 71.1608 61.5613C71.0736 61.4644 70.9775 61.3748 70.9001 61.2762C56.1237 42.5495 42.0528 72.8885 41.7562 73.5874C41.7505 73.594 41.7505 73.6005 41.7505 73.6005C41.7505 73.6005 40.9408 43.3429 57.0736 42.5038C69.714 41.8431 78.2248 56.6008 77.4851 65.9524Z" fill="#FFC727"/>
<path d="M75.9778 70.6351C75.6095 71.1662 75.1696 71.6379 74.6556 72.0298C66.9521 77.928 43.2933 73.8685 41.8229 73.6159L41.752 73.6005C63.994 75.7422 70.0959 67.6501 71.1623 61.5678C71.2161 61.6224 71.2625 61.6705 71.3097 61.7259C71.4971 61.9385 71.6722 62.1462 71.8474 62.3532C73.739 64.6538 74.8861 66.7556 75.5028 68.6538C75.6144 68.9976 75.7065 69.3357 75.7863 69.6672C75.8645 69.9931 75.9305 70.3198 75.9778 70.6351Z" fill="#FFC727"/>
<path opacity="0.2" d="M75.9778 70.6351C75.6095 71.1662 75.1696 71.6379 74.6556 72.0298C66.9521 77.928 43.2933 73.8685 41.8229 73.6159L41.752 73.6005C63.994 75.7422 70.0959 67.6501 71.1623 61.5678C71.2161 61.6224 71.2625 61.6705 71.3097 61.7259C71.4971 61.9385 71.6722 62.1462 71.8474 62.3532C73.739 64.6538 74.8861 66.7556 75.5028 68.6538C75.6144 68.9976 75.7065 69.3357 75.7863 69.6672C75.8645 69.9931 75.9305 70.3198 75.9778 70.6351Z" fill="black"/>
<path d="M5.45311 69.3895C5.76676 71.1817 6.41198 72.7434 7.40018 73.9076C7.41647 73.5899 7.45146 73.2583 7.49952 72.9259C7.54026 72.5878 7.60629 72.2424 7.68449 71.8897C8.11138 69.9418 9.04658 67.7349 10.724 65.2697C10.878 65.0473 11.0327 64.8232 11.1989 64.5943C11.2405 64.5357 11.2829 64.4827 11.3301 64.4233C11.3293 64.4167 11.3293 64.4167 11.3293 64.4167C11.4067 64.3116 11.4938 64.2131 11.5623 64.108C24.4878 44.059 41.384 72.921 41.7457 73.5883C41.7522 73.594 41.7522 73.6005 41.7522 73.6005C41.7522 73.6005 39.6773 43.404 23.5387 44.1046C10.8935 44.6497 3.82622 60.1503 5.45311 69.3895Z" fill="#FFC727"/>
<path d="M7.39905 73.9068C7.81534 74.4005 8.29925 74.8274 8.84833 75.1695C17.0781 80.3068 40.2432 74.0135 41.6827 73.6216L41.7511 73.5997C19.8146 77.849 12.9698 70.3752 11.329 64.4224C11.281 64.4819 11.2394 64.534 11.1979 64.5935C11.0317 64.8232 10.8769 65.0465 10.7229 65.2689C9.05854 67.7389 8.11758 69.9402 7.68337 71.8889C7.60516 72.2416 7.5457 72.587 7.49844 72.9251C7.45038 73.2575 7.41616 73.5891 7.39905 73.9068Z" fill="#FFC727"/>
<path opacity="0.2" d="M7.39905 73.9068C7.81534 74.4005 8.29925 74.8274 8.84833 75.1695C17.0781 80.3068 40.2432 74.0135 41.6827 73.6216L41.7511 73.5997C19.8146 77.849 12.9698 70.3752 11.329 64.4224C11.281 64.4819 11.2394 64.534 11.1979 64.5935C11.0317 64.8232 10.8769 65.0465 10.7229 65.2689C9.05854 67.7389 8.11758 69.9402 7.68337 71.8889C7.60516 72.2416 7.5457 72.587 7.49844 72.9251C7.45038 73.2575 7.41616 73.5891 7.39905 73.9068Z" fill="black"/>
<path d="M75.9781 170.529H0.852844L3.01009 81.2803L76.4319 80.187L75.9781 170.529Z" fill="#455A64"/>
<path d="M102.87 170.529H75.9781L74.4294 80.187L101.12 82.42L102.87 170.529Z" fill="#37474F"/>
<path d="M0.337952 77.084V96.0307L74.4294 93.783V72.0999L0.337952 77.084Z" fill="#37474F"/>
<path d="M103.232 96.1252L74.4294 93.783V72.0999L104.871 77.1785L103.232 96.1252Z" fill="#263238"/>
<path d="M48.3332 170.529H30.3331L28.5213 75.1443L49.776 73.7349L48.3332 170.529Z" fill="#FFC727"/>
<path d="M89.1947 170.529H95.3169L94.7743 75.4937L86.217 74.0665L89.1947 170.529Z" fill="#FFC727"/>
</svg>
