<svg width="93" height="120" viewBox="0 0 93 120" fill="none" xmlns="http://www.w3.org/2000/svg">
<path d="M91.9323 1.1717H0.404541V119.203H91.9323V1.1717Z" fill="white"/>
<path d="M91.9317 119.203C91.8576 119.223 0.387626 119.277 0.315935 119.292C0.29394 119.271 0.217343 1.2165 0.20105 1.17169V0.968845H0.404716C0.50492 0.947664 91.9529 1.07149 92.0482 1.05601C92.1574 1.12118 91.8527 119.117 91.9317 119.203ZM91.9317 119.203L91.816 1.17169C92.6046 1.40224 0.20105 1.33626 0.404716 1.37455L0.607588 1.17169L0.493522 119.203C-0.108516 119.087 92.0873 119.19 91.9317 119.203Z" fill="#C7C7C7"/>
<path d="M89.1583 3.57497H3.1759V89.5573H89.1583V3.57497Z" fill="#EBEBEB"/>
<path d="M63.0627 11.3265V15.2663L46.1706 15.2589V15.2663H29.2712V11.3265H63.0627Z" fill="#455A64"/>
<path d="M58.1544 17.663H63.0627V23.2166C58.2382 22.964 58.1544 17.663 58.1544 17.663Z" fill="#455A64"/>
<path d="M63.0626 25.9522V81.8058H50.0035L46.1697 30.1388L42.3294 81.8058H29.2703V25.9522C31.4519 25.5759 36.6601 24.0084 36.6601 17.6638H44.7563C44.7563 22.0117 44.6332 25.8447 46.1624 25.8602H46.1697C47.6988 25.8447 47.5758 22.0117 47.5758 17.6638H55.672C55.6728 24.0084 60.8809 25.575 63.0626 25.9522Z" fill="#455A64"/>
<path d="M29.2711 23.2174V17.6638H34.1794C34.1794 17.6638 34.0955 22.964 29.2711 23.2174Z" fill="#455A64"/>
<path d="M81.6821 14.8149C77.3529 12.0728 77.5142 8.7538 78.6971 8.05481C80.1757 7.19453 81.3049 8.72691 81.6821 10.2055C82.0584 8.72691 83.1876 7.19453 84.6393 8.05481C85.823 8.75461 85.9843 12.0728 81.6821 14.8149Z" fill="#FFC727"/>
<path d="M89.1593 106.04H57.3727V114.506H89.1593V106.04Z" fill="white"/>
<path d="M89.1594 114.506C81.2368 114.571 65.2954 114.661 57.3727 114.68L57.1984 114.681L57.1976 114.506L57.1691 106.04L57.1683 105.836L57.3727 105.837C57.4681 105.84 89.1586 105.954 89.2441 105.957L89.2433 106.04L89.1594 114.506ZM89.1594 114.506L89.0755 106.04L89.1594 106.124L57.3727 106.243L57.5756 106.04L57.5471 114.505L57.3727 114.331L73.2197 114.393L89.1594 114.506Z" fill="#C7C7C7"/>
<path d="M3.1767 94.4486C16.6749 93.9011 30.2733 93.9011 43.7748 94.4486C30.2725 94.9969 16.6757 94.996 3.1767 94.4486Z" fill="#C7C7C7"/>
<path d="M3.1767 99.1354C21.9825 98.869 42.6676 98.8665 61.4742 99.1354C42.6685 99.4042 21.9833 99.4018 3.1767 99.1354Z" fill="#C7C7C7"/>
</svg>
