<svg width="93" height="120" viewBox="0 0 93 120" fill="none" xmlns="http://www.w3.org/2000/svg">
<path d="M92.5957 1.1717H1.0679V119.203H92.5957V1.1717Z" fill="white"/>
<path d="M92.5959 119.203C92.5218 119.223 1.05182 119.277 0.980126 119.292C0.95813 119.271 0.881558 1.21651 0.865265 1.1717V0.968853H1.06811C1.16832 0.947672 92.6163 1.0715 92.7116 1.05602C92.8224 1.12119 92.5169 119.117 92.5959 119.203ZM92.5959 119.203L92.4802 1.1717C93.2688 1.40225 0.865265 1.33627 1.06893 1.37456L1.27178 1.1717L1.15772 119.203C0.555686 119.087 92.7507 119.19 92.5959 119.203Z" fill="#C7C7C7"/>
<path d="M89.8232 3.57497H3.84088V89.5573H89.8232V3.57497Z" fill="#EBEBEB"/>
<path d="M69.6891 72.1837H23.9757L24.1125 70.2929L24.2119 68.8998L24.3366 67.2452L24.436 65.8399L24.5606 64.1976L24.66 62.7923L24.7846 61.1377L24.884 59.7446L27.7077 20.9477H35.2205C35.2205 27.3535 40.4197 32.5535 46.8263 32.5535C53.245 32.5535 58.4442 27.3543 58.4442 20.9477H65.9571L68.7807 59.7446L68.8801 61.1377L69.0048 62.7923L69.1041 64.1976L69.2288 65.8399L69.3282 67.2452L69.4528 68.8998L69.5522 70.2929L69.6891 72.1837Z" fill="#455A64"/>
<path d="M27.7075 20.9477L13.714 38.3091L25.7148 48.3205L27.7075 20.9477Z" fill="#263238"/>
<path d="M65.9569 20.9477L79.9504 38.3091L67.9487 48.3205L65.9569 20.9477Z" fill="#263238"/>
<path d="M82.3461 14.8149C78.0169 12.0728 78.1782 8.7538 79.3611 8.05481C80.8398 7.19453 81.9689 8.72691 82.3461 10.2055C82.7224 8.72691 83.8516 7.19453 85.3033 8.05481C86.487 8.75461 86.6483 12.0728 82.3461 14.8149Z" fill="#FFC727"/>
<path d="M89.8231 106.04H58.0365V114.506H89.8231V106.04Z" fill="white"/>
<path d="M89.8232 114.506C81.9006 114.571 65.9592 114.661 58.0365 114.68L57.8622 114.681L57.8614 114.506L57.8329 106.04L57.832 105.836L58.0357 105.837C58.131 105.84 89.8216 105.954 89.9071 105.957L89.9063 106.04L89.8232 114.506ZM89.8232 114.506L89.7393 106.04L89.8232 106.124L58.0365 106.243L58.2394 106.04L58.2108 114.505L58.0365 114.331L73.8834 114.393L89.8232 114.506Z" fill="#C7C7C7"/>
<path d="M3.84088 94.4486C17.3391 93.9011 30.9375 93.9011 44.439 94.4486C30.9367 94.9969 17.3399 94.996 3.84088 94.4486Z" fill="#C7C7C7"/>
<path d="M3.84088 99.1354C22.6466 98.869 43.3318 98.8665 62.1384 99.1354C43.3327 99.4042 22.6475 99.4018 3.84088 99.1354Z" fill="#C7C7C7"/>
</svg>
