<svg width="15" height="25" viewBox="0 0 15 25" fill="none" xmlns="http://www.w3.org/2000/svg">
<path d="M12.1905 1.56738H3.41761C2.34092 1.56738 1.46808 2.44022 1.46808 3.51692V22.0375C1.46808 23.1142 2.34092 23.987 3.41761 23.987H12.1905C13.2672 23.987 14.1401 23.1142 14.1401 22.0375V3.51692C14.1401 2.44022 13.2672 1.56738 12.1905 1.56738Z" stroke="#A0A3BD" stroke-width="1.37967" stroke-linecap="round" stroke-linejoin="round"/>
<path d="M10.9972 1.56714V2.84439C10.9972 3.18314 10.8627 3.50802 10.6231 3.74755C10.3836 3.98708 10.0587 4.12165 9.71999 4.12165H5.88822C5.54947 4.12165 5.22459 3.98708 4.98506 3.74755C4.74553 3.50802 4.61096 3.18314 4.61096 2.84439V1.56714" stroke="#A0A3BD" stroke-width="1.37967" stroke-linecap="round" stroke-linejoin="round"/>
</svg>
