<svg width="467" height="46" viewBox="0 0 467 46" fill="none" xmlns="http://www.w3.org/2000/svg">
<path d="M466.968 27.5798H0.0319824L36.0745 0.156494H429.465L466.968 27.5798Z" fill="#FFC727"/>
<path d="M101.74 0.155498L71.8686 27.5837H35.95L68.5651 0.155498H101.74Z" fill="#EBEBEB"/>
<path d="M165.304 0.155498L143.705 27.5837H107.787L133.458 0.155498H165.304Z" fill="#EBEBEB"/>
<path d="M219.265 0.155498L215.541 27.5837H179.623L191.078 0.155498H219.265Z" fill="#EBEBEB"/>
<path d="M395.131 27.5837L364.132 0.155498H397.307L431.049 27.5837H395.131Z" fill="#EBEBEB"/>
<path d="M323.295 27.5837L304.136 0.155498H333.365L359.214 27.5837H323.295Z" fill="#EBEBEB"/>
<path d="M251.459 27.5837L246.192 0.155498H274.393L287.377 27.5837H251.459Z" fill="#EBEBEB"/>
<path d="M17.9916 45.7605C8.07298 45.7605 0.0322266 37.7198 0.0322266 27.8012V27.5829H35.9501V27.8012C35.9501 37.7198 27.9101 45.7605 17.9916 45.7605Z" fill="#FFC727"/>
<path opacity="0.1" d="M17.9916 45.7605C8.07298 45.7605 0.0322266 37.7198 0.0322266 27.8012V27.5829H35.9501V27.8012C35.9501 37.7198 27.9101 45.7605 17.9916 45.7605Z" fill="black"/>
<path d="M53.9093 45.7605C43.9907 45.7605 35.95 37.7198 35.95 27.8012V27.5829H71.8678V27.8012C71.8686 37.7198 63.8278 45.7605 53.9093 45.7605Z" fill="#DBDBDB"/>
<path d="M89.8282 45.7605C79.9096 45.7605 71.8689 37.7198 71.8689 27.8012V27.5829H107.787V27.8012C107.787 37.7198 99.7459 45.7605 89.8282 45.7605Z" fill="#FFC727"/>
<path opacity="0.1" d="M89.8282 45.7605C79.9096 45.7605 71.8689 37.7198 71.8689 27.8012V27.5829H107.787V27.8012C107.787 37.7198 99.7459 45.7605 89.8282 45.7605Z" fill="black"/>
<path d="M125.746 45.7605C115.827 45.7605 107.787 37.7198 107.787 27.8012V27.5829H143.704V27.8012C143.705 37.7198 135.664 45.7605 125.746 45.7605Z" fill="#DBDBDB"/>
<path d="M161.664 45.7605C151.745 45.7605 143.704 37.7198 143.704 27.8012V27.5829H179.622V27.8012C179.623 37.7198 171.582 45.7605 161.664 45.7605Z" fill="#FFC727"/>
<path opacity="0.1" d="M161.664 45.7605C151.745 45.7605 143.704 37.7198 143.704 27.8012V27.5829H179.622V27.8012C179.623 37.7198 171.582 45.7605 161.664 45.7605Z" fill="black"/>
<path d="M197.582 45.7605C187.664 45.7605 179.623 37.7198 179.623 27.8012V27.5829H215.541V27.8012C215.541 37.7198 207.501 45.7605 197.582 45.7605Z" fill="#DBDBDB"/>
<path d="M233.5 45.7605C223.582 45.7605 215.541 37.7198 215.541 27.8012V27.5829H251.459V27.8012C251.46 37.7198 243.419 45.7605 233.5 45.7605Z" fill="#FFC727"/>
<path opacity="0.1" d="M233.5 45.7605C223.582 45.7605 215.541 37.7198 215.541 27.8012V27.5829H251.459V27.8012C251.46 37.7198 243.419 45.7605 233.5 45.7605Z" fill="black"/>
<path d="M269.418 45.7605C259.499 45.7605 251.459 37.7198 251.459 27.8012V27.5829H287.377V27.8012C287.377 37.7198 279.337 45.7605 269.418 45.7605Z" fill="#DBDBDB"/>
<path d="M305.337 45.7605C295.418 45.7605 287.377 37.7198 287.377 27.8012V27.5829H323.295V27.8012C323.295 37.7198 315.255 45.7605 305.337 45.7605Z" fill="#FFC727"/>
<path opacity="0.1" d="M305.337 45.7605C295.418 45.7605 287.377 37.7198 287.377 27.8012V27.5829H323.295V27.8012C323.295 37.7198 315.255 45.7605 305.337 45.7605Z" fill="black"/>
<path d="M341.255 45.7605C331.336 45.7605 323.295 37.7198 323.295 27.8012V27.5829H359.213V27.8012C359.214 37.7198 351.173 45.7605 341.255 45.7605Z" fill="#DBDBDB"/>
<path d="M377.172 45.7605C367.254 45.7605 359.213 37.7198 359.213 27.8012V27.5829H395.131V27.8012C395.132 37.7198 387.091 45.7605 377.172 45.7605Z" fill="#FFC727"/>
<path opacity="0.1" d="M377.172 45.7605C367.254 45.7605 359.213 37.7198 359.213 27.8012V27.5829H395.131V27.8012C395.132 37.7198 387.091 45.7605 377.172 45.7605Z" fill="black"/>
<path d="M413.091 45.7605C403.172 45.7605 395.132 37.7198 395.132 27.8012V27.5829H431.049V27.8012C431.049 37.7198 423.01 45.7605 413.091 45.7605Z" fill="#DBDBDB"/>
<path d="M449.009 45.7605C439.09 45.7605 431.05 37.7198 431.05 27.8012V27.5829H466.968V27.8012C466.968 37.7198 458.928 45.7605 449.009 45.7605Z" fill="#FFC727"/>
<path opacity="0.1" d="M449.009 45.7605C439.09 45.7605 431.05 37.7198 431.05 27.8012V27.5829H466.968V27.8012C466.968 37.7198 458.928 45.7605 449.009 45.7605Z" fill="black"/>
<path d="M464.598 38.0864L464.663 38.2034C464.637 38.1928 464.611 38.1715 464.598 38.1502C464.572 38.129 464.52 38.1077 464.495 38.0864H464.598Z" fill="#FFC727"/>
</svg>
