<svg width="15" height="27" viewBox="0 0 15 27" fill="none" xmlns="http://www.w3.org/2000/svg">
<path d="M13.6361 25.9868V5.59843C13.636 5.37994 13.5672 5.167 13.4395 4.98973C13.3118 4.81245 13.1315 4.67982 12.9243 4.61058L2.51857 1.14199C2.36211 1.08956 2.1954 1.07514 2.03226 1.09993C1.86912 1.12471 1.71422 1.188 1.58039 1.28454C1.44656 1.38108 1.33765 1.5081 1.26266 1.6551C1.18767 1.80209 1.14877 1.96483 1.14917 2.12985V25.9868" stroke="#A0A3BD" stroke-width="1.37967" stroke-linecap="round" stroke-linejoin="round"/>
<path d="M9.47229 19.4163V20.4568" stroke="#A0A3BD" stroke-width="1.37967" stroke-linecap="round" stroke-linejoin="round"/>
<path d="M9.47229 14.2134V15.254" stroke="#A0A3BD" stroke-width="1.37967" stroke-linecap="round" stroke-linejoin="round"/>
<path d="M9.47229 9.01074V10.0513" stroke="#A0A3BD" stroke-width="1.37967" stroke-linecap="round" stroke-linejoin="round"/>
<path d="M5.31238 19.4163V20.4568" stroke="#A0A3BD" stroke-width="1.37967" stroke-linecap="round" stroke-linejoin="round"/>
<path d="M5.31238 14.2134V15.254" stroke="#A0A3BD" stroke-width="1.37967" stroke-linecap="round" stroke-linejoin="round"/>
<path d="M5.31238 9.01074V10.0513" stroke="#A0A3BD" stroke-width="1.37967" stroke-linecap="round" stroke-linejoin="round"/>
</svg>
