<svg width="75" height="92" viewBox="0 0 75 92" fill="none" xmlns="http://www.w3.org/2000/svg">
<path d="M70.223 91.8215H3.96097C1.92347 91.8215 0.271973 90.17 0.271973 88.1325V4.526C0.271973 2.4885 1.92347 0.837006 3.96097 0.837006H70.223C72.2605 0.837006 73.912 2.4885 73.912 4.526V88.1325C73.912 90.1695 72.2605 91.8215 70.223 91.8215Z" fill="white"/>
<path d="M73.912 11.501H0.271973V3.91852C0.271973 2.21702 1.65147 0.837524 3.35347 0.837524H70.8315C72.533 0.837524 73.9125 2.21702 73.9125 3.91852V11.501H73.912Z" fill="#9FAAC9"/>
<path d="M70.8876 91.8215C70.8876 91.8215 70.9581 91.8135 71.0976 91.804C71.2361 91.7945 71.4451 91.768 71.7096 91.6915C72.2231 91.544 73.0316 91.146 73.5431 90.1865C73.6676 89.9495 73.7601 89.6795 73.8236 89.388C73.8811 89.0935 73.8826 88.7795 73.8796 88.4455C73.8776 87.779 73.8756 87.051 73.8736 86.262C73.8701 84.6835 73.8661 82.8625 73.8616 80.8135C73.8516 72.6105 73.8376 60.7475 73.8201 46.0895C73.8151 38.759 73.8101 30.73 73.8041 22.1105C73.8021 17.8005 73.8001 13.3435 73.7976 8.75202C73.7971 7.60402 73.7966 6.44802 73.7961 5.28352C73.7876 4.70702 73.8136 4.10402 73.7771 3.54402C73.7151 2.98252 73.4861 2.44302 73.1236 2.00452C72.7581 1.56952 72.2666 1.24052 71.7186 1.07752C71.1751 0.906018 70.5786 0.96652 69.9761 0.95602C68.7801 0.95652 67.5761 0.95702 66.3646 0.95752C46.9811 0.96052 25.6716 0.964018 3.30359 0.968018C2.63259 0.970518 1.96959 1.20502 1.45309 1.63052C0.938594 2.05752 0.58109 2.66302 0.45459 3.31552C0.38459 3.63952 0.406096 3.97802 0.401596 4.32902V5.36902C0.401596 6.06202 0.401596 6.75352 0.401596 7.44402C0.401596 10.206 0.401093 12.95 0.401093 15.674C0.400593 21.1215 0.399594 26.4895 0.399094 31.764C0.396594 42.313 0.394086 52.488 0.391586 62.181C0.389586 67.0275 0.388093 71.7535 0.386093 76.3455C0.385093 78.6415 0.384087 80.904 0.383087 83.131C0.382587 84.2445 0.382092 85.3495 0.381592 86.445C0.381092 86.993 0.381085 87.5385 0.380585 88.082C0.383585 88.63 0.349598 89.1635 0.509598 89.66C0.814598 90.658 1.68159 91.443 2.68559 91.6505C3.18059 91.7545 3.7156 91.703 4.2401 91.7165C4.7646 91.717 5.2871 91.717 5.8071 91.7175C7.8866 91.719 9.92759 91.72 11.9281 91.7215C15.9291 91.7245 19.7691 91.727 23.4341 91.73C38.0921 91.7475 49.9541 91.7615 58.1561 91.7715C62.2526 91.782 65.4346 91.7905 67.5961 91.796C68.6726 91.8015 69.4941 91.806 70.0511 91.809C70.6041 91.8125 70.8876 91.8215 70.8876 91.8215C70.8876 91.8215 70.6041 91.8305 70.0511 91.835C69.4941 91.838 68.6726 91.842 67.5961 91.848C65.4341 91.8535 62.2526 91.862 58.1561 91.8725C49.9541 91.8825 38.0921 91.8965 23.4341 91.914C19.7691 91.9165 15.9291 91.9195 11.9281 91.9225C9.92759 91.924 7.8866 91.925 5.8071 91.9265C5.2871 91.927 4.7651 91.927 4.2401 91.9275C3.7181 91.9135 3.18809 91.97 2.64159 91.8585C1.56309 91.637 0.632589 90.7965 0.303589 89.724C0.130589 89.1835 0.167086 88.6155 0.163086 88.082C0.163086 87.5385 0.162594 86.993 0.162094 86.445C0.161594 85.349 0.161099 84.2445 0.160599 83.131C0.159599 80.904 0.158593 78.6415 0.157593 76.3455C0.155593 71.7535 0.154084 67.0275 0.152084 62.181C0.149584 52.488 0.147092 42.3125 0.144592 31.764C0.144092 26.4895 0.143093 21.1215 0.142593 15.674C0.142593 12.95 0.14209 10.2065 0.14209 7.44402C0.14209 6.75352 0.14209 6.06202 0.14209 5.36902V4.32902C0.14709 3.98852 0.123589 3.62602 0.200089 3.26652C0.338088 2.55402 0.728089 1.89402 1.28859 1.42952C1.85009 0.96602 2.5761 0.70952 3.3046 0.70752C25.6721 0.71102 46.9821 0.714518 66.3656 0.717518C67.5771 0.718018 68.7811 0.718521 69.9771 0.719021L70.8726 0.719521C71.1806 0.726521 71.4911 0.76202 71.7871 0.85202C72.3801 1.02902 72.9106 1.38502 73.3046 1.85552C73.6961 2.32902 73.9431 2.91302 74.0096 3.51952C74.0481 4.12952 74.0201 4.69652 74.0286 5.28402C74.0281 6.44852 74.0276 7.60452 74.0271 8.75252C74.0251 13.344 74.0226 17.801 74.0206 22.111C74.0151 30.7305 74.0096 38.7595 74.0046 46.09C73.9871 60.748 73.9731 72.611 73.9631 80.814C73.9586 82.8635 73.9546 84.684 73.9511 86.2625C73.9491 87.0515 73.9466 87.7795 73.9451 88.446C73.9461 88.7775 73.9426 89.101 73.8821 89.4C73.8151 89.697 73.7186 89.971 73.5901 90.2115C73.0616 91.184 72.2376 91.5775 71.7176 91.718C71.4496 91.791 71.2391 91.813 71.0991 91.8185C70.9586 91.8225 70.8876 91.8215 70.8876 91.8215Z" fill="#263238"/>
<path d="M7.76898 6.169C7.76898 7.112 7.00448 7.876 6.06198 7.876C5.11898 7.876 4.35498 7.1115 4.35498 6.169C4.35498 5.226 5.11948 4.46201 6.06198 4.46201C7.00448 4.46151 7.76898 5.226 7.76898 6.169Z" fill="white"/>
<path d="M12.6913 6.16897C12.6913 7.11197 11.9268 7.87597 10.9843 7.87597C10.0413 7.87597 9.27734 7.11147 9.27734 6.16897C9.27734 5.22597 10.0418 4.46198 10.9843 4.46198C11.9273 4.46148 12.6913 5.22597 12.6913 6.16897Z" fill="white"/>
<path d="M17.6144 6.16897C17.6144 7.11197 16.8499 7.87597 15.9074 7.87597C14.9644 7.87597 14.2004 7.11147 14.2004 6.16897C14.2004 5.22597 14.9649 4.46198 15.9074 4.46198C16.8499 4.46148 17.6144 5.22597 17.6144 6.16897Z" fill="white"/>
</svg>
