<svg width="348" height="247" viewBox="0 0 348 247" fill="none" xmlns="http://www.w3.org/2000/svg">
<path d="M347.191 0.0562725H0.0558472V246.83H347.191V0.0562725Z" fill="white"/>
<path d="M347.191 0.0545216H0.0558472V8.53276H347.191V0.0545216Z" fill="#455A64"/>
<path d="M6.74643 4.29405C6.74643 5.25373 5.96842 6.03173 5.00874 6.03173C4.04906 6.03173 3.27106 5.25373 3.27106 4.29405C3.27106 3.33437 4.04906 2.55637 5.00874 2.55637C5.96842 2.55637 6.74643 3.33437 6.74643 4.29405Z" fill="#C7C7C7"/>
<path d="M12.1035 6.03173C13.0632 6.03173 13.8412 5.25374 13.8412 4.29405C13.8412 3.33435 13.0632 2.55637 12.1035 2.55637C11.1438 2.55637 10.3658 3.33435 10.3658 4.29405C10.3658 5.25374 11.1438 6.03173 12.1035 6.03173Z" fill="white"/>
<path d="M19.1984 6.03173C20.1581 6.03173 20.9361 5.25374 20.9361 4.29405C20.9361 3.33435 20.1581 2.55637 19.1984 2.55637C18.2387 2.55637 17.4608 3.33435 17.4608 4.29405C17.4608 5.25374 18.2387 6.03173 19.1984 6.03173Z" fill="#FFC727"/>
</svg>
