<svg width="93" height="120" viewBox="0 0 93 120" fill="none" xmlns="http://www.w3.org/2000/svg">
<path d="M92.2643 1.1717H0.736481V119.203H92.2643V1.1717Z" fill="white"/>
<path d="M92.2637 119.203C92.1895 119.223 0.719596 119.277 0.647906 119.292C0.62591 119.271 0.549313 1.2165 0.53302 1.17169V0.968845H0.736687C0.836891 0.947664 92.2849 1.07149 92.3802 1.05601C92.4902 1.12118 92.1846 119.117 92.2637 119.203ZM92.2637 119.203L92.1472 1.17169C92.9358 1.40224 0.532224 1.33626 0.735891 1.37455L0.938737 1.17169L0.824672 119.203C0.223448 119.087 92.4185 119.19 92.2637 119.203Z" fill="#C7C7C7"/>
<path d="M89.4912 106.04H57.7045V114.506H89.4912V106.04Z" fill="white"/>
<path d="M89.4913 114.506C81.5687 114.571 65.6273 114.661 57.7047 114.68L57.5303 114.681L57.5295 114.506L57.501 106.04L57.5002 105.836L57.7038 105.837C57.7992 105.84 89.4897 105.954 89.5752 105.957L89.5744 106.04L89.4913 114.506ZM89.4913 114.506L89.4074 106.04L89.4913 106.124L57.7047 106.243L57.9075 106.04L57.879 114.505L57.7047 114.331L73.5516 114.393L89.4913 114.506Z" fill="#C7C7C7"/>
<path d="M3.50864 94.4486C17.0068 93.9011 30.6053 93.9011 44.1067 94.4486C30.6044 94.9969 17.0077 94.996 3.50864 94.4486Z" fill="#C7C7C7"/>
<path d="M3.50864 99.1354C22.3144 98.869 42.9996 98.8665 61.8062 99.1354C42.9996 99.4042 22.3152 99.4018 3.50864 99.1354Z" fill="#C7C7C7"/>
<path d="M89.491 3.57497H3.50864V89.5573H89.491V3.57497Z" fill="#EBEBEB"/>
<path d="M82.0139 14.8149C77.6847 12.0728 77.846 8.7538 79.0289 8.05481C80.5075 7.19453 81.6367 8.72691 82.0139 10.2055C82.3902 8.72691 83.5194 7.19453 84.9711 8.05481C86.1548 8.75461 86.3161 12.0728 82.0139 14.8149Z" fill="#FFC727"/>
<path d="M57.9787 49.2493C51.8947 50.191 48.8177 46.3995 48.8177 46.3995H44.1806C44.1806 46.3995 41.0971 50.1902 35.0197 49.2427C28.9415 48.2953 26.8063 41.4276 28.9415 36.5307C31.071 31.6345 31.9932 31.0781 32.6499 29.1074C33.4018 26.8459 35.0189 19.7885 35.8091 19.232C36.5994 18.6821 38.4438 19.2068 38.3867 20.1037C38.3362 21.0007 35.6006 31.8423 35.9159 32.4239C36.232 33.0056 39.9656 35.2166 41.6527 37.3714C43.3399 39.5319 44.4959 42.6912 46.4984 42.6912C48.4951 42.6912 49.6577 39.5319 51.3448 37.3714C53.0255 35.2166 56.7656 33.0056 57.0817 32.4239C57.3978 31.8423 54.6622 21.0007 54.6051 20.1037C54.5546 19.2068 56.3998 18.6821 57.1893 19.2378C57.9787 19.7877 59.5966 26.8443 60.3485 29.1066C60.9995 31.0781 61.9282 31.6337 64.0569 36.5299C66.1921 41.4276 64.0569 48.3018 57.9787 49.2493Z" fill="#FFC727"/>
<path d="M64.866 60.5397C64.3797 60.622 57.5878 62.2016 54.1124 65.8277C50.637 69.4611 49.292 73.3341 48.9002 73.7251C48.5018 74.1235 46.4994 74.1235 46.4994 74.1235C46.4994 74.1235 44.4969 74.1235 44.1051 73.7251C43.7075 73.3332 42.3617 69.4668 38.8863 65.8277C35.4117 62.2016 28.6256 60.622 28.1327 60.5397C27.6463 60.4574 27.9119 55.7193 28.7771 56.0346C33.7303 57.835 45.8362 58.0126 46.4994 58.0126C47.1625 58.0126 59.2684 57.8358 64.2216 56.0411C65.0868 55.725 65.3524 60.4639 64.866 60.5397Z" fill="#FFC727"/>
<path d="M33.7359 59.8171C33.7359 60.4444 33.2291 60.9511 32.6018 60.9511C31.9746 60.9511 31.4678 60.4444 31.4678 59.8171C31.4678 59.1898 31.9746 58.6831 32.6018 58.6831C33.2291 58.6831 33.7359 59.1898 33.7359 59.8171Z" fill="#FFC727"/>
<path d="M40.6868 59.8171C40.6868 60.4444 40.1801 60.9511 39.5528 60.9511C38.9255 60.9511 38.4188 60.4444 38.4188 59.8171C38.4188 59.1898 38.9255 58.6831 39.5528 58.6831C40.1801 58.6831 40.6868 59.1898 40.6868 59.8171Z" fill="#FFC727"/>
<path d="M44.1555 64.9666C44.1555 65.5939 43.6488 66.1006 43.0215 66.1006C42.3942 66.1006 41.8875 65.5939 41.8875 64.9666C41.8875 64.3393 42.3942 63.8326 43.0215 63.8326C43.6479 63.8326 44.1555 64.3393 44.1555 64.9666Z" fill="#FFC727"/>
<path d="M47.6373 70.156C47.6373 70.7833 47.1306 71.2901 46.5033 71.2901C45.876 71.2901 45.3693 70.7833 45.3693 70.156C45.3693 69.5288 45.876 69.022 46.5033 69.022C47.1306 69.022 47.6373 69.5296 47.6373 70.156Z" fill="#FFC727"/>
<path d="M47.6373 59.8171C47.6373 60.4444 47.1306 60.9511 46.5033 60.9511C45.876 60.9511 45.3693 60.4444 45.3693 59.8171C45.3693 59.1898 45.876 58.6831 46.5033 58.6831C47.1306 58.6831 47.6373 59.1898 47.6373 59.8171Z" fill="#FFC727"/>
<path d="M51.1064 64.9666C51.1064 65.5939 50.5997 66.1006 49.9724 66.1006C49.3451 66.1006 48.8384 65.5939 48.8384 64.9666C48.8384 64.3393 49.3451 63.8326 49.9724 63.8326C50.5989 63.8326 51.1064 64.3393 51.1064 64.9666Z" fill="#FFC727"/>
<path d="M54.5882 59.8171C54.5882 60.4444 54.0815 60.9511 53.4542 60.9511C52.8269 60.9511 52.3202 60.4444 52.3202 59.8171C52.3202 59.1898 52.8269 58.6831 53.4542 58.6831C54.0807 58.6831 54.5882 59.1898 54.5882 59.8171Z" fill="#FFC727"/>
<path d="M61.5249 59.8171C61.5249 60.4444 61.0182 60.9511 60.4048 60.9511C59.7775 60.9511 59.2708 60.4444 59.2708 59.8171C59.2708 59.1898 59.7775 58.6831 60.4048 58.6831C61.0182 58.6831 61.5249 59.1898 61.5249 59.8171Z" fill="#FFC727"/>
<path d="M33.7359 59.8171C33.7359 60.4444 33.2291 60.9511 32.6018 60.9511C31.9746 60.9511 31.4678 60.4444 31.4678 59.8171C31.4678 59.1898 31.9746 58.6831 32.6018 58.6831C33.2291 58.6831 33.7359 59.1898 33.7359 59.8171ZM39.5526 58.6831C38.9253 58.6831 38.4186 59.1898 38.4186 59.8171C38.4186 60.4444 38.9253 60.9511 39.5526 60.9511C40.1799 60.9511 40.6866 60.4444 40.6866 59.8171C40.6866 59.1898 40.1799 58.6831 39.5526 58.6831ZM46.5033 58.6831C45.876 58.6831 45.3693 59.1898 45.3693 59.8171C45.3693 60.4444 45.876 60.9511 46.5033 60.9511C47.1306 60.9511 47.6373 60.4444 47.6373 59.8171C47.6373 59.1898 47.1306 58.6831 46.5033 58.6831ZM53.454 58.6831C52.8267 58.6831 52.32 59.1898 52.32 59.8171C52.32 60.4444 52.8267 60.9511 53.454 60.9511C54.0813 60.9511 54.5881 60.4444 54.5881 59.8171C54.5881 59.1898 54.0805 58.6831 53.454 58.6831ZM60.4048 58.6831C59.7775 58.6831 59.2708 59.1898 59.2708 59.8171C59.2708 60.4444 59.7775 60.9511 60.4048 60.9511C61.0182 60.9511 61.525 60.4444 61.525 59.8171C61.525 59.1898 61.0182 58.6831 60.4048 58.6831ZM46.5033 69.022C45.876 69.022 45.3693 69.5287 45.3693 70.156C45.3693 70.7833 45.876 71.29 46.5033 71.29C47.1306 71.29 47.6373 70.7833 47.6373 70.156C47.6373 69.5296 47.1306 69.022 46.5033 69.022ZM43.0214 63.8326C42.3941 63.8326 41.8874 64.3393 41.8874 64.9666C41.8874 65.5939 42.3941 66.1006 43.0214 66.1006C43.6487 66.1006 44.1554 65.5939 44.1554 64.9666C44.1554 64.3393 43.6479 63.8326 43.0214 63.8326ZM49.9722 63.8326C49.3449 63.8326 48.8382 64.3393 48.8382 64.9666C48.8382 65.5939 49.3449 66.1006 49.9722 66.1006C50.5995 66.1006 51.1062 65.5939 51.1062 64.9666C51.1062 64.3393 50.5986 63.8326 49.9722 63.8326Z" fill="white"/>
<path d="M33.7359 29.8667C33.7359 30.494 33.2292 31.0007 32.6019 31.0007C32.3355 31.0007 32.0952 30.907 31.9078 30.7474C32.2011 30.2138 32.4414 29.7331 32.6549 29.1066C32.6948 28.9999 32.7216 28.8801 32.7616 28.7465C33.309 28.8264 33.7359 29.2932 33.7359 29.8667ZM60.3511 29.1066C60.3111 28.9999 60.2843 28.8932 60.2313 28.7596C59.6847 28.8264 59.2708 29.2932 59.2708 29.8667C59.2708 30.494 59.7775 31.0007 60.4048 31.0007C60.6582 31.0007 60.8985 30.907 61.0851 30.7474C60.791 30.2138 60.5645 29.7339 60.3511 29.1066ZM36.0748 23.5433C35.4492 23.5433 34.9416 24.0508 34.9416 24.6765C34.9416 25.3021 35.4492 25.8097 36.0748 25.8097C36.7005 25.8097 37.208 25.3021 37.208 24.6765C37.208 24.0508 36.7005 23.5433 36.0748 23.5433ZM56.9238 23.5433C56.2981 23.5433 55.7906 24.0508 55.7906 24.6765C55.7906 25.3021 56.2981 25.8097 56.9238 25.8097C57.5494 25.8097 58.057 25.3021 58.057 24.6765C58.057 24.0508 57.5494 23.5433 56.9238 23.5433ZM32.6003 39.0643C31.9746 39.0643 31.4671 39.5718 31.4671 40.1975C31.4671 40.8231 31.9746 41.3307 32.6003 41.3307C33.2259 41.3307 33.7334 40.8231 33.7334 40.1975C33.7326 39.571 33.2259 39.0643 32.6003 39.0643ZM39.5494 39.0643C38.9237 39.0643 38.4162 39.5718 38.4162 40.1975C38.4162 40.8231 38.9237 41.3307 39.5494 41.3307C40.175 41.3307 40.6826 40.8231 40.6826 40.1975C40.6826 39.571 40.175 39.0643 39.5494 39.0643ZM53.4492 39.0643C52.8235 39.0643 52.316 39.5718 52.316 40.1975C52.316 40.8231 52.8235 41.3307 53.4492 41.3307C54.0749 41.3307 54.5824 40.8231 54.5824 40.1975C54.5816 39.571 54.0749 39.0643 53.4492 39.0643ZM60.3983 39.0643C59.7727 39.0643 59.2651 39.5718 59.2651 40.1975C59.2651 40.8231 59.7727 41.3307 60.3983 41.3307C61.024 41.3307 61.5315 40.8231 61.5315 40.1975C61.5315 39.571 61.024 39.0643 60.3983 39.0643ZM29.9738 34.283C29.7204 34.8166 29.4271 35.4301 29.12 36.1372C29.7473 36.1372 30.254 35.6305 30.254 35.0162C30.254 34.736 30.1473 34.4826 29.9738 34.283ZM36.0748 33.8773C35.4492 33.8773 34.9416 34.3849 34.9416 35.0105C34.9416 35.6362 35.4492 36.1437 36.0748 36.1437C36.7005 36.1437 37.208 35.6362 37.208 35.0105C37.208 34.3849 36.7005 33.8773 36.0748 33.8773ZM56.9238 33.8773C56.2981 33.8773 55.7906 34.3849 55.7906 35.0105C55.7906 35.6362 56.2981 36.1437 56.9238 36.1437C57.5494 36.1437 58.057 35.6362 58.057 35.0105C58.057 34.3849 57.5494 33.8773 56.9238 33.8773ZM63.0191 34.283C62.8456 34.4834 62.7388 34.7368 62.7388 35.017C62.7388 35.6305 63.2456 36.138 63.8729 36.138C63.5665 35.4301 63.2863 34.8166 63.0191 34.283ZM29.12 44.2081C29.0263 44.2081 28.9334 44.2211 28.8528 44.248C29.133 44.9283 29.4801 45.5686 29.907 46.156C30.1204 45.9556 30.254 45.6623 30.254 45.3421C30.254 44.7156 29.7473 44.2081 29.12 44.2081ZM36.0748 44.2113C35.4492 44.2113 34.9416 44.7189 34.9416 45.3446C34.9416 45.9702 35.4492 46.4778 36.0748 46.4778C36.7005 46.4778 37.208 45.9702 37.208 45.3446C37.208 44.7181 36.7005 44.2113 36.0748 44.2113ZM43.0247 44.2113C42.3991 44.2113 41.8915 44.7189 41.8915 45.3446C41.8915 45.9702 42.3991 46.4778 43.0247 46.4778C43.6504 46.4778 44.1579 45.9702 44.1579 45.3446C44.1571 44.7181 43.6504 44.2113 43.0247 44.2113ZM49.9739 44.2113C49.3482 44.2113 48.8406 44.7189 48.8406 45.3446C48.8406 45.9702 49.3482 46.4778 49.9739 46.4778C50.5995 46.4778 51.107 45.9702 51.107 45.3446C51.107 44.7181 50.5995 44.2113 49.9739 44.2113ZM56.9238 44.2113C56.2981 44.2113 55.7906 44.7189 55.7906 45.3446C55.7906 45.9702 56.2981 46.4778 56.9238 46.4778C57.5494 46.4778 58.057 45.9702 58.057 45.3446C58.057 44.7181 57.5494 44.2113 56.9238 44.2113ZM63.8729 44.2081C63.2456 44.2081 62.7388 44.7148 62.7388 45.3421C62.7388 45.6623 62.8724 45.9556 63.0859 46.156C63.5258 45.5824 63.8729 44.9283 64.1401 44.248C64.0594 44.2219 63.9665 44.2081 63.8729 44.2081Z" fill="white"/>
</svg>
