<svg width="21" height="22" viewBox="0 0 21 22" fill="none" xmlns="http://www.w3.org/2000/svg">
<path d="M18.6324 21.0175H2.19833C1.13733 21.0175 0.277344 20.1575 0.277344 19.0965V2.66251C0.277344 1.60151 1.13733 0.741516 2.19833 0.741516H18.6324C19.6934 0.741516 20.5533 1.60151 20.5533 2.66251V19.0965C20.5538 20.157 19.6934 21.0175 18.6324 21.0175Z" fill="#FCBD01"/>
<path d="M6.46582 7.841H14.5933L13.7938 12.3585H7.09732" stroke="white" stroke-width="0.375" stroke-miterlimit="10" stroke-linecap="round" stroke-linejoin="round"/>
<path d="M4.21143 6.63849H6.25995L7.19394 13.9165L13.5719 13.9385" stroke="white" stroke-width="0.375" stroke-miterlimit="10" stroke-linecap="round" stroke-linejoin="round"/>
<path d="M9.02844 15.414C9.02844 15.8525 8.67294 16.208 8.23444 16.208C7.79594 16.208 7.44043 15.8525 7.44043 15.414C7.44043 14.9755 7.79594 14.62 8.23444 14.62C8.67294 14.62 9.02844 14.9755 9.02844 15.414Z" stroke="white" stroke-width="0.375" stroke-miterlimit="10" stroke-linecap="round" stroke-linejoin="round"/>
<path d="M13.4308 15.414C13.4308 15.8525 13.0753 16.208 12.6368 16.208C12.1983 16.208 11.8428 15.8525 11.8428 15.414C11.8428 14.9755 12.1983 14.62 12.6368 14.62C13.0753 14.62 13.4308 14.9755 13.4308 15.414Z" stroke="white" stroke-width="0.375" stroke-miterlimit="10" stroke-linecap="round" stroke-linejoin="round"/>
<path d="M8.89258 7.98651L9.16458 12.3585" stroke="white" stroke-width="0.375" stroke-miterlimit="10" stroke-linecap="round" stroke-linejoin="round"/>
<path d="M11.8573 7.98651L11.6133 12.3585" stroke="white" stroke-width="0.375" stroke-miterlimit="10" stroke-linecap="round" stroke-linejoin="round"/>
<path d="M6.71338 10.1725L14.1939 10.0995" stroke="white" stroke-width="0.375" stroke-miterlimit="10" stroke-linecap="round" stroke-linejoin="round"/>
<path d="M15.01 9.2925C16.2187 9.2925 17.1985 8.31267 17.1985 7.104C17.1985 5.89532 16.2187 4.9155 15.01 4.9155C13.8014 4.9155 12.8215 5.89532 12.8215 7.104C12.8215 8.31267 13.8014 9.2925 15.01 9.2925Z" fill="white"/>
</svg>
