<svg width="44" height="45" viewBox="0 0 44 45" fill="none" xmlns="http://www.w3.org/2000/svg">
<path d="M13.7533 35.8916H10.2441C4.87065 35.5077 2.45819 31.3772 2.45819 27.7035C2.45819 24.0298 4.87067 19.881 10.1527 19.5155C10.9021 19.4423 11.56 20.0272 11.6148 20.7948C11.6697 21.5442 11.1032 22.2022 10.3355 22.257C6.78981 22.5129 5.19973 25.1813 5.19973 27.7218C5.19973 30.2623 6.78981 32.9307 10.3355 33.1866H13.7533C14.5027 33.1866 15.1241 33.808 15.1241 34.5573C15.1241 35.3067 14.5027 35.8916 13.7533 35.8916Z" fill="#FCBD01"/>
<path d="M30.586 35.8914C30.5494 35.8914 30.5312 35.8914 30.4946 35.8914C29.7452 35.8914 29.0508 35.27 29.0508 34.5206C29.0508 33.7347 29.6356 33.1498 30.4032 33.1498C32.6513 33.1498 34.6618 32.3639 36.2336 30.9566C39.0848 28.471 39.2675 24.8887 38.4999 22.3665C37.7323 19.8625 35.5939 16.9931 31.8654 16.5361C31.2622 16.463 30.787 16.0061 30.6773 15.403C29.9462 11.0165 27.5886 7.98254 24.0063 6.88592C20.3144 5.73448 16.001 6.86765 13.3143 9.68229C10.7007 12.4055 10.0975 16.2254 11.6145 20.4291C11.8704 21.1419 11.505 21.9278 10.7922 22.1837C10.0794 22.4396 9.2934 22.074 9.03753 21.3612C7.19156 16.2071 8.03232 11.2724 11.3404 7.79977C14.7217 4.25405 20.1499 2.84671 24.8105 4.27231C29.0873 5.58825 32.1029 9.1157 33.1995 14.0139C36.928 14.8546 39.9255 17.6876 41.1135 21.5988C42.4111 25.8574 41.2414 30.2438 38.043 33.0219C36.0142 34.8496 33.364 35.8914 30.586 35.8914Z" fill="#FCBD01"/>
<path d="M22.0504 41.2641C18.3768 41.2641 14.9407 39.3084 13.0582 36.1465C12.8572 35.8358 12.6561 35.4703 12.4916 35.0682C11.8702 33.7705 11.5412 32.2901 11.5412 30.7548C11.5412 24.961 16.2566 20.2456 22.0504 20.2456C27.8442 20.2456 32.5596 24.961 32.5596 30.7548C32.5596 32.3084 32.2307 33.7705 31.5727 35.123C31.4265 35.4703 31.2255 35.8358 31.0062 36.1831C29.1602 39.3084 25.7241 41.2641 22.0504 41.2641ZM22.0504 22.9871C17.7736 22.9871 14.2827 26.478 14.2827 30.7548C14.2827 31.888 14.5203 32.9481 14.9773 33.9167C15.1235 34.2274 15.2514 34.4833 15.3976 34.7209C16.7866 37.0786 19.3271 38.5225 22.0321 38.5225C24.7371 38.5225 27.2776 37.0786 28.6484 34.7575C28.8129 34.4833 28.9591 34.2274 29.0688 33.9716C29.5623 32.9663 29.7998 31.9063 29.7998 30.7731C29.8181 26.478 26.3272 22.9871 22.0504 22.9871Z" fill="#FCBD01"/>
<path d="M21.0079 33.9363C20.6607 33.9363 20.3135 33.8083 20.0393 33.5342L18.2298 31.7247C17.6998 31.1947 17.6998 30.3174 18.2298 29.7874C18.7598 29.2574 19.6371 29.2574 20.1671 29.7874L21.0445 30.6647L23.9688 27.9597C24.5354 27.4479 25.3944 27.4845 25.9061 28.0328C26.4179 28.5811 26.3814 29.4584 25.8331 29.9702L21.9401 33.5707C21.6659 33.8083 21.3369 33.9363 21.0079 33.9363Z" fill="#FCBD01"/>
</svg>
