<svg width="299" height="15" viewBox="0 0 299 15" fill="none" xmlns="http://www.w3.org/2000/svg">
<path d="M250.825 2.38747H48.1751V13.7716H250.825V2.38747Z" fill="white"/>
<path d="M250.942 13.8881H48.0586V2.27179H250.941V13.8881H250.942Z" fill="white"/>
<path d="M250.942 13.8881C250.752 13.6991 47.6685 14.4405 47.8713 13.8881C47.8705 13.8873 47.8591 2.27098 47.8591 2.27098C47.6685 1.71131 250.769 2.41517 250.959 2.27016C250.958 2.27179 250.942 13.8881 250.942 13.8881ZM250.942 13.8881L250.925 2.27179C251.057 2.12923 47.2049 2.8331 48.2591 2.27261C48.2599 2.2718 48.2477 13.8881 48.2477 13.8881C46.9597 13.3561 251.277 14.0633 250.942 13.8881Z" fill="#C7C7C7"/>
<path d="M246.838 10.6343L245.997 11.2722L244.437 9.21357L243.867 8.46081C243.981 8.41682 244.091 8.35409 244.194 8.27589C244.392 8.12517 244.536 7.92965 244.626 7.71539L245.233 8.51376L246.838 10.6343Z" fill="#C7C7C7"/>
<path d="M245.181 5.78708C244.409 4.78097 242.967 4.59034 241.961 5.36264C240.955 6.13495 240.764 7.5769 241.536 8.58383C242.23 9.48893 243.464 9.73333 244.437 9.21358C244.547 9.15411 244.654 9.08649 244.755 9.00828C244.942 8.86409 245.102 8.69626 245.232 8.51377C245.799 7.71377 245.808 6.60745 245.181 5.78708ZM244.194 8.27507C244.091 8.3541 243.981 8.41602 243.867 8.46001C243.309 8.68323 242.652 8.5211 242.269 8.02171C241.808 7.41967 241.92 6.55613 242.522 6.09503C243.124 5.63393 243.986 5.74798 244.449 6.35002C244.758 6.7541 244.809 7.27629 244.626 7.71458C244.536 7.92884 244.392 8.12436 244.194 8.27507Z" fill="#C7C7C7"/>
<path d="M51.1665 4.62537H50.5555V11.5346H51.1665V4.62537Z" fill="#C7C7C7"/>
<path d="M10.1832 3.37241H0.841431V4.79318H10.1832V3.37241Z" fill="#C7C7C7"/>
<path d="M10.1831 11.3667H0.84137V12.7875H10.1831V11.3667Z" fill="#C7C7C7"/>
<path d="M10.1831 7.40664H0.84137V8.8266H10.1831V7.40664Z" fill="#C7C7C7"/>
<path d="M294.182 10.9822H285.363C285.197 10.9822 285.049 10.8755 284.997 10.7166L282.478 3.01314H280.423C280.21 3.01314 280.037 2.84043 280.037 2.62781C280.037 2.41518 280.21 2.24246 280.423 2.24246H282.758C282.924 2.24246 283.072 2.34919 283.123 2.50805L285.642 10.2115H294.182C294.394 10.2115 294.567 10.3842 294.567 10.5969C294.567 10.8095 294.394 10.9822 294.182 10.9822Z" fill="#FFC727"/>
<path d="M293.327 13.9166C292.645 13.9166 292.089 13.361 292.089 12.6783C292.089 11.9956 292.645 11.4401 293.327 11.4401C294.01 11.4401 294.566 11.9956 294.566 12.6783C294.566 13.361 294.01 13.9166 293.327 13.9166ZM293.327 12.2107C293.069 12.2107 292.86 12.4209 292.86 12.6783C292.86 12.9358 293.07 13.146 293.327 13.146C293.585 13.146 293.795 12.9358 293.795 12.6783C293.795 12.4209 293.585 12.2107 293.327 12.2107Z" fill="#FFC727"/>
<path d="M286.044 13.9166C285.361 13.9166 284.806 13.361 284.806 12.6783C284.806 11.9956 285.361 11.4401 286.044 11.4401C286.727 11.4401 287.282 11.9956 287.282 12.6783C287.282 13.361 286.727 13.9166 286.044 13.9166ZM286.044 12.2107C285.786 12.2107 285.577 12.4209 285.577 12.6783C285.577 12.9358 285.787 13.146 286.044 13.146C286.302 13.146 286.512 12.9358 286.512 12.6783C286.512 12.4209 286.302 12.2107 286.044 12.2107Z" fill="#FFC727"/>
<path d="M296.301 3.62659L294.339 9.78384H286.011L284.049 3.62659L290.55 3.63147L296.301 3.62659Z" fill="#FFC727"/>
<path d="M295.682 5.88077C297.05 5.88077 298.159 4.7716 298.159 3.40337C298.159 2.03514 297.05 0.925964 295.682 0.925964C294.313 0.925964 293.204 2.03514 293.204 3.40337C293.204 4.7716 294.313 5.88077 295.682 5.88077Z" fill="#455A64"/>
<path d="M296.196 3.14512C296.367 3.31294 296.451 3.53616 296.451 3.75612C296.451 3.97608 296.367 4.20011 296.196 4.37037C296.028 4.53819 295.805 4.62537 295.581 4.62537C295.361 4.62537 295.137 4.53819 294.97 4.37037C294.893 4.29379 294.893 4.16752 294.97 4.09094C295.046 4.01436 295.172 4.01436 295.249 4.09094C295.339 4.18218 295.458 4.227 295.581 4.227C295.703 4.227 295.822 4.18137 295.915 4.09094C296.01 3.99644 296.056 3.87832 296.056 3.75612C296.056 3.63392 296.01 3.51498 295.915 3.42455C295.825 3.33005 295.706 3.2885 295.584 3.28443C295.528 3.28769 295.475 3.26324 295.44 3.22169C295.437 3.22169 295.437 3.22169 295.437 3.21843C295.357 3.14185 295.357 3.01965 295.43 2.939L295.786 2.57566H295.22C295.111 2.57566 295.024 2.4885 295.024 2.37689C295.024 2.26854 295.111 2.18137 295.22 2.18137H296.249C296.361 2.18137 296.448 2.26854 296.448 2.37689C296.448 2.41192 296.438 2.44288 296.424 2.47139C296.413 2.4885 296.403 2.50642 296.389 2.52027L295.949 2.97403C296.042 3.01558 296.126 3.0718 296.196 3.14512Z" fill="white"/>
</svg>
