<svg width="16" height="16" viewBox="0 0 16 16" fill="none" xmlns="http://www.w3.org/2000/svg">
<path d="M6.0959 13.8547V11.8102C6.09589 11.2921 6.51719 10.8711 7.03904 10.8679H8.95515C9.47933 10.8679 9.90426 11.2897 9.90426 11.8102V11.8102V13.8488C9.90425 14.2982 10.2694 14.6634 10.722 14.6666H12.0293C12.6398 14.6682 13.2259 14.4285 13.6582 14.0005C14.0905 13.5724 14.3334 12.9912 14.3334 12.385V6.57723C14.3334 6.08759 14.1148 5.62314 13.7365 5.309L9.2954 1.78284C8.51909 1.16608 7.41033 1.186 6.65701 1.83025L2.31142 5.309C1.91524 5.61388 1.67845 6.0797 1.66675 6.57723V12.3791C1.66675 13.6425 2.69834 14.6666 3.97086 14.6666H5.24827C5.4662 14.6682 5.67574 14.5834 5.8304 14.4309C5.98505 14.2785 6.07203 14.0711 6.07203 13.8547H6.0959Z" fill="#5570F1"/>
</svg>
