<svg width="21" height="21" viewBox="0 0 21 21" fill="none" xmlns="http://www.w3.org/2000/svg">
<g clip-path="url(#clip0_772_1378)">
<path d="M10.598 2.06952C5.9031 2.06952 2.09277 5.87985 2.09277 10.5747C2.09277 15.2696 5.9031 19.0799 10.598 19.0799C15.2928 19.0799 19.1032 15.2696 19.1032 10.5747C19.1032 5.87985 15.2928 2.06952 10.598 2.06952ZM11.4485 16.5284H9.74746V14.8273H11.4485V16.5284ZM13.2091 9.93683L12.4436 10.7193C11.8312 11.3402 11.4485 11.8505 11.4485 13.1263H9.74746V12.701C9.74746 11.7654 10.1302 10.9149 10.7426 10.294L11.7972 9.22239C12.1119 8.91621 12.299 8.49095 12.299 8.02316C12.299 7.08759 11.5335 6.32212 10.598 6.32212C9.6624 6.32212 8.89694 7.08759 8.89694 8.02316H7.19589C7.19589 6.14351 8.71833 4.62108 10.598 4.62108C12.4776 4.62108 14.0001 6.14351 14.0001 8.02316C14.0001 8.77162 13.6939 9.45203 13.2091 9.93683Z" fill="white"/>
</g>
<defs>
<clipPath id="clip0_772_1378">
<rect width="20.4125" height="20.4125" fill="white" transform="translate(0.391724 0.3685)"/>
</clipPath>
</defs>
</svg>
