<svg width="24" height="24" viewBox="0 0 24 24" fill="none" xmlns="http://www.w3.org/2000/svg">
<path d="M9.99686 17.7195V17.7195C9.63142 18.7034 10.3592 19.75 11.4087 19.75H18.0324C18.5798 19.75 18.8536 19.75 19.0572 19.7162C20.4445 19.4855 21.3687 18.1564 21.1018 16.7756C21.0626 16.573 20.9673 16.3164 20.7767 15.8031V15.8031C20.618 15.3759 20.5387 15.1623 20.4464 14.9759C19.8378 13.7459 18.6411 12.9139 17.2763 12.7716C17.0694 12.75 16.8415 12.75 16.3857 12.75H14.6002C14.3872 12.75 14.2806 12.75 14.1748 12.7556C13.9084 12.7697 13.644 12.8105 13.3857 12.8773C13.2831 12.9038 13.1815 12.9358 12.9784 13V13M8.32275 8.25C7.21818 8.25 6.32275 7.35457 6.32275 6.25C6.32275 5.14543 7.21818 4.25 8.32275 4.25C9.42732 4.25 10.3228 5.14543 10.3228 6.25C10.3228 7.35457 9.42732 8.25 8.32275 8.25ZM15.8228 10.25C14.7182 10.25 13.8228 9.35457 13.8228 8.25C13.8228 7.14543 14.7182 6.25 15.8228 6.25C16.9273 6.25 17.8228 7.14543 17.8228 8.25C17.8228 9.35457 16.9273 10.25 15.8228 10.25ZM5.953 17.75H10.5324C11.0798 17.75 11.3536 17.75 11.5572 17.7162C12.9445 17.4855 13.8687 16.1564 13.6018 14.7756C13.5626 14.573 13.4673 14.3164 13.2767 13.8031V13.8031C13.118 13.3759 13.0387 13.1623 12.9464 12.9759C12.3378 11.7459 11.1411 10.9139 9.77626 10.7716C9.56938 10.75 9.3415 10.75 8.88574 10.75H7.59961C7.14385 10.75 6.91597 10.75 6.7091 10.7716C5.34423 10.9139 4.14759 11.7459 3.53894 12.9759C3.44669 13.1623 3.36734 13.3759 3.20865 13.8031V13.8031C3.01802 14.3164 2.92271 14.573 2.88355 14.7756C2.61669 16.1564 3.54086 17.4855 4.92818 17.7162C5.13175 17.75 5.4055 17.75 5.953 17.75Z" stroke="#9FAAC9" stroke-width="1.5" stroke-linejoin="round"/>
</svg>
