<svg width="41" height="71" viewBox="0 0 41 71" fill="none" xmlns="http://www.w3.org/2000/svg">
<path d="M34.8448 1.93402C31.2778 3.78202 28.5423 6.96302 26.5753 10.466C24.6083 13.969 23.3408 17.8125 22.0853 21.629L20.9868 41.3095C25.1373 34.2485 28.4688 25.9475 29.3688 17.8065C28.4483 17.7245 27.5273 17.6425 26.6068 17.5605C28.4588 17.278 30.0133 15.936 31.0023 14.345C31.9913 12.754 32.5003 10.919 32.9973 9.11302C31.8738 9.28002 30.7508 9.44701 29.6273 9.61401C32.2663 7.85251 34.1793 5.03652 34.8448 1.93402Z" fill="#455A64"/>
<g opacity="0.1">
<path d="M34.8448 1.93402C31.2778 3.78202 28.5423 6.96302 26.5753 10.466C24.6083 13.969 23.3408 17.8125 22.0853 21.629L20.9868 41.3095C25.1373 34.2485 28.4688 25.9475 29.3688 17.8065C28.4483 17.7245 27.5273 17.6425 26.6068 17.5605C28.4588 17.278 30.0133 15.936 31.0023 14.345C31.9913 12.754 32.5003 10.919 32.9973 9.11302C31.8738 9.28002 30.7508 9.44701 29.6273 9.61401C32.2663 7.85251 34.1793 5.03652 34.8448 1.93402Z" fill="black"/>
</g>
<path d="M20.3724 45.921C20.3724 45.921 11.3634 35.138 11.4674 24.844H15.1069C15.1069 24.844 11.1539 22.2445 11.4669 20.789C11.7799 19.3335 11.8839 13.8225 11.8839 13.8225L15.2114 14.6545C15.2114 14.6545 12.7159 13.4065 12.4039 11.431C12.0919 9.4555 13.1319 0.304993 13.1319 0.304993C13.1319 0.304993 17.1869 4.568 18.4349 8.9355C19.6824 13.3025 22.9579 18.3975 21.9959 31.707C21.0334 45.016 20.3724 45.921 20.3724 45.921Z" fill="#455A64"/>
<path d="M24.9395 46.939C24.9395 46.939 34.7 40.437 36.8685 32.138L33.9425 31.342C33.9425 31.342 37.6895 30.117 37.7565 28.878C37.8235 27.639 38.9455 23.186 38.9455 23.186L36.0885 23.127C36.0885 23.127 38.368 22.67 39.051 21.15C39.734 19.63 40.9 12.046 40.9 12.046C40.9 12.046 36.707 14.586 34.7485 17.8245C32.79 21.0625 29.042 24.442 26.9035 35.353C24.7645 46.263 24.9395 46.939 24.9395 46.939Z" fill="#455A64"/>
<path d="M15.5921 9.7065C15.5966 9.7055 15.6091 9.74301 15.6291 9.81751C15.6516 9.90701 15.6786 10.016 15.7121 10.1485C15.7846 10.4625 15.8826 10.8885 16.0066 11.4265C16.2601 12.537 16.5951 14.1505 16.9786 16.1505C17.7501 20.1495 18.6601 25.7055 19.3766 31.8795C20.0881 38.056 20.4696 43.674 20.6306 47.7435C20.7136 49.778 20.7556 51.4255 20.7621 52.5645C20.7641 53.1165 20.7661 53.5535 20.7671 53.8755C20.7651 54.012 20.7631 54.124 20.7616 54.2165C20.7591 54.2935 20.7556 54.333 20.7511 54.333C20.7466 54.333 20.7411 54.294 20.7351 54.217C20.7296 54.1245 20.7226 54.013 20.7146 53.8765C20.7011 53.555 20.6831 53.118 20.6606 52.567C20.6231 51.4295 20.5531 49.784 20.4466 47.7525C20.2386 43.6885 19.8286 38.0795 19.1176 31.91C18.4021 25.743 17.5221 20.1885 16.7971 16.1845C16.4371 14.182 16.1301 12.564 15.9071 11.4475C15.8036 10.9055 15.7211 10.476 15.6606 10.16C15.6376 10.025 15.6186 9.91501 15.6031 9.82351C15.5916 9.74701 15.5876 9.7075 15.5921 9.7065Z" fill="#263238"/>
<path d="M19.1225 52.5245C19.1225 52.5245 10.878 43.17 8.31849 37.515L10.251 36.6895C8.84998 36.9205 7.41499 36.3185 6.32899 35.4045C5.24299 34.4905 4.44548 33.2875 3.66298 32.103L6.20898 31.673C3.89398 31.0235 1.85448 29.4435 0.646484 27.3645C3.65048 27.8585 6.36848 29.5085 8.60798 31.571C10.422 33.241 11.9575 35.18 13.4325 37.161C14.152 38.1275 14.7815 39.157 15.306 40.2415C16.691 43.1045 19.1275 49.089 19.1225 52.5245Z" fill="#455A64"/>
<path d="M36.9984 17.49C37.0064 17.494 36.9524 17.622 36.8419 17.8615C36.7184 18.1215 36.5539 18.468 36.3479 18.903C35.9109 19.8035 35.2894 21.1115 34.5354 22.7345C33.0259 25.979 31.0334 30.5045 29.0624 35.596C27.0949 40.6905 25.5244 45.38 24.4589 48.796C23.9249 50.5035 23.5049 51.8895 23.2224 52.85C23.0824 53.3105 22.9709 53.6775 22.8874 53.953C22.8079 54.2045 22.7619 54.3355 22.7534 54.333C22.7449 54.3305 22.7739 54.195 22.8369 53.939C22.9089 53.6605 23.0049 53.2885 23.1249 52.8225C23.3774 51.8535 23.7709 50.4585 24.2829 48.7425C25.3044 45.3095 26.8499 40.604 28.8199 35.5025C30.7934 30.4045 32.8159 25.8835 34.3694 22.6565C35.1454 21.0425 35.7924 19.7455 36.2579 18.8585C36.4824 18.4325 36.6619 18.093 36.7959 17.8385C36.9204 17.6055 36.9899 17.486 36.9984 17.49Z" fill="#263238"/>
<path d="M19.8219 56.533C19.8039 56.535 19.7559 56.2975 19.6839 55.867C19.6159 55.436 19.5034 54.8145 19.3489 54.051C19.0414 52.524 18.5074 50.4345 17.6704 48.2105C16.8284 45.9875 15.8479 44.066 15.0694 42.717C14.6809 42.042 14.3549 41.501 14.1209 41.133C13.8904 40.7625 13.7694 40.5525 13.7844 40.542C13.7989 40.5315 13.9479 40.7225 14.2054 41.0765C14.4659 41.4285 14.8174 41.956 15.2279 42.623C16.0509 43.955 17.0659 45.8785 17.9139 48.1185C18.7574 50.3595 19.2674 52.4735 19.5299 54.017C19.6624 54.789 19.7474 55.417 19.7849 55.8535C19.8259 56.289 19.8399 56.5305 19.8219 56.533Z" fill="#263238"/>
<path d="M30.7005 54.3325H12.6565V58.0135H30.7005V54.3325Z" fill="#FCBD01"/>
<path d="M14.376 58.013L16.328 70.394H27.231L29.0505 58.013H14.376Z" fill="#FCBD01"/>
<path d="M29.5939 58.013C29.5939 58.085 26.1804 58.143 21.9709 58.143C17.7599 58.143 14.3469 58.0845 14.3469 58.013C14.3469 57.941 17.7599 57.883 21.9709 57.883C26.1804 57.883 29.5939 57.9415 29.5939 58.013Z" fill="#263238"/>
</svg>
