<svg width="48" height="117" viewBox="0 0 48 117" fill="none" xmlns="http://www.w3.org/2000/svg">
<path d="M11.521 48.7681C10.4497 44.607 11.7415 43.0219 13.2575 41.3615C14.7735 39.701 14.5961 36.927 14.5961 36.927C14.5961 36.927 16.9523 41.6126 16.2611 47.1537C15.5707 52.6948 12.3036 51.8063 11.521 48.7681Z" fill="#263238"/>
<path d="M18.1059 82.3304C16.5162 79.6655 9.74855 74.0437 4.60986 76.2517C8.71866 77.959 13.2506 88.3454 19.3309 87.91C18.2849 83.1445 18.1059 82.3304 18.1059 82.3304Z" fill="#263238"/>
<path d="M22.8898 105.4C22.565 105.4 22.2693 105.178 22.1887 104.849C21.1987 100.783 12.4189 64.3769 8.9806 38.5329C8.92761 38.1374 9.20561 37.7742 9.60113 37.7219C9.99895 37.6643 10.3599 37.9469 10.4121 38.3425C13.8413 64.1119 22.6042 100.449 23.5926 104.507C23.687 104.895 23.4489 105.286 23.0619 105.38C23.0035 105.393 22.9459 105.4 22.8898 105.4Z" fill="#FCBD01"/>
<path d="M10.7615 40.1027C10.8552 37.0538 9.43137 35.1768 5.85863 34.8488C2.28589 34.5209 1.15616 33.0317 0.48877 31.6417C1.69376 38.6612 10.1103 40.4168 10.9297 43.882C10.7615 41.2862 10.7615 40.1027 10.7615 40.1027Z" fill="#FCBD01"/>
<path d="M12.3634 51.6849C12.0692 48.4885 9.48948 48.0492 6.55112 47.6637C3.61275 47.2781 2.6374 45.3934 2.6374 45.3934C2.6374 45.3934 1.30109 49.5192 4.7663 52.8062C8.23152 56.0932 12.5784 54.0189 12.3634 51.6849Z" fill="#FCBD01"/>
<path d="M17.252 79.8912C16.7451 76.3216 19.1935 74.8439 18.8141 69.6039C25.8283 81.5931 18.0477 85.493 17.252 79.8912Z" fill="#FCBD01"/>
<path d="M13.9696 65.3284C11.9905 62.3148 9.17655 62.8247 5.9978 58.6414C8.65892 72.2734 17.0754 70.057 13.9696 65.3284Z" fill="#FCBD01"/>
<path d="M28.7546 66.0427C28.929 61.2227 24.46 58.6799 21.0393 53.863C23.1191 63.4499 28.4812 73.606 28.7546 66.0427Z" fill="#263238"/>
<path d="M26.5556 101.06C26.5333 101.06 26.5111 101.06 26.488 101.058C26.0211 101.021 25.6716 100.613 25.7085 100.145C26.508 90.0189 29.3334 46.3727 28.5424 17.8346C28.5293 17.3661 28.8988 16.9759 29.3672 16.9629C29.8641 16.9575 30.2259 17.3192 30.2389 17.7877C31.0315 46.4011 28.2014 90.1333 27.4004 100.279C27.3658 100.722 26.9941 101.06 26.5556 101.06Z" fill="#FCBD01"/>
<path d="M28.7452 20.1232C27.6723 14.2841 29.8634 10.2559 36.6426 8.57938C43.4217 6.90206 45.1589 3.70719 46.036 0.837173C45.771 14.6957 30.0892 20.5364 29.5263 27.4445C29.0916 22.3996 28.7452 20.1232 28.7452 20.1232Z" fill="#FCBD01"/>
<path d="M29.2659 31.9281C30.3511 24.9293 25.0664 22.6061 18.9854 20.2054C12.9044 17.8046 11.8284 13.2473 11.8284 13.2473C11.8284 13.2473 6.75502 21.3597 12.4075 30.2523C18.06 39.145 28.4733 37.0376 29.2659 31.9281Z" fill="#FCBD01"/>
<path d="M29.2341 49.8102C30.4007 44.2568 35.0194 44.0103 40.2572 43.9312C45.4949 43.8521 47.5908 40.7401 47.5908 40.7401C47.5908 40.7401 49.0984 48.2566 42.3461 53.3231C35.5924 58.3903 28.3824 53.8645 29.2341 49.8102Z" fill="#FCBD01"/>
<path d="M28.258 76.7878C29.5283 73.3709 36.1538 65.439 42.5597 66.899C38.1752 69.7437 35.1447 82.706 28.0269 83.4939C28.2242 77.7662 28.258 76.7878 28.258 76.7878Z" fill="#FCBD01"/>
<path d="M34.3832 93.5647H13.0105C11.8255 93.5647 10.9738 94.7052 11.3101 95.8411L17.0947 115.393C17.3175 116.146 18.0094 116.663 18.7951 116.663H28.5986C29.3842 116.663 30.0762 116.146 30.299 115.393L36.0835 95.8411C36.4191 94.7052 35.5682 93.5647 34.3832 93.5647Z" fill="#FCBD01"/>
<path opacity="0.2" d="M34.3832 93.5647H13.0105C11.8255 93.5647 10.9738 94.7052 11.3101 95.8411L17.0947 115.393C17.3175 116.146 18.0094 116.663 18.7951 116.663H28.5986C29.3842 116.663 30.0762 116.146 30.299 115.393L36.0835 95.8411C36.4191 94.7052 35.5682 93.5647 34.3832 93.5647Z" fill="#FCBD01"/>
<path opacity="0.7" d="M34.3832 93.5647H13.0105C11.8255 93.5647 10.9738 94.7052 11.3101 95.8411L17.0947 115.393C17.3175 116.146 18.0094 116.663 18.7951 116.663H28.5986C29.3842 116.663 30.0762 116.146 30.299 115.393L36.0835 95.8411C36.4191 94.7052 35.5682 93.5647 34.3832 93.5647Z" fill="white"/>
</svg>
