<svg width="45" height="38" viewBox="0 0 45 38" fill="none" xmlns="http://www.w3.org/2000/svg">
<path d="M12.9425 16.712C12.9425 16.712 9.28555 16.9235 8.99005 17.562C8.99005 17.562 8.94304 20.254 11.53 22.9655L11.02 24.0685L11.0175 25.8635C12.22 23.5315 13.5635 19.959 13.5635 19.959C13.5635 19.959 13.623 17.45 12.9425 16.712Z" fill="#455A64"/>
<g opacity="0.3">
<path d="M12.812 16.95C12.812 16.95 11.535 20.265 12.3175 22.6525C12.3175 22.6525 14.0715 19.723 12.812 16.95Z" fill="black"/>
</g>
<path d="M18.5625 21.176C18.5625 21.176 16.8655 17.9295 16.162 17.923C16.162 17.923 13.689 18.9875 12.281 22.4605L11.0655 22.449C11.0655 22.449 10.42 19.66 7.17151 18.1265C7.17151 18.1265 5.31701 21.468 5.25351 21.435C5.19001 21.4025 6.80801 23.048 9.42851 23.185C12.049 23.322 15.8575 23.0775 15.8575 23.0775C15.8575 23.0775 18.17 22.1 18.5625 21.176Z" fill="#455A64"/>
<g opacity="0.3">
<path d="M10.4355 22.9011C10.4355 22.9011 7.69302 21.3186 5.47852 21.4666C5.47852 21.4666 8.04652 23.6291 10.4355 22.9011Z" fill="black"/>
</g>
<g opacity="0.3">
<path d="M18.2921 21.155C18.2921 21.155 14.7451 21.3545 12.8911 23.0495C12.8911 23.0495 16.2826 23.4435 18.2921 21.155Z" fill="black"/>
</g>
<path d="M23.896 23.07L22.927 37.6335L0.446014 37.423L0.27002 22.849L23.896 23.07Z" fill="#FCBD01"/>
<g opacity="0.3">
<path d="M19.6292 23.03L19.4927 37.601L22.9272 37.6335L23.8962 23.07L19.6292 23.03Z" fill="black"/>
</g>
<path d="M22.2061 23.0545L21.4971 37.62L20.7166 37.6125L20.8531 23.0415L22.2061 23.0545Z" fill="#455A64"/>
<path d="M9.21388 22.9285L9.0769 37.5L10.9504 37.5176L11.0874 22.9461L9.21388 22.9285Z" fill="#455A64"/>
<path d="M23.3896 29.2675H0.347656V30.681H23.3896V29.2675Z" fill="#455A64"/>
<path d="M35.0865 9.12802C35.034 9.14402 35.0275 7.77501 34.3925 5.80601C34.0735 4.83351 33.5745 3.7185 32.8 2.7555C32.038 1.7915 30.92 1.074 29.69 1.068C28.46 1.062 27.338 1.76951 26.5715 2.72851C25.793 3.68601 25.2905 4.79851 24.9685 5.76951C24.328 7.73501 24.318 9.104 24.2655 9.0875C24.2585 9.0865 24.2585 9.00351 24.2655 8.84551C24.2705 8.68701 24.285 8.45401 24.319 8.15551C24.3875 7.56151 24.5175 6.69602 24.835 5.69502C25.146 4.69752 25.6445 3.54801 26.4425 2.54751C27.227 1.54551 28.4015 0.791506 29.691 0.799006C30.98 0.803506 32.15 1.56801 32.93 2.57501C33.7235 3.58051 34.2185 4.73252 34.5265 5.73152C34.8405 6.73402 34.9685 7.60001 35.0355 8.19451C35.069 8.49251 35.083 8.72602 35.0875 8.88452C35.0935 9.04402 35.0935 9.12702 35.0865 9.12802Z" fill="#263238"/>
<path d="M36.9549 9.12802C36.9024 9.14402 36.8959 7.77501 36.2609 5.80601C35.9419 4.83351 35.4429 3.7185 34.6684 2.7555C33.9064 1.7915 32.7884 1.074 31.5584 1.068C30.3284 1.062 29.2059 1.76951 28.4399 2.72851C27.6614 3.68601 27.1589 4.79851 26.8369 5.76951C26.1964 7.73501 26.1864 9.104 26.1339 9.0875C26.1269 9.0865 26.1269 9.00351 26.1339 8.84551C26.1389 8.68701 26.1534 8.45401 26.1874 8.15551C26.2559 7.56151 26.3859 6.69602 26.7034 5.69502C27.0144 4.69752 27.5129 3.54801 28.3109 2.54751C29.0954 1.54551 30.2699 0.791506 31.5594 0.799006C32.8484 0.803506 34.0184 1.56801 34.7984 2.57501C35.5919 3.58051 36.0869 4.73252 36.3949 5.73152C36.7089 6.73402 36.8369 7.60001 36.9039 8.19451C36.9374 8.49251 36.9514 8.72602 36.9559 8.88452C36.9619 9.04402 36.9619 9.12702 36.9549 9.12802Z" fill="#263238"/>
<path d="M17.9844 7.68704L39.0859 7.51904L39.5464 37.5055H15.8669L17.9844 7.68704Z" fill="#FCBD01"/>
<path d="M39.0859 7.51904H41.7344L44.0154 37.5055H39.5464L39.0859 7.51904Z" fill="#FCBD01"/>
<path d="M35.4873 17.7045H21.6729V20.7345H35.4873V17.7045Z" fill="white"/>
<g opacity="0.3">
<path d="M39.0859 7.51904H41.7344L44.0154 37.5055H39.5464L39.0859 7.51904Z" fill="black"/>
</g>
<path d="M15.867 37.5055C15.7955 37.5005 16.0865 32.3195 16.517 25.934C16.948 19.5465 17.3555 14.3745 17.427 14.379C17.4985 14.384 17.2075 19.564 16.7765 25.9515C16.346 32.3365 15.939 37.51 15.867 37.5055Z" fill="#263238"/>
</svg>
