<svg width="144" height="108" viewBox="0 0 144 108" fill="none" xmlns="http://www.w3.org/2000/svg">
<path d="M109.343 84.4051C109.431 84.3863 118.254 82.5867 127.292 83.4601C135.322 84.2364 142.71 88.8923 143.42 93.6238C143.788 96.0678 142.26 98.1347 139.121 99.4446C129.231 103.568 109.955 85.8984 109.139 85.1432L108.525 84.5753L109.343 84.4051ZM127.209 84.3179C119.925 83.614 112.778 84.6731 110.369 85.091C113.842 88.1558 130.374 102.158 138.788 98.6495C141.569 97.4902 142.876 95.7974 142.568 93.7526C142.4 92.6373 141.73 91.4373 140.658 90.2764C138.062 87.465 133.108 84.8882 127.209 84.3179Z" fill="#263238"/>
<path d="M33.5521 1.70826C34.3553 0.399907 36.0792 0.0153878 37.3826 0.830054L115.022 49.5634C115.739 50.031 116.224 50.7927 116.305 51.6547L119.037 78.8083L119.081 79.1953L119.14 79.9024L119.17 80.2177L120.207 90.4923C120.352 91.7525 119.597 92.9436 118.403 93.3843L108.593 96.955L107.711 97.2727L81.7249 106.732C80.9152 107.036 80.0052 106.935 79.2826 106.478L1.65787 57.7394C0.344632 56.9207 -0.0447786 55.2074 0.774776 53.8934L33.5521 1.70826Z" fill="white"/>
<path d="M11.0038 37.811L5.36716 46.8367L2.54841 51.3492L1.13904 53.6058C0.89627 53.9879 0.673052 54.3357 0.583439 54.7512C0.487308 55.1577 0.482421 55.5871 0.581811 55.9928C0.683644 56.3976 0.877533 56.7789 1.15126 57.0934C1.42417 57.4127 1.78426 57.6229 2.16878 57.8616L4.42541 59.271L8.93866 62.0889L17.9652 67.7248L54.0712 90.2674L72.1242 101.539L76.6375 104.357L78.8941 105.766L79.4586 106.118C79.6297 106.227 79.7918 106.307 79.9735 106.371C80.3312 106.496 80.7206 106.532 81.0945 106.478C81.2859 106.45 81.4529 106.402 81.6517 106.327L82.2766 106.098L83.5255 105.64L86.0232 104.724L91.0196 102.894L111.039 95.667L116.043 93.8601C116.859 93.5587 117.75 93.2589 118.505 92.955C119.206 92.6242 119.728 91.9342 119.845 91.1684C119.87 90.977 119.886 90.7855 119.864 90.5892L119.801 89.9342L119.671 88.6104L119.41 85.9619L118.889 80.6649L116.822 59.4836L116.302 54.1883L116.04 51.5528C115.926 50.743 115.412 50.0433 114.667 49.6286L105.669 43.9487L69.6753 21.2293L51.6785 9.86959L42.6797 4.18974L38.1803 1.34981C37.8015 1.1217 37.4414 0.855303 37.043 0.665486C36.6406 0.485444 36.1958 0.390942 35.7534 0.417826C34.8662 0.453671 34.0157 0.950617 33.5506 1.70989L11.0038 37.811ZM35.7542 0.403164C36.1982 0.373836 36.6463 0.46589 37.0528 0.645932C37.4569 0.835749 37.8153 1.09889 38.1966 1.32536L42.7099 4.14248L51.7372 9.77753L69.7918 21.0468L105.901 43.5862L114.928 49.2213C115.737 49.6587 116.405 50.5166 116.533 51.4795L116.811 54.1369L117.357 59.429L119.531 80.6006L120.079 85.891L120.352 88.5362L120.489 89.8593L120.556 90.5281C120.584 90.7733 120.568 91.0283 120.534 91.2752C120.387 92.2699 119.719 93.1595 118.817 93.5929C117.93 93.9579 117.137 94.2202 116.291 94.5387L111.296 96.3717L91.3153 103.698L86.3124 105.507L83.8106 106.411L82.5593 106.863L81.9336 107.089C81.7177 107.17 81.457 107.246 81.2085 107.278C80.7051 107.349 80.1853 107.298 79.7071 107.128C79.47 107.045 79.2338 106.924 79.0318 106.795L78.4696 106.439L76.2203 105.019L71.7218 102.179L53.7266 90.8165L17.7354 68.0914L8.73825 62.4099L4.23966 59.5691L1.99037 58.1484C1.6254 57.9194 1.20829 57.6734 0.901973 57.3117C0.594843 56.9549 0.378143 56.5247 0.266534 56.0693C0.157368 55.6131 0.164699 55.1308 0.275493 54.6763C0.374883 54.2168 0.642911 53.8037 0.875905 53.442L2.29668 51.1927L5.13824 46.6942L10.8214 37.697L33.553 1.70907C34.0133 0.947359 34.863 0.443897 35.7542 0.403164Z" fill="#EBEBEB"/>
<path d="M110.005 81.9407C109.793 81.6996 109.555 81.4837 109.276 81.2979C109.26 81.2767 109.224 81.271 109.199 81.245L109.189 81.2393C107.474 80.1696 105.191 80.6763 104.116 82.4026C103.047 84.1183 103.559 86.3904 105.28 87.4756L105.351 87.513C105.55 87.6303 105.754 87.7371 105.964 87.8087C106.092 87.8625 106.215 87.9016 106.343 87.9293C107.851 88.3041 109.486 87.6914 110.357 86.3016C111.225 84.8963 111.043 83.1358 110.005 81.9407Z" fill="white"/>
<path d="M110.396 86.5379C109.955 87.2597 109.258 87.8413 108.436 88.1493C107.608 88.4637 106.695 88.4922 105.805 88.1835L105.832 88.1941L105.448 88.0214L105.084 87.8479L105.078 87.8454L105.055 87.8316C104.134 87.2776 103.47 86.3171 103.256 85.2703C103.036 84.2218 103.283 83.1032 103.884 82.2584C104.474 81.4038 105.406 80.8271 106.386 80.6633C107.368 80.4979 108.381 80.7073 109.195 81.2311L109.204 81.2368L109.207 81.2393C109.225 81.2613 109.256 81.2645 109.283 81.2939L109.281 81.2914C109.551 81.4747 109.793 81.6963 110.004 81.9432C111.089 83.1521 111.296 85.0829 110.396 86.5379ZM109.269 81.3069L109.266 81.3036C109.252 81.2857 109.215 81.2784 109.191 81.2531L109.194 81.2556L109.184 81.2507L109.183 81.2499C108.363 80.748 107.335 80.6169 106.438 80.8849C105.536 81.1415 104.773 81.7599 104.35 82.5468C103.924 83.3346 103.831 84.2592 104.048 85.0886C104.257 85.9236 104.789 86.6519 105.503 87.122L105.475 87.1057L105.793 87.267L106.094 87.4242L106.122 87.4348C106.748 87.6931 107.542 87.7591 108.254 87.5774C108.977 87.3957 109.648 86.9623 110.124 86.3505C110.596 85.7419 110.886 84.955 110.856 84.1525C110.846 83.3501 110.527 82.5574 110.004 81.9407C109.788 81.6987 109.542 81.4829 109.269 81.3069Z" fill="#EBEBEB"/>
<path d="M35.2874 7.2146L6.49705 53.0706C5.70764 54.3341 6.13371 56.0245 7.44125 56.8506L78.8525 101.683C79.5906 102.147 80.4712 102.252 81.2753 101.984L114.343 90.7725C115.534 90.3684 116.259 89.2124 116.108 87.9652L115.142 80.1232L115.038 79.2873L111.831 53.315C111.728 52.4726 111.244 51.7247 110.511 51.2612L39.1 6.42844C37.786 5.60807 36.0752 5.95756 35.2874 7.2146ZM38.8393 6.84636L110.251 51.6783C110.853 52.0571 111.262 52.6901 111.344 53.3761L114.55 79.3541L114.657 80.2153L115.622 88.0263C115.686 88.5322 115.569 89.0242 115.316 89.4242C115.057 89.8299 114.67 90.1436 114.187 90.309L81.1197 101.52C80.4696 101.742 79.7169 101.643 79.1132 101.265L7.70194 56.4335C6.61925 55.7549 6.26161 54.3626 6.90846 53.3304L35.7037 7.47529C36.3505 6.44962 37.7574 6.16204 38.8393 6.84636Z" fill="#263238"/>
<path d="M24.0834 41.1235C25.0871 40.8628 26.1046 41.3377 26.3767 42.1866C26.8419 43.8778 28.1356 46.2982 30.292 47.5251C31.7682 48.3919 33.4195 48.7536 34.7555 48.6868C36.1397 48.6078 37.0757 48.1858 37.6509 47.5512C37.9409 47.1944 38.0704 46.906 38.1095 46.5638C38.1356 46.1744 38.1022 45.7491 37.87 45.2481C37.4529 44.2339 36.3971 42.9255 34.9054 41.6025L34.8753 41.5846L34.846 41.5675C33.6786 40.5182 32.6863 39.4493 31.9621 38.3349C31.2566 37.1911 30.8199 36.0025 30.9576 34.6648C31.0627 33.7955 31.4676 32.8986 32.1136 32.1434C33.4887 30.5605 35.6574 29.7662 37.76 29.7043C39.8798 29.613 42.0843 30.1369 44.0126 31.2684C46.8452 32.9312 47.8391 35.3792 48.5984 37.1218C48.965 37.9454 48.4167 38.8791 47.4375 39.2359C46.459 39.5927 45.3707 39.2367 45.0505 38.4017C44.2912 36.6591 43.5263 34.9939 41.7307 33.9813C40.3922 33.1544 38.8794 32.8334 37.6696 32.8929C36.4419 32.9825 35.6191 33.3499 35.127 33.912C34.8729 34.2078 34.7604 34.466 34.7401 34.7788C34.6887 35.0721 34.758 35.4371 34.9307 35.9031C35.3054 36.853 36.2749 38.0302 37.6346 39.2334L37.6949 39.2685C38.982 40.3886 40.0484 41.5414 40.8264 42.7683C41.545 43.9609 42.037 45.262 41.8814 46.6298C41.7706 47.5781 41.3478 48.5043 40.6366 49.3027C39.2077 50.976 36.9266 51.8249 34.6814 51.9235C32.4052 52.0058 30.0623 51.4404 27.9832 50.2192C24.8077 48.3137 23.3168 45.332 22.6968 43.1447C22.4524 42.3137 23.0618 41.4151 24.0834 41.1235Z" fill="#FFC727"/>
<path d="M42.1763 57.0966C41.426 57.5471 40.4859 57.5626 39.7926 57.1553C39.6117 57.0486 39.4187 56.8946 39.2737 56.7284C38.6838 55.9374 38.9796 54.8139 39.9743 54.2225L60.1862 42.2265C60.9552 41.7459 61.9084 41.7785 62.6008 42.185C63.2941 42.5923 63.6363 43.3198 63.3796 44.1019L56.4851 63.9178C56.1519 64.8979 54.9837 65.5081 53.8554 65.2914C53.6093 65.2278 53.4106 65.1521 53.1996 65.0282C52.5364 64.6388 52.2122 63.8812 52.4802 63.1472L53.9792 58.8001L46.6277 54.4832L42.1763 57.0966ZM55.2631 55.0966L57.7707 47.8575L50.4118 52.2477L55.2631 55.0966Z" fill="#FFC727"/>
<path d="M59.5158 66.3863L73.0702 50.4799C73.7692 49.6343 75.0678 49.4241 76.0022 49.9724C76.9057 50.5027 77.1143 51.5976 76.3843 52.4253L64.1057 66.8515L72.2702 71.6458C73.2047 72.194 73.3652 73.302 72.6833 74.1175C71.9542 74.9452 70.6377 75.1855 69.704 74.6372L59.9419 68.9052C59.9419 68.9052 59.9598 68.8751 59.9297 68.8572C59.9297 68.8572 59.9118 68.8873 59.8816 68.8694C58.9765 68.339 58.7867 67.214 59.5158 66.3863Z" fill="#FFC727"/>
<path d="M75.5127 75.9822L89.0842 60.0449C89.7661 59.2294 91.0817 58.9899 92.0154 59.5382L92.0455 59.5561L92.0748 59.5732L101.837 65.3052C102.771 65.8535 102.932 66.9598 102.25 67.7753C101.52 68.6038 100.204 68.8433 99.3009 68.3121L91.1355 63.5178L86.8862 68.4783L93.9363 72.6185C94.8406 73.1488 95.0484 74.2437 94.3192 75.0714C93.6203 75.9171 92.3209 76.1272 91.3873 75.579L84.3673 71.4568L80.118 76.4164L88.2834 81.2108C89.217 81.759 89.3775 82.8662 88.6777 83.7126C87.9673 84.5102 86.65 84.7497 85.7473 84.2193L75.955 78.4694C75.955 78.4694 75.955 78.4694 75.9249 78.4515C74.9913 77.904 74.8316 76.7969 75.5127 75.9822Z" fill="#FFC727"/>
<path d="M108.524 84.5704L109.135 85.1432C109.235 85.2385 109.629 85.6018 110.26 86.1566C110.301 86.1892 110.343 86.221 110.378 86.2592C110.414 86.2853 110.461 86.3236 110.496 86.3619C112.158 87.8055 115.173 90.3204 118.756 92.8035C118.862 92.8809 118.969 92.946 119.076 93.0234C119.177 93.0943 119.271 93.1595 119.372 93.2304C119.617 93.0511 119.834 92.8279 120.001 92.5786C119.907 92.5143 119.812 92.4491 119.716 92.3847C119.615 92.3139 119.515 92.243 119.414 92.1713C115.628 89.5587 112.436 86.902 110.833 85.5098C110.804 85.478 110.78 85.4527 110.751 85.4332C110.721 85.4014 110.686 85.3753 110.663 85.3501C110.557 85.2605 110.456 85.1774 110.368 85.0943C110.491 85.0747 110.62 85.0495 110.761 85.0242C110.832 84.7464 110.862 84.4491 110.856 84.1501C110.857 84.1379 110.857 84.1379 110.85 84.1313C109.905 84.2886 109.359 84.3953 109.34 84.4002L108.524 84.5704Z" fill="#263238"/>
</svg>
