<svg width="42" height="34" viewBox="0 0 42 34" fill="none" xmlns="http://www.w3.org/2000/svg">
<path d="M38.131 15.726C26.698 15.726 15.264 15.726 3.83001 15.726C2.94701 15.726 2.35751 16.215 2.51151 16.818C3.86001 22.079 5.209 27.34 6.5575 32.6015C6.712 33.204 7.377 33.6925 8.0425 33.6925C16.668 33.6925 25.2935 33.6925 33.919 33.6925C34.585 33.6925 35.2495 33.204 35.404 32.6015C36.752 27.34 38.101 22.079 39.449 16.818C39.6045 16.215 39.014 15.726 38.131 15.726ZM8.80701 31.087C8.80701 31.171 8.7585 31.2395 8.6995 31.2395H8.0145C7.9545 31.2395 7.90751 31.171 7.90751 31.087V25.89H8.80701V31.087ZM8.80701 24.9545H7.90751V19.757C7.90751 19.673 7.955 19.6045 8.0145 19.6045H8.6995C8.7585 19.6045 8.80701 19.673 8.80701 19.757V24.9545ZM10.4905 31.087C10.4905 31.171 10.443 31.2395 10.3825 31.2395H9.698C9.639 31.2395 9.5905 31.171 9.5905 31.087V25.89H10.4905V31.087ZM10.4905 24.9545H9.5905V19.757C9.5905 19.673 9.6385 19.6045 9.698 19.6045H10.3825C10.4425 19.6045 10.4905 19.673 10.4905 19.757V24.9545ZM12.173 31.087C12.173 31.171 12.1245 31.2395 12.066 31.2395H11.381C11.322 31.2395 11.274 31.171 11.274 31.087V25.89H12.1735L12.173 31.087ZM12.173 24.9545H11.2735V19.757C11.2735 19.673 11.321 19.6045 11.3805 19.6045H12.0655C12.1245 19.6045 12.1725 19.673 12.1725 19.757V24.9545H12.173ZM15.5395 31.087C15.5395 31.171 15.4915 31.2395 15.4325 31.2395H14.747C14.688 31.2395 14.6405 31.171 14.6405 31.087V25.89H15.5395V31.087ZM15.5395 24.9545H14.6405V19.757C14.6405 19.673 14.688 19.6045 14.747 19.6045H15.4325C15.4915 19.6045 15.5395 19.673 15.5395 19.757V24.9545ZM17.2225 31.087C17.2225 31.171 17.174 31.2395 17.1145 31.2395H16.43C16.3705 31.2395 16.3225 31.171 16.3225 31.087V25.89H17.2225V31.087ZM17.2225 24.9545H16.3225V19.757C16.3225 19.673 16.37 19.6045 16.43 19.6045H17.1145C17.174 19.6045 17.2225 19.673 17.2225 19.757V24.9545ZM18.9055 31.087C18.9055 31.171 18.857 31.2395 18.7985 31.2395H18.1125C18.054 31.2395 18.006 31.171 18.006 31.087V25.89H18.9055V31.087ZM18.9055 24.9545H18.006V19.757C18.006 19.673 18.0535 19.6045 18.1125 19.6045H18.7985C18.8575 19.6045 18.9055 19.673 18.9055 19.757V24.9545ZM20.589 31.087C20.589 31.171 20.5405 31.2395 20.4815 31.2395H19.796C19.7365 31.2395 19.689 31.171 19.689 31.087V25.89H20.589V31.087ZM20.589 24.9545H19.689V19.757C19.689 19.673 19.7365 19.6045 19.796 19.6045H20.4815C20.5405 19.6045 20.589 19.673 20.589 19.757V24.9545ZM22.272 31.087C22.272 31.171 22.2235 31.2395 22.164 31.2395H21.479C21.42 31.2395 21.3715 31.171 21.3715 31.087V25.89H22.2715V31.087H22.272ZM22.272 24.9545H21.372V19.757C21.372 19.673 21.42 19.6045 21.4795 19.6045H22.1645C22.224 19.6045 22.2725 19.673 22.2725 19.757V24.9545H22.272ZM23.955 31.087C23.955 31.171 23.9065 31.2395 23.847 31.2395H23.162C23.1025 31.2395 23.055 31.171 23.055 31.087V25.89H23.955V31.087ZM23.955 24.9545H23.055V19.757C23.055 19.673 23.103 19.6045 23.162 19.6045H23.847C23.9065 19.6045 23.955 19.673 23.955 19.757V24.9545ZM25.6385 31.087C25.6385 31.171 25.5905 31.2395 25.531 31.2395H24.846C24.787 31.2395 24.739 31.171 24.739 31.087V25.89H25.6385V31.087ZM25.6385 24.9545H24.739V19.757C24.739 19.673 24.7865 19.6045 24.846 19.6045H25.531C25.5905 19.6045 25.6385 19.673 25.6385 19.757V24.9545ZM27.321 31.087C27.321 31.171 27.273 31.2395 27.214 31.2395H26.5285C26.469 31.2395 26.4215 31.171 26.4215 31.087V25.89H27.321V31.087ZM27.321 24.9545H26.4215V19.757C26.4215 19.673 26.469 19.6045 26.5285 19.6045H27.214C27.273 19.6045 27.321 19.673 27.321 19.757V24.9545ZM30.6875 31.087C30.6875 31.171 30.6395 31.2395 30.5805 31.2395H29.895C29.836 31.2395 29.7885 31.171 29.7885 31.087V25.89H30.6875V31.087ZM30.6875 24.9545H29.7885V19.757C29.7885 19.673 29.836 19.6045 29.895 19.6045H30.5805C30.6395 19.6045 30.6875 19.673 30.6875 19.757V24.9545ZM32.371 31.087C32.371 31.171 32.3225 31.2395 32.2635 31.2395H31.5785C31.5195 31.2395 31.4715 31.171 31.4715 31.087V25.89H32.371V31.087ZM32.371 24.9545H31.4715V19.757C31.4715 19.673 31.5195 19.6045 31.5785 19.6045H32.2635C32.3225 19.6045 32.371 19.673 32.371 19.757V24.9545ZM34.0535 31.087C34.0535 31.171 34.0055 31.2395 33.9465 31.2395H33.261C33.202 31.2395 33.1545 31.171 33.1545 31.087V25.89H34.0535V31.087ZM34.0535 24.9545H33.1545V19.757C33.1545 19.673 33.202 19.6045 33.261 19.6045H33.9465C34.0055 19.6045 34.0535 19.673 34.0535 19.757V24.9545Z" fill="#FCBD01"/>
<path d="M41.5796 16.646C41.5796 16.9155 41.3786 17.1345 41.1311 17.1345H0.830063C0.582563 17.1345 0.382568 16.9155 0.382568 16.646V14.853C0.382568 14.5835 0.583063 14.3645 0.830063 14.3645H41.1311C41.3786 14.3645 41.5796 14.5835 41.5796 14.853V16.646Z" fill="#FCBD01"/>
<path d="M40.7669 17.129C40.7669 17.193 31.9769 17.245 21.1364 17.245C10.2919 17.245 1.50391 17.193 1.50391 17.129C1.50391 17.065 10.2919 17.013 21.1364 17.013C31.9769 17.013 40.7669 17.065 40.7669 17.129Z" fill="#263238"/>
<g opacity="0.3">
<path d="M3.375 17.129C9.084 18.1185 14.163 18.5695 19.976 18.622C26.168 18.678 33.0295 18.363 39.0695 17.129H3.375Z" fill="black"/>
</g>
<path d="M21.645 16.546C21.1225 16.7675 20.5195 16.523 20.2985 16.0005L14.1925 1.58352C13.971 1.06102 14.2155 0.458022 14.738 0.237022C15.2605 0.0155218 15.8635 0.260024 16.0845 0.782524L22.1905 15.1995C22.412 15.7215 22.1675 16.3245 21.645 16.546Z" fill="#263238"/>
<path d="M21.2225 16.312C21.6221 16.312 21.946 15.9881 21.946 15.5885C21.946 15.1889 21.6221 14.865 21.2225 14.865C20.823 14.865 20.499 15.1889 20.499 15.5885C20.499 15.9881 20.823 16.312 21.2225 16.312Z" fill="#455A64"/>
</svg>
