<svg width="141" height="176" viewBox="0 0 141 176" fill="none" xmlns="http://www.w3.org/2000/svg">
<path d="M0.579224 175.525L140.434 175.525L120.032 33.072H20.9679L0.579224 175.525Z" fill="#FFC727"/>
<path d="M20.972 33.0688L36.511 175.529H0.576843L20.972 33.0688Z" fill="#FFC727"/>
<path opacity="0.2" d="M20.972 33.0688L36.511 175.529H0.576843L20.972 33.0688Z" fill="black"/>
<path d="M92.1338 42.892L96.5053 41.9674C96.4792 41.8484 93.9473 29.8793 91.2377 17.7986C88.309 4.74035 75.4674 -1.26783 64.7366 0.463341C56.7031 1.76192 47.798 8.02915 49.1406 21.4198C50.576 35.7547 51.662 42.5067 51.7076 42.7877L56.1166 42.0725C56.1068 42.0056 55.0062 35.1502 53.5846 20.975C52.5532 10.6842 59.0364 5.9102 65.4486 4.87395C74.1248 3.47109 84.524 8.28659 86.8768 18.7762C89.5815 30.8284 92.1086 42.7722 92.1338 42.892Z" fill="#263238"/>
<path d="M34.6194 174.437C31.7428 172.391 28.7676 170.518 25.7917 168.643C22.8018 166.794 19.7802 164.999 16.7252 163.262L16.304 163.023L15.9236 163.307C13.557 165.078 11.1945 166.854 8.90198 168.725C6.58751 170.566 4.29749 172.442 2.08322 174.418C4.62743 172.888 7.09587 171.257 9.53987 169.591C12.0059 167.955 14.4018 166.224 16.7937 164.488L15.9928 164.533C19.025 166.309 22.0898 168.029 25.1872 169.692C28.2984 171.331 31.4096 172.97 34.6194 174.437Z" fill="white"/>
<path d="M16.3594 163.898C16.9753 154.814 17.4282 145.725 17.8567 136.635C18.2885 127.545 18.5867 118.45 18.9582 109.358C19.2091 100.262 19.5244 91.1683 19.715 82.0701L19.9708 68.4212C20.0017 63.8697 20.084 59.3198 20.0702 54.7674C19.7468 59.3092 19.5203 63.8534 19.2417 68.3968L18.5704 82.031C18.1419 91.1211 17.8388 100.216 17.4714 109.308C17.2245 118.404 16.9044 127.498 16.7178 136.597C16.5264 145.694 16.3618 154.793 16.3594 163.898Z" fill="white"/>
<path d="M88.3842 42.4293C88.3842 45.7075 91.0417 48.3649 94.3199 48.3649C97.5981 48.3649 100.256 45.7075 100.256 42.4293C100.256 39.1511 97.5981 36.4936 94.3199 36.4936C91.0417 36.4936 88.3842 39.1511 88.3842 42.4293Z" fill="#263238"/>
<path d="M48.4337 42.4293C48.4337 45.7075 51.0912 48.3649 54.3694 48.3649C57.6476 48.3649 60.3051 45.7075 60.3059 42.4293C60.3059 39.1511 57.6484 36.4936 54.3702 36.4936C51.0912 36.4936 48.4337 39.1511 48.4337 42.4293Z" fill="#263238"/>
</svg>
