<svg width="24" height="24" viewBox="0 0 24 24" fill="none" xmlns="http://www.w3.org/2000/svg">
<path d="M23.0599 20.292L19.5914 20.089C18.1294 21.45 16.2854 22.4365 14.1834 22.857C8.13789 24.067 2.25689 20.147 1.04689 14.1015C-0.163111 8.05601 3.75689 2.17451 9.80239 0.96501C15.8474 -0.24499 21.7289 3.67501 22.9389 9.72051C23.4439 12.245 23.0524 14.739 21.9874 16.878L21.9914 16.873L23.0599 20.292Z" fill="white"/>
<path d="M23.06 20.292C23.06 20.292 23.0405 20.2205 22.997 20.075C22.9515 19.925 22.886 19.708 22.8 19.4235C22.6215 18.8395 22.3595 17.9815 22.0185 16.8645L22.004 16.8165L21.97 16.854L21.966 16.8585L22.013 16.8905C22.6545 15.609 23.2655 13.769 23.194 11.5285C23.1775 10.971 23.115 10.393 23.0025 9.80299C22.8615 9.21999 22.737 8.60799 22.4945 8.01249C22.053 6.80999 21.373 5.60399 20.429 4.52599C19.488 3.44799 18.285 2.50049 16.8785 1.81899C15.475 1.13649 13.8685 0.72349 12.194 0.68899C10.52 0.64349 8.78898 1.01999 7.19348 1.77049C5.60048 2.52349 4.13298 3.66749 3.04098 5.14949C2.90498 5.33599 2.76448 5.51949 2.63248 5.70799C2.51398 5.90549 2.39598 6.10249 2.27798 6.29849L2.10148 6.59299L1.95298 6.90149C1.85498 7.10749 1.75698 7.31249 1.65948 7.51749C1.56948 7.72549 1.50098 7.94199 1.42148 8.15299C1.34898 8.36649 1.25548 8.57299 1.20948 8.79349C1.10198 9.22899 0.96848 9.65699 0.91998 10.1C0.63398 11.853 0.775481 13.625 1.26698 15.2335C1.77048 16.841 2.62198 18.2755 3.67798 19.435C4.73348 20.5975 5.98848 21.4865 7.29298 22.087C8.59848 22.6905 9.95148 23.005 11.233 23.0895C11.8755 23.148 12.4985 23.102 13.0985 23.066C13.693 22.9735 14.2715 22.9095 14.81 22.757C16.98 22.1895 18.5715 21.086 19.61 20.11L19.589 20.1175C20.7195 20.176 21.5885 20.221 22.1805 20.252C22.4685 20.266 22.688 20.277 22.8405 20.284C22.9885 20.291 23.06 20.292 23.06 20.292C23.06 20.292 22.9805 20.2845 22.83 20.274C22.676 20.2635 22.454 20.2485 22.163 20.2285C21.576 20.19 20.714 20.134 19.5935 20.0605L19.5815 20.06L19.5725 20.0685C18.5315 21.0315 16.9445 22.118 14.789 22.6715C14.2545 22.8205 13.68 22.8815 13.0905 22.971C12.495 23.004 11.8775 23.048 11.241 22.988C9.97148 22.9 8.63248 22.5845 7.34148 21.9845C6.05148 21.387 4.81148 20.5045 3.76948 19.353C2.72698 18.2045 1.88748 16.785 1.39148 15.196C0.906981 13.605 0.76948 11.8535 1.05248 10.122C1.10098 9.68449 1.23348 9.26199 1.33948 8.83149C1.38498 8.61349 1.47748 8.40949 1.54898 8.19899C1.62798 7.99049 1.69498 7.77649 1.78448 7.57099C1.88098 7.36849 1.97748 7.16549 2.07448 6.96249L2.22148 6.65799L2.39598 6.36699C2.51248 6.17299 2.62898 5.97849 2.74598 5.78349C2.87648 5.59749 3.01498 5.41649 3.14948 5.23199C4.22848 3.76749 5.67798 2.63749 7.25148 1.89249C8.82698 1.14999 10.5385 0.77649 12.1925 0.81949C13.8475 0.85199 15.4365 1.25799 16.826 1.93049C18.218 2.60199 19.4105 3.53749 20.3445 4.60199C21.2815 5.66699 21.958 6.85949 22.3995 8.04949C22.642 8.63899 22.7665 9.24549 22.909 9.82299C23.023 10.4075 23.0875 10.9805 23.106 11.5335C23.1865 13.7555 22.5905 15.586 21.9625 16.8665L21.8705 17.0545L22.0095 16.899L22.0135 16.8945L21.9645 16.884C22.3175 17.988 22.589 18.836 22.7735 19.4135C22.866 19.6995 22.9365 19.9175 22.985 20.0685C23.0325 20.2145 23.06 20.292 23.06 20.292Z" fill="#263238"/>
<path d="M16.215 10.3715C16.117 9.83899 15.8225 9.35399 15.435 8.97549C15.0555 8.60499 14.574 8.32499 14.049 8.24749C13.4915 8.16549 12.9025 8.32299 12.461 8.67299C12.1985 8.88099 11.99 9.15549 11.854 9.46149C11.683 9.20999 11.458 8.99449 11.1955 8.83999C10.71 8.55349 10.1055 8.47699 9.56452 8.63399C9.05502 8.78199 8.61602 9.12449 8.29052 9.54349C7.95802 9.97099 7.73202 10.4915 7.70752 11.0325C7.67652 11.71 7.85652 12.437 8.24502 12.9935C8.65502 13.581 9.28402 14.035 9.92102 14.362C10.9925 14.912 12.4005 15.5955 12.4005 15.5955C12.4005 15.5955 13.4875 14.6605 14.4745 13.9705C15.0615 13.56 15.6225 13.0245 15.949 12.387C16.258 11.7835 16.3375 11.0385 16.215 10.3715Z" fill="#FCBD01"/>
</svg>
