<svg width="23" height="23" viewBox="0 0 23 23" fill="none" xmlns="http://www.w3.org/2000/svg">
<path d="M22.4032 19.685L18.9346 19.482C17.4726 20.843 15.6287 21.8295 13.5267 22.25C7.48116 23.46 1.60015 19.54 0.390151 13.4945C-0.819849 7.44899 3.10014 1.56799 9.14564 0.357986C15.1911 -0.852014 21.0727 3.06798 22.2822 9.11348C22.7871 11.6375 22.3957 14.132 21.3307 16.271L21.3347 16.2665L22.4032 19.685Z" fill="white"/>
<path d="M22.403 19.685C22.403 19.685 22.3835 19.6135 22.34 19.468C22.2945 19.318 22.229 19.101 22.143 18.8165C21.9645 18.2325 21.7025 17.3745 21.3615 16.2575L21.347 16.2095L21.313 16.247L21.309 16.2515L21.356 16.2835C21.9975 15.0015 22.6085 13.162 22.537 10.9215C22.5205 10.3645 22.458 9.78599 22.3455 9.19599C22.2045 8.61299 22.08 8.001 21.8375 7.4055C21.396 6.2035 20.716 4.997 19.772 3.919C18.831 2.841 17.628 1.8935 16.2215 1.212C14.818 0.5295 13.2115 0.116495 11.537 0.081995C9.863 0.036495 8.132 0.412992 6.5365 1.16349C4.9435 1.91649 3.476 3.06049 2.384 4.54249C2.248 4.72949 2.10749 4.91249 1.97549 5.10099C1.85699 5.29849 1.739 5.49549 1.621 5.69149L1.4445 5.98599L1.296 6.29449C1.198 6.50049 1.1005 6.7055 1.0025 6.9105C0.9125 7.1185 0.844493 7.335 0.764493 7.546C0.691993 7.7595 0.599003 7.96599 0.552503 8.18649C0.445003 8.62199 0.311498 9.04999 0.262998 9.49299C-0.023002 11.246 0.118498 13.018 0.609998 14.6265C1.1135 16.234 1.96499 17.6685 3.02099 18.828C4.07649 19.9905 5.3315 20.8795 6.636 21.48C7.9415 22.083 9.2945 22.3975 10.576 22.4825C11.218 22.541 11.8415 22.495 12.4415 22.459C13.036 22.3665 13.6145 22.3025 14.153 22.15C16.323 21.5825 17.9145 20.479 18.953 19.503L18.932 19.5105C20.062 19.569 20.9315 19.614 21.5235 19.645C21.8115 19.659 22.031 19.67 22.183 19.6775C22.3315 19.684 22.403 19.685 22.403 19.685C22.403 19.685 22.3235 19.6775 22.173 19.667C22.019 19.6565 21.797 19.6415 21.506 19.6215C20.919 19.583 20.057 19.527 18.9365 19.4535L18.9245 19.453L18.9155 19.4615C17.8745 20.4245 16.2875 21.5105 14.132 22.0645C13.5975 22.2135 13.023 22.274 12.4335 22.364C11.838 22.397 11.2205 22.441 10.584 22.381C9.3145 22.293 7.97549 21.9775 6.68449 21.377C5.39449 20.7795 4.1545 19.897 3.1125 18.7455C2.07 17.597 1.23049 16.1775 0.733991 14.588C0.249491 12.997 0.112002 11.2455 0.395002 9.514C0.443002 9.0765 0.576004 8.65399 0.682004 8.22349C0.727504 8.00549 0.819992 7.80149 0.891492 7.59049C0.970492 7.38199 1.038 7.16799 1.127 6.96249C1.2235 6.75999 1.32 6.5575 1.417 6.354L1.56399 6.04949L1.73849 5.75849C1.85499 5.56449 1.9715 5.37 2.0885 5.175C2.219 4.989 2.3575 4.808 2.492 4.6235C3.571 3.159 5.01999 2.02899 6.59399 1.28399C8.16949 0.541491 9.881 0.167993 11.5355 0.210993C13.1905 0.243493 14.7795 0.6495 16.169 1.322C17.561 1.9935 18.7535 2.92899 19.6875 3.99349C20.6245 5.05849 21.3015 6.25099 21.7425 7.44099C21.985 8.03049 22.1095 8.63699 22.252 9.21449C22.366 9.79899 22.4305 10.3725 22.4485 10.925C22.529 13.147 21.933 14.9775 21.305 16.258L21.213 16.446L21.352 16.2905L21.356 16.286L21.3075 16.2755C21.6605 17.3795 21.932 18.228 22.1165 18.805C22.209 19.091 22.2795 19.309 22.328 19.46C22.3755 19.6075 22.403 19.685 22.403 19.685Z" fill="#263238"/>
<path d="M15.0621 12.711H8.95059C8.83359 12.711 8.73859 12.6165 8.73859 12.499C8.73859 12.3815 8.83359 12.287 8.95059 12.287H14.8846L15.5391 8.588H8.37509C8.25809 8.588 8.16309 8.49301 8.16309 8.37601C8.16309 8.25901 8.25809 8.164 8.37509 8.164H15.7921C15.8546 8.164 15.9141 8.1915 15.9541 8.2395C15.9946 8.2875 16.0116 8.35101 16.0006 8.41251L15.2706 12.535C15.2526 12.6375 15.1646 12.711 15.0621 12.711Z" fill="#FCBD01"/>
<path d="M14.8595 14.153H14.8585L9.03798 14.1325C8.93148 14.132 8.84199 14.053 8.82849 13.9475L7.99998 7.49052H6.31699C6.19999 7.49052 6.10498 7.39603 6.10498 7.27853C6.10498 7.16153 6.19999 7.06653 6.31699 7.06653H8.18648C8.29348 7.06653 8.38299 7.14553 8.39699 7.25153L9.22548 13.7095L14.86 13.729C14.977 13.7295 15.0715 13.8245 15.071 13.942C15.071 14.0585 14.976 14.153 14.8595 14.153Z" fill="#FCBD01"/>
<path d="M9.98849 16.224C9.47249 16.224 9.052 15.804 9.052 15.2875C9.052 14.771 9.47199 14.351 9.98849 14.351C10.505 14.351 10.925 14.771 10.925 15.2875C10.925 15.804 10.505 16.224 9.98849 16.224ZM9.98849 14.775C9.70599 14.775 9.476 15.005 9.476 15.288C9.476 15.571 9.70599 15.8005 9.98849 15.8005C10.271 15.8005 10.5015 15.5705 10.5015 15.288C10.5015 15.0055 10.271 14.775 9.98849 14.775Z" fill="#FCBD01"/>
<path d="M14.0058 16.224C13.4898 16.224 13.0693 15.804 13.0693 15.2875C13.0693 14.771 13.4893 14.351 14.0058 14.351C14.5223 14.351 14.9423 14.771 14.9423 15.2875C14.9423 15.804 14.5223 16.224 14.0058 16.224ZM14.0058 14.775C13.7228 14.775 13.4933 15.005 13.4933 15.288C13.4933 15.571 13.7228 15.8005 14.0058 15.8005C14.2883 15.8005 14.5188 15.5705 14.5188 15.288C14.5188 15.0055 14.2883 14.775 14.0058 14.775Z" fill="#FCBD01"/>
<path d="M10.8374 12.711C10.7259 12.711 10.6329 12.6245 10.6259 12.5125L10.3774 8.52249C10.3699 8.40599 10.4589 8.30499 10.5759 8.29799C10.6999 8.28399 10.7934 8.37999 10.8009 8.49649L11.0494 12.4865C11.0569 12.603 10.9679 12.704 10.8514 12.711C10.8459 12.711 10.8414 12.711 10.8374 12.711Z" fill="#FCBD01"/>
<path d="M13.0719 12.711C13.0679 12.711 13.0639 12.711 13.0599 12.7105C12.9434 12.704 12.8539 12.604 12.8604 12.487L13.0829 8.49701C13.0894 8.38051 13.1839 8.28302 13.3064 8.29752C13.4234 8.30402 13.5124 8.40401 13.5059 8.52101L13.2834 12.5105C13.2774 12.6235 13.1839 12.711 13.0719 12.711Z" fill="#FCBD01"/>
<path d="M8.60044 10.716C8.48394 10.716 8.38995 10.6225 8.38845 10.506C8.38695 10.389 8.48094 10.2935 8.59844 10.292L15.4249 10.226C15.4259 10.226 15.4269 10.226 15.4269 10.226C15.5434 10.226 15.6374 10.3195 15.6389 10.436C15.6404 10.553 15.5464 10.649 15.4289 10.65L8.60243 10.716C8.60243 10.716 8.60144 10.716 8.60044 10.716Z" fill="#FCBD01"/>
</svg>
