<svg width="22" height="22" viewBox="0 0 22 22" fill="none" xmlns="http://www.w3.org/2000/svg">
<g clip-path="url(#clip0_29_14996)">
<path fill-rule="evenodd" clip-rule="evenodd" d="M10.9823 21.3126C16.7664 21.3126 21.4554 16.6236 21.4554 10.8395C21.4554 5.05531 16.7664 0.366333 10.9823 0.366333C5.19813 0.366333 0.509155 5.05531 0.509155 10.8395C0.509155 16.6236 5.19813 21.3126 10.9823 21.3126Z" fill="#FCBD01"/>
<path fill-rule="evenodd" clip-rule="evenodd" d="M10.0382 12.0208L7.96891 9.99862C7.39365 9.43647 6.47148 9.44049 5.90014 9.99879C5.32483 10.561 5.32873 11.4622 5.89994 12.0205L9.0038 15.0536C9.57904 15.6159 10.5012 15.6118 11.0726 15.0535C11.1304 14.997 11.1822 14.9372 11.2284 14.8746C11.2929 14.8292 11.3546 14.7781 11.4127 14.7213L17.1647 9.1002C17.7383 8.53971 17.7416 7.63125 17.1703 7.07292C16.595 6.5107 15.6702 6.51703 15.0958 7.07835L10.0382 12.0208Z" fill="white"/>
</g>
<defs>
<clipPath id="clip0_29_14996">
<rect width="20.9462" height="20.9462" fill="white" transform="translate(0.509155 0.366333)"/>
</clipPath>
</defs>
</svg>
