<svg width="99" height="57" viewBox="0 0 99 57" fill="none" xmlns="http://www.w3.org/2000/svg">
<path d="M1.57195 21.1713C9.24536 24.7918 17.0711 28.1463 24.7444 31.7666C26.1879 32.4526 27.8247 30.7064 26.8001 29.4125C25.0549 26.7876 23.2715 24.3528 21.5263 21.728C24.6422 22.454 26.6163 24.4332 28.7796 26.9443C29.7666 27.9338 31.0579 28.8858 32.5406 28.3935C34.8601 27.6742 35.7385 24.2925 36.5392 22.2789C38.5601 17.1502 39.935 11.7924 42.6018 6.89246C45.8015 1.30905 48.1919 4.65687 49.6688 9.10582C51.2974 13.783 52.1271 18.9914 52.425 23.895C52.8705 32.4857 52.8968 41.6841 56.6501 49.5566C58.7352 53.9303 64.8109 58.6131 69.6807 55.0461C75.6914 50.7207 79.7322 41.4512 80.6914 34.2306C81.4563 30.4306 83.0849 4.66222 90.8656 13.6422C96.5588 20.2249 96.467 32.958 96.8747 41.2446C96.9494 42.3469 98.6217 42.387 98.7371 41.3229C99.5458 32.8861 98.4551 23.5724 95.4243 15.5486C93.7192 11.2514 87.8354 5.12456 83.3439 10.2502C78.0912 16.2112 78.6488 26.2084 77.7272 33.7331C77.2652 38.4837 74.7884 43.4219 72.5788 47.5242C67.8547 56.2605 60.7513 52.7547 58.1764 44.9216C55.0714 35.3014 56.4912 24.8126 54.7169 14.9658C54.037 11.468 52.0755 -0.393194 46.107 0.283353C39.2263 1.07298 36.704 12.1308 34.9489 17.4117C35.1012 17.1459 32.3154 26.0746 31.29 25.275C30.2648 24.4755 29.4302 23.2203 28.443 22.231C26.5451 20.366 24.4936 19.2611 22.0996 18.8782C24.3439 17.5507 26.4363 15.9949 28.377 14.2109C29.3665 13.2239 28.3425 11.4361 27.0501 11.4725C18.117 12.1456 10.2061 16.0887 1.65122 18.3206C0.320789 18.5469 0.204206 20.5993 1.57195 21.1713ZM17.7668 18.7967C17.0821 19.2519 17.2332 19.9743 17.6509 20.3549C17.4603 20.8108 17.4596 21.3049 17.7631 21.7614C18.7495 23.245 19.8118 24.8427 20.7982 26.3263C16.0877 24.1919 11.4529 22.1715 6.74241 20.0371C11.9137 18.4091 16.9715 16.3629 22.2181 15.3435C20.8105 16.4439 19.2887 17.6203 17.7668 18.7967Z" fill="#181818"/>
</svg>
