<svg width="60" height="60" viewBox="0 0 60 60" fill="none" xmlns="http://www.w3.org/2000/svg">
<path d="M55 56.875H12.5C7.325 56.875 3.125 52.675 3.125 47.5V5C3.125 3.975 3.975 3.125 5 3.125C6.025 3.125 6.875 3.975 6.875 5V47.5C6.875 50.6 9.4 53.125 12.5 53.125H55C56.025 53.125 56.875 53.975 56.875 55C56.875 56.025 56.025 56.875 55 56.875Z" fill="#263238"/>
<path d="M12.5 44.375C12.075 44.375 11.625 44.225 11.275 43.925C10.5 43.25 10.4 42.075 11.075 41.275L22.55 27.875C23.8 26.425 25.6 25.55 27.5 25.475C29.4 25.425 31.275 26.125 32.625 27.475L35 29.85C35.625 30.475 36.425 30.775 37.325 30.775C38.2 30.75 39 30.35 39.575 29.675L51.05 16.275C51.725 15.5 52.9 15.4 53.7 16.075C54.475 16.75 54.575 17.925 53.9 18.725L42.425 32.125C41.175 33.575 39.375 34.45 37.475 34.525C35.55 34.575 33.7 33.875 32.35 32.525L30 30.15C29.375 29.525 28.55 29.2 27.675 29.225C26.8 29.25 26 29.65 25.425 30.325L13.95 43.725C13.55 44.15 13.025 44.375 12.5 44.375Z" fill="#263238"/>
</svg>
