<svg width="52" height="52" viewBox="0 0 52 52" fill="none" xmlns="http://www.w3.org/2000/svg">
<path d="M19.3483 4.33331H10.8766C6.49992 4.33331 4.33325 6.49998 4.33325 10.8766V19.37C4.33325 23.8333 6.49992 26 10.8766 25.8916H19.3699C23.8333 26 25.9999 23.8333 25.8916 19.3483V10.8766C25.9999 6.49998 23.8333 4.33331 19.3483 4.33331ZM19.5216 21.1466C18.0483 21.1466 16.6183 20.5833 15.4266 19.5866C14.0833 20.5616 12.4583 21.1466 10.7033 21.1466C9.81492 21.1466 9.07825 20.41 9.07825 19.5216C9.07825 18.6333 9.81492 17.8966 10.7033 17.8966C12.9133 17.8966 14.7549 16.38 15.4266 14.3H10.7033C9.81492 14.3 9.07825 13.5633 9.07825 12.675C9.07825 11.7866 9.81492 11.05 10.7033 11.05H13.4983C13.5849 10.2266 14.2566 9.57665 15.1016 9.57665C15.9466 9.57665 16.6183 10.2266 16.7049 11.05H17.2683C17.2899 11.05 17.3116 11.05 17.3116 11.05H17.3549H19.4999C20.3883 11.05 21.1249 11.7866 21.1249 12.675C21.1249 13.5633 20.4099 14.3 19.4999 14.3H18.7849C18.5899 15.34 18.1783 16.315 17.6366 17.2033C18.2216 17.6366 18.8499 17.8966 19.5216 17.8966C20.4099 17.8966 21.1466 18.6333 21.1466 19.5216C21.1466 20.41 20.4099 21.1466 19.5216 21.1466Z" fill="#263238"/>
<path d="M19.4999 49.2917C10.2483 49.2917 2.70825 41.7517 2.70825 32.5C2.70825 31.6117 3.44492 30.875 4.33325 30.875C5.22159 30.875 5.95825 31.6117 5.95825 32.5C5.95825 38.9133 10.4216 44.2867 16.4233 45.695L15.8383 44.72C15.3833 43.94 15.6216 42.9433 16.4016 42.4883C17.1599 42.0333 18.1783 42.2717 18.6333 43.0517L20.9082 46.8433C21.2116 47.3417 21.2116 47.97 20.9299 48.4683C20.6266 48.9667 20.0849 49.2917 19.4999 49.2917Z" fill="#263238"/>
<path d="M47.6666 21.125C46.7783 21.125 46.0416 20.3883 46.0416 19.5C46.0416 13.0866 41.5783 7.71331 35.5766 6.30498L36.1616 7.27998C36.6166 8.05998 36.3783 9.05665 35.5983 9.51165C34.8399 9.96665 33.8216 9.72831 33.3666 8.94831L31.0916 5.15665C30.7883 4.65831 30.7883 4.02998 31.0699 3.53165C31.3733 3.03331 31.9149 2.70831 32.4999 2.70831C41.7516 2.70831 49.2916 10.2483 49.2916 19.5C49.2916 20.3883 48.5549 21.125 47.6666 21.125Z" fill="#263238"/>
<path d="M36.66 25.675C30.5933 25.675 25.6533 30.5933 25.6533 36.6817C25.6533 42.7483 30.5717 47.6883 36.66 47.6883C42.7267 47.6883 47.6667 42.77 47.6667 36.6817C47.6667 30.5933 42.7483 25.675 36.66 25.675ZM42.0333 41.9033C41.2317 42.2933 40.2567 41.99 39.845 41.1667L39.4767 40.43H33.865L33.4967 41.1667C33.215 41.73 32.63 42.055 32.045 42.055C31.8067 42.055 31.5467 41.99 31.33 41.8817C30.5283 41.47 30.2033 40.495 30.5933 39.6933L35.23 30.4417C35.5117 29.9 36.075 29.5533 36.6817 29.5533C37.2883 29.5533 37.8517 29.9 38.1333 30.4633L42.77 39.715C43.16 40.5167 42.835 41.4917 42.0333 41.9033Z" fill="#263238"/>
<path d="M35.49 37.18H37.8517L36.66 34.8184L35.49 37.18Z" fill="#263238"/>
</svg>
