<svg width="283" height="188" viewBox="0 0 283 188" fill="none" xmlns="http://www.w3.org/2000/svg">
<path d="M267.805 187.499H12.1949C5.91341 187.499 0.820801 182.407 0.820801 176.125V12.7026C0.820801 6.42112 5.91264 1.32851 12.1949 1.32851H267.804C274.086 1.32851 279.179 6.42112 279.179 12.7026V176.125C279.179 182.407 274.087 187.499 267.805 187.499Z" fill="white"/>
<path d="M282.282 128.194H281.514V121.253H282.282V128.194ZM282.282 115.83H281.514V101.498H282.282V115.83Z" fill="#FCBD01"/>
<path d="M267.805 187.914H12.1948C5.69445 187.914 0.406006 182.626 0.406006 176.125V12.7026C0.406006 6.20223 5.69445 0.913788 12.1948 0.913788H267.804C274.305 0.913788 279.593 6.20223 279.593 12.7026V176.125C279.594 182.626 274.305 187.914 267.805 187.914ZM12.1948 1.74323C6.15218 1.74323 1.23621 6.65919 1.23621 12.7018V176.125C1.23621 182.167 6.15218 187.083 12.1948 187.083H267.804C273.847 187.083 278.763 182.167 278.763 176.125V12.7026C278.763 6.65996 273.847 1.744 267.804 1.744L12.1948 1.74323Z" fill="#FCBD01"/>
<path opacity="0.5" d="M93.7686 149.006H89.8956V148.175H93.7686L93.8377 149.006H93.7686ZM86.0226 149.006H82.1495V148.175H86.0226V149.006ZM78.2765 149.006H74.4035V148.175H78.2765V149.006ZM70.5312 149.006H66.6582V148.175H70.5312V149.006ZM62.7852 149.006H58.9122V148.175H62.7852V149.006ZM55.0399 149.006H51.1669V148.175H55.0399V149.006ZM47.2939 149.006H43.4208V148.175H47.2939V149.006ZM39.5486 149.006H35.6756V148.175H39.5486V149.006ZM31.8025 149.006H27.9295V148.175H31.8025V149.006ZM24.0573 149.006H22.6134C21.7248 149.006 20.8739 148.805 20.0852 148.41L20.4569 147.668C21.1296 148.005 21.8546 148.175 22.6134 148.175H24.0573V149.006ZM97.6247 147.485L97.058 146.878C97.9404 146.054 98.4788 144.941 98.5748 143.742L99.4027 143.808C99.2905 145.213 98.6592 146.52 97.6247 147.485ZM17.338 145.387C17.0877 144.739 16.9609 144.054 16.9609 143.353V141.409H17.7911V143.353C17.7911 143.951 17.8994 144.535 18.1122 145.088L17.338 145.387ZM99.4203 139.903H98.5901V136.03H99.4203V139.903ZM17.7911 137.536H16.9609V133.663H17.7911V137.536ZM99.4203 132.157H98.5901V128.284H99.4203V132.157ZM17.7911 129.79H16.9609V125.918H17.7911V129.79ZM99.4203 124.412H98.5901V120.539H99.4203V124.412ZM17.7911 122.044H16.9609V118.171H17.7911V122.044ZM99.4203 116.666H98.5901V112.793H99.4203V116.666ZM17.7911 114.299H16.9609V110.426H17.7911V114.299ZM99.4203 108.92H98.5901V105.047H99.4203V108.92ZM17.7911 106.553H16.9609V102.681H17.7911V106.553ZM99.4203 101.175H98.5901V97.3016H99.4203V101.175ZM17.7911 98.8069H16.9609V94.9346H17.7911V98.8069ZM99.4203 93.4286H98.5901V89.5556H99.4203V93.4286ZM17.7911 91.0616H16.9609V87.1886H17.7911V91.0616ZM99.4203 85.6826H98.5901V81.8103H99.4203V85.6826ZM17.7911 83.3156H16.9609V79.4426H17.7911V83.3156ZM99.4203 77.9373H98.5901V74.0643H99.4203V77.9373ZM17.7911 75.5703H16.9609V71.6973H17.7911V75.5703ZM99.4203 70.1912H98.5901V66.3182H99.4203V70.1912ZM17.7911 67.8243H16.9609V63.9512H17.7911V67.8243ZM99.4203 62.4459H98.5901V58.5729H99.4203V62.4459ZM17.7911 60.0782H16.9609V56.2059H17.7911V60.0782ZM99.4203 54.7007H98.5901V52.786C98.5901 52.1778 98.478 51.5857 98.2583 51.025L99.031 50.7217C99.289 51.3791 99.4203 52.0733 99.4203 52.786V54.7007ZM17.8088 52.369L16.9817 52.2984C17.1022 50.8937 17.7405 49.5912 18.7811 48.6319L19.344 49.2417C18.4562 50.0612 17.911 51.1709 17.8088 52.369ZM95.8998 48.4591C95.234 48.1304 94.5166 47.9638 93.7686 47.9638H92.2941V47.1336H93.7686C94.6457 47.1336 95.4866 47.3286 96.2677 47.7142L95.8998 48.4591ZM88.4203 47.9645H84.5472V47.1343H88.4203V47.9645ZM80.675 47.9645H76.802V47.1343H80.675V47.9645ZM72.9289 47.9645H69.0559V47.1343H72.9289V47.9645ZM65.1837 47.9645H61.3106V47.1343H65.1837V47.9645ZM57.4376 47.9645H53.5646V47.1343H57.4376V47.9645ZM49.6923 47.9645H45.8193V47.1343H49.6923V47.9645ZM41.9463 47.9645H38.0733V47.1343H41.9463V47.9645ZM34.201 47.9645H30.328V47.1343H34.201V47.9645ZM26.455 47.9645H22.6127L22.5819 47.1343H26.455V47.9645Z" fill="#FCBD01"/>
<path d="M22.8185 13.3078C22.8185 15.3322 21.1772 16.9742 19.152 16.9742C17.1268 16.9742 15.4856 15.333 15.4856 13.3078C15.4856 11.2826 17.1268 9.64134 19.152 9.64134C21.1772 9.64134 22.8185 11.2833 22.8185 13.3078Z" fill="#FCBD01"/>
<path opacity="0.2" d="M46.8917 15.452H28.9067C27.7271 15.452 26.7625 14.4867 26.7625 13.3078C26.7625 12.1281 27.7278 11.1635 28.9067 11.1635H46.8917C48.0714 11.1635 49.036 12.1289 49.036 13.3078C49.036 14.4874 48.0714 15.452 46.8917 15.452Z" fill="#FCBD01"/>
<path opacity="0.2" d="M133.596 14.4836H120.977C120.328 14.4836 119.802 13.9567 119.802 13.3078C119.802 12.658 120.328 12.132 120.977 12.132H133.596C134.246 12.132 134.772 12.6588 134.772 13.3078C134.772 13.9575 134.246 14.4836 133.596 14.4836Z" fill="#FCBD01"/>
<path opacity="0.2" d="M161.913 14.4836H149.294C148.644 14.4836 148.118 13.9567 148.118 13.3078C148.118 12.658 148.645 12.132 149.294 12.132H161.913C162.563 12.132 163.089 12.6588 163.089 13.3078C163.089 13.9575 162.563 14.4836 161.913 14.4836Z" fill="#FCBD01"/>
<path opacity="0.2" d="M190.231 14.4836H177.611C176.961 14.4836 176.435 13.9567 176.435 13.3078C176.435 12.658 176.962 12.132 177.611 12.132H190.231C190.88 12.132 191.406 12.6588 191.406 13.3078C191.406 13.9575 190.88 14.4836 190.231 14.4836Z" fill="#FCBD01"/>
<path opacity="0.2" d="M218.547 14.4836H205.928C205.279 14.4836 204.752 13.9567 204.752 13.3078C204.752 12.658 205.279 12.132 205.928 12.132H218.547C219.197 12.132 219.723 12.6588 219.723 13.3078C219.723 13.9575 219.197 14.4836 218.547 14.4836Z" fill="#FCBD01"/>
<path opacity="0.7" d="M254.782 15.3837H235.691C234.545 15.3837 233.615 14.4544 233.615 13.3078C233.615 12.1611 234.545 11.2319 235.691 11.2319H254.782C255.929 11.2319 256.858 12.1611 256.858 13.3078C256.858 14.4544 255.929 15.3837 254.782 15.3837Z" fill="#FCBD01"/>
<path opacity="0.7" d="M159.989 155.738H124.221C121.78 155.738 119.801 153.759 119.801 151.317V150.349C119.801 147.907 121.78 145.928 124.221 145.928H159.989C162.43 145.928 164.409 147.907 164.409 150.349V151.317C164.41 153.759 162.43 155.738 159.989 155.738Z" fill="#FCBD01"/>
<path opacity="0.2" d="M254.507 102.116V64.7738C254.507 64.124 255.033 63.5979 255.682 63.5979C256.332 63.5979 256.858 64.1248 256.858 64.7738V102.116C256.858 102.766 256.332 103.292 255.682 103.292C255.033 103.292 254.507 102.765 254.507 102.116Z" fill="#FCBD01"/>
<path opacity="0.2" d="M255.682 113.945C256.332 113.945 256.858 113.419 256.858 112.769C256.858 112.12 256.332 111.593 255.682 111.593C255.033 111.593 254.507 112.12 254.507 112.769C254.507 113.419 255.033 113.945 255.682 113.945Z" fill="#FCBD01"/>
<path opacity="0.2" d="M255.682 130.547C256.332 130.547 256.858 130.02 256.858 129.371C256.858 128.722 256.332 128.195 255.682 128.195C255.033 128.195 254.507 128.722 254.507 129.371C254.507 130.02 255.033 130.547 255.682 130.547Z" fill="#FCBD01"/>
<path opacity="0.2" d="M255.682 147.149C256.332 147.149 256.858 146.622 256.858 145.973C256.858 145.323 256.332 144.797 255.682 144.797C255.033 144.797 254.507 145.323 254.507 145.973C254.507 146.622 255.033 147.149 255.682 147.149Z" fill="#FCBD01"/>
<path opacity="0.2" d="M220.208 66.4065H129.23C124.044 66.4065 119.801 62.1633 119.801 56.9778C119.801 51.7923 124.044 47.5491 129.23 47.5491H220.208C225.394 47.5491 229.637 51.7923 229.637 56.9778C229.637 62.1633 225.394 66.4065 220.208 66.4065Z" fill="#FCBD01"/>
<path opacity="0.2" d="M186.816 93.7796H129.23C124.045 93.7796 119.802 89.5364 119.802 84.3508C119.802 79.1653 124.045 74.9221 129.23 74.9221H186.816C192.001 74.9221 196.244 79.1653 196.244 84.3508C196.244 89.5372 192.001 93.7796 186.816 93.7796Z" fill="#FCBD01"/>
<path d="M203.772 115.83H122.006C120.794 115.83 119.802 114.838 119.802 113.625C119.802 112.413 120.794 111.421 122.006 111.421H203.772C204.985 111.421 205.977 112.413 205.977 113.625C205.976 114.838 204.984 115.83 203.772 115.83Z" fill="#EE1D52"/>
<path d="M222.984 115.83H214.62C213.407 115.83 212.415 114.838 212.415 113.625C212.415 112.413 213.407 111.421 214.62 111.421H222.984C224.197 111.421 225.189 112.413 225.189 113.625C225.189 114.838 224.197 115.83 222.984 115.83Z" fill="#EE1D52"/>
<path d="M158.023 120.545H193.177C194.39 120.545 195.382 121.537 195.382 122.75C195.382 123.963 194.39 124.955 193.177 124.955H158.023C156.81 124.955 155.818 123.963 155.818 122.75C155.818 121.537 156.81 120.545 158.023 120.545Z" fill="#EE1D52"/>
<path d="M122.006 120.545H147.175C148.387 120.545 149.38 121.537 149.38 122.75C149.38 123.963 148.387 124.955 147.175 124.955H122.006C120.794 124.955 119.802 123.963 119.802 122.75C119.801 121.537 120.793 120.545 122.006 120.545Z" fill="#EE1D52"/>
<path d="M171.532 134.08H122.006C120.793 134.08 119.801 133.087 119.801 131.875C119.801 130.662 120.793 129.67 122.006 129.67H171.532C172.744 129.67 173.737 130.662 173.737 131.875C173.737 133.087 172.744 134.08 171.532 134.08Z" fill="#EE1D52"/>
<path d="M207.548 134.08H182.38C181.167 134.08 180.175 133.087 180.175 131.875C180.175 130.662 181.167 129.67 182.38 129.67H207.548C208.761 129.67 209.753 130.662 209.753 131.875C209.754 133.087 208.762 134.08 207.548 134.08Z" fill="#EE1D52"/>
</svg>
